<svg width="544" height="733" viewBox="0 0 544 733" fill="none" xmlns="http://www.w3.org/2000/svg">
<g opacity="0.27">
<path d="M7.93848 550.308L271.114 703.247L536.009 550.31L272.831 397.371L7.93848 550.308Z" fill="#221E1F"/>
</g>
<path d="M34.9785 278.058L273.944 140.096L458.314 276.258L477.146 487.58L392.814 598.106L268.312 649.474L166.947 621.369C166.947 621.369 69.6225 499.051 65.8796 490.298C62.1378 481.547 34.9785 278.058 34.9785 278.058Z" fill="#35CDD2"/>
<path d="M303.774 461.68L296.695 649.474L477.147 538.442V358.194L303.774 461.68Z" fill="#25E8EB"/>
<path d="M273.333 248.739L275.822 250.187L320.987 224.112L318.496 222.664L273.333 248.739Z" fill="#196264"/>
<path d="M180.794 250.185L225.663 276.261L270.833 250.183L225.961 224.108L180.794 250.185Z" fill="#35CDD2"/>
<path d="M129.686 223.385L175.803 250.183L178.305 248.739L132.188 221.94L129.686 223.385Z" fill="#196264"/>
<path d="M225.961 224.108L270.833 250.183L273.333 248.739L228.463 222.663L225.961 224.108Z" fill="#196264"/>
<path d="M227.529 166.895L273.644 193.695L320.06 166.896L273.944 140.098L227.529 166.895Z" fill="#35CDD2"/>
<path d="M225.022 168.342L271.137 195.141L273.644 193.695L227.529 166.895L225.022 168.342Z" fill="#196264"/>
<path d="M273.645 193.695L276.135 195.141L322.549 168.344L320.06 166.896L273.645 193.695Z" fill="#196264"/>
<path d="M271.137 195.141L273.624 196.589L276.134 195.141L273.644 193.695L271.137 195.141Z" fill="#196264"/>
<path d="M179.858 194.417L225.974 221.217L271.137 195.141L225.022 168.342L179.858 194.417Z" fill="#35CDD2"/>
<path d="M276.134 195.141L321.003 221.217L367.42 194.418L322.548 168.344L276.134 195.141Z" fill="#35CDD2"/>
<path d="M177.358 195.862L223.472 222.661L225.974 221.217L179.859 194.417L177.358 195.862Z" fill="#196264"/>
<path d="M273.625 196.59L318.496 222.664L321.004 221.217L276.134 195.141L273.625 196.59Z" fill="#196264"/>
<path d="M321.004 221.217L323.493 222.664L369.909 195.865L367.421 194.418L321.004 221.217Z" fill="#196264"/>
<path d="M223.473 222.661L225.962 224.108L228.464 222.663L225.975 221.217L223.473 222.661Z" fill="#196264"/>
<path d="M318.496 222.664L320.987 224.112L323.493 222.664L321.004 221.217L318.496 222.664Z" fill="#196264"/>
<path d="M323.492 222.664L368.363 248.74L414.779 221.942L369.909 195.865L323.492 222.664Z" fill="#35CDD2"/>
<path d="M178.305 248.739L180.794 250.186L225.961 224.108L223.472 222.661L178.305 248.739Z" fill="#196264"/>
<path d="M320.987 224.112L365.857 250.187L368.364 248.74L323.493 222.664L320.987 224.112Z" fill="#196264"/>
<path d="M368.363 248.74L370.846 250.184L417.263 223.386L414.779 221.942L368.363 248.74Z" fill="#196264"/>
<path d="M175.803 250.183L178.29 251.63L180.794 250.186L178.305 248.739L175.803 250.183Z" fill="#196264"/>
<path d="M365.856 250.187L368.341 251.631L370.847 250.184L368.363 248.74L365.856 250.187Z" fill="#196264"/>
<path d="M275.822 250.187L320.694 276.263L365.857 250.187L320.987 224.112L275.822 250.187Z" fill="#35CDD2"/>
<path d="M370.847 250.184L415.722 276.263L462.141 249.464L417.263 223.386L370.847 250.184Z" fill="#35CDD2"/>
<path d="M82.0176 250.906L128.135 277.706L130.639 276.258L84.5245 249.46L82.0176 250.906Z" fill="#196264"/>
<path d="M130.639 276.258L133.128 277.706L178.29 251.63L175.802 250.183L130.639 276.258Z" fill="#196264"/>
<path d="M178.29 251.63L223.162 277.706L225.662 276.262L180.794 250.186L178.29 251.63Z" fill="#196264"/>
<path d="M225.662 276.262L228.152 277.709L273.321 251.631L270.833 250.183L225.662 276.262Z" fill="#196264"/>
<path d="M273.322 251.631L318.194 277.706L320.694 276.263L275.822 250.187L273.322 251.631Z" fill="#196264"/>
<path d="M320.694 276.263L323.179 277.706L368.341 251.631L365.857 250.187L320.694 276.263Z" fill="#196264"/>
<path d="M368.341 251.631L413.217 277.71L415.722 276.263L370.847 250.184L368.341 251.631Z" fill="#196264"/>
<path d="M415.722 276.263L418.207 277.706L464.624 250.908L462.141 249.464L415.722 276.263Z" fill="#196264"/>
<path d="M128.134 277.706L130.624 279.152L133.127 277.706L130.639 276.258L128.134 277.706Z" fill="#196264"/>
<path d="M223.162 277.706L225.652 279.153L228.152 277.709L225.662 276.262L223.162 277.706Z" fill="#196264"/>
<path d="M318.193 277.706L320.678 279.15L323.178 277.706L320.694 276.263L318.193 277.706Z" fill="#196264"/>
<path d="M413.218 277.71L415.704 279.153L418.208 277.706L415.723 276.263L413.218 277.71Z" fill="#196264"/>
<path d="M133.128 277.706L178 303.78L223.162 277.706L178.291 251.63L133.128 277.706Z" fill="#35CDD2"/>
<path d="M228.152 277.709L273.021 303.784L318.194 277.706L273.322 251.631L228.152 277.709Z" fill="#35CDD2"/>
<path d="M35.6006 277.704L81.7153 304.505L128.134 277.706L82.0172 250.906L35.6006 277.704Z" fill="#35CDD2"/>
<path d="M323.179 277.706L368.052 303.785L413.218 277.71L368.341 251.631L323.179 277.706Z" fill="#35CDD2"/>
<path d="M130.624 279.152L175.494 305.228L178 303.78L133.128 277.706L130.624 279.152Z" fill="#196264"/>
<path d="M178 303.78L180.489 305.228L225.653 279.153L223.163 277.706L178 303.78Z" fill="#196264"/>
<path d="M418.208 277.706L464.324 304.506L510.74 277.707L464.625 250.908L418.208 277.706Z" fill="#35CDD2"/>
<path d="M225.652 279.153L270.523 305.229L273.021 303.784L228.153 277.709L225.652 279.153Z" fill="#196264"/>
<path d="M273.021 303.784L275.509 305.228L320.679 279.15L318.194 277.706L273.021 303.784Z" fill="#196264"/>
<path d="M81.7148 304.505L84.206 305.95L130.624 279.152L128.134 277.706L81.7148 304.505Z" fill="#196264"/>
<path d="M320.678 279.15L365.552 305.229L368.051 303.785L323.178 277.706L320.678 279.15Z" fill="#196264"/>
<path d="M175.494 305.228L177.983 306.674L180.489 305.228L178 303.78L175.494 305.228Z" fill="#196264"/>
<path d="M415.704 279.153L461.817 305.952L464.323 304.506L418.208 277.706L415.704 279.153Z" fill="#196264"/>
<path d="M270.523 305.229L273.009 306.673L275.509 305.228L273.021 303.784L270.523 305.229Z" fill="#196264"/>
<path d="M365.553 305.229L368.037 306.673L370.537 305.229L368.052 303.785L365.553 305.229Z" fill="#196264"/>
<path d="M180.488 305.228L225.358 331.304L270.523 305.229L225.652 279.153L180.488 305.228Z" fill="#35CDD2"/>
<path d="M275.509 305.228L320.383 331.306L365.552 305.229L320.678 279.15L275.509 305.228Z" fill="#35CDD2"/>
<path d="M84.2061 305.95L129.076 332.026L175.494 305.228L130.624 279.152L84.2061 305.95Z" fill="#35CDD2"/>
<path d="M370.537 305.229L416.654 332.028L461.817 305.952L415.704 279.153L370.537 305.229Z" fill="#35CDD2"/>
<path d="M177.982 306.674L222.853 332.75L225.358 331.304L180.488 305.228L177.982 306.674Z" fill="#196264"/>
<path d="M225.358 331.304L227.843 332.748L273.009 306.673L270.523 305.229L225.358 331.304Z" fill="#196264"/>
<path d="M273.009 306.673L317.882 332.751L320.383 331.306L275.509 305.228L273.009 306.673Z" fill="#196264"/>
<path d="M320.383 331.306L322.868 332.751L368.037 306.673L365.552 305.229L320.383 331.306Z" fill="#196264"/>
<path d="M129.076 332.026L131.567 333.473L177.983 306.674L175.494 305.228L129.076 332.026Z" fill="#196264"/>
<path d="M368.037 306.673L414.152 333.47L416.654 332.028L370.537 305.229L368.037 306.673Z" fill="#196264"/>
<path d="M222.854 332.75L225.337 334.194L227.843 332.748L225.358 331.304L222.854 332.75Z" fill="#196264"/>
<path d="M317.882 332.751L320.366 334.195L322.869 332.751L320.383 331.306L317.882 332.751Z" fill="#196264"/>
<path d="M227.843 332.748L272.722 358.827L317.882 332.751L273.009 306.673L227.843 332.748Z" fill="#35CDD2"/>
<path d="M322.868 332.751L368.982 359.55L414.151 333.47L368.036 306.673L322.868 332.751Z" fill="#35CDD2"/>
<path d="M225.337 334.194L270.212 360.272L272.721 358.827L227.843 332.748L225.337 334.194Z" fill="#196264"/>
<path d="M272.722 358.827L275.201 360.27L320.366 334.195L317.882 332.751L272.722 358.827Z" fill="#196264"/>
<path d="M176.436 359.549L178.921 360.993L225.337 334.194L222.853 332.75L176.436 359.549Z" fill="#196264"/>
<path d="M320.366 334.195L366.483 360.994L368.982 359.55L322.869 332.751L320.366 334.195Z" fill="#196264"/>
<path d="M270.212 360.272L272.697 361.716L275.201 360.27L272.721 358.827L270.212 360.272Z" fill="#196264"/>
<path d="M178.921 360.993L223.796 387.073L270.212 360.272L225.336 334.194L178.921 360.993Z" fill="#35CDD2"/>
<path d="M275.201 360.27L321.318 387.071L366.483 360.994L320.366 334.195L275.201 360.27Z" fill="#35CDD2"/>
<path d="M223.797 387.073L226.281 388.515L272.698 361.716L270.212 360.272L223.797 387.073Z" fill="#196264"/>
<path d="M272.697 361.716L318.813 388.515L321.318 387.071L275.201 360.27L272.697 361.716Z" fill="#196264"/>
<path d="M226.281 388.515L272.397 415.313L318.814 388.515L272.698 361.716L226.281 388.515Z" fill="#35CDD2"/>
<path d="M84.5244 249.46L130.639 276.258L175.803 250.183L129.686 223.385L84.5244 249.46Z" fill="#35CDD2"/>
<path d="M368.052 303.785L370.537 305.229L415.704 279.153L413.218 277.71L368.052 303.785Z" fill="#196264"/>
<path d="M270.833 250.183L273.322 251.631L275.822 250.187L273.333 248.739L270.833 250.183Z" fill="#196264"/>
<path d="M225.975 221.217L228.463 222.663L273.625 196.59L271.137 195.141L225.975 221.217Z" fill="#196264"/>
<path d="M416.07 332.38L416.221 385.719L461.384 359.641L461.235 306.304L416.07 332.38Z" fill="#25E8EB"/>
<path d="M461.235 306.304L461.385 359.641L463.89 358.194L463.741 304.858L461.235 306.304Z" fill="#196264"/>
<path d="M461.393 362.521L461.542 414.417L464.045 412.97L463.898 361.074L461.393 362.521Z" fill="#196264"/>
<path d="M416.221 385.719L416.231 388.596L461.392 362.52L461.384 359.641L416.221 385.719Z" fill="#196264"/>
<path d="M463.891 358.194L463.899 361.074L510.315 334.274L510.308 331.395L463.891 358.194Z" fill="#196264"/>
<path d="M461.385 359.641L461.393 362.52L463.899 361.074L463.891 358.194L461.385 359.641Z" fill="#196264"/>
<path d="M463.741 304.858L463.89 358.194L510.308 331.395L510.157 278.058L463.741 304.858Z" fill="#25E8EB"/>
<path d="M414.194 554.363L414.348 607.699L416.849 606.256L416.698 552.918L414.194 554.363Z" fill="#196264"/>
<path d="M414.187 551.488L414.194 554.363L416.698 552.918L416.687 550.046L414.187 551.488Z" fill="#196264"/>
<path d="M369.016 577.569L369.026 580.44L414.194 554.363L414.186 551.488L369.016 577.569Z" fill="#196264"/>
<path d="M368.401 359.902L368.554 413.239L413.721 387.162L413.568 333.824L368.401 359.902Z" fill="#25E8EB"/>
<path d="M368.563 416.116L368.709 468.016L413.878 441.936L413.731 390.04L368.563 416.116Z" fill="#25E8EB"/>
<path d="M366.061 417.563L366.206 469.457L368.709 468.016L368.563 416.117L366.061 417.563Z" fill="#196264"/>
<path d="M368.554 413.239L368.563 416.116L413.73 390.04L413.721 387.161L368.554 413.239Z" fill="#196264"/>
<path d="M366.053 414.683L366.061 417.563L368.563 416.116L368.554 413.239L366.053 414.683Z" fill="#196264"/>
<path d="M464.366 525.396L464.519 578.732L510.934 551.933L510.783 498.597L464.366 525.396Z" fill="#25E8EB"/>
<path d="M461.858 526.842L462.011 580.18L464.518 578.732L464.365 525.396L461.858 526.842Z" fill="#196264"/>
<path d="M464.357 522.525L464.365 525.396L510.782 498.597L510.773 495.725L464.357 522.525Z" fill="#196264"/>
<path d="M461.853 523.97L461.859 526.842L464.366 525.396L464.358 522.525L461.853 523.97Z" fill="#196264"/>
<path d="M416.698 552.918L416.85 606.256L462.011 580.18L461.859 526.842L416.698 552.918Z" fill="#25E8EB"/>
<path d="M464.212 470.618L464.358 522.525L510.773 495.725L510.629 443.822L464.212 470.618Z" fill="#25E8EB"/>
<path d="M416.688 550.046L416.699 552.918L461.859 526.842L461.852 523.97L416.688 550.046Z" fill="#196264"/>
<path d="M461.705 472.067L461.852 523.97L464.358 522.525L464.212 470.618L461.705 472.067Z" fill="#196264"/>
<path d="M416.541 498.142L416.687 550.046L461.852 523.97L461.705 472.067L416.541 498.142Z" fill="#25E8EB"/>
<path d="M416.532 495.271L416.541 498.142L461.705 472.067L461.698 469.193L416.532 495.271Z" fill="#196264"/>
<path d="M461.542 414.417L461.551 417.296L464.055 415.848L464.046 412.969L461.542 414.417Z" fill="#196264"/>
<path d="M416.388 443.372L416.532 495.271L461.698 469.193L461.551 417.296L416.388 443.372Z" fill="#25E8EB"/>
<path d="M413.887 444.817L414.034 496.711L416.533 495.271L416.388 443.372L413.887 444.817Z" fill="#196264"/>
<path d="M416.379 440.493L416.388 443.372L461.552 417.296L461.543 414.417L416.379 440.493Z" fill="#196264"/>
<path d="M413.877 441.936L413.886 444.817L416.387 443.372L416.378 440.493L413.877 441.936Z" fill="#196264"/>
<path d="M368.709 468.016L368.717 470.895L413.886 444.817L413.877 441.936L368.709 468.016Z" fill="#196264"/>
<path d="M464.046 412.969L464.055 415.848L510.473 389.051L510.466 386.171L464.046 412.969Z" fill="#196264"/>
<path d="M463.898 361.074L464.045 412.969L510.465 386.171L510.315 334.274L463.898 361.074Z" fill="#25E8EB"/>
<path d="M461.698 469.193L461.705 472.067L464.212 470.618L464.203 467.746L461.698 469.193Z" fill="#196264"/>
<path d="M461.551 417.296L461.698 469.193L464.202 467.746L464.054 415.849L461.551 417.296Z" fill="#196264"/>
<path d="M464.202 467.746L464.211 470.618L510.628 443.822L510.62 440.948L464.202 467.746Z" fill="#196264"/>
<path d="M464.055 415.848L464.203 467.746L510.621 440.947L510.472 389.051L464.055 415.848Z" fill="#25E8EB"/>
<path d="M321.197 550.311L321.206 553.184L366.369 527.109L366.36 524.235L321.197 550.311Z" fill="#196264"/>
<path d="M414.033 496.711L414.041 499.587L416.541 498.142L416.532 495.271L414.033 496.711Z" fill="#196264"/>
<path d="M368.864 522.791L368.871 525.665L414.04 499.587L414.032 496.711L368.864 522.791Z" fill="#196264"/>
<path d="M366.359 524.235L366.368 527.109L368.871 525.665L368.864 522.791L366.359 524.235Z" fill="#196264"/>
<path d="M366.215 472.338L366.36 524.235L368.864 522.791L368.716 470.895L366.215 472.338Z" fill="#196264"/>
<path d="M321.05 498.416L321.197 550.311L366.359 524.235L366.215 472.338L321.05 498.416Z" fill="#25E8EB"/>
<path d="M368.717 470.895L368.865 522.79L414.033 496.711L413.886 444.817L368.717 470.895Z" fill="#25E8EB"/>
<path d="M414.041 499.587L414.187 551.488L416.687 550.046L416.541 498.142L414.041 499.587Z" fill="#196264"/>
<path d="M366.518 579.01L366.527 581.886L369.027 580.441L369.017 577.569L366.518 579.01Z" fill="#196264"/>
<path d="M368.872 525.665L369.017 577.569L414.187 551.488L414.041 499.587L368.872 525.665Z" fill="#25E8EB"/>
<path d="M366.369 527.109L366.517 579.01L369.016 577.569L368.872 525.665L366.369 527.109Z" fill="#196264"/>
<path d="M318.229 388.867L318.381 442.205L320.887 440.759L320.737 387.422L318.229 388.867Z" fill="#196264"/>
<path d="M271.964 469.002L271.973 471.882L318.392 445.084L318.382 442.205L271.964 469.002Z" fill="#196264"/>
<path d="M318.382 442.205L318.392 445.084L320.897 443.639L320.888 440.759L318.382 442.205Z" fill="#196264"/>
<path d="M320.888 440.759L320.897 443.639L366.06 417.563L366.053 414.683L320.888 440.759Z" fill="#196264"/>
<path d="M365.901 361.347L366.053 414.683L368.554 413.239L368.402 359.901L365.901 361.347Z" fill="#196264"/>
<path d="M320.737 387.421L320.888 440.758L366.053 414.683L365.901 361.347L320.737 387.421Z" fill="#25E8EB"/>
<path d="M272.438 636.205L272.589 689.541L319.007 662.743L318.857 609.407L272.438 636.205Z" fill="#25E8EB"/>
<path d="M272.43 633.332L272.439 636.205L318.858 609.407L318.847 606.532L272.43 633.332Z" fill="#196264"/>
<path d="M318.857 609.407L319.007 662.743L321.515 661.298L321.361 607.961L318.857 609.407Z" fill="#196264"/>
<path d="M366.526 581.886L366.677 635.22L369.179 633.779L369.027 580.44L366.526 581.886Z" fill="#196264"/>
<path d="M321.361 607.961L321.515 661.298L366.677 635.22L366.526 581.886L321.361 607.961Z" fill="#25E8EB"/>
<path d="M321.354 605.086L321.361 607.961L366.526 581.886L366.517 579.01L321.354 605.086Z" fill="#196264"/>
<path d="M318.848 606.532L318.858 609.407L321.361 607.961L321.353 605.086L318.848 606.532Z" fill="#196264"/>
<path d="M369.026 580.441L369.179 633.779L414.348 607.699L414.195 554.363L369.026 580.441Z" fill="#25E8EB"/>
<path d="M272.128 526.66L272.275 578.554L318.693 551.757L318.547 499.86L272.128 526.66Z" fill="#25E8EB"/>
<path d="M318.692 551.757L318.7 554.631L321.206 553.184L321.197 550.311L318.692 551.757Z" fill="#196264"/>
<path d="M318.7 554.631L318.847 606.532L321.353 605.086L321.206 553.184L318.7 554.631Z" fill="#196264"/>
<path d="M272.274 578.554L272.283 581.431L318.7 554.631L318.692 551.757L272.274 578.554Z" fill="#196264"/>
<path d="M272.284 581.431L272.43 633.332L318.848 606.532L318.701 554.631L272.284 581.431Z" fill="#25E8EB"/>
<path d="M271.813 415.669L271.964 469.002L318.382 442.205L318.229 388.867L271.813 415.669Z" fill="#25E8EB"/>
<path d="M318.547 499.86L318.693 551.757L321.197 550.311L321.05 498.416L318.547 499.86Z" fill="#196264"/>
<path d="M272.12 523.779L272.128 526.66L318.547 499.86L318.538 496.98L272.12 523.779Z" fill="#196264"/>
<path d="M318.537 496.98L318.546 499.86L321.05 498.416L321.042 495.534L318.537 496.98Z" fill="#196264"/>
<path d="M318.392 445.084L318.537 496.98L321.042 495.534L320.896 443.639L318.392 445.084Z" fill="#196264"/>
<path d="M271.973 471.883L272.12 523.779L318.537 496.98L318.392 445.084L271.973 471.883Z" fill="#25E8EB"/>
<path d="M413.729 390.04L413.877 441.936L416.378 440.493L416.231 388.596L413.729 390.04Z" fill="#196264"/>
<path d="M413.721 387.161L413.73 390.04L416.231 388.596L416.221 385.719L413.721 387.161Z" fill="#196264"/>
<path d="M413.568 333.824L413.721 387.162L416.221 385.719L416.071 332.38L413.568 333.824Z" fill="#196264"/>
<path d="M366.206 469.457L366.215 472.338L368.716 470.895L368.709 468.016L366.206 469.457Z" fill="#196264"/>
<path d="M321.042 495.534L321.05 498.416L366.215 472.338L366.206 469.457L321.042 495.534Z" fill="#196264"/>
<path d="M34.3622 495.725L34.3555 498.597L80.7721 525.396L80.7778 522.525L34.3622 495.725Z" fill="#196264"/>
<path d="M34.5167 440.948L34.5088 443.822L80.9243 470.618L80.9311 467.746L34.5167 440.948Z" fill="#196264"/>
<path d="M80.7781 522.525L80.7725 525.396L83.2738 526.84L83.2805 523.966L80.7781 522.525Z" fill="#196264"/>
<path d="M83.2738 526.84L83.1211 580.176L128.29 606.256L128.441 552.918L83.2738 526.84Z" fill="#70C2C3"/>
<path d="M34.5093 443.822L34.3623 495.725L80.7778 522.525L80.9248 470.618L34.5093 443.822Z" fill="#70C2C3"/>
<path d="M128.44 552.918L128.29 606.256L130.789 607.699L130.941 554.363L128.44 552.918Z" fill="#196264"/>
<path d="M83.2802 523.965L83.2734 526.84L128.441 552.918L128.448 550.046L83.2802 523.965Z" fill="#196264"/>
<path d="M80.9243 470.618L80.7773 522.525L83.2798 523.965L83.4256 472.064L80.9243 470.618Z" fill="#196264"/>
<path d="M128.448 550.046L128.44 552.918L130.941 554.363L130.95 551.488L128.448 550.046Z" fill="#196264"/>
<path d="M80.9316 467.746L80.9248 470.618L83.4261 472.065L83.4352 469.191L80.9316 467.746Z" fill="#196264"/>
<path d="M130.941 554.363L130.789 607.699L175.954 633.774L176.104 580.436L130.941 554.363Z" fill="#70C2C3"/>
<path d="M83.4261 472.065L83.2803 523.966L128.449 550.046L128.596 498.142L83.4261 472.065Z" fill="#70C2C3"/>
<path d="M176.104 580.436L175.954 633.774L178.46 635.223L178.61 581.886L176.104 580.436Z" fill="#196264"/>
<path d="M130.949 551.488L130.94 554.363L176.104 580.436L176.112 577.565L130.949 551.488Z" fill="#196264"/>
<path d="M128.595 498.142L128.448 550.046L130.95 551.488L131.095 499.587L128.595 498.142Z" fill="#196264"/>
<path d="M83.4348 469.191L83.4258 472.064L128.595 498.142L128.604 495.271L83.4348 469.191Z" fill="#196264"/>
<path d="M81.0798 415.851L80.9316 467.746L83.4352 469.191L83.5811 417.294L81.0798 415.851Z" fill="#196264"/>
<path d="M128.605 495.271L128.596 498.142L131.096 499.587L131.105 496.711L128.605 495.271Z" fill="#196264"/>
<path d="M81.0891 412.969L81.0801 415.851L83.5814 417.294L83.5904 414.414L81.0891 412.969Z" fill="#196264"/>
<path d="M131.096 499.587L130.95 551.488L176.113 577.565L176.261 525.663L131.096 499.587Z" fill="#70C2C3"/>
<path d="M83.5814 417.294L83.4355 469.191L128.605 495.271L128.751 443.372L83.5814 417.294Z" fill="#70C2C3"/>
<path d="M34.821 334.274L34.6729 386.171L81.0884 412.969L81.2365 361.074L34.821 334.274Z" fill="#70C2C3"/>
<path d="M131.105 496.711L131.096 499.587L176.261 525.663L176.267 522.786L131.105 496.711Z" fill="#196264"/>
<path d="M128.75 443.372L128.604 495.271L131.105 496.711L131.252 444.817L128.75 443.372Z" fill="#196264"/>
<path d="M81.237 361.074L81.0889 412.97L83.5902 414.414L83.7383 362.518L81.237 361.074Z" fill="#196264"/>
<path d="M34.8269 331.395L34.8213 334.274L81.2368 361.074L81.2436 358.194L34.8269 331.395Z" fill="#196264"/>
<path d="M176.268 522.786L176.261 525.663L178.768 527.109L178.774 524.235L176.268 522.786Z" fill="#196264"/>
<path d="M81.2441 358.194L81.2373 361.074L83.7386 362.518L83.7466 359.639L81.2441 358.194Z" fill="#196264"/>
<path d="M131.252 444.817L131.104 496.711L176.267 522.786L176.417 470.893L131.252 444.817Z" fill="#70C2C3"/>
<path d="M178.774 524.235L178.768 527.109L223.929 553.184L223.938 550.311L178.774 524.235Z" fill="#196264"/>
<path d="M34.9798 278.058L34.8271 331.395L81.2438 358.194L81.3942 304.858L34.9798 278.058Z" fill="#70C2C3"/>
<path d="M176.418 470.893L176.268 522.786L178.775 524.235L178.923 472.338L176.418 470.893Z" fill="#196264"/>
<path d="M131.259 441.936L131.252 444.817L176.418 470.893L176.425 468.012L131.259 441.936Z" fill="#196264"/>
<path d="M128.904 388.597L128.761 440.493L131.259 441.936L131.406 390.041L128.904 388.597Z" fill="#196264"/>
<path d="M83.7462 359.639L83.7383 362.518L128.904 388.596L128.916 385.719L83.7462 359.639Z" fill="#196264"/>
<path d="M223.938 550.311L223.929 553.184L226.435 554.631L226.444 551.757L223.938 550.311Z" fill="#196264"/>
<path d="M176.425 468.012L176.418 470.893L178.923 472.338L178.929 469.459L176.425 468.012Z" fill="#196264"/>
<path d="M128.916 385.719L128.904 388.597L131.406 390.04L131.415 387.162L128.916 385.719Z" fill="#196264"/>
<path d="M178.923 472.338L178.774 524.235L223.938 550.311L224.083 498.416L178.923 472.338Z" fill="#70C2C3"/>
<path d="M131.406 390.041L131.259 441.936L176.425 468.012L176.572 416.114L131.406 390.041Z" fill="#70C2C3"/>
<path d="M226.435 554.631L226.288 606.532L272.705 633.332L272.853 581.431L226.435 554.631Z" fill="#70C2C3"/>
<path d="M83.8976 306.302L83.7461 359.639L128.915 385.719L129.066 332.38L83.8976 306.302Z" fill="#70C2C3"/>
<path d="M224.082 498.416L223.938 550.311L226.443 551.757L226.591 499.86L224.082 498.416Z" fill="#196264"/>
<path d="M178.93 469.459L178.923 472.338L224.083 498.416L224.094 495.534L178.93 469.459Z" fill="#196264"/>
<path d="M176.572 416.114L176.425 468.012L178.929 469.459L179.078 417.563L176.572 416.114Z" fill="#196264"/>
<path d="M131.414 387.161L131.405 390.04L176.571 416.114L176.579 413.236L131.414 387.161Z" fill="#196264"/>
<path d="M226.444 551.757L226.435 554.631L272.852 581.431L272.859 578.554L226.444 551.757Z" fill="#196264"/>
<path d="M224.094 495.534L224.083 498.416L226.592 499.861L226.599 496.98L224.094 495.534Z" fill="#196264"/>
<path d="M176.579 413.236L176.571 416.114L179.077 417.563L179.083 414.683L176.579 413.236Z" fill="#196264"/>
<path d="M179.078 417.563L178.93 469.459L224.095 495.534L224.24 443.639L179.078 417.563Z" fill="#70C2C3"/>
<path d="M226.591 499.861L226.443 551.757L272.859 578.554L273.009 526.66L226.591 499.861Z" fill="#70C2C3"/>
<path d="M131.567 333.824L131.415 387.162L176.58 413.236L176.731 359.899L131.567 333.824Z" fill="#70C2C3"/>
<path d="M224.24 443.639L224.094 495.534L226.598 496.98L226.747 445.084L224.24 443.639Z" fill="#196264"/>
<path d="M179.083 414.683L179.077 417.563L224.24 443.639L224.249 440.759L179.083 414.683Z" fill="#196264"/>
<path d="M226.599 496.98L226.592 499.86L273.01 526.66L273.015 523.779L226.599 496.98Z" fill="#196264"/>
<path d="M176.731 359.899L176.579 413.236L179.083 414.683L179.235 361.347L176.731 359.899Z" fill="#196264"/>
<path d="M224.249 440.759L224.24 443.639L226.747 445.084L226.755 442.205L224.249 440.759Z" fill="#196264"/>
<path d="M226.747 445.084L226.599 496.98L273.015 523.779L273.162 471.883L226.747 445.084Z" fill="#70C2C3"/>
<path d="M179.236 361.347L179.083 414.683L224.249 440.759L224.4 387.422L179.236 361.347Z" fill="#70C2C3"/>
<path d="M226.755 442.205L226.747 445.084L273.163 471.883L273.17 469.002L226.755 442.205Z" fill="#196264"/>
<path d="M224.401 387.422L224.249 440.759L226.755 442.205L226.904 388.867L224.401 387.422Z" fill="#196264"/>
<path d="M226.904 388.867L226.755 442.205L273.17 469.002L273.323 415.669L226.904 388.867Z" fill="#70C2C3"/>
<path d="M178.609 581.886L178.459 635.223L223.62 661.298L223.773 607.961L178.609 581.886Z" fill="#70C2C3"/>
<path d="M223.773 607.961L223.62 661.298L226.13 662.743L226.28 609.407L223.773 607.961Z" fill="#196264"/>
<path d="M226.287 606.532L226.28 609.407L272.697 636.205L272.704 633.332L226.287 606.532Z" fill="#196264"/>
<path d="M226.28 609.407L226.131 662.743L272.545 689.541L272.697 636.205L226.28 609.407Z" fill="#70C2C3"/>
<path d="M34.6731 386.171L34.6641 389.051L81.0796 415.851L81.0886 412.969L34.6731 386.171Z" fill="#196264"/>
<path d="M34.6636 389.051L34.5166 440.947L80.931 467.746L81.0791 415.851L34.6636 389.051Z" fill="#70C2C3"/>
<path d="M34.3551 498.597L34.2002 551.933L80.618 578.732L80.7718 525.396L34.3551 498.597Z" fill="#70C2C3"/>
<path d="M80.772 525.396L80.6182 578.732L83.1206 580.176L83.2733 526.84L80.772 525.396Z" fill="#196264"/>
<path d="M81.3936 304.858L81.2432 358.194L83.7456 359.639L83.8971 306.302L81.3936 304.858Z" fill="#196264"/>
<path d="M129.065 332.38L128.915 385.719L131.414 387.162L131.566 333.824L129.065 332.38Z" fill="#196264"/>
<path d="M176.112 577.565L176.104 580.436L178.61 581.886L178.619 579.01L176.112 577.565Z" fill="#196264"/>
<path d="M176.26 525.663L176.112 577.565L178.619 579.01L178.767 527.109L176.26 525.663Z" fill="#196264"/>
<path d="M178.619 579.01L178.61 581.886L223.774 607.961L223.782 605.086L178.619 579.01Z" fill="#196264"/>
<path d="M223.781 605.086L223.773 607.961L226.28 609.407L226.287 606.532L223.781 605.086Z" fill="#196264"/>
<path d="M223.928 553.184L223.781 605.086L226.287 606.532L226.434 554.631L223.928 553.184Z" fill="#196264"/>
<path d="M83.5901 414.413L83.5811 417.294L128.75 443.372L128.761 440.493L83.5901 414.413Z" fill="#196264"/>
<path d="M128.76 440.493L128.75 443.372L131.251 444.817L131.258 441.936L128.76 440.493Z" fill="#196264"/>
<path d="M323.616 207.113L323.735 222.565L368.777 248.739L368.657 233.288L323.616 207.113Z" fill="#269497"/>
<path d="M368.656 233.288L368.776 248.739L414.112 222.566L413.991 207.114L368.656 233.288Z" fill="#196264"/>
<path d="M323.616 207.113L368.657 233.288L413.991 207.114L368.951 180.939L323.616 207.113Z" fill="#398284"/>
<path d="M365.089 521.113L321.038 495.735L320.888 443.693L364.943 469.068L365.089 521.113Z" fill="#196264"/>
<path d="M364.943 469.068L320.888 443.693L366.179 417.544L410.234 442.92L364.943 469.068Z" fill="#2B7B7D"/>
<path d="M410.234 442.92L410.38 494.964L365.089 521.112L364.943 469.068L410.234 442.92Z" fill="#269497"/>
<path d="M387.304 588.359L369.179 577.777L369.026 525.736L387.156 536.315L387.304 588.359Z" fill="#196264"/>
<path d="M387.156 536.315L369.026 525.736L414.32 499.587L432.448 510.168L387.156 536.315Z" fill="#2B7B7D"/>
<path d="M432.448 510.167L432.596 562.212L387.304 588.359L387.156 536.315L432.448 510.167Z" fill="#269497"/>
<path d="M441.629 455.237L416.38 440.546L416.231 388.503L441.481 403.192L441.629 455.237Z" fill="#196264"/>
<path d="M441.481 403.192L416.231 388.503L461.522 362.354L486.771 377.044L441.481 403.192Z" fill="#2B7B7D"/>
<path d="M486.771 377.044L486.92 429.086L441.629 455.237L441.48 403.191L486.771 377.044Z" fill="#269497"/>
<path d="M92.4678 461.68L128.874 440.524L129.023 388.482L92.6182 409.639L92.4678 461.68Z" fill="#196264"/>
<path d="M92.6185 409.639L129.023 388.482L83.7305 362.333L47.3281 383.49L92.6185 409.639Z" fill="#398284"/>
<path d="M47.328 383.49L47.1787 435.531L92.468 461.68L92.6183 409.639L47.328 383.49Z" fill="#269497"/>
<path d="M198.531 619.894L223.781 605.206L223.928 553.164L198.678 567.852L198.531 619.894Z" fill="#196264"/>
<path d="M198.679 567.852L223.928 553.164L178.638 527.014L153.39 541.705L198.679 567.852Z" fill="#398284"/>
<path d="M153.389 541.705L153.241 593.746L198.532 619.894L198.679 567.852L153.389 541.705Z" fill="#269497"/>
<path opacity="0.2" d="M33.7606 723.206C31.3871 724.676 32.9985 726.506 39.8545 730.062C53.684 737.232 72.8633 722.953 86.5741 716.859C100.286 710.763 98.5085 721.428 108.411 721.936C118.313 722.444 149.038 711.525 141.167 701.876C133.295 692.226 77.1784 696.29 33.7606 723.206Z" fill="#160B01"/>
<path d="M151.565 548.689C151.565 548.689 156.376 540.275 158.091 540.101C159.808 539.93 164.158 537.898 166.164 538.384C167.434 538.692 171.081 540.936 170.113 541.817C168.224 543.536 163.889 545.983 163.889 545.983C163.889 545.983 161.697 548.3 164.018 548.3C167.278 548.3 169.94 547.999 169.94 547.999C169.94 547.999 172.857 549.544 169.94 550.232C167.021 550.919 163.588 552.808 163.588 552.808C163.588 552.808 160.323 555.042 158.091 553.322C155.861 551.607 151.565 548.689 151.565 548.689Z" fill="#FFE1CC"/>
<path d="M122.979 693.418C122.979 693.418 124.581 694.851 127.436 694.634C129.201 694.5 134.881 693.599 134.881 693.599C137.7 693.145 141.253 693.059 142.541 695.583C142.541 695.583 143.119 696.872 143.148 697.336C143.24 698.929 141.956 699.941 140.369 701.078C140.369 701.078 137.486 703.15 134.881 704.452C131.515 706.136 129.519 706.6 126.842 706.95C126.842 706.95 123.448 707.33 122.138 707.704C120.692 708.114 121.238 709.101 121.464 710.506L117.206 713.039C112.773 714.959 108.526 711.691 108.351 710.611L107.264 703.825L108.441 699.757L122.979 693.418Z" fill="#231F20"/>
<path d="M123.693 707.027C124.967 706.794 128.737 706.404 132.279 704.923C135.626 703.527 140.606 699.886 140.606 699.886C142.01 698.878 143.071 697.537 142.919 696.607C143.044 696.942 143.161 697.294 143.17 697.492C143.268 699.086 141.98 700.096 140.398 701.235C140.398 701.235 137.513 703.306 134.908 704.607C131.54 706.292 129.542 706.755 126.868 707.105C126.868 707.105 123.001 707.65 122.86 707.668C121.965 707.786 121.184 708.258 121.212 708.414C121.221 708.335 121.338 707.452 123.693 707.027Z" fill="#383736"/>
<path d="M116.921 711.178L121.141 708.669C121.217 709.129 121.417 710.217 121.488 710.662L117.231 713.196C112.797 715.114 108.554 711.851 108.377 710.772L108.066 708.755C108.243 709.836 112.487 713.097 116.921 711.178Z" fill="#383736"/>
<path d="M158.062 549.379C160.469 552.991 158.943 556.155 158.207 556.621C151.685 560.748 142.684 568.028 137.622 571.446C132.063 575.206 117.797 588.451 117.797 588.451C117.797 588.451 102.234 596.502 98.1033 586.22C95.8123 580.515 104.936 574.43 109.454 571.507C113.007 569.21 123.693 562.333 129.176 558.943C134.811 555.457 152.196 546.511 152.196 546.511C152.196 546.511 156.406 546.897 158.062 549.379Z" fill="#282827"/>
<path d="M105.9 640.386C105.9 640.386 90.5971 670.362 83.2323 679.195C77.4573 686.119 48.8653 706.552 48.8653 706.552C48.8653 706.552 49.5732 705.124 43.0474 700.316C34.2239 693.815 36.0524 693.077 36.2084 692.87C36.2084 692.87 63.3338 673.254 68.1181 666.142C73.9745 657.446 84.6028 630.081 84.6028 630.081L105.9 640.386Z" fill="#2B2A2A"/>
<path d="M114.829 630.285L138.44 659.907C138.44 659.907 142.599 664.112 139.318 670.191C135.961 676.418 127.279 692.504 127.279 692.504C127.314 692.467 126.408 694.222 126.848 694.82C127.325 695.476 128.065 696.701 127.706 697.658C127.23 698.927 122.828 706.761 113.449 706.699C105.803 706.649 106.973 703.562 106.832 702.335C106.832 702.335 109.378 690.243 119.059 671.575C121.625 666.629 116.031 664.086 116.031 664.086L95.5953 651.378L93.1924 628.367L114.829 630.285Z" fill="#444443"/>
<path d="M135.09 594.365C136.037 604.152 120.42 620.483 118.95 629.397C118.231 633.752 125.076 642.049 125.076 642.049C124.352 643.598 106.607 654.044 97.743 653.522C91.9048 653.179 87.8667 653.091 80.9983 649.659C78.6067 648.461 74.8412 644.331 76.3621 641.072C76.3621 641.072 80.4849 622.867 85.2919 608.444C89.7551 595.05 97.6028 580.067 101.167 577.792C107.349 573.842 112.242 574.7 112.242 574.7C118.349 579.892 124.142 582.998 128.565 587.493C129.842 588.794 133.375 592.648 135.09 594.365Z" fill="#383736"/>
<path d="M112.372 575.992L115.723 563.685L128.908 568.728L125.363 582.551C125.314 582.624 112.372 575.992 112.372 575.992Z" fill="#FFE1CC"/>
<path d="M134.837 548.257L144.004 550.712L136.728 574.159C134.774 580.914 131.654 581.303 129.577 580.854C125.256 579.918 121.1 577.98 119.011 576.013C114.966 572.201 116.788 562.649 116.894 561.989L118.99 545.704L134.837 548.257Z" fill="#FFE1CC"/>
<path d="M142.595 547.032C146.151 549.473 144.067 555.165 144.067 555.165C144.091 555.01 139.617 558.708 139.589 558.917C139.573 559.021 135.916 566.771 135.916 566.771C135.751 567.693 134.231 568.771 133.865 567.285C133.459 565.628 134.801 564.728 134.303 563.82C133.795 562.895 131.964 562.207 129.056 566.93L127.245 570.684C124.582 574.798 120.809 574.267 118.245 573.107C118.245 573.107 114.849 571.417 113.789 569.824C113.272 569.044 112.663 561.032 112.271 558.603C110.815 549.582 116.862 533.919 133.873 541.762C138.457 543.876 142.595 547.032 142.595 547.032Z" fill="#BF9243"/>
<path d="M134.563 563.003C134.563 563.003 132.315 562.934 131.257 565.075C130.515 566.59 130.837 568.022 131.076 568.467C131.715 569.659 132.548 570.038 132.548 570.038C132.548 570.038 133.198 566.211 133.363 565.51C133.527 564.816 134.563 563.003 134.563 563.003Z" fill="#EFCFBD"/>
<path d="M135.329 562.835C135.329 562.835 136.461 562.976 135.383 564.442C134.301 565.904 133.941 566.837 133.749 567.735C133.578 568.558 133.336 571.07 133.336 571.07C133.336 571.07 132.449 571.967 132.036 570.339C131.842 569.561 131.871 568.152 132.227 566.398C132.368 565.686 133.942 562.587 135.329 562.835Z" fill="#FFE8D9"/>
<path d="M113.66 572.9C112.082 572.286 112.443 572.361 111.535 572.9C110.928 573.26 110.296 573.831 109.746 574.265C109.075 574.798 109.842 574.984 109.842 574.984C109.842 574.984 115.312 577.954 121.647 582.112C125.801 584.837 127.12 586.101 127.12 586.101L126.475 584.236C126.027 583.268 123.77 579.469 120.874 577.344C120.874 577.344 115.583 573.653 113.66 572.9Z" fill="#E4EFF4"/>
<path d="M48.6773 700.873C47.1609 696.373 44.2966 694.133 42.5348 693.276C40.5322 692.302 37.5378 691.586 35.8801 693.147C34.79 694.191 33.9295 696.782 40.1296 701.349C46.6543 706.156 46.6565 707.872 46.6565 707.872C47.4221 707.431 46.1895 708.465 48.8887 706.5C49.747 705.64 49.5955 703.6 48.6773 700.873Z" fill="#231F20"/>
<path d="M34.7627 696.41C34.7627 696.41 39.6556 693.859 42.3616 693.792C44.2444 693.743 44.2579 695.107 46.9978 698.944C48.7166 701.349 48.6296 709.292 48.3717 712.338C48.1614 714.827 48.8885 717.661 49.5749 717.661C51.21 717.661 53.0939 718.951 53.5247 720.411C54.1569 722.559 46.6891 724.714 46.6891 724.714C46.6891 724.714 42.2757 724.189 41.0748 723.329C39.8739 722.472 43.1351 711.137 40.9029 704.955C38.6718 698.772 37.5965 696.41 34.7627 696.41Z" fill="#231F20"/>
<path d="M32.9614 703.882C32.9614 703.882 32.0545 694.627 37.7277 695.831C42.8785 696.925 41.9772 704.91 41.9354 704.91C41.6007 704.91 43.0085 705.77 43.0085 705.857C43.0085 709.987 42.7801 716.769 43.0503 720.666C43.1487 722.075 43.4789 724.273 46.6553 724.702C46.6553 724.702 45.9598 724.901 44.8856 724.68C42.7224 724.236 37.8374 723.7 36.1808 722.556C34.9358 721.696 34.5626 719.787 34.4202 718.478C34.0334 714.913 34.4382 707.082 34.6339 704.781C34.6576 704.526 32.9614 703.882 32.9614 703.882Z" fill="#72726F"/>
<path d="M41.9342 704.91L32.958 703.848C32.9603 703.866 34.0696 704.476 34.5999 704.727L43.0232 705.86C43.022 705.877 41.8788 704.91 41.9342 704.91Z" fill="#91918D"/>
<path d="M176.895 566.718C176.895 566.718 175.094 564.144 175.35 562.212C175.608 560.279 174.836 556.674 174.322 556.417C173.807 556.158 177.154 553.324 177.671 557.06C178.198 560.886 179.601 560.279 179.601 560.279C179.601 560.279 182.179 559.252 185.526 557.189C188.873 555.128 193.511 557.448 193.511 557.448C193.511 557.448 198.814 561.791 198.017 562.213C195.828 563.372 192.093 564.401 189.903 567.235C187.012 570.977 183.335 570.583 183.335 570.583C183.335 570.583 183.335 570.714 181.146 569.811C178.956 568.909 176.895 566.718 176.895 566.718Z" fill="#FFE1CC"/>
<path d="M184.754 571.998C184.624 574.446 164.523 589.186 159.594 592.592C146.241 601.819 131.159 605.784 131.159 605.784C131.159 605.784 126.053 605.953 123.577 602.435C119.942 597.276 121.344 590.604 126.325 588.87C130.276 587.496 142.788 582.675 149.337 579.985C159.827 575.672 175.61 563.886 175.61 563.886C175.61 563.886 185.153 564.357 184.754 571.998Z" fill="#424241"/>
<path opacity="0.2" d="M481.913 635.22C487.015 645.233 527.304 635.92 535.513 625.63C543.722 615.34 521.066 609.008 521.066 609.008L510.933 619.32C510.933 619.32 476.81 625.208 481.913 635.22Z" fill="#160B01"/>
<path d="M470.933 428.961C471.671 428.696 474.021 428.851 474.904 429.205C475.102 429.283 475.438 429.229 475.828 429.102C477.065 428.931 481.067 427.471 482.78 423.958C483.144 423.208 484.796 420.174 484.224 417.676C483.722 415.476 482.149 408.242 480.873 408.089C478.555 407.806 475.75 410.781 476.229 413.061C476.52 414.453 476.6 420.956 476.486 422.331C476.351 423.978 476.388 424.784 475.536 425.371C475.276 425.51 474.975 425.608 474.633 425.627C473.833 425.679 472.005 425.136 470.983 425.795C469.086 427.022 470.198 428.548 470.198 428.548C470.198 428.548 470.483 429.116 470.933 428.961Z" fill="#CEAA86"/>
<path d="M455.022 436.025C455.022 436.025 456.278 431.761 455.218 429.659C453.559 426.374 453.498 423.062 453.498 423.062C453.498 423.062 452.869 422.598 451.921 422.756C450.943 422.923 450.299 424.655 450.616 426.167C451.487 430.34 448.888 424.872 448.022 423.8C446.359 421.729 444.074 420.045 442.369 420.06C439.915 420.08 438.161 425.451 440.063 428.329C441.463 430.455 443.182 433.54 443.391 433.957C445.083 437.354 446.188 440.393 446.675 441.089C449.568 445.209 454.259 438.145 455.022 436.025Z" fill="#EAC49B"/>
<path d="M479.268 426.22C478.017 427.684 475.119 429.652 475.119 429.652C475.119 429.652 479.04 435.263 479.582 435.904C482.668 439.51 492.662 452.586 497.056 456.529C502.23 461.17 514.445 471.855 514.445 471.855C514.445 471.855 527.685 483.049 532.975 473.747C535.914 468.591 533.178 464.037 526.25 459.092C522.924 456.717 505.894 444.699 505.894 444.699L483.303 422.718C483.303 422.718 481.713 423.364 479.268 426.22Z" fill="#282827"/>
<path d="M512.992 603.511C512.992 603.511 513.753 606.143 511.439 607.424C510.015 608.214 507.905 609.226 507.905 609.226C505.153 609.877 501.997 611.339 502.254 613.492C502.254 613.492 502.314 614.349 502.53 614.732C503.285 616.061 502.273 615.118 504.931 615.971C504.931 615.971 509.356 619.264 512.06 619.319C515.453 619.39 517.319 616.622 518.188 616.119C518.188 616.119 519.841 614.959 521.04 614.589C522.365 614.182 522.939 616.403 523.095 616.636C523.095 616.636 525.397 616.392 526.126 616.293C529.18 615.861 533.372 613.89 533.215 612.864C532.367 607.204 529.005 600.627 529.005 600.627L512.992 603.511Z" fill="#545454"/>
<path d="M519.496 614.835C518.396 615.296 515.997 617.86 512.344 618.405C509.287 618.864 505.118 615.657 505.118 615.657C503.853 615.376 502.693 614.851 502.326 614.031C502.404 614.364 502.53 614.692 502.593 614.87C503.073 616.175 504.486 616.377 505.687 616.611C505.687 616.611 508.521 621.083 511.201 620.806C514.661 620.456 518.819 618.688 519.777 617.545C520.215 617.016 520.953 615.227 521.257 614.893C521.629 614.464 522.08 614.711 522.143 614.848C522.087 614.792 521.528 613.98 519.496 614.835Z" fill="#383736"/>
<path d="M512.992 603.511C512.992 603.511 513.753 606.143 511.439 607.424C510.015 608.214 507.905 609.226 507.905 609.226C505.153 609.877 501.997 611.339 502.254 613.492C502.254 613.492 502.314 614.349 502.53 614.732C503.285 616.061 502.273 615.118 504.931 615.971C504.931 615.971 509.356 619.264 512.06 619.319C515.453 619.39 517.319 616.622 518.188 616.119C518.188 616.119 519.841 614.959 521.04 614.589C522.365 614.182 522.939 616.403 523.095 616.636C523.095 616.636 525.397 616.392 526.126 616.293C529.18 615.861 533.372 613.89 533.215 612.864C532.367 607.204 529.005 600.627 529.005 600.627L512.992 603.511Z" fill="#231F20"/>
<path d="M523.578 473.904L526.168 461.379L527.39 446.97L513.618 447.231L512.293 461.098C511.891 463.027 509.417 464.902 508.053 466.328L501.63 472.411C499.848 474.275 496.347 477.094 495.091 483.086L500.369 503.085L515.656 503.498L523.469 481.658C524.004 479.108 524.039 476.473 523.578 473.904Z" fill="#EAC49B"/>
<path d="M529.123 422.735L528.012 424.665L538.4 430.326L528.491 448.663C527.767 450.004 525.527 451.298 523.896 452.111L514.495 453.691L508.96 450.927C506.389 449.281 506.095 446.984 506.627 445.354C506.627 445.354 511.55 428.331 512.272 426.99C512.272 426.99 513.909 420.832 517.7 420.278C520.648 419.838 529.123 422.735 529.123 422.735Z" fill="#EAC49B"/>
<path d="M515.752 417.956C517.208 415.407 522.977 413.867 525.68 413.266C530.455 412.213 533.426 414.251 533.426 414.251C532.925 413.842 530.256 415.139 530.701 416.176C531.262 417.474 532.591 416.497 534.069 415.612C536.703 414.027 539.852 416.801 539.852 416.801C539.852 416.801 537.775 416.227 536.644 418.145C536.644 418.145 536.149 418.952 536.307 419.248C536.503 419.622 536.297 419.616 537.991 418.957C540.266 418.075 542.317 419.851 542.636 420.139C542.52 420.09 542.134 420.072 540.835 420.779C539.683 421.393 539.178 423.059 540.142 423.421C540.142 423.421 540.596 422.893 541.205 422.536C542.8 421.628 543.968 422.652 543.968 422.652C543.968 422.652 542.377 423.246 542.603 425.09C542.684 425.737 542.963 427.013 542.963 427.013C542.963 427.013 544.765 430.88 542.298 434.527L531.836 447.741L531.79 447.809C531.046 449.139 522.609 445.516 521.814 443.32C521.077 441.275 519.149 433.154 518.864 430.445C518.711 429.002 514.948 430.427 512.812 434.391C512.07 435.767 511.378 434.061 511.891 432.521C512.595 430.386 514.122 420.826 515.752 417.956Z" fill="#561F04"/>
<path d="M529.113 452.573C529.113 452.573 523.908 455.598 520.879 446.973C519.629 443.419 518.341 437.215 517.587 434.595C516.464 430.708 514.293 432.291 512.779 434.381C512.329 435.001 511.936 434.038 511.993 433.725C512.272 432.375 513.88 426.245 515.192 422.412C516.95 417.841 518.451 416.384 522.123 415.419C526.42 414.286 530.082 414.415 531.22 414.484C530.392 414.662 529.029 415.992 529.698 417.531C530.256 418.828 531.903 417.735 533.379 416.84C534.888 415.934 536.158 416.392 537.313 417.01C535.722 417.139 534.042 419.213 535.238 420.416C535.537 420.71 536.404 420.608 537.299 420.196C538.726 419.536 539.939 419.945 540.814 420.481C540.52 420.168 537.762 422.165 539.453 424.661C539.453 424.661 539.901 424.126 540.518 423.775C541.538 423.188 542.096 423.327 542.561 423.559C542.456 423.748 541.301 424.13 541.753 426.216C541.89 426.858 542.276 428.244 542.276 428.244C542.276 428.244 543.706 431.33 542.252 434.59C542.252 434.59 534.511 447.498 529.113 452.573Z" fill="#561F04"/>
<path d="M514.309 431.762C514.309 431.762 516.154 432.961 515.801 435.555C515.55 437.379 514.372 438.478 513.881 438.736C512.573 439.425 511.584 439.257 511.584 439.257C511.584 439.257 513.349 435.388 513.632 434.656C513.899 433.919 514.309 431.762 514.309 431.762Z" fill="#EABEA0"/>
<path d="M513.74 430.499C513.74 430.499 512.624 429.939 512.706 431.926C512.791 433.913 512.538 434.984 512.162 435.911C511.815 436.761 510.495 439.19 510.495 439.19C510.495 439.19 510.747 440.547 512.123 439.324C512.776 438.741 513.608 437.444 514.369 435.633C514.677 434.9 515.135 430.684 513.74 430.499Z" fill="#F7D1B5"/>
<path d="M499.403 611.637C499.403 611.637 498.825 616.194 497.271 618.519C496.187 620.147 490.584 622.635 490.584 622.635C488.101 623.902 481.334 624.987 481.771 627.721C481.771 627.721 481.732 629.01 481.977 629.388C482.821 630.695 484.744 630.809 486.652 630.791C486.652 630.791 489.716 631.047 492.521 630.573C496.142 629.967 499.356 629.495 501.664 628.225C501.664 628.225 505.058 625.656 506.386 625.656C506.929 625.656 507.845 626.123 508.476 627.36L511.388 627.161C515.989 626.123 517.451 621.1 516.967 620.154L512.256 610.92L499.403 611.637Z" fill="#231F20"/>
<path d="M503.905 626.349C503.095 626.745 500.728 628.675 496.47 629.525C492.998 630.221 485.778 629.991 485.778 629.991C484.378 630.005 481.969 629.227 481.918 629.328C481.857 629.442 482.26 630.7 482.488 630.815C482.488 630.815 487.692 632.361 496.47 631.154C500.112 630.658 500.572 629.911 502.434 628.675C502.434 628.675 505.659 626.361 505.766 626.274C506.147 625.975 506.96 625.717 507.031 625.86C506.973 625.798 506.364 625.153 503.905 626.349Z" fill="#383736"/>
<path d="M510.54 625.531L507.004 625.809C507.63 627.063 507.351 626.456 507.931 627.592L511.46 627.296C516.057 626.252 517.52 621.238 517.037 620.288L516.112 618.467C516.599 619.425 515.144 624.483 510.54 625.531Z" fill="#383736"/>
<path d="M509.916 529.357L512.736 611.94C512.736 611.94 515.152 609.021 523.196 610.162C528.565 610.919 532.096 607.17 532.217 605.907C532.217 605.907 526.826 574.986 526.04 564.429C525.309 554.638 524.691 520.954 524.691 520.954L509.916 529.357Z" fill="#2B2A2A"/>
<path d="M492.301 527.85C488.168 550.157 498.138 612.592 498.138 612.592C497.705 609.973 499.031 615.617 497.644 617.352C496.961 618.201 498.235 619.5 498.851 620.056C499.83 620.953 502.076 623.127 508.209 622.26C510.968 621.871 514.972 619.431 515.916 616.599C515.916 616.599 507.955 564.69 514.154 526.679C515.244 519.991 493.532 521.18 492.301 527.85Z" fill="#444443"/>
<path d="M527.198 460.966L526.853 457.941C526.839 457.83 526.782 457.731 526.691 457.666C526.601 457.601 526.488 457.578 526.38 457.601C525.275 457.835 522.17 458.466 519.061 458.848C516.591 459.15 513.936 459.162 512.698 459.147C512.255 459.142 511.84 459.367 511.602 459.741L507.424 466.316L508.863 467.501L527.198 460.966Z" fill="#E5E5E5"/>
<path d="M501.317 469.685C497.08 471.752 496.937 473.872 493.744 482.92C487.414 500.841 490.725 537.814 490.725 537.814C491.063 539.726 491.624 539.726 495.091 540.974C497.653 541.891 511.352 546.494 525.814 537.814C528.053 536.466 524.016 524.094 527.736 503.498L532.079 484.042C533.046 478.467 534.131 471.585 533.857 468.473C533.23 461.382 527.196 460.965 527.196 460.965C527.196 460.965 516.665 462.21 510.612 465.088C507.682 466.478 507.34 466.63 501.317 469.685Z" fill="#383736"/>
<path d="M526.127 616.293C529.181 615.861 533.373 613.89 533.215 612.864C533.155 612.452 533.077 612.043 532.995 611.638C532.123 612.21 529.893 613.607 528.071 614.113C525.674 614.786 523.037 614.975 522.249 615.021C522.743 615.593 523 616.495 523.097 616.637C523.097 616.637 525.397 616.392 526.127 616.293Z" fill="#383736"/>
<path d="M449.966 440.694C448.115 442.67 447.45 444.987 447.45 444.987C447.45 444.987 448.09 446.676 449.306 448.485C452.505 453.254 470.112 466.157 475.064 469.499C480.504 473.17 495.352 480.487 495.352 480.487C495.352 480.487 508.267 486.741 512.776 479.842C514.781 476.78 514.992 467.207 506.483 465.475C499.638 464.085 490.217 459.763 483.235 456.82C476.483 453.979 455.983 437.715 455.983 437.715C455.983 437.715 453.073 437.38 449.966 440.694Z" fill="#424241"/>
<path opacity="0.2" d="M321.883 319.081C324.752 318.784 341.857 320.341 357.694 316.921C373.532 313.501 402.503 308.283 398.903 313.862C395.303 319.44 394.225 326.458 374.069 324.299C353.914 322.139 331.781 331.856 318.824 333.117C305.865 334.377 304.426 320.879 321.883 319.081Z" fill="#160B01"/>
<path d="M310.689 320.239L314.819 322.487L315.014 318.9L310.689 320.239Z" fill="#282827"/>
<path d="M306.206 310.379L297.25 316.857C297.25 316.857 292.731 319.971 291.089 320.785C290.347 321.152 289.796 322.014 289.694 322.873C289.629 323.42 289.754 323.97 290.125 324.386C291.075 325.446 293.1 326.333 294.784 326.777C299.767 328.088 305.05 325.336 305.05 325.336C305.921 324.865 311.805 321.623 312.243 321.317C313.476 320.462 314.572 320.154 314.969 320.78C314.969 320.78 314.834 322.269 314.818 322.487L319.768 319.575C319.768 319.575 320.169 317.897 320.223 316.897L320.584 310.257L306.206 310.379Z" fill="#231F20"/>
<path d="M289.679 323.09C290.628 324.648 293.195 325.551 294.863 326.051C300.714 327.814 305.244 324.652 305.244 324.652C306.926 323.766 311.635 321.204 312.106 320.982C312.106 320.982 314.851 319.222 314.912 320.695C314.923 320.944 314.96 320.996 314.941 321.282C314.931 321.135 314.845 321.023 314.827 320.958C314.554 319.98 311.796 321.718 311.796 321.718C311.395 322.063 306.026 325.186 305.159 325.655C305.159 325.655 300.127 328.979 294.58 327.13C292.933 326.584 290.847 325.859 289.9 324.304C289.642 323.88 289.634 323.019 289.679 323.09Z" fill="#282827"/>
<path d="M314.912 320.694C314.912 320.694 317.243 319.603 318.035 319.266C319.884 318.483 320.135 317.858 320.135 317.858C320.135 317.858 319.889 319.746 319.812 319.718C319.812 319.718 319.728 320.244 318.663 320.78C317.7 321.266 314.818 322.485 314.818 322.485L314.912 320.694Z" fill="#282827"/>
<path d="M329.705 237.737C329.705 237.737 297.948 268.734 298.825 277.809C299.745 287.296 302.838 311.441 302.838 311.441C302.344 313.451 303.297 314.757 307.701 316.064C316.86 318.785 319.734 314.937 319.734 314.937C320.557 314.151 321.671 313.753 321.931 313.071C321.931 313.071 317.763 283.662 319.025 279.646C319.686 277.545 335.866 259.499 341.981 252.404C350.193 242.886 345.576 229.432 345.576 229.432L329.705 237.737Z" fill="#191918"/>
<path d="M396.77 286.527C396.77 286.527 399.596 286.241 402.585 288.642C403.117 289.074 404.267 290.469 404.038 292.26C403.808 294.052 402.737 297.564 402.737 297.564L401.587 298.066C401.587 298.066 402.43 304.325 401.971 307.19C401.514 310.056 396.018 314.978 393.555 316.657C391.874 317.802 389.957 317.445 389.957 317.445C389.957 317.445 384.26 316.177 383.913 315.681C383.542 315.148 383.074 313.889 384.143 312.456C385.213 311.023 388.046 306.73 388.2 304.661C388.339 302.745 386.513 299.64 386.513 299.64L396.77 286.527Z" fill="#191918"/>
<path d="M327.291 240.466C327.291 240.466 346.344 271.036 352.082 281.48C355.034 286.853 363.407 290.661 363.407 290.661C370.45 293.11 379.411 298.677 384.679 299.918C385.981 300.225 385.445 302.52 386.975 302.672C390.634 303.04 401.128 288.809 395.584 285.112C387.317 279.603 369.682 270.842 369.222 270.154C365.6 264.724 361.997 245.587 355.146 239.855C349.084 234.789 327.291 240.466 327.291 240.466Z" fill="#383736"/>
<path d="M227.76 292.496V332.652L272.921 358.827V318.672L227.76 292.496Z" fill="#269497"/>
<path d="M272.921 318.672V358.827L318.254 332.653V292.496L272.921 318.672Z" fill="#196264"/>
<path d="M227.76 292.496L272.921 318.672L318.255 292.496L273.095 266.322L227.76 292.496Z" fill="#398284"/>
<path d="M301.958 280.573C301.958 280.573 297.51 280.468 295.759 282.035C293.016 284.49 289.833 285.41 289.833 285.41C289.833 285.41 289.549 286.137 289.949 287.012C290.364 287.913 292.203 288.083 293.583 287.386C297.384 285.462 292.781 289.391 291.968 290.505C290.4 292.65 289.367 295.294 289.825 296.936C290.481 299.299 296.122 299.599 298.408 297.016C300.097 295.111 302.63 292.651 302.978 292.341C305.82 289.824 308.471 287.97 309.013 287.318C312.242 283.458 304.203 280.762 301.958 280.573Z" fill="#FFE1CC"/>
<path d="M277.739 275.247C280.992 274.631 282.218 275.536 282.218 275.536C282.218 275.536 285.627 270.281 287.759 261.443C291.069 247.769 300.503 221.269 300.503 221.269C300.503 221.269 303.777 212.648 297.628 209.078C295.64 207.923 292.078 206.712 289.749 208.242C287.958 209.422 284.394 212.067 283.79 215.979C283.169 220.012 277.381 239.58 274.554 252.262C273.182 258.41 269.433 277.884 269.433 277.884C269.433 277.884 275.677 275.639 277.739 275.247Z" fill="#191918"/>
<path d="M284.87 275.467C284.125 275.218 282.378 273.644 281.9 272.82C281.794 272.634 281.496 272.471 281.109 272.329C280.031 271.7 275.982 270.374 272.466 272.077C271.712 272.442 268.542 273.805 267.447 276.123C266.482 278.161 263.246 284.821 264.154 285.731C265.802 287.384 269.848 286.78 270.879 284.692C271.511 283.416 275.469 278.255 276.407 277.244C277.53 276.034 277.999 275.376 279.031 275.442C279.322 275.494 279.619 275.604 279.901 275.797C280.562 276.252 281.664 277.812 282.872 277.921C285.122 278.128 285.194 276.244 285.194 276.244C285.194 276.244 285.319 275.619 284.87 275.467Z" fill="#E8C5AC"/>
<path d="M310.702 202.633C310.702 202.633 303.903 200.657 300.761 202.003C297.614 203.354 290.656 210.918 290.656 210.918C290.656 210.918 296.388 223.761 295.583 223.897C291.596 224.566 312.94 238.06 312.94 238.06L315.157 220.713L310.702 202.633Z" fill="#EDEDED"/>
<path d="M299.8 216.253C306.48 213.782 304.05 205.656 301.905 201.04L289.961 195.896L288.016 208.517C288.016 208.517 292.367 212.122 294.164 212.412C297.57 212.962 299.8 216.253 299.8 216.253Z" fill="#E8C5AC"/>
<path d="M301.062 222.998C300.863 222.521 300.631 222.219 300.191 221.805L298.809 220.578L298.559 216.128L299.74 215.54L302.852 218.425L302.547 220.786C302.452 221.32 302.728 222.306 303.064 222.707L309.382 233.395L309.153 238.578C309.153 238.578 306.128 236.381 305.355 235.284C302.624 231.427 301.062 222.998 301.062 222.998Z" fill="#160B01"/>
<path d="M298.381 215.365C299.296 215.443 299.281 216.398 299.266 217.065L299.148 221.222C299.073 222.486 298.146 221.738 297.532 220.867L292.985 214.662C290.848 211.223 292.06 209.921 292.06 209.921C292.06 209.921 292.569 210.757 293.347 211.724C294.39 213.018 295.751 215.137 298.381 215.365Z" fill="white"/>
<path d="M301.092 200.607C301.092 200.607 302.231 201.115 302.751 204.023C303.828 210.029 299.305 214.957 299.305 214.957C298.807 215.657 299.05 215.966 299.923 217.026L303.37 220.723C304.21 221.737 304.701 221.249 304.831 220.504C304.831 220.504 306.664 213.793 307.037 211.7C307.917 206.78 306.332 203.932 303.503 201.251C302.315 200.121 301.092 200.607 301.092 200.607Z" fill="white"/>
<path d="M350.626 232.445C334.733 209.4 324.618 203.868 324.618 203.868C312.078 196.458 298.535 199.605 298.535 199.605L299.662 200.025C300.749 200.45 303.97 199.983 305.841 209.676C306.744 214.352 308.94 237.999 309.048 238.269C309.168 238.555 304.448 234.56 300.912 231.445C294.132 225.478 292.922 210.652 293.05 207.3C291.501 208.922 281.714 215.363 282.765 218.166C285.119 224.44 287.816 231.249 309.463 245.177C310.228 245.669 317.805 250.665 318.654 253.429C319.182 255.142 315.472 263.568 315.472 263.568C316.441 265.536 321.203 268.068 323.797 265.096C325.246 263.434 329.78 255.616 329.78 255.616C329.78 255.616 332.721 264.764 334.856 267.076C335.276 267.532 335.821 267.778 336.327 267.959C344.668 266.473 354.917 260.527 358.925 256.174C362.53 252.256 362.294 251.599 362.294 251.599C362.666 250.02 354.256 237.705 350.626 232.445Z" fill="#282827"/>
<path d="M328.326 251.288C322.169 245.482 317.439 240.732 315.676 238.58L314.968 239.16C316.75 241.342 321.509 246.125 327.694 251.955C328.787 252.985 329.365 254.452 329.628 256.047L329.782 255.616C329.782 255.616 330.121 256.049 330.653 256.718C330.434 254.644 329.779 252.658 328.326 251.288Z" fill="#383736"/>
<path d="M293.381 212.031L291.517 210.882C291.517 210.882 291.035 211.906 290.963 212.17C290.708 213.053 291.095 215.508 291.095 215.508L292.235 223.578C292.571 224.824 293.28 225.335 294.297 225.576L296.658 226.37L296.554 229.202C296.455 230.934 296.79 231.246 297.873 232.026C301.701 234.779 309.241 238.585 309.241 238.585C309.241 238.585 303.7 232.612 300.917 228.706C294.629 219.876 293.381 212.031 293.381 212.031Z" fill="#7A797A"/>
<path d="M298.662 199.662L302.693 199.167C302.693 199.167 308.394 199.003 309.844 203.665C310.136 204.602 310.738 207.475 310.738 207.475L312.286 215.027C312.834 216.683 312.636 217.492 311.633 218.284L308.201 221.235L311.277 222.979C312.286 223.516 312.316 224.198 311.969 225.21C308.373 235.724 309.589 239.922 309.589 239.922C309.589 239.922 306.864 236.384 305.58 221.746C305.256 218.012 305.258 212.793 304.992 208.431C304.646 202.749 298.662 199.662 298.662 199.662Z" fill="#7A797A"/>
<path d="M271.61 189.619C271.61 189.619 268.573 189.941 267.824 191.794C267.078 193.647 268.04 197.232 269.862 199.4C271.679 201.571 273.172 202.419 273.172 202.419L271.61 189.619Z" fill="#422D0D"/>
<path d="M288.278 195.298C285.347 196.18 285.864 199.091 285.864 199.091L287.636 204.972C287.636 204.972 288.164 206.207 289.333 206.104C291.1 205.94 291.384 204.267 291.65 202.442C291.666 202.336 291.904 199.687 291.916 199.529C292.129 197.278 291.049 194.465 288.278 195.298Z" fill="#FFE8D9"/>
<path d="M279.701 186.196L290.861 185.312L297.186 205.677C297.451 207.124 297.838 207.951 297.965 209.206C298.106 210.583 297.878 211.97 296.65 213.645C296.65 213.645 294.762 215.861 292.679 217.95C292.324 218.307 291.18 219.343 289.697 219.416C288.509 219.475 287.299 219.449 286.28 219.463C284.572 219.486 283.393 217.687 283.393 217.687L272.843 202.712C272.843 202.712 268.352 195.54 271.1 191.943C272.779 189.746 279.701 186.196 279.701 186.196Z" fill="#FFE1CC"/>
<path d="M268.095 191.396C266.769 194.417 269.821 195.892 273.501 197.088C273.93 197.226 283.03 199.221 283.238 199.055C283.368 198.95 283.385 195.789 284.364 195.727C286.406 195.6 286.946 196.371 288.06 197.999L289.923 200.953C290.421 201.913 291.322 202.764 292.107 202.758C293.122 202.75 292.672 202.357 292.698 202.032C292.698 202.032 291.937 197.785 294.597 197.381C296.869 197.041 297.551 199.567 297.5 199.866L301.62 201.677C301.849 201.53 301.86 200.787 301.831 200.489C301.768 199.867 301.659 197.434 301.506 195.351C300.296 178.842 286.077 171.958 274.504 181.108C269.766 184.854 268.095 191.396 268.095 191.396Z" fill="#775319"/>
<path d="M294.739 194.368C291.809 195.25 292.351 199.333 292.351 199.333L292.446 203.316C292.446 203.316 294.626 205.279 295.792 205.174C297.564 205.011 297.85 203.336 298.111 201.51C298.127 201.405 298.366 198.759 298.38 198.598C298.595 196.348 297.511 193.534 294.739 194.368Z" fill="#FFE1CC"/>
<path d="M303.147 285.46C304.951 286.239 309.892 285.426 309.892 285.426C309.892 285.426 310.571 284.602 311.413 283.225C315.501 276.552 319.915 261.974 322.616 254.01C326.581 242.312 328.555 221.449 328.555 221.449C328.714 220.482 327.961 213.174 325.032 210.791C320.354 206.978 312.964 207.512 311.758 214.023C310.137 222.786 309.65 235.864 307.047 247.498C304.877 257.188 298.003 280.986 298.003 280.986C298.003 280.986 298.97 283.648 303.147 285.46Z" fill="#383736"/>
<path opacity="0.27" d="M59.0594 630.428C55.9554 628.763 65.4924 625.69 56.5762 622.966C53.6033 622.055 38.1296 620.041 30.9615 620.949C21.317 622.178 4.55309 626.366 6.58512 635.508C8.35367 643.473 32.8239 649.449 57.0285 646.34C70.1603 644.658 77.3081 641.466 73.9564 636.861C71.6926 633.754 61.1163 631.533 59.0594 630.428Z" fill="#231F20"/>
<path d="M17.7076 615.841C17.7076 615.841 15.1452 617.995 15.1622 621.865C15.1803 625.733 15.3092 626.769 16.2364 627.558C17.1648 628.341 20.2711 629.31 22.6062 629.149C24.9424 628.982 28.0668 626.728 29.4938 626.401C30.9163 626.073 30.5183 626.037 35.608 624.801C42.7693 623.06 44.0923 621.268 44.79 619.435C45.5001 617.569 45.888 615.963 45.0603 615.368C40.1956 611.859 31.086 617.495 29.0019 614.974C26.9247 612.463 17.7076 615.841 17.7076 615.841Z" fill="#383736"/>
<path d="M17.2148 613.701C17.2148 613.701 15.4937 615.579 15.2404 619.436C15.0425 622.491 15.1511 624.657 16.0806 625.446C17.009 626.228 19.6301 627.17 21.9607 626.916C23.8152 626.713 25.3757 626.159 26.7451 625.648C29.027 624.796 30.3692 624.567 34.3496 623.822C40.5147 622.671 44.5595 618.646 45.152 616.774C45.6813 615.124 43.9692 612.436 39.2765 612.802C32.5245 613.308 30.1657 613.384 28.5102 612.849C25.4039 611.835 17.2148 613.701 17.2148 613.701Z" fill="#231F20"/>
<path d="M33.2723 514.683C41.7396 528.95 43.3781 555.451 42.5007 570.104C42.9892 561.961 42.4418 575.944 40.5704 582.839C37.4845 594.199 31.0254 615.173 31.8045 614.398C31.2685 614.934 27.4578 619.088 24.0993 620.259C19.168 621.974 13.0775 620.928 14.7477 614.296C14.7477 614.296 21.3323 577.599 21.5551 573.735C21.961 566.648 22.6847 564.174 21.745 551.467C21.3481 546.138 18.9734 533.957 20.7567 523.252C22.3692 513.556 27.0643 504.233 33.2723 514.683Z" fill="#2B2A2A"/>
<path d="M45.8095 618.047C45.8095 618.047 40.0255 613.109 35.6087 616.007C34.6565 616.637 32.7082 620.013 32.0139 622.36C31.6826 623.496 30.5427 627.622 34.7798 629.543C36.8458 630.477 38.612 629.078 42.8898 631.821C47.1789 634.556 54.6941 637.585 56.5859 637.774C59.2704 638.043 60.7766 637.916 61.6349 635.74C61.6688 635.653 61.8305 635.191 61.7175 634.176C61.5705 632.844 61.0028 632.131 59.7194 631.491C55.2844 629.27 49.9697 625.257 50.7952 621.112C51.416 618.002 45.8095 618.047 45.8095 618.047Z" fill="#231F20"/>
<path d="M61.6497 635.725C61.6215 635.701 61.4903 635.535 61.1737 635.345C60.26 634.797 57.8933 633.918 55.479 633.338C52.2574 632.566 47.343 631.056 44.8587 629.262C42.3709 627.464 38.6438 623.737 34.227 622.912C33.1561 622.711 32.3872 622.83 31.8207 623.12C31.4566 624.767 30.7555 627.756 34.3129 629.365C36.3777 630.299 38.6122 629.078 42.8899 631.821C47.179 634.557 54.6943 637.585 56.5861 637.774C58.4948 637.962 60.6038 638.263 61.1578 637.137C61.194 637.066 61.5491 636.35 61.6497 635.725Z" fill="#383736"/>
<path d="M60.9833 637.391C61.0466 637.265 60.8849 637.006 60.7141 636.901C58.8856 635.753 49.6923 635.065 44.4432 631.198C39.1941 627.327 36.8454 625.205 34.8779 624.633C33.1342 624.126 32.4648 624.505 31.9322 624.931C31.4821 625.547 31.2605 627.387 33.3683 628.914C36.0154 630.835 37.231 631.51 40.6822 634.128C43.542 636.297 46.2785 636.803 48.1782 636.988C50.0791 637.179 60.2166 639.069 60.9833 637.391Z" fill="#81959B"/>
<path d="M48.9023 519.043C52.0991 532.881 59.9083 572.966 59.4243 577.441C59.413 577.572 59.6867 584.017 56.7964 597.435C54.5608 607.799 51.9645 625.466 51.9645 625.466C52.0109 625.272 49.0256 621.541 46.4044 619.138C41.6676 614.796 35.3544 616.374 34.9609 616.374C34.9609 616.374 40.9077 578.002 40.4859 574.153C39.2126 562.504 31.3762 547.428 29.0412 537.063C26.991 527.949 42.64 491.935 48.9023 519.043Z" fill="#444443"/>
<path d="M24.6345 460.553C30.0962 461.668 14.8927 464.021 1.99722 491.602C0.18796 495.471 -0.438498 501.137 4.84116 503.232C10.1185 505.328 31.6363 508.347 31.6363 508.347L32.6529 478.112L24.6345 460.553Z" fill="#282827"/>
<path d="M23.0479 462.733C23.0479 462.733 25.3388 457.374 26.0953 451.075C26.447 448.126 37.3625 450.375 37.3625 450.375C37.3625 450.375 37.1341 460.569 36.7112 466.563C36.3165 472.138 24.7881 464.599 23.0479 462.733Z" fill="#F7CBAD"/>
<path d="M30.6254 426.534L39.1131 423.724L45.5043 445.94C47.464 452.268 45.2035 454.19 43.3343 454.912C39.4535 456.408 34.3084 455.843 31.6431 455.371C26.4867 454.456 23.8576 447.193 23.6009 446.613L16.832 432.714L30.6254 426.534Z" fill="#F7CBAD"/>
<path d="M39.5567 420.961C39.2254 422.985 40.3551 427.234 39.983 427.171C34.3178 426.208 39.0841 435.641 39.723 438.151C39.723 438.151 39.9672 440.58 38.833 440.518C37.8413 440.462 36.0909 432.386 34.0871 441.187C34.0871 441.187 33.4573 447.556 31.8493 450.281C28.9409 455.196 25.8369 454.158 26.0212 454.377C26.1523 454.532 24.5421 452.324 21.6224 447.988C15.7197 439.223 12.6032 435.222 13.4898 430.64C14.4215 425.805 20.8557 421.673 27.0966 420.668C32.3468 419.831 39.5567 420.961 39.5567 420.961Z" fill="#6D3E0B"/>
<path d="M37.0222 436.817C37.0222 436.817 35.4165 437.825 35.6969 440.055C35.8948 441.63 36.8831 442.59 37.3094 442.822C38.4255 443.43 39.277 443.298 39.277 443.298C39.277 443.298 37.8104 439.95 37.5774 439.31C37.3468 438.678 37.0222 436.817 37.0222 436.817Z" fill="#EFCCAF"/>
<path d="M37.5348 435.736C37.5348 435.736 38.4937 435.263 38.4055 436.977C38.306 438.684 38.5073 439.604 38.8205 440.415C39.11 441.153 40.2137 443.251 40.2137 443.251C40.2137 443.251 39.9841 444.413 38.8137 443.347C38.2597 442.837 37.5574 441.713 36.9287 440.147C36.6698 439.511 36.3317 435.875 37.5348 435.736Z" fill="#F7DDCB"/>
<path d="M22.6025 461.68L23.843 457.619C23.9448 457.285 24.1845 457.013 24.5011 456.868C24.8178 456.723 25.1819 456.721 25.4996 456.863C26.8611 457.472 29.1917 458.423 31.7427 459.067C33.9523 459.626 35.7016 459.929 36.829 460.088C37.6805 460.209 38.3488 460.875 38.4709 461.727L39.276 467.321L22.6025 461.68Z" fill="#F4F4F4"/>
<path d="M18.0175 534.144C16.8007 526.025 15.7808 510.6 15.3872 503.101C14.996 495.649 15.1011 487.079 15.498 479.584C15.9413 471.143 16.9183 467.319 19.6141 463.855C20.7992 462.331 22.3179 460.062 24.6925 460.638C34.9035 463.108 45.1598 469.103 47.3897 472.351C52.1526 479.277 52.217 485.947 52.3471 489.647C52.5868 496.421 51.0874 509.253 51.5352 516.939C52.3448 530.948 54.3192 539.221 55.3369 542.066C55.3369 542.066 20.9643 553.791 18.0175 534.144Z" fill="#383736"/>
<path d="M76.6335 422.683C76.6335 422.683 73.3157 417.853 73.3202 414.407C73.3248 412.397 71.0892 408.212 73.3315 408.372C75.5773 408.532 77.2497 413.696 77.2497 413.696C77.2497 413.696 77.8728 414.153 79.4027 410.589C81.7265 405.182 82.8641 401.659 86.114 402.826C88.5339 403.698 88.3032 409.834 86.4713 415.828C84.6406 421.821 83.5629 424.03 83.5629 424.03L76.6335 422.683Z" fill="#F7CBAD"/>
<path d="M84.6786 423.724C84.6786 423.724 79.8897 423.28 75.3122 421.425C75.0533 428.461 55.3312 457.593 55.3312 457.593C51.3904 462.115 42.7738 469.612 41.8669 470.378C41.4779 470.87 35.6543 474.948 37.5982 480.168C40.3709 487.604 49.2826 483.866 52.3391 481.771C75.5203 465.882 84.6786 423.724 84.6786 423.724Z" fill="#424241"/>
<path opacity="0.29" d="M191.919 203.544C212.624 205.768 205.4 207.913 205.4 212.003C205.4 217.783 216.16 220.366 229.23 220.366C252.548 220.366 263.872 211.727 263.872 204.29C263.872 196.858 249.468 189.479 226.148 189.479C201.579 189.479 186.15 191.948 182.286 196.837C179.42 200.461 187.999 203.123 191.919 203.544Z" fill="#231F20"/>
<path d="M133.056 198.643L133.176 222.565L178.217 248.739L178.097 224.817L133.056 198.643Z" fill="#269497"/>
<path d="M178.098 224.817L178.218 248.739L223.552 222.565L223.431 198.643L178.098 224.817Z" fill="#196264"/>
<path d="M133.056 198.643L178.097 224.817L223.431 198.643L178.391 172.47L133.056 198.643Z" fill="#398284"/>
<path d="M198.477 179.368L197.209 182.657C197.209 182.657 183.39 189.148 182.551 189.651C181.591 190.218 179.452 191.258 179.927 192.995C180.035 193.405 180.046 193.673 180.375 194.024C181.547 195.26 183.678 195.652 185.625 195.762C189.865 196.034 198.48 193.98 198.48 193.98C200.994 193.435 205.298 192.1 205.729 191.706C205.729 191.706 207.323 191.156 208.128 191.302C208.162 191.309 208.255 192.753 208.252 192.981L213.421 190.384C213.68 190.225 213.901 187.72 213.903 186.615L212.946 179.421L198.477 179.368Z" fill="#231F20"/>
<path d="M183.118 194.753C184.264 195.135 185.819 195.229 187.359 195.24C193.511 195.285 202.463 192.436 202.463 192.436C203.352 192.145 205.578 191.423 206.65 191.279C207.031 191.226 208.132 191.262 208.126 191.3C208.085 191.371 208.107 191.137 208.126 191.3C208.137 191.282 208.25 192.979 208.25 192.979L206.644 192.26C206.644 192.26 206.614 192.031 201.629 193.677C201.629 193.677 193.199 196.553 187.013 196.588C185.061 196.6 181.674 195.868 180.334 194.325C180.09 194.052 179.769 193.357 179.935 192.83C179.978 192.917 181.566 194.234 183.118 194.753Z" fill="#282827"/>
<path d="M208.127 191.301L213.8 188.218C213.8 188.218 213.562 190.411 213.478 190.385L208.252 192.98C208.245 192.807 208.163 191.747 208.127 191.301Z" fill="#282827"/>
<path d="M237.448 115.601L218.175 101.642C218.175 101.642 196.949 139.91 197.059 144.424C197.166 148.938 197.847 177.342 197.847 177.342C198.258 182.924 195.076 182.922 195.447 183.471C197.931 187.198 214.037 190.007 215.685 183.952C215.685 183.952 215.752 153.128 216.857 149.366C217.965 145.603 237.448 115.601 237.448 115.601Z" fill="#162A35"/>
<path d="M249.524 194.187C249.524 194.187 249.796 202.242 249.82 202.431C250.131 206.011 245.949 215.175 239.887 215.741C238.981 215.826 235.811 215.536 235.811 215.536C235.811 215.536 231.661 215.391 232.445 208.131C232.747 205.306 235.646 193.924 235.646 193.924L249.524 194.187Z" fill="#383736"/>
<path d="M250.101 192.175C250.101 192.175 249.628 196.804 249.237 202.819C248.997 206.399 244.665 213.988 239.318 214.285C237.935 214.357 236.842 214.23 236.753 214.224C234.441 214.104 231.294 213.27 232.568 205.872C233.024 203.235 234.899 193.055 235.064 193.053L250.101 192.175Z" fill="#231F20"/>
<path d="M227.412 100.4C228.482 114.977 233.422 200.235 233.422 200.235C233.603 202.276 237.8 204.441 239.647 204.43C247.045 204.385 249.967 199.64 249.997 198.928L251.279 102.438L227.412 100.4Z" fill="#365666"/>
<path d="M196.275 101.349L189.711 95.8532C189.711 95.8532 186.646 98.4676 181.852 104.17C180.84 105.371 180.357 107.03 180.357 107.03C180.357 107.03 177.342 114.386 183.88 116.895C184.47 117.12 187.402 117.795 187.402 117.795C188.088 117.501 188.723 116.97 188.776 116.16C188.829 115.402 189.401 113.383 190.689 111.958C191.885 110.641 194.486 107.824 194.486 107.824C196.52 105.866 197.212 102.474 196.275 101.349Z" fill="#E8C5AC"/>
<path d="M192.637 103.964C191.637 105.94 188.482 107.136 186.346 106.722C185.604 106.574 184.726 109.8 183.357 111.122C181.915 112.5 180.303 111.197 180.101 110.671C179.943 110.248 182.674 105.439 183.383 104.012C185.747 99.2264 188.029 99.0635 190.165 99.4729C192.309 99.8743 193.704 101.869 192.637 103.964Z" fill="#FFE1CC"/>
<path d="M189.785 104.873C194.811 108.798 196.501 108.501 196.501 108.501C196.501 108.501 209.998 92.1905 214.957 83.6814C218.482 77.6294 227.258 59.885 227.258 59.885C227.258 59.885 236.314 44.8105 230.232 39.42C228.255 37.6763 225.779 37.7781 223.29 38.374C220.982 38.9213 214.849 41.1264 212.3 46.864C210.513 50.8907 201.627 73.2996 200.656 75.2638C195.45 85.8174 185.506 98.7751 185.506 98.7751C185.506 98.7751 185.663 101.656 189.785 104.873Z" fill="#162A35"/>
<path d="M245.222 47.8343C245.222 47.8343 241.154 41.2079 237.441 39.8792C233.717 38.5573 221.757 39.1645 221.757 39.1645C221.757 39.1645 215.381 51.9956 215.316 52.8674C215.254 53.7483 218.282 76.8254 218.282 76.8254L234.236 65.1173L245.222 47.8343Z" fill="#D7DFE2"/>
<path d="M215.515 43.9975C217.373 40.6922 224.454 37.0521 226.707 36.7661C223.526 38.8625 219.337 45.6823 218.655 55.38C218.301 60.4448 219.552 73.4059 219.735 73.1164C219.902 72.8439 230.345 53.9065 234.442 50.4667C235.027 49.9759 240.485 38.6262 240.485 38.6262C240.485 38.6262 257.205 51.3103 258.573 56.3129L255.486 119.671C255.27 121.2 255.57 121.73 253.852 122.455C253.852 122.455 246.504 126.522 231.695 125.673C223.705 125.216 209.282 119.319 209.282 119.319C209.065 119.162 208.678 119.037 208.72 118.409L213.278 94.9384C212.846 68.6396 211.261 51.6065 215.515 43.9975Z" fill="#294354"/>
<path d="M217.833 122.859L219.674 93.7714L219.162 73.6332C219.162 73.6332 220.036 71.8522 220.376 71.2947L220.46 93.6109L218.747 123.152C218.476 123.087 217.962 122.933 217.833 122.859Z" fill="#162A35"/>
<path d="M223.64 44.3582C229.366 49.9081 235.126 43.224 239.072 39.1317L239.062 25.1348L224.658 28.5972L223.64 44.3582Z" fill="#E8C5AC"/>
<path d="M222.874 53.8388C223.031 53.3039 223.416 52.7408 223.305 52.103L222.885 50.1535L225.792 46.1822L227.307 46.4513L228.155 50.9485L226.086 52.4807C225.622 52.8765 225.001 53.6703 225.027 54.2345L223.53 66.991L219.683 72.7976C219.683 72.7976 218.508 68.4576 218.561 67.0124C218.761 61.9284 222.874 53.8388 222.874 53.8388Z" fill="#160B01"/>
<path d="M222.611 39.4144L223.397 38.4453C223.397 38.4453 223.83 37.8573 223.561 38.0077C222.037 38.8332 221.146 40.1901 220.507 41.0428C219.235 42.7491 215.972 48.178 215.972 48.178C215.314 49.4332 215.547 50.348 216.262 51.2617L218.317 54.0141L215.902 55.561C214.336 56.4102 214.671 58.3925 215.031 59.7935C216.299 64.7317 219.484 72.3803 219.484 72.3803C219.484 72.3803 219.162 63.6144 219.703 58.4773C220.902 46.8641 222.611 39.4144 222.611 39.4144Z" fill="#365666"/>
<path d="M226.17 45.4121C226.965 46.0736 226.276 46.881 225.79 47.443L222.742 50.9269C221.777 51.9571 221.452 50.7166 221.5 49.5632L221.667 41.2802C222.116 36.9481 224.155 36.619 224.155 36.619C224.155 36.619 224.039 37.6696 224.076 39.0062C224.124 40.7928 223.895 43.4976 226.17 45.4121Z" fill="white"/>
<path d="M239.109 34.5474C239.109 34.5474 238.8 37.3269 238.235 38.5493C235.447 44.5899 227.314 45.6631 227.314 45.6631C226.361 45.9322 226.374 46.3619 226.43 47.8376L227.012 53.2507C227.07 54.6687 227.872 54.5714 228.52 54.0219C228.52 54.0219 234.953 49.4693 236.781 47.9224C241.07 44.2767 241.652 41.5538 240.484 36.5874C240.08 34.8561 239.109 34.5474 239.109 34.5474Z" fill="white"/>
<path d="M240.415 36.2956L243.527 41.9982C243.527 41.9982 244.091 42.7242 243.902 44.2089C243.768 45.2639 243.198 46.7204 243.198 46.7204L239.294 54.1881C238.633 55.9691 237.88 56.5345 236.392 56.5537L231.129 56.8477L232.744 60.3385C233.302 61.4647 232.846 62.0652 231.812 62.7075C221.053 69.3622 219.215 73.7474 219.215 73.7474C219.215 73.7474 219.19 68.9415 228.338 55.5722C230.671 52.1629 234.668 47.3288 237.502 43.4174C241.192 38.3299 240.415 36.2956 240.415 36.2956Z" fill="#365666"/>
<path d="M260.254 118.429C260.787 120.42 258.231 122.481 256.268 122.987C255.585 123.17 255.799 128.282 252.938 128.842C252.938 128.842 252.595 127.545 252.081 125.253C252.038 125.066 251.207 123.209 252.13 121.514C254.557 117.018 254.758 116.229 256.717 115.716C258.683 115.212 259.72 116.448 260.254 118.429Z" fill="#E8C5AC"/>
<path d="M263.425 117.498L257.582 117.156L255.333 117.604L255.081 124.489C255.081 124.489 255.099 125.614 253.963 126.81C253.509 127.281 252.72 128.099 252.72 128.099C252.72 128.099 251.726 132.079 255.191 131.835C256.311 131.764 257.226 131.103 257.226 131.103C258.704 131.162 261.214 130.995 262.871 130.977C266.694 130.919 266.513 126.709 266.513 126.709L266.766 122.619C266.933 120.343 266.101 117.658 263.425 117.498Z" fill="#FFE1CC"/>
<path d="M261.085 60.9344C261.126 61.0429 256.107 48.3385 248.11 50.8545C241.402 52.9646 242.142 59.0245 243.927 64.4274C245.046 67.7926 254.672 85.6331 255.305 88.3526C255.939 91.071 254.336 117.57 254.336 117.57C254.336 117.57 256.235 120.459 261.473 121.313C263.732 121.684 265.308 121.108 265.308 121.108C265.308 121.108 267.423 120.489 267.767 118.779C268.804 113.679 272.539 89.4812 271.554 84.6538C270.567 79.8276 261.085 60.9344 261.085 60.9344Z" fill="#365666"/>
<path d="M221.431 21.281C219.082 22.8505 220.316 25.2874 220.316 25.2874L223.475 30.0141C223.475 30.0141 224.272 30.9685 225.275 30.5501C226.797 29.9463 226.587 28.3846 226.333 26.702C226.314 26.5968 225.811 24.1939 225.778 24.0616C225.363 21.9968 223.644 19.8065 221.431 21.281Z" fill="#FFE8D9"/>
<path d="M219.186 11.3256L219.188 11.3369L229.737 8.56424L234.994 27.5705C235.197 28.9173 235.554 30.0786 235.646 31.2411C235.731 32.5155 235.484 33.7978 234.304 35.3029C234.304 35.3029 232.727 36.5524 230.504 38.2056C229.476 38.9463 226.601 40.8426 225.399 41.2802C221.04 42.8939 218.334 39.1351 217.656 37.6289C217.207 36.6338 216.131 34.3327 215.747 33.2505L211.246 22.3486L207.821 12.3637L219.186 11.3256Z" fill="#EFD3BF"/>
<path d="M209.398 9.66333C206.975 12.263 204.515 16.4673 206.158 17.9328C208.91 20.3889 211.188 20.9769 212.647 21.4812C215.307 22.3971 215.962 22.0828 216.062 22.0624C216.154 22.0421 213.111 18.0549 215.086 17.3697C215.175 17.338 221.848 15.4021 223.872 18.6689C225.414 21.1589 227.368 25.2761 227.368 25.2761C227.941 26.0892 228.562 24.7899 228.782 24.4043C229.174 23.7213 229.5 19.335 230.695 19.6844C230.695 19.6844 232.707 24.1397 232.891 24.3545C237.915 30.3014 239.116 28.9354 239.116 28.9354C239.29 28.8664 239.13 26.65 239.228 24.6565C239.367 21.8612 239.441 18.1126 239.55 16.7477C240.456 5.54499 228.351 -4.01243 216.237 3.51636C213.978 4.92419 210.963 7.98411 209.398 9.66333Z" fill="#56390F"/>
<path d="M233.937 23.7665C234.05 23.7281 234.155 23.4861 233.896 23.3289L230.245 20.7315C229.399 20.0745 228.573 20.1729 227.877 20.4002L220.872 23.2995C220.832 23.3086 220.248 22.8902 220.261 22.9365L220.475 23.5822C220.495 23.6252 221.204 24.1431 221.244 24.1385L228.296 21.1634C228.554 21.0809 228.847 21.1329 229.104 21.3127L232.679 23.8445C232.886 23.9836 233.109 24.0243 233.307 23.9633L233.937 23.7665Z" fill="#282827"/>
<g opacity="0.26">
<path d="M219.319 22.8709L214.399 24.3082C214.251 24.3511 213.809 24.5253 213.688 24.8261C213.585 25.0737 213.714 25.4616 214.042 25.9037C214.607 26.6794 214.814 27.0673 214.814 27.0673C214.838 27.0729 215.642 28.7691 218.122 27.6564L218.213 27.6361C219.916 27.1736 220.366 26.9248 220.458 26.8728C220.46 26.8705 221.52 26.3956 221.802 25.6052C221.944 25.2116 221.886 24.8068 221.626 24.3579C221.528 24.1883 221.502 24.1261 221.476 24.0628C221.441 23.978 221.408 23.9237 221.198 23.6105C220.71 22.9037 219.955 22.7081 219.325 22.8675C219.322 22.8687 219.319 22.8709 219.319 22.8709Z" fill="#859393"/>
</g>
<path d="M214.744 28.0295C214.69 28.0047 214.181 27.532 213.505 26.434C213.039 25.6786 212.791 25.1754 213.001 24.6067C213.304 23.7789 214.232 23.5335 214.311 23.5234L218.736 22.2784L218.882 22.2456C219.633 22.0748 220.773 22.2795 221.537 23.4227C221.814 23.8388 221.84 23.9146 221.887 24.0175C221.91 24.056 221.928 24.0989 221.98 24.1973C222.372 24.8746 222.466 25.5531 222.251 26.1954C221.867 27.3511 220.595 27.9289 220.562 27.9413C220.48 27.9945 220.016 28.2749 218.298 28.6933L218.192 28.7227C215.758 29.2542 214.814 28.0793 214.744 28.0295ZM218.993 23.2327L214.54 24.4687C214.404 24.5037 214.001 24.6609 213.906 24.9402C213.813 25.1732 213.972 25.5249 214.25 25.9704C214.586 26.5075 214.961 27.1034 214.972 27.1091C215.193 27.3126 215.807 28.3767 217.997 27.7638L218.084 27.7469C219.635 27.3443 220.03 27.1102 220.116 27.0752C220.13 27.0718 221.09 26.6375 221.335 25.8878C221.461 25.5248 221.401 25.146 221.142 24.7016C221.05 24.5535 221.028 24.4868 221.003 24.4223C220.966 24.35 220.942 24.2912 220.735 23.987C220.275 23.2949 219.575 23.0925 218.999 23.2316C218.999 23.2316 218.991 23.2237 218.993 23.2327Z" fill="#282827"/>
<path d="M231.034 17.2678C227.752 17.8864 229.007 23.97 229.007 23.97L229.738 27.1317C229.738 27.1317 231.021 27.2471 232.103 27.1792C233.733 27.0967 234.829 25.3801 235.129 23.6907C235.15 23.5901 235.382 21.0221 235.366 20.8739C235.093 18.0504 233.665 16.7646 231.034 17.2678Z" fill="#EFD3BF"/>
<path d="M213.559 25.6244L212.326 25.8675C212.326 25.8675 212.07 25.8799 212.286 26.3017C212.502 26.7201 212.502 26.7201 212.502 26.7201C212.502 26.7201 212.662 26.7698 213.129 26.6636C213.601 26.5618 213.992 26.4691 213.992 26.4691L213.559 25.6244Z" fill="#282827"/>
</svg>
