<svg width="200" height="32" viewBox="0 0 200 32" fill="none" xmlns="http://www.w3.org/2000/svg">
<path d="M60.6581 17.5628H63.7647L62.2365 12.745L60.6581 17.5628ZM60.8153 9.94466H63.7063L68.0445 22.1927H65.2685L64.4793 19.6728H59.9677L59.1202 22.1927H56.4463L60.8153 9.94466ZM71.3796 19.3017C71.4315 19.7214 71.5384 20.0196 71.7053 20.1978C71.9987 20.5122 72.5415 20.671 73.334 20.671C74.2707 20.671 74.8541 20.3907 74.8541 19.8413C74.8591 19.7196 74.8308 19.5989 74.7722 19.4921C74.7137 19.3853 74.6271 19.2965 74.5218 19.2352C74.2982 19.0943 73.475 18.8577 72.0538 18.5206C71.0296 18.2645 70.3052 17.9469 69.8855 17.5645C69.4641 17.1885 69.2535 16.6456 69.2535 15.9358C69.2535 15.0996 69.5808 14.3817 70.2339 13.7837C70.8934 13.1809 71.8188 12.8795 73.0099 12.8795C74.1394 12.8795 75.0582 13.1047 75.768 13.5601C76.4827 14.009 76.8927 14.7868 76.998 15.8953H74.6288C74.5348 15.0348 74.0114 14.6896 73.0423 14.6896C72.0213 14.6896 71.613 15.0591 71.613 15.4966C71.6066 15.6183 71.6364 15.7392 71.6987 15.8439C71.761 15.9486 71.853 16.0325 71.963 16.0849C72.1947 16.2129 73.018 16.4317 74.4295 16.7412C76.3125 17.1836 77.2476 18.0879 77.2476 19.4508C77.2476 20.3486 76.9105 21.081 76.2412 21.6515C75.5768 22.217 74.5462 22.4974 73.1509 22.4974C71.7264 22.4974 70.6763 22.1976 69.9924 21.6012C69.3167 20.9968 68.9796 20.2286 68.9796 19.3001H71.3796V19.3017ZM80.9732 19.3017C81.0251 19.7214 81.132 20.0196 81.2973 20.1978C81.5907 20.5122 82.1335 20.671 82.926 20.671C83.8643 20.671 84.4461 20.3891 84.4477 19.8413C84.4523 19.7197 84.4239 19.5991 84.3654 19.4923C84.3069 19.3856 84.2205 19.2967 84.1155 19.2352C83.8935 19.0943 83.0686 18.8577 81.6474 18.5206C80.6216 18.2645 79.8988 17.9469 79.4775 17.5645C79.0578 17.1885 78.8471 16.6456 78.8471 15.9358C78.8471 15.0996 79.1728 14.3817 79.8275 13.7837C80.4871 13.1809 81.4108 12.8795 82.6019 12.8795C83.7314 12.8795 84.6535 13.1047 85.3601 13.5601C86.0747 14.009 86.4847 14.7868 86.59 15.8953H84.2224C84.1284 15.0316 83.6034 14.6896 82.6359 14.6896C81.615 14.6896 81.2066 15.0591 81.2066 15.4966C81.2002 15.6183 81.23 15.7392 81.2923 15.8439C81.3547 15.9486 81.4466 16.0325 81.5566 16.0849C81.7884 16.2129 82.6116 16.4317 84.0231 16.7412C85.9062 17.1836 86.8396 18.0879 86.8396 19.4508C86.8396 20.3486 86.5042 21.081 85.8349 21.6515C85.1704 22.217 84.1398 22.4974 82.7445 22.4974C81.32 22.4974 80.2683 22.1976 79.5861 21.6012C78.9103 20.9968 78.5732 20.2286 78.5732 19.3001H80.9732V19.3017ZM94.9375 17.6795C94.9375 15.8564 94.1645 14.8484 92.7854 14.8484C91.4063 14.8484 90.6252 15.8548 90.6252 17.6795C90.6252 19.4994 91.4031 20.5236 92.7854 20.5236C94.1677 20.5236 94.9359 19.4994 94.9375 17.6795ZM96.276 21.094C95.5111 22.0355 94.3492 22.5055 92.7935 22.5055C91.2378 22.5055 90.0758 22.0355 89.3142 21.094C88.5493 20.1476 88.1668 19.0084 88.1668 17.6795C88.1668 16.3717 88.5477 15.2406 89.3142 14.2829C90.0775 13.3251 91.2394 12.8454 92.7935 12.8454C94.3476 12.8454 95.5111 13.3251 96.276 14.2829C97.0393 15.2406 97.4234 16.3734 97.4234 17.6795C97.4218 19.0084 97.0393 20.1476 96.276 21.094ZM104.656 16.3847C104.614 16.0579 104.498 15.7452 104.316 15.4707C104.05 15.1045 103.637 14.9214 103.077 14.9214C102.277 14.9214 101.732 15.3184 101.437 16.1092C101.282 16.5306 101.206 17.0896 101.206 17.7881C101.206 18.4525 101.282 18.9857 101.437 19.3908C101.721 20.1444 102.253 20.522 103.034 20.522C104.141 20.522 104.538 19.8624 104.636 18.9079H107.053C106.991 19.6491 106.721 20.3579 106.275 20.953C105.533 21.9902 104.431 22.5055 102.975 22.5055C101.519 22.5055 100.446 22.0744 99.7602 21.2107C99.0731 20.3469 98.7295 19.2255 98.7295 17.8448C98.7295 16.2891 99.1088 15.0785 99.8688 14.2148C100.626 13.351 101.674 12.9184 103.008 12.9184C104.144 12.9184 105.071 13.1728 105.793 13.6833C106.516 14.1921 106.949 15.0931 107.082 16.3847H104.656ZM111.274 12.0546H108.874V9.87012H111.274V12.0546ZM108.873 13.1339H111.273V22.1911H108.873V13.1339ZM118.69 17.7881C118.396 17.9712 118.152 18.0782 117.611 18.177L117.079 18.2775C116.58 18.3666 116.222 18.4736 116.008 18.6016C115.64 18.8188 115.458 19.1526 115.458 19.6063C115.458 20.4199 115.972 20.7537 116.614 20.7537C117.121 20.7537 117.591 20.603 118.017 20.3048C118.448 20.005 118.672 19.4605 118.69 18.6681V17.7881ZM117.252 16.6813C117.692 16.6262 118.003 16.5581 118.192 16.4755C118.529 16.3296 118.698 16.1044 118.7 15.8013C118.7 15.0607 118.178 14.8209 117.178 14.8209C116.212 14.8209 115.791 15.2374 115.658 16.0703H113.373C113.501 14.0284 114.771 12.92 117.26 12.92C118.251 12.92 119.132 13.1161 119.904 13.5099C120.673 13.9037 121.057 14.6459 121.059 15.7365C121.059 15.7365 121.059 20.18 121.074 20.9368C121.109 21.5575 121.255 21.7001 121.565 21.8427V22.1944H118.99C118.86 21.8536 118.787 21.4939 118.774 21.1297C118.058 21.9059 117.097 22.4747 115.915 22.4763C115.095 22.4763 114.415 22.243 113.88 21.7763C113.348 21.3063 113.083 20.6435 113.083 19.7846C113.083 18.6697 113.511 17.8643 114.369 17.3668C114.841 17.0945 115.533 16.9017 116.447 16.785L117.252 16.6813ZM122.359 14.9035V13.2182H123.623V10.6917H125.963V13.2182H127.434V14.9035H125.963V19.6906C125.963 20.0617 126.01 20.2935 126.107 20.3891C126.212 20.4895 126.592 20.5236 127.194 20.5236L127.434 20.5041V22.2754L126.313 22.3159C125.195 22.3532 124.431 22.1603 124.021 21.7357C123.756 21.4651 123.623 21.0438 123.623 20.4814V14.9035H122.359ZM130.815 16.7574H134.495C134.419 15.508 133.665 14.8468 132.659 14.8468C131.568 14.8484 130.97 15.5777 130.815 16.7574ZM134.694 13.317C135.835 13.8502 136.655 15.017 136.879 16.5241C136.94 16.9422 136.965 17.5385 136.953 18.3196H130.758C130.792 19.2271 131.074 19.864 131.612 20.2303C131.939 20.4588 132.332 20.5722 132.793 20.5722C133.545 20.5722 134.059 20.287 134.42 19.5318H136.838C136.778 20.0698 136.5 20.6143 135.999 21.1686C135.223 22.0501 134.138 22.4893 132.742 22.4893C131.623 22.5021 130.539 22.1056 129.693 21.3744C128.812 20.6338 128.371 19.4248 128.371 17.7541C128.371 16.187 128.768 14.9846 129.56 14.1467C130.358 13.3105 131.39 12.8908 132.659 12.8908C133.412 12.8924 134.091 13.035 134.694 13.317ZM144.52 14.2812V9.96087H146.921V22.1911H144.62V20.9352C143.944 22.0112 143.139 22.4715 141.854 22.4731C140.794 22.4731 139.904 22.0453 139.177 21.1945C138.459 20.3356 138.097 19.2369 138.097 17.8951C138.097 16.3491 138.452 15.1336 139.162 14.2472C139.875 13.3624 140.828 12.9184 142.019 12.9184C143.11 12.9184 143.987 13.4256 144.52 14.2812ZM144.063 19.7311C144.413 19.2336 144.584 18.587 144.584 17.7962C144.584 16.6877 144.304 15.8953 143.747 15.4189C143.414 15.1343 142.989 14.981 142.551 14.9878C141.859 14.9878 141.348 15.2503 141.023 15.7754C140.703 16.2956 140.54 16.9454 140.54 17.7184C140.54 19.3892 141.193 20.4782 142.535 20.4782C143.205 20.4798 143.714 20.2303 144.063 19.7311ZM159.236 12.0708H156.852V15.6765H159.236C160.45 15.6765 161.146 15.1077 161.15 13.8405C161.148 12.5716 160.448 12.0708 159.236 12.0708ZM162.585 16.8903C161.853 17.4883 160.809 17.7881 159.451 17.7881H156.852V22.1927H154.309V9.94466H159.644C160.874 9.94466 161.853 10.259 162.585 10.8911C163.316 11.5231 163.683 12.5003 163.683 13.8242C163.683 15.2698 163.316 16.2923 162.585 16.8903ZM170.567 12.9265L170.774 12.9346V15.3605C170.548 15.3386 170.321 15.3256 170.093 15.3216C169.141 15.3216 168.5 15.6295 168.173 16.2518C167.992 16.6002 167.899 17.1383 167.899 17.8626V22.1927H165.512V13.1339H167.774V14.7155C168.139 14.1111 168.458 13.6995 168.731 13.4758C169.171 13.1047 169.75 12.9184 170.456 12.9184C170.502 12.9184 170.539 12.9216 170.567 12.9265ZM174.018 16.7574H177.7C177.621 15.5048 176.869 14.8468 175.863 14.8468C174.77 14.8484 174.177 15.5777 174.018 16.7574ZM177.9 13.317C179.041 13.8502 179.859 15.017 180.084 16.5241C180.146 16.9422 180.17 17.5385 180.159 18.3196H173.962C173.996 19.2271 174.279 19.864 174.816 20.2303C175.143 20.4588 175.537 20.5722 175.997 20.5722C176.751 20.5722 177.261 20.287 177.626 19.5318H180.044C179.982 20.0698 179.702 20.6143 179.204 21.1686C178.428 22.0501 177.342 22.4893 175.947 22.4893C174.828 22.502 173.743 22.1055 172.895 21.3744C172.017 20.6338 171.576 19.4248 171.576 17.7541C171.576 16.187 171.973 14.9846 172.764 14.1467C173.561 13.3105 174.594 12.8908 175.863 12.8908C176.616 12.8924 177.295 13.035 177.9 13.317ZM183.729 19.3017C183.779 19.7214 183.886 20.0196 184.053 20.1978C184.346 20.5122 184.889 20.671 185.682 20.671C186.62 20.671 187.202 20.3891 187.202 19.8413C187.207 19.7196 187.179 19.5987 187.12 19.4918C187.062 19.385 186.975 19.2962 186.869 19.2352C186.647 19.0943 185.824 18.8577 184.405 18.5206C183.379 18.2645 182.656 17.9469 182.235 17.5645C181.813 17.1885 181.603 16.6456 181.603 15.9358C181.603 15.0996 181.928 14.3817 182.583 13.7837C183.241 13.1809 184.166 12.8795 185.357 12.8795C186.487 12.8795 187.407 13.1047 188.116 13.5601C188.829 14.009 189.239 14.7868 189.346 15.8953H186.976C186.882 15.0316 186.359 14.6896 185.39 14.6896C184.37 14.6896 183.96 15.0591 183.96 15.4966C183.954 15.6182 183.984 15.7389 184.046 15.8436C184.108 15.9483 184.199 16.0322 184.309 16.0849C184.544 16.2129 185.364 16.4317 186.775 16.7412C188.658 17.1836 189.594 18.0879 189.594 19.4508C189.594 20.3486 189.258 21.081 188.589 21.6515C187.923 22.217 186.894 22.4974 185.497 22.4974C184.072 22.4974 183.022 22.1976 182.34 21.6012C182.012 21.3159 181.751 20.9618 181.576 20.564C181.4 20.1662 181.315 19.7346 181.325 19.3001H183.729V19.3017ZM193.321 19.3017C193.373 19.7214 193.481 20.0196 193.646 20.1978C193.94 20.5122 194.483 20.671 195.275 20.671C196.213 20.671 196.795 20.3891 196.795 19.8413C196.801 19.7196 196.772 19.5987 196.714 19.4918C196.655 19.385 196.569 19.2962 196.463 19.2352C196.241 19.0943 195.418 18.8577 193.997 18.5206C192.972 18.2645 192.248 17.9469 191.828 17.5645C191.407 17.1885 191.195 16.6456 191.195 15.9358C191.195 15.0996 191.522 14.3817 192.175 13.7837C192.835 13.1809 193.76 12.8795 194.949 12.8795C196.081 12.8795 197.001 13.1047 197.708 13.5601C198.424 14.009 198.832 14.7868 198.938 15.8953H196.57C196.476 15.0348 195.953 14.6896 194.983 14.6896C193.961 14.6896 193.552 15.0591 193.552 15.4966C193.546 15.6185 193.576 15.7395 193.639 15.8442C193.702 15.949 193.794 16.0327 193.904 16.0849C194.136 16.2129 194.958 16.4317 196.369 16.7412C198.252 17.1836 199.187 18.0879 199.187 19.4508C199.198 19.87 199.113 20.2862 198.939 20.6675C198.764 21.0489 198.505 21.3854 198.181 21.6515C197.516 22.217 196.486 22.4974 195.09 22.4974C193.666 22.4974 192.616 22.1976 191.935 21.6012C191.607 21.3163 191.345 20.9622 191.17 20.5644C190.994 20.1666 190.908 19.7348 190.919 19.3001H193.321V19.3017Z" fill="white"/>
<path d="M0.8125 26.6172L18.1329 0.852164L24.4822 0.84082V26.6691H17.8282L17.8266 11.9318L13.981 17.0965H16.817L16.804 22.5156H10.6379L7.95424 26.6172H0.8125ZM25.5161 5.75269H35.9086C35.9086 5.75269 43.6565 5.80293 43.6565 14.1082C43.6565 22.4135 37.2764 22.971 37.2764 22.971H33.1732V17.0463C33.1732 17.0463 37.6313 17.4239 37.6297 14.3626C37.628 11.3744 35.0481 11.2415 35.0481 11.2415L32.1166 11.222V31.4788H25.5193L25.5161 5.75269Z" fill="#B86E27"/>
</svg>
