<svg width="50" height="243" viewBox="0 0 50 243" fill="none" xmlns="http://www.w3.org/2000/svg">
<path d="M2.44443 121.815L3.94257 121.741L2.44443 121.815ZM43.2621 241.613C43.0553 242.415 42.2374 242.898 41.4352 242.691L28.3624 239.322C27.5602 239.115 27.0775 238.297 27.2843 237.495C27.4911 236.692 28.309 236.21 29.1112 236.417L40.7314 239.412L43.7266 227.792C43.9334 226.989 44.7513 226.507 45.5535 226.713C46.3557 226.92 46.8384 227.738 46.6317 228.54L43.2621 241.613ZM48.211 1.14138C49.3991 2.05701 49.3991 2.05698 49.399 2.05718C49.3987 2.05757 49.3983 2.05802 49.3977 2.0588C49.3965 2.06036 49.3946 2.06287 49.3919 2.06634C49.3866 2.07327 49.3784 2.08402 49.3673 2.09855C49.345 2.12761 49.3113 2.17179 49.2665 2.23084C49.1769 2.34893 49.0429 2.52648 48.8676 2.76137C48.5169 3.23117 48.0009 3.93032 47.344 4.8421C46.0302 6.66575 44.153 9.33938 41.9078 12.7291C37.4163 19.5099 31.457 29.1485 25.5881 40.5745C13.8269 63.4717 2.53047 93.3532 3.94257 121.741L2.44443 121.815L0.946278 121.89C-0.505426 92.7062 11.0814 62.2508 22.9195 39.2038C28.8502 27.6577 34.8694 17.9224 39.4067 11.0724C41.6758 7.64667 43.5755 4.94062 44.91 3.08845C45.5772 2.16231 46.1032 1.44952 46.4635 0.966851C46.6436 0.725511 46.7824 0.541687 46.8766 0.417475C46.9237 0.355369 46.9597 0.308165 46.9842 0.276124C46.9965 0.260104 47.0059 0.247874 47.0123 0.239468C47.0156 0.235265 47.018 0.232018 47.0198 0.229731C47.0207 0.228587 47.0215 0.227593 47.0219 0.227021C47.0225 0.226267 47.0229 0.225753 48.211 1.14138ZM2.44443 121.815L3.94257 121.741C5.36185 150.272 15.128 179.941 24.5846 202.537C29.3076 213.822 33.9415 223.315 37.3936 229.985C39.1195 233.32 40.5493 235.947 41.5463 237.739C42.0448 238.635 42.435 239.322 42.6999 239.783C42.8324 240.014 42.9335 240.189 43.0011 240.305C43.0349 240.363 43.0604 240.406 43.0772 240.435C43.0856 240.449 43.0918 240.46 43.0959 240.467C43.0979 240.47 43.0994 240.473 43.1003 240.474C43.1007 240.475 43.101 240.476 43.1013 240.476C43.1014 240.476 43.1014 240.476 41.8096 241.239C40.5177 242.001 40.5175 242.001 40.517 242C40.5167 241.999 40.5162 241.998 40.5155 241.997C40.5142 241.995 40.5124 241.992 40.51 241.988C40.5052 241.98 40.4982 241.968 40.489 241.952C40.4707 241.921 40.4438 241.875 40.4084 241.814C40.3378 241.693 40.2335 241.513 40.098 241.277C39.8268 240.804 39.43 240.106 38.9248 239.198C37.9145 237.382 36.4703 234.728 34.7293 231.364C31.2479 224.638 26.5776 215.07 21.8172 203.695C12.3072 180.972 2.39081 150.929 0.946278 121.89L2.44443 121.815Z" fill="white"/>
</svg>
