<svg width="30" height="30" viewBox="0 0 30 30" fill="none" xmlns="http://www.w3.org/2000/svg">
<g clip-path="url(#clip0_109_5568)">
<mask id="mask0_109_5568" style="mask-type:luminance" maskUnits="userSpaceOnUse" x="0" y="0" width="30" height="31">
<path d="M15 30.0002C23.2843 30.0002 30 23.2845 30 15.0002C30 6.71597 23.2843 0.000244141 15 0.000244141C6.71573 0.000244141 0 6.71597 0 15.0002C0 23.2845 6.71573 30.0002 15 30.0002Z" fill="white"/>
</mask>
<g mask="url(#mask0_109_5568)">
<path d="M0 9.77954L14.8242 7.91626L30 9.77954V20.2092L14.9121 22.4006L0 20.2151V9.77954Z" fill="#D80027"/>
<path d="M0 0.000244141H30V9.77954H0V0.000244141Z" fill="#338AF3"/>
<path d="M0 20.2092H30V30.0002H0V20.2092Z" fill="#6DA544"/>
<path d="M15.3285 19.2307C14.6847 19.2289 14.0498 19.0804 13.472 18.7965C12.8943 18.5126 12.3888 18.1007 11.994 17.5922C11.5992 17.0837 11.3255 16.4919 11.1937 15.8617C11.0619 15.2316 11.0755 14.5797 11.2333 13.9556C11.3912 13.3315 11.6892 12.7515 12.1048 12.2598C12.5203 11.7681 13.0425 11.3776 13.6316 11.118C14.2207 10.8583 14.8612 10.7363 15.5045 10.7613C16.1478 10.7862 16.7769 10.9574 17.3441 11.262C16.6102 10.5446 15.6808 10.0598 14.6726 9.86826C13.6643 9.6767 12.6219 9.78691 11.676 10.1851C10.7301 10.5833 9.92268 11.2517 9.35495 12.1067C8.78721 12.9617 8.48438 13.9652 8.48438 14.9915C8.48438 16.0178 8.78721 17.0213 9.35495 17.8762C9.92268 18.7312 10.7301 19.3996 11.676 19.7978C12.6219 20.196 13.6643 20.3062 14.6726 20.1147C15.6808 19.9231 16.6102 19.4383 17.3441 18.7209C16.7253 19.0564 16.0324 19.2316 15.3285 19.2307Z" fill="#EEEEEE"/>
<path d="M18.5859 12.0706L19.1484 13.6409L20.6602 12.9202L19.9453 14.4319L21.5215 14.9944L19.9395 15.5569L20.6602 17.0686L19.1484 16.3479L18.5859 17.9299L18.0234 16.3479L16.5117 17.0686L17.2324 15.5569L15.6504 14.9944L17.2324 14.4319L16.5117 12.9202L18.0234 13.6409L18.5859 12.0706Z" fill="#EEEEEE"/>
</g>
</g>
<defs>
<clipPath id="clip0_109_5568">
<rect width="30" height="30" fill="white" transform="translate(0 0.000244141)"/>
</clipPath>
</defs>
</svg>
