<svg width="163" height="23" viewBox="0 0 163 23" fill="none" xmlns="http://www.w3.org/2000/svg">
<path d="M23.8721 22.9296H39.4629V18.818H28.5838V13.7751H37.6038V9.6601H28.5838V5.01733H39.5285V0.905762H23.8721V22.9296Z" fill="white"/>
<path d="M58.2338 14.7685L48.0204 0.905762H40.9873L43.1776 3.6928V22.9986H47.8859V8.53563L58.4339 22.9296H62.9456V0.905762H58.2338V14.7685Z" fill="white"/>
<path d="M16.7727 11.5986C18.8422 11.2019 20.5669 9.27723 20.5669 6.55917C20.5531 3.62381 18.4318 0.905762 14.1857 0.905762H0.519531L2.64085 3.62381V22.9399H14.6617C18.9112 22.9399 21.0981 20.2874 21.0981 16.9692C21.0188 14.2408 19.1458 11.9194 16.7727 11.5986ZM7.35261 5.04493H13.2578C14.8514 5.04493 15.8448 5.97624 15.8448 7.36631C15.8448 8.75638 14.8514 9.68769 13.2578 9.68769H7.35261V5.04493ZM13.4544 18.8422H7.35261V13.7751H13.4544C15.2481 13.7751 16.2415 14.903 16.2415 16.2966C16.2415 17.8867 15.1791 18.818 13.4544 18.818V18.8422Z" fill="white"/>
<path d="M131.873 14.7685H134.329V17.359C133.059 18.4106 131.467 18.995 129.818 19.0146C125.903 19.0146 123.119 16.031 123.119 11.9849C123.119 7.9389 125.903 4.9518 129.818 4.9518C130.824 4.96013 131.812 5.21937 132.692 5.70604C133.573 6.19271 134.318 6.89141 134.861 7.73884L138.575 5.66925C136.985 3.16161 134.195 0.905762 129.752 0.905762C123.516 0.905762 118.342 5.21739 118.342 11.9194C118.342 18.6214 123.45 22.9296 129.752 22.9296C131.454 22.9578 133.142 22.6166 134.699 21.9294C136.256 21.2422 137.646 20.2254 138.772 18.9491V10.7915H128.69L131.873 14.7685Z" fill="white"/>
<path d="M110.645 14.7685L100.429 0.905762H93.3955L95.5858 3.6928V22.9986H100.298V8.53563L110.846 22.9296H115.354V0.905762H110.645V14.7685Z" fill="white"/>
<path d="M154.359 0.905762H145.273L147.46 3.6928L147.063 4.75174L140.03 22.9986H145.339L146.718 19.2802H156.221L157.601 22.9986H162.906L154.359 0.905762ZM147.929 15.1031L151.378 5.61406L154.828 15.1031H147.929Z" fill="white"/>
<path d="M90.6776 0.905762H85.9658V22.9986H90.6776V0.905762Z" fill="white"/>
<path d="M82.1854 4.6862V0.905762H65.5977V5.01733H76.0146L65.5977 19.1491V22.9296H82.3854V18.818H71.7029L82.1854 4.6862Z" fill="white"/>
</svg>
