<svg width="334" height="334" viewBox="0 0 334 334" fill="none" xmlns="http://www.w3.org/2000/svg">
<path d="M198.465 8.74015C227.249 -4.22595 260.552 13.3276 266.123 44.4016L273.983 88.2375C275.823 98.5018 280.518 108.04 287.53 115.759L317.473 148.725C338.699 172.094 332.296 209.19 304.465 224.091L265.203 245.112C256.01 250.034 248.389 257.447 243.214 266.5L221.116 305.166C205.45 332.574 168.19 337.949 145.417 316.084L113.294 285.239C105.772 278.017 96.3662 273.06 86.1567 270.936L42.5555 261.867C11.6474 255.438 -4.97772 221.662 8.77994 193.248L28.1873 153.164C32.7317 143.778 34.5405 133.302 33.4053 122.936L28.5573 78.6661C25.1207 47.284 52.1054 21.0359 83.3804 25.3397L127.5 31.4106C137.83 32.8321 148.352 31.3145 157.86 27.0316L198.465 8.74015Z" stroke="#196264" stroke-width="7"/>
</svg>
