<svg width="30" height="30" viewBox="0 0 30 30" fill="none" xmlns="http://www.w3.org/2000/svg">
<g clip-path="url(#clip0_109_5720)">
<path d="M15 29.0627C22.7665 29.0627 29.0625 22.7667 29.0625 15.0002C29.0625 7.23374 22.7665 0.937744 15 0.937744C7.2335 0.937744 0.9375 7.23374 0.9375 15.0002C0.9375 22.7667 7.2335 29.0627 15 29.0627Z" fill="#75A843"/>
<path d="M15 29.0627C22.7665 29.0627 29.0625 22.7667 29.0625 15.0002C29.0625 7.23374 22.7665 0.937744 15 0.937744C7.2335 0.937744 0.9375 7.23374 0.9375 15.0002C0.9375 22.7667 7.2335 29.0627 15 29.0627Z" fill="#699635"/>
<path d="M12.1875 21.6096C15.8378 21.6096 18.7969 18.6505 18.7969 15.0002C18.7969 11.35 15.8378 8.39087 12.1875 8.39087C8.53724 8.39087 5.57812 11.35 5.57812 15.0002C5.57812 18.6505 8.53724 21.6096 12.1875 21.6096Z" fill="#ED4C5C"/>
</g>
<defs>
<clipPath id="clip0_109_5720">
<rect width="30" height="30" fill="white" transform="translate(0 0.000244141)"/>
</clipPath>
</defs>
</svg>
