<svg width="30" height="30" viewBox="0 0 30 30" fill="none" xmlns="http://www.w3.org/2000/svg">
<g clip-path="url(#clip0_109_5669)">
<mask id="mask0_109_5669" style="mask-type:luminance" maskUnits="userSpaceOnUse" x="0" y="0" width="30" height="31">
<path d="M15 30.0002C23.2843 30.0002 30 23.2845 30 15.0002C30 6.71597 23.2843 0.000244141 15 0.000244141C6.71573 0.000244141 0 6.71597 0 15.0002C0 23.2845 6.71573 30.0002 15 30.0002Z" fill="white"/>
</mask>
<g mask="url(#mask0_109_5669)">
<path d="M0 0.000244141H30V30.0002H0V0.000244141Z" fill="#6DA544"/>
<path d="M15 5.87134L27.3926 15.0002L15 24.1291L2.60742 15.0002L15 5.87134Z" fill="#FFDA44"/>
<path d="M10.2069 12.9494C9.9154 13.62 9.77152 14.3454 9.78505 15.0764L19.2772 17.9944C19.6954 17.397 19.9829 16.7182 20.121 16.0022C17.7421 12.176 13.1073 11.2971 10.2128 12.9553L10.2069 12.9494Z" fill="#EEEEEE"/>
<path d="M14.9824 9.78542C14.1255 9.78758 13.2822 10.0009 12.5273 10.4065C11.4884 10.9671 10.6703 11.8636 10.207 12.9495C11.9823 12.5725 13.8245 12.6556 15.5587 13.191C17.2928 13.7263 18.8613 14.696 20.1152 16.0081C20.3482 14.8219 20.1618 13.5916 19.5879 12.5276C19.1403 11.6965 18.4755 11.0025 17.6644 10.5195C16.8533 10.0366 15.9264 9.78287 14.9824 9.78542ZM12.4219 14.678C11.5278 14.675 10.6385 14.8094 9.78516 15.0764C9.79502 15.913 10.006 16.735 10.4004 17.4729C10.7249 18.0764 11.1651 18.61 11.696 19.0432C12.2268 19.4764 12.8378 19.8008 13.494 19.9978C14.1503 20.1948 14.8389 20.2605 15.5206 20.1912C16.2023 20.1219 16.8636 19.919 17.4668 19.594C18.1829 19.2084 18.799 18.6606 19.2656 17.9944C18.4432 16.9676 17.4021 16.1371 16.2183 15.5634C15.0344 14.9897 13.7374 14.6872 12.4219 14.678Z" fill="#0052B4"/>
</g>
</g>
<defs>
<clipPath id="clip0_109_5669">
<rect width="30" height="30" fill="white" transform="translate(0 0.000244141)"/>
</clipPath>
</defs>
</svg>
