<svg width="66" height="66" viewBox="0 0 66 66" fill="none" xmlns="http://www.w3.org/2000/svg">
<g clip-path="url(#clip0_1_6870)">
<path d="M58.2021 16.1077C58.2021 16.7416 58.7223 17.2555 59.3641 17.2555H60.526C61.1678 17.2555 61.688 16.7416 61.688 16.1077C61.688 15.4738 61.1678 14.96 60.526 14.96H59.3641C58.7223 14.96 58.2021 15.4738 58.2021 16.1077Z" fill="#212326"/>
<path d="M24.506 51.6885H30.1505L28.5073 50.0653C28.0715 49.6348 27.4804 49.393 26.8641 49.393H24.506C15.5219 49.393 8.23891 42.1988 8.23891 33.3242C8.23891 24.4497 15.5219 17.2555 24.506 17.2555H43.097C52.0811 17.2555 59.3641 24.4497 59.3641 33.3242C59.3641 42.1988 52.0811 49.393 43.097 49.393H36.1425C35.218 49.393 34.3314 49.0302 33.6776 48.3845L31.7525 46.4828C30.663 45.4065 29.1852 44.8019 27.6444 44.8019H24.506C18.0888 44.8019 12.8867 39.6632 12.8867 33.3242C12.8867 26.9853 18.0888 21.8466 24.506 21.8466H43.097C49.5143 21.8466 54.7164 26.9853 54.7164 33.3242C54.7164 39.6632 49.5143 44.8019 43.097 44.8019H38.6316C37.707 44.8019 36.8204 44.4391 36.1667 43.7934L34.2415 41.8917C33.152 40.8155 31.6742 40.2108 30.1334 40.2108H24.506C20.6557 40.2108 17.5344 37.1276 17.5344 33.3242C17.5344 29.5209 20.6557 26.4376 24.506 26.4376H43.097C46.9473 26.4376 50.0686 29.5209 50.0686 33.3242C50.0686 37.0812 47.023 40.1355 43.2376 40.2095L43.2368 40.2108H41.5364C40.6119 40.2108 39.7253 39.848 39.0715 39.2024L37.1463 37.3006C36.2524 36.4175 35.097 35.852 33.8599 35.6774L33.8015 35.6198H24.506C23.2226 35.6198 22.1822 34.592 22.1822 33.3242C22.1822 32.0565 23.2226 31.0287 24.506 31.0287H43.097C44.3804 31.0287 45.4209 32.0565 45.4209 33.3242C45.4209 34.592 44.3804 35.6198 43.097 35.6198H38.4493L40.0925 37.243C40.5283 37.6734 41.1194 37.9153 41.7357 37.9153H43.097C45.6639 37.9153 47.7448 35.8598 47.7448 33.3242C47.7448 30.7887 45.6639 28.7332 43.097 28.7332H24.506C21.9392 28.7332 19.8583 30.7887 19.8583 33.3242C19.8583 35.8598 21.9392 37.9153 24.506 37.9153H33.0383C33.9628 37.9153 34.8494 38.2781 35.5032 38.9238L37.4283 40.8255C38.5179 41.9017 39.9956 42.5064 41.5364 42.5064H43.678V42.4887C48.5411 42.1925 52.3925 38.2026 52.3925 33.3242C52.3925 28.2531 48.2307 24.1421 43.097 24.1421H24.506C19.3723 24.1421 15.2105 28.2531 15.2105 33.3242C15.2105 38.3954 19.3723 42.5064 24.506 42.5064H30.1334C31.058 42.5064 31.9446 42.8692 32.5983 43.5148L34.5235 45.4166C35.613 46.4928 37.0907 47.0974 38.6316 47.0974H43.097C50.7977 47.0974 57.0403 40.931 57.0403 33.3242C57.0403 25.7175 50.7977 19.551 43.097 19.551H24.506C16.8054 19.551 10.5628 25.7175 10.5628 33.3242C10.5628 40.931 16.8054 47.0974 24.506 47.0974H27.6444C28.5689 47.0974 29.4555 47.4602 30.1093 48.1059L32.0345 50.0076C33.124 51.0839 34.6017 51.6885 36.1425 51.6885H43.097C53.3645 51.6885 61.688 43.4665 61.688 33.3242C61.688 23.1819 53.3645 14.96 43.097 14.96L24.506 14.96C14.2385 14.96 5.91504 23.1819 5.91504 33.3242C5.91504 43.4665 14.2385 51.6885 24.506 51.6885Z" fill="#6C6C6C"/>
</g>
<defs>
<clipPath id="clip0_1_6870">
<rect width="55.773" height="36.7285" fill="white" transform="translate(5.91504 14.96)"/>
</clipPath>
</defs>
</svg>
