<svg width="67" height="67" viewBox="0 0 67 67" fill="none" xmlns="http://www.w3.org/2000/svg">
<g clip-path="url(#clip0_1_6821)">
<path fill-rule="evenodd" clip-rule="evenodd" d="M19.7498 19.9014L6.16602 33.3486C8.88303 36.0384 11.9868 38.3052 15.3708 40.0787C16.3061 42.5348 17.7723 44.8383 19.7692 46.8151C27.2821 54.2523 39.4627 54.2523 46.9755 46.8151C48.9724 44.8383 50.4386 42.5348 51.3739 40.0785C54.7579 38.3052 57.8617 36.0384 60.5787 33.3486L47.0058 19.9123C46.9958 19.9023 46.9857 19.8922 46.9755 19.8822C39.4627 12.4449 27.2821 12.4449 19.7692 19.8822C19.7627 19.8886 19.7563 19.895 19.7498 19.9014ZM45.6757 42.5048C41.7172 43.8273 37.5617 44.5046 33.3723 44.5046C29.183 44.5046 25.0276 43.8273 21.0691 42.5048C21.498 43.0681 21.9715 43.6087 22.4898 44.1218C28.5001 50.0717 38.2446 50.0717 44.2549 44.1218C44.7732 43.6087 45.2468 43.0681 45.6757 42.5048ZM22.7688 22.3061C23.7895 22.9736 24.8747 23.5449 26.0103 24.0105C28.3443 24.9676 30.846 25.4602 33.3723 25.4602C35.8987 25.4602 38.4003 24.9676 40.7344 24.0105C41.87 23.5449 42.9552 22.9736 43.976 22.3061C38.0407 16.7154 28.704 16.7154 22.7688 22.3061Z" fill="#3B4158"/>
</g>
<defs>
<clipPath id="clip0_1_6821">
<rect width="54.4127" height="38.0889" fill="white" transform="translate(6.16602 14.3042)"/>
</clipPath>
</defs>
</svg>
