<svg width="66" height="67" viewBox="0 0 66 67" fill="none" xmlns="http://www.w3.org/2000/svg">
<g clip-path="url(#clip0_1_6818)">
<path fill-rule="evenodd" clip-rule="evenodd" d="M19.5182 6.3501C27.031 6.3501 33.1214 12.4404 33.1214 19.9533V6.3501H46.7245C54.2373 6.3501 60.3277 12.4404 60.3277 19.9533C60.3277 27.466 54.2373 33.5564 46.7245 33.5564C54.2373 33.5564 60.3277 39.6468 60.3277 47.1596C60.3277 50.89 58.826 54.2697 56.3943 56.7272L56.3435 56.7785L56.2983 56.8234C53.8402 59.2586 50.458 60.7627 46.7245 60.7627C43.0164 60.7627 39.6548 59.279 37.201 56.8729C37.1691 56.8416 37.1373 56.8101 37.1056 56.7785C37.0758 56.7487 37.0462 56.7188 37.0166 56.6887C34.6074 54.2345 33.1214 50.8705 33.1214 47.1596C33.1214 54.6723 27.031 60.7627 19.5182 60.7627C12.0054 60.7627 5.91504 54.6723 5.91504 47.1596V33.5564H19.5182C12.0054 33.5564 5.91504 27.466 5.91504 19.9533C5.91504 12.4404 12.0054 6.3501 19.5182 6.3501ZM30.4007 19.9533C30.4007 25.9635 25.5285 30.8358 19.5182 30.8358V9.07073C25.5285 9.07073 30.4007 13.943 30.4007 19.9533ZM57.6071 47.1596C57.6071 41.1493 52.7348 36.2771 46.7245 36.2771C40.7142 36.2771 35.842 41.1493 35.842 47.1596H57.6071ZM8.63567 36.2771V47.1596C8.63567 53.1699 13.5079 58.0421 19.5182 58.0421C25.5285 58.0421 30.4007 53.1699 30.4007 47.1596V36.2771H8.63567ZM35.842 30.8358V9.07073H46.7245C52.7348 9.07073 57.6071 13.943 57.6071 19.9533C57.6071 25.9635 52.7348 30.8358 46.7245 30.8358H35.842Z" fill="#263238"/>
</g>
<defs>
<clipPath id="clip0_1_6818">
<rect width="54.4127" height="54.4127" fill="white" transform="translate(5.91504 6.3501)"/>
</clipPath>
</defs>
</svg>
