<svg width="66" height="67" viewBox="0 0 66 67" fill="none" xmlns="http://www.w3.org/2000/svg">
<g clip-path="url(#clip0_1_6828)">
<path d="M61.4364 19.153C61.4364 19.1989 61.4364 19.2564 61.4245 19.2909C61.3646 19.7394 61.3646 20.1879 61.4004 20.6479C61.4245 20.7629 61.4484 20.8779 61.5443 20.9699C61.7 21.1423 61.9396 21.1078 62.0355 20.9009C62.0835 20.7974 62.0835 20.6939 62.0594 20.5904C61.9396 20.1534 61.9157 19.6934 61.9037 19.2449C61.9037 19.2219 61.9037 19.1874 61.9037 19.153C62.0355 19.1415 62.1553 19.1299 62.2631 19.1299C62.3471 19.1185 62.4189 19.1069 62.4788 19.0724C62.6585 18.9805 62.6585 18.785 62.4668 18.693C62.3949 18.6585 62.2991 18.647 62.2153 18.647C61.9157 18.6585 61.6162 18.6585 61.3166 18.6585C61.2088 18.6585 61.101 18.67 60.9931 18.6815C60.9332 18.693 60.8613 18.693 60.8134 18.7275C60.7295 18.762 60.6816 18.8195 60.6816 18.9C60.6936 18.9805 60.7295 19.0265 60.8134 19.061C60.8613 19.0955 60.9212 19.107 60.9811 19.107C61.1249 19.1185 61.2807 19.1415 61.4364 19.153ZM64.7313 19.6819C64.7313 19.6934 64.7432 19.7049 64.7432 19.7049C64.7912 20.0154 64.8391 20.3144 64.875 20.6134C64.8871 20.7169 64.8991 20.8089 64.9709 20.8894C65.1267 21.0848 65.3663 21.0618 65.4741 20.8549C65.5221 20.7514 65.534 20.6479 65.5101 20.5329C65.4382 20.1879 65.4022 19.8429 65.3303 19.5094C65.2824 19.3024 65.2226 19.1069 65.1627 18.923C65.1267 18.808 65.0428 18.7275 64.8991 18.716C64.7553 18.693 64.6474 18.762 64.5875 18.8655C64.5156 18.9575 64.4557 19.0495 64.4078 19.153C64.3239 19.3369 64.252 19.5209 64.1562 19.6934C64.1442 19.7394 64.1322 19.7739 64.1083 19.8084C64.0963 19.7854 64.0843 19.7739 64.0843 19.7739C63.9285 19.4864 63.7848 19.1989 63.629 18.923C63.605 18.9 63.5931 18.877 63.5811 18.854C63.5092 18.7505 63.4254 18.693 63.2936 18.693C63.1737 18.7045 63.0778 18.7735 63.018 18.877C62.994 18.923 62.994 18.9575 62.982 19.0035C62.9341 19.3714 62.8741 19.7394 62.8263 20.1074C62.8023 20.3144 62.7903 20.5214 62.7903 20.7284C62.7783 20.7744 62.7903 20.8319 62.8142 20.8779C62.8383 20.9698 62.9101 21.0274 63.0059 21.0388C63.1258 21.0504 63.2096 21.0159 63.2456 20.9239C63.2815 20.8549 63.2936 20.7974 63.3055 20.7399C63.3535 20.5329 63.3894 20.3374 63.4254 20.1419C63.4493 20.0269 63.4613 19.9349 63.4972 19.8084C63.5212 19.8544 63.5451 19.8889 63.5691 19.9234C63.6769 20.0614 63.7848 20.1994 63.9166 20.3144C64.0484 20.4064 64.1562 20.3949 64.264 20.2914C64.288 20.2684 64.3 20.2569 64.3239 20.2339C64.4318 20.0729 64.5636 19.9119 64.6714 19.7509C64.6954 19.7279 64.7073 19.7049 64.7313 19.6819Z" fill="#3A3B7B"/>
<path d="M37.1245 19.3791C37.0412 19.5977 37.0254 19.7551 37.0638 19.886C37.1063 20.0639 37.2165 20.1222 37.3661 20.0769C38.7734 19.7429 41.8594 20.691 43.0019 20.9552C43.2713 21.0107 43.4905 20.6768 43.3067 20.3775C43.0383 20.0877 39.9538 18.8467 38.7768 18.779C38.3155 18.754 37.4907 18.6404 37.1245 19.3791Z" fill="#3A3B7B"/>
<path d="M49.1852 15.3622C49.3351 15.4453 49.419 15.5246 49.4604 15.6131C49.522 15.7293 49.4895 15.8097 49.3859 15.8507C48.4557 16.2864 47.2178 18.1624 46.7181 18.8094C46.597 18.9583 46.3176 18.8718 46.2754 18.627C46.2841 18.3503 47.3814 16.3144 47.9938 15.7599C48.2344 15.5434 48.632 15.1186 49.1852 15.3622Z" fill="#3A3B7B"/>
<path d="M41.7762 14.4385C41.9564 14.3082 42.1437 14.2625 42.2393 14.3472C43.6429 15.4992 44.3872 17.3236 44.848 18.9938C44.8654 19.0327 44.8665 19.0885 44.8526 19.1468C44.8468 19.1966 44.8089 19.2492 44.7488 19.2899C44.6845 19.3348 44.6291 19.3485 44.6031 19.3098C43.9879 18.5067 40.4745 15.3823 41.7762 14.4385Z" fill="#3A3B7B"/>
<path d="M12.0549 34.4128C12.3913 34.1724 12.757 33.9723 13.144 33.817C13.5489 33.706 13.9804 33.7243 14.3734 33.8696C14.7664 34.0148 15.0995 34.2789 15.3221 34.6219C15.5213 34.964 15.5992 35.3591 15.5443 35.7475C15.4893 36.1358 15.3043 36.4964 15.0172 36.7752C14.7946 37.0011 14.5419 37.1979 14.2657 37.3606C13.0351 38.1236 11.7935 38.8448 10.5519 39.6079C10.2979 39.7989 10.0284 39.9702 9.74599 40.1201C9.31647 40.3257 8.82559 40.3808 8.35824 40.2758C7.89089 40.1709 7.47647 39.9124 7.18662 39.5452C6.96995 39.2852 6.78708 39.0009 6.64207 38.6985C5.46585 36.3257 4.24607 33.9634 3.11341 31.5487C2.59065 30.5035 2.1659 29.3014 1.75205 28.1411C1.57299 27.804 1.53803 27.4132 1.6546 27.0517C1.77117 26.6902 2.03007 26.3866 2.37624 26.2055C2.72241 26.0244 3.12852 25.9801 3.50822 26.082C3.88792 26.1838 4.21125 26.4238 4.40943 26.7509C5.01859 27.5279 5.55783 28.3532 6.02129 29.2178C7.19751 31.3083 8.31928 33.3989 9.45193 35.4268C9.51789 35.5388 9.59061 35.6469 9.66975 35.7508C10.5223 35.4068 11.3241 34.9569 12.0549 34.4128Z" fill="#3A3B7B"/>
<path d="M24.2163 33.6833C21.5263 36.7041 17.0174 35.9411 14.7521 32.0526C13.1402 29.2931 12.8571 24.7356 16.364 21.8611C17.1129 21.2593 18.0083 20.8493 18.9669 20.6694C20.1422 20.5077 21.3407 20.7067 22.3911 21.238C23.4414 21.7693 24.2899 22.6057 24.8154 23.6276C26.7321 26.9726 26.4599 31.2373 24.2163 33.6833ZM23.1272 26.638C22.8414 25.8161 22.2681 25.1143 21.5045 24.652C21.0724 24.3564 20.5473 24.2126 20.0177 24.245C19.488 24.2774 18.9863 24.4838 18.5966 24.8297C17.0393 26.1572 16.7125 29.3035 17.8451 31.1746C17.9895 31.4797 18.2015 31.7508 18.4665 31.9691C18.7314 32.1873 19.0429 32.3473 19.379 32.4379C19.7151 32.5285 20.0678 32.5475 20.4124 32.4936C20.757 32.4397 21.0851 32.3141 21.3739 32.1258C22.2181 31.4976 22.8374 30.6325 23.1458 29.651C23.4542 28.6693 23.4363 27.6199 23.0946 26.6485L23.1272 26.638Z" fill="#3A3B7B"/>
<path d="M35.1939 27.9538C34.9185 28.0106 34.634 28.014 34.3572 27.9637C34.0804 27.9134 33.8168 27.8106 33.5821 27.6612C33.3767 27.5484 33.1999 27.3933 33.0643 27.2071C32.9289 27.0209 32.8381 26.8082 32.7985 26.5843C32.7589 26.3604 32.7716 26.1309 32.8354 25.9122C32.8994 25.6935 33.0131 25.4912 33.1683 25.3197C33.4386 24.975 33.8224 24.7283 34.2573 24.6194C35.3929 24.303 36.5619 24.1102 37.7424 24.0445C38.0018 24.0155 38.2646 24.0366 38.5153 24.1064C38.7661 24.1764 38.9998 24.2935 39.2027 24.4513C39.4056 24.609 39.5736 24.8041 39.6969 25.0251C39.8201 25.246 39.8962 25.4883 39.9206 25.7378C40.2609 26.9634 40.2982 28.2485 40.0295 29.4904C39.0494 33.5043 35.6731 34.884 31.8831 33.5983C30.8192 33.2546 29.8864 32.6141 29.2039 31.7587C28.2937 30.7285 27.6483 29.5076 27.3198 28.1943C27.0536 27.0247 27.0828 25.8111 27.4049 24.6546C27.7269 23.4981 28.3326 22.4323 29.1712 21.5462C29.9671 20.5831 31.0001 19.8252 32.1772 19.3407C32.9209 18.9472 33.7913 18.8353 34.6168 19.0271C34.804 19.0768 34.974 19.1737 35.109 19.3078C35.2441 19.4418 35.3394 19.6081 35.385 19.7894C35.4306 19.9707 35.4247 20.1604 35.3682 20.3388C35.3115 20.5172 35.2063 20.6779 35.0633 20.8041C34.7913 21.0404 34.4958 21.2504 34.1811 21.4312C33.2128 22.023 32.3703 22.7856 31.6979 23.6786C31.2572 24.2564 30.9537 24.92 30.8089 25.6224C30.6639 26.3249 30.6812 27.0493 30.8594 27.7448C31.1064 28.693 31.6545 29.5441 32.4276 30.1803C34.8236 32.2709 37.9384 30.2534 37.3939 27.3998C36.5989 27.588 35.9018 27.7866 35.1939 27.9538Z" fill="#3A3B7B"/>
<path d="M49.8317 33.8498C46.2922 35.9405 42.2626 33.8498 41.3804 29.4597C40.7378 26.3238 41.9576 21.9336 46.2269 20.2612C47.1352 19.913 48.1205 19.7907 49.0912 19.9058C50.2574 20.1107 51.3273 20.6617 52.1499 21.4813C52.9725 22.3008 53.5064 23.3474 53.6762 24.4737C54.395 28.2053 52.7614 32.1879 49.8317 33.8498ZM51.0625 26.8151C51.0614 25.9467 50.7413 25.1065 50.1585 24.4423C49.847 24.0315 49.3966 23.7371 48.8842 23.6094C48.3717 23.4817 47.8291 23.5285 47.3486 23.742C45.4318 24.5363 44.0813 27.4213 44.5714 29.5433C44.6089 29.8763 44.7216 30.1975 44.9018 30.4843C45.082 30.7711 45.3253 31.0167 45.6148 31.2039C45.9041 31.391 46.2326 31.5153 46.5773 31.5679C46.922 31.6204 47.2744 31.6002 47.61 31.5084C48.6232 31.1687 49.5004 30.5339 50.1193 29.6924C50.7383 28.851 51.068 27.8451 51.0625 26.8151Z" fill="#3A3B7B"/>
<path d="M57.2556 34.7282C57.2022 35.1107 56.9927 35.4573 56.673 35.6915C56.3533 35.9257 55.9498 36.0286 55.5512 35.9773C55.1526 35.926 54.7916 35.7248 54.5475 35.418C54.3034 35.1113 54.1963 34.724 54.2498 34.3414C54.3032 33.9588 54.5128 33.6123 54.8324 33.378C55.1521 33.1437 55.5556 33.041 55.9542 33.0923C56.3528 33.1436 56.7138 33.3447 56.958 33.6515C57.202 33.9583 57.3092 34.3456 57.2556 34.7282ZM56.3081 20.6272C56.5153 20.3236 56.8191 20.0924 57.1744 19.968C57.5296 19.8437 57.9173 19.8329 58.2794 19.9373C58.6476 20.0257 58.9728 20.2329 59.2009 20.524C59.4289 20.8152 59.5457 21.1726 59.5319 21.5366C59.4839 22.1204 59.3929 22.7003 59.2596 23.2718C58.9002 25.2056 58.5517 27.1393 58.1705 29.0522C57.9963 29.8153 57.7676 30.547 57.517 31.3205C57.4299 31.5623 57.2843 31.7808 57.0923 31.9581C56.9729 32.0915 56.8205 32.1938 56.649 32.2556C56.4775 32.3175 56.2925 32.3367 56.1112 32.3117C55.9299 32.2867 55.758 32.2182 55.6116 32.1126C55.4652 32.0069 55.3489 31.8675 55.2736 31.7073C55.144 31.4198 55.0737 31.1109 55.0666 30.7979C55.0666 29.5017 55.0666 28.1951 55.1537 26.8885C55.3018 25.0238 55.593 23.1721 56.025 21.3485C56.0759 21.1041 56.1717 20.8705 56.3081 20.6586V20.6272Z" fill="#3A3B7B"/>
<path fill-rule="evenodd" clip-rule="evenodd" d="M7.45363 43.128C7.32504 43.4035 7.28977 43.7106 7.35261 44.0062C7.39442 44.3959 7.48624 44.7792 7.62598 45.1473C7.80045 45.5981 7.99568 46.0439 8.2364 46.5933C8.29176 46.7197 8.34961 46.8517 8.41015 46.9906C8.73477 47.7349 9.14209 48.6862 9.6854 50.0629C9.83918 50.4539 9.97574 50.8483 10.1133 51.2453C10.1688 51.4057 10.2246 51.5666 10.2816 51.7279C10.4862 52.3013 10.8381 52.8165 11.3047 53.2248C11.5028 53.4492 11.7656 53.6127 12.0602 53.6945C12.3606 53.7779 12.6801 53.7726 12.9773 53.6794C13.2745 53.586 13.5356 53.409 13.7265 53.1714C13.9138 52.9383 14.0251 52.6575 14.0468 52.3642C14.1682 51.7927 14.1268 51.2002 13.9266 50.6492C13.6088 49.7344 13.2468 48.8183 12.8294 47.9223L12.8275 47.9183C12.1409 46.5165 11.4429 45.1243 10.7119 43.7315L10.7064 43.7218C10.4924 43.3589 10.2143 43.0345 9.88457 42.7632C9.67052 42.5211 9.37526 42.3577 9.04919 42.3014C8.71617 42.2439 8.37271 42.3019 8.08013 42.4649C7.80334 42.6166 7.58394 42.8488 7.45363 43.128Z" fill="#3A3B7B"/>
<path fill-rule="evenodd" clip-rule="evenodd" d="M17.9415 39.6763C16.8649 39.4087 15.7404 39.3697 14.6466 39.5621C13.7994 39.6421 12.9661 39.8297 12.3875 40.2012C12.0932 40.3903 11.8553 40.6331 11.723 40.9417C11.5899 41.252 11.5729 41.6069 11.6819 42.0023C11.8811 42.7265 12.1396 43.4307 12.3973 44.1326L12.439 44.2463L12.44 44.2488C13.2158 46.288 13.999 48.3202 14.7894 50.3455C14.8815 50.6647 15.0119 50.9726 15.1777 51.263L15.1808 51.2684C15.3999 51.6291 15.681 51.9518 16.0121 52.2228C16.1777 52.3719 16.3824 52.475 16.6045 52.521C16.8287 52.5675 17.0619 52.554 17.2786 52.4819C17.4955 52.41 17.6874 52.2822 17.8338 52.1126C17.9777 51.9457 18.072 51.7447 18.1066 51.5308C18.2494 50.9496 18.2037 50.3404 17.9753 49.7849C17.9041 49.5979 17.8482 49.4069 17.7893 49.2058C17.7696 49.1387 17.7497 49.0705 17.7287 49.001C19.5378 48.3223 21.4627 47.4097 22.1396 45.2866C22.4046 44.5529 22.4267 43.7585 22.2028 43.0122C21.9787 42.2651 21.5188 41.6029 20.8866 41.1167C20.0261 40.4362 19.0209 39.9446 17.9415 39.6763ZM14.9571 42.2804C14.9928 42.2705 15.0287 42.2614 15.0646 42.2529C16.2424 42.0752 17.4474 42.312 18.4578 42.9195C18.903 43.2167 19.0854 43.5469 19.1167 43.8646C19.1491 44.1918 19.0251 44.5463 18.7762 44.8871C18.3057 45.5308 17.4471 46.0461 16.6716 46.1421C16.1062 44.8925 15.5321 43.5923 14.9571 42.2804Z" fill="#3A3B7B"/>
<path d="M25.1188 37.3887C26.4009 36.8204 27.9892 36.7222 29.232 37.1218C29.545 37.2093 29.8165 37.3986 30.0002 37.6572C30.1827 37.9143 30.2669 38.224 30.2388 38.5337C30.2369 38.7347 30.1855 38.9325 30.0888 39.1109C29.9903 39.2926 29.8478 39.4488 29.6731 39.5664C29.4985 39.6839 29.2969 39.7595 29.0855 39.7865C28.8739 39.8136 28.6589 39.7913 28.4582 39.7217L28.4429 39.7164L28.4286 39.7091C28.3259 39.6576 28.2169 39.6188 28.1041 39.5935L28.097 39.5919C27.2227 39.3691 26.398 39.7384 26.0968 40.1921C25.9531 40.4085 25.9353 40.6269 26.055 40.8255C26.1831 41.0383 26.4974 41.2771 27.1334 41.4472C27.3083 41.4933 27.4876 41.5378 27.6694 41.583C28.1723 41.7079 28.6949 41.8378 29.2003 42.0177L29.2022 42.0184C31.5336 42.8698 32.4018 44.6331 32.1046 46.2916C31.8106 47.9317 30.3835 49.4243 28.2373 49.7764C27.4564 49.9425 26.6437 49.9101 25.8797 49.6825C25.1138 49.4542 24.4234 49.0375 23.8771 48.4738L23.8628 48.459C23.6904 48.2466 23.5744 47.9971 23.523 47.7324C23.4757 47.4934 23.5006 47.2465 23.5947 47.0207C23.6882 46.7962 23.8464 46.6019 24.0505 46.4603C24.2662 46.2998 24.5261 46.2035 24.7982 46.1835C25.0694 46.1635 25.3407 46.22 25.5788 46.3461C25.8167 46.4564 26.0379 46.597 26.2365 46.7643L26.2402 46.7674C26.5915 47.0757 27.0165 47.1561 27.424 47.0816C27.8375 47.0062 28.2263 46.7713 28.4764 46.4598C28.7248 46.1502 28.8245 45.7824 28.7062 45.4254C28.5871 45.0658 28.2289 44.6629 27.4421 44.326C27.2364 44.2422 27.0231 44.1746 26.8013 44.1088C26.7414 44.091 26.6806 44.0734 26.6191 44.0554C26.455 44.0077 26.2862 43.9584 26.1207 43.9042C26.0067 43.8669 25.8937 43.8316 25.7817 43.7965C25.4756 43.7008 25.1772 43.6076 24.8901 43.4825C24.2651 43.2783 23.7251 42.8861 23.3505 42.3641C22.9744 41.8399 22.7852 41.2131 22.8109 40.5773C22.8129 39.0277 23.8298 37.9602 25.1188 37.3887Z" fill="#3A3B7B"/>
<path d="M41.3747 37.2234C41.1261 37.1068 40.8512 37.0515 40.5748 37.0624C40.2983 37.0733 40.0291 37.1501 39.7913 37.2859C39.555 37.4207 39.3572 37.6095 39.2155 37.8356C39.0855 38.0259 38.9955 38.2388 38.9507 38.4623C38.9058 38.6856 38.9069 38.9151 38.9538 39.1379C39.0001 39.4243 39.0514 39.7028 39.1021 39.9774C39.1861 40.4319 39.2677 40.8761 39.3216 41.3291L39.3236 41.3405C39.4463 42.0509 39.5105 42.7693 39.5162 43.4893L39.5168 43.4995C39.5587 44.277 39.2827 45.0394 38.7479 45.6248L38.7394 45.6352C38.5654 45.8492 38.3328 46.0126 38.0675 46.107C37.8022 46.2014 37.5149 46.2231 37.2375 46.1697C36.9601 46.1162 36.7037 45.9898 36.497 45.8045C36.2902 45.6192 36.141 45.3816 36.0666 45.1197C35.9077 44.5677 35.8157 43.9999 35.7923 43.4277L36.0637 39.2799C36.0678 39.2257 36.0723 39.1701 36.077 39.114C36.0873 38.988 36.0979 38.8597 36.1023 38.74C36.1087 38.564 36.1032 38.3828 36.0605 38.2114C36.0167 38.0362 35.9335 37.8696 35.7859 37.7276C35.6398 37.5871 35.4425 37.4835 35.1942 37.4129C34.7453 37.2882 34.3657 37.2922 34.0494 37.421C33.733 37.5498 33.5161 37.789 33.3627 38.0654C33.2104 38.3394 33.1126 38.6637 33.0386 38.9887C32.9837 39.2297 32.9396 39.4828 32.8977 39.7238C32.8832 39.8068 32.869 39.8883 32.8547 39.9674L32.8543 39.9698C32.63 41.291 32.5632 42.6324 32.6553 43.9681C32.6725 44.69 32.8293 45.4025 33.1179 46.0692C33.4435 46.9296 34.0333 47.675 34.8093 48.2071C35.5871 48.7403 36.5151 49.0341 37.4707 49.0496C38.4262 49.0651 39.3642 48.8016 40.1602 48.2941C40.955 47.7873 41.571 47.0609 41.9267 46.211C42.4242 45.1284 42.6578 43.951 42.6096 42.7686C42.5804 41.9054 42.5314 41.0355 42.4827 40.1701C42.4588 39.7455 42.4349 39.3219 42.4136 38.9009C42.4028 38.4787 42.2578 38.0698 41.9978 37.729C41.837 37.5135 41.6229 37.3398 41.3747 37.2234Z" fill="#3A3B7B"/>
<path d="M50.1737 43.7273C50.1485 43.758 50.1219 43.7899 50.0942 43.823C49.8919 42.7033 49.7045 41.584 49.5168 40.463C49.4495 40.0608 49.3818 39.6569 49.3138 39.2542L49.3061 39.2093L49.2813 39.1705C49.2344 39.0974 49.2298 39.0258 49.2298 38.873V38.8553L49.2269 38.8378C49.1761 38.5223 49.0275 38.2287 48.8003 37.9954C48.5738 37.7628 48.2796 37.6008 47.956 37.5305C47.6329 37.4541 47.2934 37.4709 46.9803 37.579C46.6679 37.6869 46.3956 37.8807 46.1974 38.1363C46.0326 38.3323 45.8976 38.5499 45.7964 38.7822C45.5667 39.2829 45.3349 39.7848 45.1026 40.288L45.0986 40.2967C44.5185 41.5531 43.9345 42.8179 43.3675 44.0926L43.3657 44.0968C43.0177 44.9233 42.7303 45.7942 42.444 46.6625C42.3868 46.8358 42.3296 47.009 42.272 47.1818C42.1686 47.4558 42.1234 47.7468 42.1389 48.0377C42.1201 48.2982 42.185 48.558 42.3252 48.7821C42.468 49.0107 42.682 49.1906 42.9369 49.2964C43.2071 49.4101 43.5091 49.4342 43.7953 49.365C44.0808 49.2959 44.3344 49.1377 44.516 48.9154C44.748 48.6415 44.9476 48.3428 45.1103 48.0263C45.5907 47.0832 46.0497 46.1288 46.5067 45.1784C46.6835 44.8108 46.8553 44.4816 47.0508 44.123C47.0642 44.1672 47.0779 44.2104 47.0921 44.2536C47.2969 45.1192 47.6427 45.9484 48.1167 46.7106C48.2063 46.8721 48.3313 47.0132 48.4829 47.1243C48.6363 47.2367 48.8135 47.3156 49.0019 47.3557C49.1903 47.3958 49.3856 47.396 49.5741 47.3563C49.7623 47.3166 49.94 47.2376 50.0935 47.1257L50.3974 46.9074L52.7559 45.0007L52.6165 45.8538C52.425 47.0264 52.2351 48.1893 52.0332 49.3524C51.9011 49.8679 51.9013 50.4064 52.0338 50.9217C52.0911 51.2118 52.2373 51.4788 52.4535 51.6888C52.6716 51.9004 52.9509 52.0442 53.2553 52.1016C53.5596 52.1589 53.8749 52.1272 54.1601 52.0104C54.4413 51.8953 54.6804 51.7029 54.8475 51.4577C55.2364 50.9946 55.4785 50.434 55.545 49.8425C55.6451 49.0073 55.7581 48.1607 55.8713 47.3143C56.0016 46.3387 56.132 45.3634 56.242 44.4069L56.2424 44.4039C56.3484 43.3568 56.3996 42.3054 56.396 41.2534C56.4192 40.9209 56.333 40.5897 56.1492 40.3067C55.9648 40.0227 55.6917 39.8018 55.369 39.6755C55.0332 39.529 54.6574 39.4898 54.2967 39.5639C53.9384 39.6374 53.614 39.8187 53.3707 40.0813C52.9357 40.4674 52.5276 40.8807 52.149 41.3183L52.1465 41.3212C51.7332 41.8155 51.3227 42.3195 50.9149 42.8202C50.6669 43.1246 50.4197 43.4283 50.1737 43.7273Z" fill="#3A3B7B"/>
</g>
<defs>
<clipPath id="clip0_1_6828">
<rect width="63.9349" height="39.4492" fill="white" transform="translate(1.58691 14.3042)"/>
</clipPath>
</defs>
</svg>
