<svg width="76" height="67" viewBox="0 0 76 67" fill="none" xmlns="http://www.w3.org/2000/svg">
<g clip-path="url(#clip0_1_6824)">
<path d="M75.7061 27.4584C75.7139 27.4017 75.7139 27.3444 75.7061 27.2876C75.7135 27.2414 75.7135 27.1943 75.7061 27.148L75.1518 23.1586C75.0719 22.6814 74.8581 22.2353 74.5344 21.8703L74.4393 21.7616L74.2653 21.5908L64.6701 13.488L64.9393 13.7519C64.7191 13.4936 64.4427 13.287 64.1303 13.1473C63.8179 13.0076 63.4775 12.9384 63.1343 12.9447H60.2209C59.7471 12.9355 59.2842 13.0832 58.9067 13.3639C58.5103 13.0849 58.033 12.938 57.545 12.9447H54.6316C54.2495 12.9387 53.8726 13.0316 53.539 13.2143C53.2053 13.3969 52.9268 13.6627 52.7317 13.9848C52.4307 14.4447 52.3177 14.999 52.4149 15.537L52.7792 18.0517C52.5379 17.9176 52.2648 17.848 51.9874 17.8499H37.8798C37.3736 17.853 36.8791 17.9985 36.4547 18.269C36.0444 18.5208 35.715 18.8814 35.5047 19.309L34.4122 18.3932C33.9822 18.0031 33.4146 17.7917 32.8289 17.8033H10.6936C10.1857 17.8124 9.68898 17.9515 9.25281 18.2069C8.65608 18.5493 8.21876 19.1061 8.0336 19.7592L1.00352 42.8104C0.872161 43.1902 0.859239 43.5998 0.966405 43.9869C1.07357 44.3739 1.29597 44.7209 1.6052 44.9836C1.68577 45.0505 1.77037 45.1127 1.85854 45.1698C1.85854 45.1698 1.71601 45.0766 1.63685 44.9991L11.232 53.1174C11.6379 53.4838 12.1686 53.6885 12.7203 53.6917H35.0298C35.5392 53.6787 36.0363 53.5342 36.4706 53.2726C36.7163 53.141 36.936 52.9675 37.1198 52.7603L37.1989 52.6517L37.3256 52.4965L37.4206 52.3257L38.4656 53.2105C38.8657 53.5623 39.3849 53.7559 39.9223 53.7538H62.2792C62.7882 53.7372 63.2842 53.5929 63.7201 53.3347C63.9602 53.195 64.1787 53.0225 64.3693 52.8225L64.4484 52.7138L64.5751 52.5586C64.6424 52.4604 64.7008 52.3565 64.7492 52.2481C64.801 52.154 64.8434 52.0552 64.8759 51.9532L71.2885 30.9045V30.7182C71.2964 30.646 71.2964 30.5731 71.2885 30.5009V30.3612C71.2962 30.3149 71.2962 30.2678 71.2885 30.2214C71.2956 30.1233 71.2956 30.0247 71.2885 29.9265H73.3469C73.5259 29.9426 73.7061 29.9426 73.8851 29.9265H74.0277C74.1436 29.8926 74.2552 29.8457 74.3602 29.7868H74.5186L74.8035 29.5695L74.9302 29.4764L75.1518 29.1969V29.1039L75.3102 28.8399C75.3014 28.7886 75.3014 28.7361 75.3102 28.6848C75.3018 28.6596 75.3018 28.6323 75.3102 28.6071C75.3439 28.5161 75.3704 28.4227 75.3894 28.3277C75.382 28.2971 75.382 28.2651 75.3894 28.2345C75.3817 28.1883 75.3817 28.1411 75.3894 28.0949C75.3894 28.0949 75.7061 27.4894 75.7061 27.4584Z" fill="black"/>
<path d="M33.4784 19.5737C33.5624 19.6482 33.6211 19.7462 33.6466 19.8544C33.6722 19.9627 33.6631 20.076 33.6209 20.1791L26.6067 43.2147C26.5184 43.4662 26.3377 43.6764 26.1 43.8046C25.9066 43.9314 25.6828 44.0063 25.4508 44.0219H3.15724C2.96685 44.0129 2.78648 43.9356 2.65056 43.8046C2.5697 43.7312 2.51296 43.6359 2.48757 43.531C2.46218 43.4259 2.46933 43.3158 2.50806 43.2147L9.53814 20.1791C9.61914 19.9244 9.79416 19.7085 10.029 19.5737C10.2255 19.456 10.4483 19.3867 10.6782 19.3719H32.9717C33.1606 19.3737 33.3417 19.4458 33.4784 19.5737ZM21.8407 38.5734L26.0366 24.8203H14.2882L10.1081 38.5734H21.8407ZM54.7586 19.8065C54.8347 19.8932 54.9298 19.9619 55.0367 20.0076C55.1436 20.0533 55.2596 20.0747 55.3762 20.0704H58.2737C58.384 20.0715 58.4927 20.0449 58.5898 19.9933C58.6867 19.9417 58.7686 19.8667 58.8279 19.7755C58.8793 19.7042 58.9157 19.6235 58.9347 19.5381C58.9537 19.4528 58.955 19.3646 58.9386 19.2787L58.3687 15.1808C58.3144 14.9911 58.2169 14.816 58.0837 14.6685C58.0076 14.5818 57.9126 14.5131 57.8057 14.4674C57.6987 14.4218 57.5827 14.4003 57.4662 14.4046H54.5687C54.4583 14.4036 54.3495 14.4301 54.2526 14.4817C54.1556 14.5333 54.0736 14.6083 54.0145 14.6996C53.9036 14.9169 53.8561 15.0566 53.9036 15.1808L54.4895 19.2787C54.5195 19.4783 54.6139 19.6632 54.7586 19.8065ZM63.9579 15.1497C63.9036 14.96 63.8061 14.7849 63.6729 14.6375C63.6001 14.5511 63.5078 14.4824 63.4035 14.4366C63.2991 14.3909 63.1854 14.3693 63.0712 14.3736H60.1578C60.0493 14.3705 59.942 14.3964 59.8472 14.4483C59.7525 14.5002 59.6738 14.5763 59.6196 14.6685C59.5142 14.8062 59.4686 14.9792 59.4929 15.1497L60.0787 19.2477C60.1154 19.4451 60.2088 19.6282 60.3479 19.7755C60.4253 19.8604 60.5206 19.928 60.6272 19.9735C60.7338 20.0191 60.8491 20.0415 60.9653 20.0393H63.8787C63.987 20.0407 64.0936 20.0142 64.1881 19.9625C64.2827 19.9107 64.3616 19.8355 64.4171 19.7444C64.4722 19.675 64.5107 19.5943 64.5299 19.5084C64.5491 19.4224 64.5484 19.3333 64.5279 19.2477L63.9579 15.1497ZM52.2094 21.3588L51.9244 19.3408H37.8801C37.6596 19.3527 37.4463 19.4224 37.2626 19.5426C37.146 19.605 37.0445 19.6914 36.9652 19.7959C36.886 19.9004 36.8308 20.0205 36.8035 20.148L35.6318 23.9976C35.585 24.0938 35.569 24.2017 35.5859 24.307C35.603 24.4123 35.652 24.5101 35.7267 24.5875C35.8603 24.7105 36.0345 24.7823 36.2176 24.7893H53.2862L49.0903 38.5424H32.0692C31.8497 38.5473 31.636 38.6118 31.4518 38.7286C31.2278 38.8681 31.0643 39.0836 30.9926 39.334L29.805 43.1837C29.7663 43.2824 29.7561 43.3898 29.7756 43.4938C29.7953 43.598 29.8437 43.6947 29.9158 43.7735C30.0452 43.9048 30.2208 43.9825 30.4067 43.9908H52.7636C52.9948 43.9713 53.2177 43.8967 53.4127 43.7735C53.6465 43.6447 53.8219 43.434 53.9036 43.1837L60.332 22.1349H53.0961C52.9813 22.1371 52.8673 22.1162 52.7611 22.0735C52.6549 22.0308 52.5588 21.9671 52.4787 21.8865C52.3477 21.7458 52.2551 21.5749 52.2094 21.3898V21.3588Z" fill="white"/>
</g>
<defs>
<clipPath id="clip0_1_6824">
<rect width="74.8174" height="40.8095" fill="white" transform="translate(0.894531 12.9443)"/>
</clipPath>
</defs>
</svg>
