<svg width="71" height="66" viewBox="0 0 71 66" fill="none" xmlns="http://www.w3.org/2000/svg">
<g clip-path="url(#clip0_1_6874)">
<path d="M16.7945 19.04C14.032 19.04 11.3828 20.1374 9.42945 22.0907L3.05461 28.4656C1.10127 30.4189 0.00390625 33.0682 0.00390625 35.8306C0.00390625 41.5831 4.6672 46.2464 10.4197 46.2464C13.1821 46.2464 15.8314 45.149 17.7847 43.1956L22.1942 38.7861C22.1942 38.786 22.1943 38.7862 22.1942 38.7861L35.042 25.9383C35.9749 25.0054 37.2402 24.4813 38.5595 24.4813C40.7683 24.4813 42.6409 25.9209 43.2902 27.913L47.3449 23.8582C45.4951 20.9611 42.2517 19.04 38.5595 19.04C35.7971 19.04 33.1478 20.1374 31.1945 22.0907L13.9372 39.3481C13.0043 40.281 11.739 40.8051 10.4197 40.8051C7.67232 40.8051 5.44517 38.578 5.44517 35.8306C5.44517 34.5113 5.96926 33.246 6.90216 32.3131L13.277 25.9383C14.2099 25.0054 15.4751 24.4813 16.7945 24.4813C19.0034 24.4813 20.8759 25.921 21.5251 27.9131L25.5799 23.8583C23.7302 20.9612 20.4867 19.04 16.7945 19.04Z" fill="#394149"/>
<path d="M35.7019 39.3481C34.769 40.281 33.5038 40.8051 32.1844 40.8051C29.9759 40.8051 28.1035 39.3659 27.4541 37.3741L23.3994 41.4288C25.2493 44.3255 28.4925 46.2464 32.1844 46.2464C34.9469 46.2464 37.5961 45.149 39.5495 43.1956L56.8068 25.9383C57.7397 25.0054 59.005 24.4813 60.3243 24.4813C63.0717 24.4813 65.2988 26.7085 65.2988 29.4558C65.2988 30.7751 64.7747 32.0404 63.8418 32.9733L57.467 39.3481C56.5341 40.281 55.2688 40.8051 53.9495 40.8051C51.7408 40.8051 49.8683 39.3656 49.2189 37.3737L45.1643 41.4284C47.0141 44.3254 50.2574 46.2464 53.9495 46.2464C56.7119 46.2464 59.3612 45.149 61.3145 43.1956L67.6893 36.8208C69.6426 34.8675 70.7401 32.2182 70.7401 29.4558C70.7401 23.7033 66.0768 19.04 60.3243 19.04C57.5619 19.04 54.9126 20.1374 52.9593 22.0907L35.7019 39.3481Z" fill="#394149"/>
</g>
<defs>
<clipPath id="clip0_1_6874">
<rect width="70.7365" height="27.2063" fill="white" transform="translate(0.00390625 19.04)"/>
</clipPath>
</defs>
</svg>
