<svg width="104" height="33" viewBox="0 0 104 33" fill="none" xmlns="http://www.w3.org/2000/svg">
<path d="M22.4197 0.466614C23.1588 0.466614 23.9016 0.466614 24.6438 0.461488C24.6356 3.1171 24.6704 5.77323 24.6274 8.42885C24.6084 10.1429 23.8852 11.9697 22.3141 12.82C20.5386 13.7242 18.2874 13.7191 16.5467 12.7365C15.0649 11.8692 14.3447 10.086 14.3847 8.42321C14.3929 5.77016 14.3873 3.1171 14.3903 0.464051H16.5488C16.5544 2.76087 16.5436 5.05512 16.5513 7.35194C16.5893 8.40732 16.5918 9.55598 17.2264 10.4555C18.0793 11.6298 19.8687 11.7406 21.0706 11.0793C22.1583 10.4232 22.3905 9.05521 22.412 7.88655C22.4305 5.41392 22.4141 2.93924 22.4197 0.466614ZM32.055 0.515308C33.9248 -0.0403162 36.0115 0.296954 37.6768 1.29287C37.6666 2.06993 37.6666 2.84442 37.6666 3.61942C36.2688 2.57737 34.4092 1.81108 32.6737 2.41796C31.9233 2.64247 31.4322 3.54561 31.7936 4.27243C32.0903 4.9685 32.8976 5.17096 33.5363 5.43032C34.9125 5.97826 36.4995 6.27247 37.52 7.43549C38.8316 9.01984 38.4995 11.8405 36.5779 12.8041C34.4159 13.9241 31.7141 13.5679 29.6413 12.4018C29.6387 11.6027 29.6387 10.8067 29.6305 10.0076C31.1908 11.209 33.3554 11.9215 35.2662 11.1901C36.3083 10.8123 36.4405 9.19104 35.4958 8.63131C34.0299 7.74354 32.2298 7.56261 30.8238 6.55592C29.588 5.66713 29.2236 3.90543 29.7366 2.51791C30.1195 1.51123 31.0457 0.812085 32.055 0.515308ZM52.121 0.27235C55.0626 2.97153 57.9238 5.76247 60.8116 8.5206V0.464051H62.9705V13.4951C60.0258 10.6985 57.1626 7.81889 54.2015 5.0377V13.2106C53.5029 13.2157 52.8063 13.2157 52.1102 13.2183C52.1138 8.904 52.0923 4.59074 52.121 0.27235ZM68.6421 0.461488C71.247 0.461488 73.8488 0.474815 76.4506 0.453287C76.4665 1.10937 76.4664 1.76495 76.4664 2.42104C74.5992 2.42104 72.7339 2.41796 70.8661 2.42104V5.45185C72.5315 5.45749 74.1942 5.45185 75.8596 5.45749V7.4114C74.1941 7.41379 72.5296 7.41379 70.8661 7.4114C70.8661 8.69282 70.8661 9.97834 70.8718 11.2603C72.7339 11.2521 74.5992 11.2603 76.4588 11.2546C76.4613 11.9297 76.4639 12.6068 76.4639 13.2818H68.637C68.6421 9.00907 68.6344 4.73682 68.6421 0.461488ZM82.7931 0.963292C84.8172 -0.207926 87.4031 0.150872 89.3893 1.23085C89.4272 2.02431 89.4272 2.81981 89.4247 3.61378C87.9833 2.53431 86.0417 1.76239 84.2723 2.46973C83.2682 2.82853 83.1519 4.34265 84.0642 4.86599C85.5507 5.7189 87.3678 5.89112 88.7578 6.93881C90.6256 8.33146 90.4877 11.7026 88.3529 12.7821C86.1909 13.9159 83.4625 13.5812 81.3948 12.3828C81.3948 11.5945 81.3948 10.8067 81.3815 10.0183C82.8874 11.0947 84.8039 11.8267 86.6609 11.3249C87.3462 11.1521 87.9751 10.5365 87.8778 9.781C87.8916 9.20334 87.4867 8.6959 86.9792 8.45858C85.5215 7.70254 83.8013 7.48931 82.4799 6.46674C80.7551 5.13047 80.8689 2.06736 82.7931 0.963292ZM95.7482 1.00686C97.756 -0.207926 100.385 0.11858 102.369 1.22778C102.377 2.01354 102.377 2.79624 102.382 3.58149C100.954 2.50202 99.0056 1.77059 97.2598 2.48306C96.2859 2.86082 96.1747 4.33189 97.065 4.86599C98.5873 5.7517 100.482 5.89112 101.875 7.02287C103.073 7.96754 103.313 9.71898 102.849 11.1009C102.414 12.331 101.175 13.0486 99.958 13.3111C98.0902 13.697 96.0958 13.3516 94.4361 12.4182C94.4089 11.6165 94.4089 10.8149 94.4063 10.0132C95.9768 11.1793 98.1173 11.9266 100.026 11.1921C101.065 10.8143 101.224 9.22179 100.288 8.64413C98.7811 7.70203 96.881 7.56773 95.4694 6.44982C93.8051 5.11458 93.883 2.13041 95.7482 1.00686ZM0.556641 0.464051C2.81963 0.596293 5.16975 0.131394 7.35945 0.844889C9.79107 1.62451 10.1365 5.42776 7.91814 6.66356C9.93971 7.50059 10.4036 10.3669 9.01658 11.9538C8.16366 12.9687 6.77102 13.2383 5.51061 13.2762C3.8586 13.3034 2.20967 13.2762 0.557666 13.2844V0.464051M2.71968 2.4236C2.71694 3.54646 2.71694 4.66916 2.71968 5.79168C3.88013 5.7353 5.08416 5.95366 6.21744 5.62715C7.586 5.23042 7.59676 2.97666 6.23641 2.56661C5.08928 2.27495 3.88833 2.47486 2.71968 2.4236ZM2.71968 7.68409C2.71455 8.89836 2.71712 10.1131 2.71968 11.3233C4.05236 11.229 5.48345 11.5852 6.74385 11.0265C7.99349 10.4166 7.88021 8.33812 6.57112 7.87117C5.32968 7.48418 3.99905 7.76866 2.71968 7.68409ZM43.8092 0.464051H45.9702V13.2844H43.8092V0.464051ZM34.9618 20.3691C36.9777 19.0923 39.6661 19.4465 41.6579 20.5988C41.6472 21.3707 41.6472 22.1426 41.6497 22.914C40.1925 21.8484 38.1899 21.0252 36.4354 21.8428C35.5691 22.2559 35.4559 23.5429 36.2355 24.1016C37.8337 25.1165 39.9578 25.1652 41.3366 26.5527C42.2592 27.4241 42.413 28.8142 42.1762 30.0018C41.9009 31.1894 40.8645 32.0746 39.7225 32.4109C37.7235 33.026 35.48 32.6943 33.6824 31.6497C33.688 30.8588 33.6906 30.0684 33.6824 29.2776C35.2021 30.419 37.2668 31.1694 39.1346 30.5C40.2622 30.1976 40.4867 28.4651 39.4662 27.8982C37.9577 26.9561 36.0387 26.8377 34.6511 25.6716C33.0781 24.342 33.1806 21.4809 34.9618 20.3691ZM9.12729 19.8294H11.2837C11.2888 24.056 11.2896 28.2844 11.2862 32.5144H9.12729V19.8294ZM17.4237 19.5326C20.2956 22.2743 23.1609 25.0273 26.0579 27.7429C26.0687 25.0817 26.0605 22.423 26.0631 19.7648C26.7807 19.7617 27.5005 19.7607 28.2225 19.7617C28.2276 24.0883 28.2169 28.4118 28.2276 32.7384C25.2993 29.9629 22.4279 27.1248 19.5217 24.3246C19.5078 27.0535 19.5217 29.7845 19.516 32.516H17.4242C17.4215 28.1868 17.4213 23.859 17.4237 19.5326ZM47.7898 19.8294H49.9492V32.5144H47.7898V19.8294ZM56.1595 19.8294C57.8978 19.8294 59.6378 19.8275 61.3795 19.8237C63.3575 19.7997 65.4006 20.812 66.3673 22.5798C67.4063 24.4363 67.4734 26.7439 66.8286 28.744C66.1377 30.8455 64.0807 32.332 61.8895 32.4739C59.9812 32.5713 58.0704 32.4878 56.1595 32.5144V19.8294ZM58.3836 21.7859V30.5549C59.93 30.4985 61.5953 30.7927 63.0336 30.0695C64.4175 29.3565 65.05 27.7373 65.0095 26.2473C65.0659 24.7413 64.5344 23.0519 63.1474 22.28C61.6922 21.4676 59.9679 21.8889 58.3836 21.7859ZM71.676 19.8294C74.2614 19.827 76.848 19.827 79.4358 19.8294C79.4358 20.4824 79.4327 21.1354 79.4327 21.7889C77.5656 21.7835 75.6996 21.7835 73.8349 21.7889V24.7521C75.4977 24.7552 77.1622 24.7562 78.8284 24.7552V26.6445C77.163 26.6445 75.4967 26.6414 73.8349 26.6445V30.5523C75.7002 30.558 77.568 30.5523 79.4358 30.5554V32.5119H71.676V19.8294ZM85.7808 19.8268C87.5323 19.8427 89.2842 19.8104 91.0331 19.8376C92.5196 19.875 94.0911 20.731 94.5186 22.2313C94.902 23.5353 94.8102 25.0817 93.9732 26.196C93.4606 26.8623 92.6293 27.114 91.8522 27.3272C93.3687 29.0406 94.8738 30.7662 96.3674 32.5042C95.5131 32.5206 94.6621 32.5206 93.8143 32.5042C92.3673 30.785 90.8927 29.09 89.439 27.3816C88.9588 27.3846 88.481 27.3846 88.0038 27.3846C87.9987 29.093 88.0013 30.8014 88.0013 32.5103C87.2591 32.5127 86.5169 32.5127 85.7747 32.5103V19.8227M88.0013 21.7192C87.9962 22.9771 87.9987 24.2349 88.0013 25.4922C89.1541 25.4277 90.3591 25.6732 91.475 25.3144C92.8543 24.7608 92.884 22.5465 91.5262 21.9565C90.4098 21.5296 89.1761 21.7807 88.0074 21.7213" fill="white"/>
</svg>
