<svg width="30" height="30" viewBox="0 0 30 30" fill="none" xmlns="http://www.w3.org/2000/svg">
<g clip-path="url(#clip0_109_5666)">
<path d="M22.5 3.09399C20.3438 1.73462 17.7656 0.937744 15 0.937744C12.2344 0.937744 9.65625 1.73462 7.5 3.09399V26.8596C9.65625 28.219 12.2344 29.0159 15 29.0159C17.7656 29.0159 20.3438 28.219 22.5 26.8596V3.09399Z" fill="#F9F9F9"/>
<path d="M22.5 3.09399V26.8596C26.4375 24.4221 29.0625 19.9221 29.0625 14.9534C29.0625 9.98462 26.4375 5.57837 22.5 3.09399ZM7.5 3.09399C3.5625 5.57837 0.9375 10.0784 0.9375 15.0002C0.9375 19.9221 3.5625 24.4221 7.5 26.9065V3.09399ZM20.1094 14.8127C19.9219 14.719 19.875 14.5315 19.9219 14.4377L20.3906 12.7502L18.75 13.0784C18.7031 13.0784 18.5156 13.0784 18.4688 12.7502L18.3281 12.1877L17.2031 13.5002C17.2031 13.5002 16.4531 14.2971 16.6875 13.0784L17.1562 10.5002L16.2656 10.969C16.2188 10.969 16.0312 11.0159 15.7969 10.5471L15 8.90649L14.1562 10.4534C13.9219 10.9221 13.7344 10.8752 13.6875 10.8752L12.7969 10.4065L13.2656 12.9846C13.5 14.2034 12.75 13.4065 12.75 13.4065L11.625 12.094L11.4844 12.6565C11.3906 12.9846 11.25 12.9846 11.2031 12.9846L9.5625 12.6565L10.0312 14.344C10.0312 14.4846 10.0312 14.6252 9.84375 14.719L9.375 15.0002C9.375 15.0002 11.25 16.5002 11.8594 17.0159C12 17.1096 12.2812 17.3909 12.1875 17.719L11.9531 18.3752L14.5312 18.0002C14.6719 18.0002 14.9531 18.0002 14.9062 18.4221L14.7656 21.094H15.2344L15.0938 18.4221C15.0938 18.0002 15.375 18.0002 15.4688 18.0002L18.0469 18.3752L17.8125 17.719C17.7188 17.3909 18 17.1096 18.1406 17.0159C18.75 16.5002 20.625 15.0002 20.625 15.0002L20.1094 14.8127Z" fill="#ED4C5C"/>
</g>
<defs>
<clipPath id="clip0_109_5666">
<rect width="30" height="30" fill="white" transform="translate(0 0.000244141)"/>
</clipPath>
</defs>
</svg>
