<svg width="22" height="21" viewBox="0 0 22 21" fill="none" xmlns="http://www.w3.org/2000/svg">
<g clip-path="url(#clip0_1_233)">
<path d="M11.1987 0.589844C5.44021 0.589844 0.754883 5.07606 0.754883 10.5898C0.754883 16.1036 5.44021 20.5898 11.1987 20.5898C16.9572 20.5898 21.6425 16.1036 21.6425 10.5898C21.6425 5.07606 16.9572 0.589844 11.1987 0.589844ZM17.0357 7.95826L10.3611 14.2991C9.96848 14.6751 9.34028 14.7001 8.92148 14.3242L5.38786 11.2415C4.96906 10.8655 4.94288 10.239 5.30933 9.83796C5.70196 9.43696 6.35633 9.4119 6.77513 9.78784L9.57586 12.244L15.5438 6.52969C15.9626 6.12869 16.6169 6.12869 17.0357 6.52969C17.4545 6.9307 17.4545 7.55726 17.0357 7.95826Z" fill="white"/>
</g>
<defs>
<clipPath id="clip0_1_233">
<rect width="20.8877" height="20" fill="white" transform="translate(0.754883 0.589844)"/>
</clipPath>
</defs>
</svg>
