<svg width="1796" height="157" viewBox="0 0 1796 157" fill="none" xmlns="http://www.w3.org/2000/svg">
<g opacity="0.3" filter="url(#filter0_g_1_7816)">
<mask id="path-1-outside-1_1_7816" maskUnits="userSpaceOnUse" x="15" y="14" width="1767" height="128" fill="black">
<rect fill="white" x="15" y="14" width="1767" height="128"/>
<path d="M82.745 140.395C73.1653 140.395 64.327 138.855 56.2299 135.776C48.1328 132.697 41.0621 128.363 35.0178 122.775C29.0876 117.073 24.4688 110.459 21.1616 102.932C17.8543 95.4048 16.2007 87.1367 16.2007 78.1272C16.2007 69.1178 17.8543 60.8497 21.1616 53.3228C24.4688 45.796 29.0876 39.2385 35.0178 33.6503C41.0621 27.9482 48.1328 23.5575 56.2299 20.4783C64.327 17.3992 73.1653 15.8596 82.745 15.8596C92.4386 15.8596 101.277 17.3992 109.26 20.4783C117.357 23.5575 124.371 27.9482 130.301 33.6503C136.231 39.2385 140.85 45.796 144.157 53.3228C147.579 60.8497 149.289 69.1178 149.289 78.1272C149.289 87.1367 147.579 95.4618 144.157 103.103C140.85 110.63 136.231 117.187 130.301 122.775C124.371 128.363 117.357 132.697 109.26 135.776C101.277 138.855 92.4386 140.395 82.745 140.395ZM82.745 112.34C87.3067 112.34 91.5263 111.542 95.4038 109.945C99.3953 108.349 102.817 106.068 105.668 103.103C108.633 100.024 110.914 96.3742 112.51 92.1546C114.221 87.935 115.076 83.2592 115.076 78.1272C115.076 72.8813 114.221 68.2055 112.51 64.0999C110.914 59.8803 108.633 56.2879 105.668 53.3228C102.817 50.2437 99.3953 47.9058 95.4038 46.3092C91.5263 44.7125 87.3067 43.9142 82.745 43.9142C78.1832 43.9142 73.9066 44.7125 69.9151 46.3092C66.0376 47.9058 62.6163 50.2437 59.6512 53.3228C56.8001 56.2879 54.5192 59.8803 52.8086 64.0999C51.212 68.2055 50.4137 72.8813 50.4137 78.1272C50.4137 83.2592 51.212 87.935 52.8086 92.1546C54.5192 96.3742 56.8001 100.024 59.6512 103.103C62.6163 106.068 66.0376 108.349 69.9151 109.945C73.9066 111.542 78.1832 112.34 82.745 112.34ZM290.398 18.2545H324.269V138H290.398V18.2545ZM244.21 138H210.339V18.2545H244.21V138ZM292.793 91.2993H241.815V63.2446H292.793V91.2993ZM334.602 138L387.461 18.2545H420.819L473.849 138H438.61L397.212 34.8478H410.555L369.157 138H334.602ZM363.512 114.735L372.236 89.7597H430.741L439.465 114.735H363.512ZM540.813 140.395C531.347 140.395 522.566 138.912 514.469 135.947C506.486 132.868 499.529 128.534 493.599 122.946C487.783 117.358 483.221 110.801 479.914 103.274C476.607 95.6329 474.953 87.2507 474.953 78.1272C474.953 69.0038 476.607 60.6786 479.914 53.1518C483.221 45.5109 487.783 38.8963 493.599 33.3082C499.529 27.7201 506.486 23.4435 514.469 20.4783C522.566 17.3992 531.347 15.8596 540.813 15.8596C551.875 15.8596 561.74 17.7983 570.407 21.6758C579.189 25.5533 586.487 31.1414 592.304 38.4402L570.749 57.9416C566.872 53.3798 562.595 49.9015 557.919 47.5066C553.358 45.1117 548.226 43.9142 542.524 43.9142C537.62 43.9142 533.115 44.7125 529.009 46.3092C524.904 47.9058 521.369 50.2437 518.403 53.3228C515.552 56.2879 513.271 59.8803 511.561 64.0999C509.964 68.3195 509.166 72.9953 509.166 78.1272C509.166 83.2592 509.964 87.935 511.561 92.1546C513.271 96.3742 515.552 100.024 518.403 103.103C521.369 106.068 524.904 108.349 529.009 109.945C533.115 111.542 537.62 112.34 542.524 112.34C548.226 112.34 553.358 111.143 557.919 108.748C562.595 106.353 566.872 102.875 570.749 98.3129L592.304 117.814C586.487 124.999 579.189 130.587 570.407 134.579C561.74 138.456 551.875 140.395 540.813 140.395ZM650.544 138V18.2545H762.934V138H729.405V37.5848L736.932 45.1117H676.546L683.902 37.5848V138H650.544ZM785.111 138V18.2545H818.469V88.5622L867.907 18.2545H899.725V138H866.367V67.8633L817.1 138H785.111ZM994.035 111.143L986.679 118.67V18.2545H1020.04V118.67L1012.34 111.143H1058.7L1051 118.67V18.2545H1084.36V138H922.017V18.2545H955.374V118.67L948.019 111.143H994.035ZM1113.38 111.143C1120.1 113.082 1125.58 113.709 1129.8 113.025C1134.13 112.226 1137.95 109.375 1141.26 104.471L1147.08 95.918L1149.98 92.6678L1187.28 18.2545H1220.29L1170.68 110.801C1165.78 119.924 1159.91 126.995 1153.06 132.013C1146.33 137.031 1138.92 139.882 1130.82 140.566C1122.73 141.25 1114.23 139.768 1105.34 136.118L1113.38 111.143ZM1149.47 119.867L1094.73 18.2545H1130.48L1167.95 95.918L1149.47 119.867ZM1253.92 138V37.5848L1261.44 45.1117H1217.14V18.2545H1323.88V45.1117H1279.75L1287.27 37.5848V138H1253.92ZM1440.77 140.395C1431.3 140.395 1422.52 138.912 1414.42 135.947C1406.44 132.868 1399.48 128.534 1393.55 122.946C1387.74 117.358 1383.18 110.801 1379.87 103.274C1376.56 95.6329 1374.91 87.2507 1374.91 78.1272C1374.91 69.0038 1376.56 60.6786 1379.87 53.1518C1383.18 45.5109 1387.74 38.8963 1393.55 33.3082C1399.48 27.7201 1406.44 23.4435 1414.42 20.4783C1422.52 17.3992 1431.3 15.8596 1440.77 15.8596C1451.83 15.8596 1461.7 17.7983 1470.36 21.6758C1479.14 25.5533 1486.44 31.1414 1492.26 38.4402L1470.7 57.9416C1466.83 53.3798 1462.55 49.9015 1457.88 47.5066C1453.31 45.1117 1448.18 43.9142 1442.48 43.9142C1437.58 43.9142 1433.07 44.7125 1428.97 46.3092C1424.86 47.9058 1421.32 50.2437 1418.36 53.3228C1415.51 56.2879 1413.23 59.8803 1411.52 64.0999C1409.92 68.3195 1409.12 72.9953 1409.12 78.1272C1409.12 83.2592 1409.92 87.935 1411.52 92.1546C1413.23 96.3742 1415.51 100.024 1418.36 103.103C1421.32 106.068 1424.86 108.349 1428.97 109.945C1433.07 111.542 1437.58 112.34 1442.48 112.34C1448.18 112.34 1453.31 111.143 1457.88 108.748C1462.55 106.353 1466.83 102.875 1470.7 98.3129L1492.26 117.814C1486.44 124.999 1479.14 130.587 1470.36 134.579C1461.7 138.456 1451.83 140.395 1440.77 140.395ZM1504.14 138V18.2545H1532.02L1581.46 99.6814H1566.75L1615.16 18.2545H1643.04L1643.39 138H1612.08L1611.91 65.6395H1617.21L1581.12 126.197H1566.06L1528.94 65.6395H1535.27V138H1504.14ZM1665.43 138V18.2545H1698.79V88.5622L1748.23 18.2545H1780.05V138H1746.69V67.8633L1697.42 138H1665.43Z"/>
</mask>
<path d="M56.2299 135.776L55.8744 136.711L55.8744 136.711L56.2299 135.776ZM35.0178 122.775L34.3247 123.496L34.3318 123.503L34.339 123.509L35.0178 122.775ZM21.1616 102.932L20.246 103.334L20.246 103.334L21.1616 102.932ZM35.0178 33.6503L35.7036 34.3781L35.704 34.3777L35.0178 33.6503ZM56.2299 20.4783L55.8744 19.5436L55.8744 19.5436L56.2299 20.4783ZM109.26 20.4783L108.9 21.4113L108.905 21.413L109.26 20.4783ZM130.301 33.6503L129.608 34.3712L129.615 34.3781L130.301 33.6503ZM144.157 53.3228L143.242 53.7251L143.247 53.7366L144.157 53.3228ZM144.157 103.103L143.245 102.694L143.242 102.7L144.157 103.103ZM130.301 122.775L130.987 123.503L130.987 123.503L130.301 122.775ZM109.26 135.776L108.905 134.841L108.9 134.843L109.26 135.776ZM95.4038 109.945L95.0324 109.017L95.023 109.021L95.4038 109.945ZM105.668 103.103L104.947 102.409L104.947 102.41L105.668 103.103ZM112.51 92.1546L111.584 91.7789L111.579 91.7897L111.575 91.8007L112.51 92.1546ZM112.51 64.0999L111.575 64.4538L111.581 64.4693L111.587 64.4845L112.51 64.0999ZM105.668 53.3228L104.934 54.0022L104.947 54.0163L104.961 54.0299L105.668 53.3228ZM95.4038 46.3092L95.023 47.2339L95.0324 47.2376L95.4038 46.3092ZM69.9151 46.3092L69.5437 45.3806L69.5343 45.3845L69.9151 46.3092ZM59.6512 53.3228L58.9309 52.6292L58.9304 52.6297L59.6512 53.3228ZM52.8086 64.0999L51.8818 63.7242L51.8792 63.7308L51.8766 63.7375L52.8086 64.0999ZM52.8086 92.1546L51.8733 92.5085L51.8774 92.5194L51.8818 92.5303L52.8086 92.1546ZM59.6512 103.103L58.9174 103.782L58.9305 103.796L58.9441 103.81L59.6512 103.103ZM69.9151 109.945L69.5343 110.87L69.5437 110.874L69.9151 109.945ZM82.745 140.395V139.395C73.274 139.395 64.5575 137.873 56.5853 134.841L56.2299 135.776L55.8744 136.711C64.0965 139.838 73.0567 141.395 82.745 141.395V140.395ZM56.2299 135.776L56.5853 134.841C48.6015 131.805 41.6421 127.538 35.6967 122.041L35.0178 122.775L34.339 123.509C40.4821 129.189 47.6641 133.589 55.8744 136.711L56.2299 135.776ZM35.0178 122.775L35.7109 122.054C29.8749 116.443 25.3317 109.936 22.0771 102.529L21.1616 102.932L20.246 103.334C23.6059 110.981 28.3003 117.703 34.3247 123.496L35.0178 122.775ZM21.1616 102.932L22.0771 102.529C18.8307 95.141 17.2007 87.0116 17.2007 78.1272H16.2007H15.2007C15.2007 87.2618 16.8779 95.6686 20.246 103.334L21.1616 102.932ZM16.2007 78.1272H17.2007C17.2007 69.2429 18.8307 61.1135 22.0771 53.7251L21.1616 53.3228L20.246 52.9205C16.8779 60.5859 15.2007 68.9927 15.2007 78.1272H16.2007ZM21.1616 53.3228L22.0771 53.7251C25.3309 46.3199 29.8719 39.8734 35.7036 34.3781L35.0178 33.6503L34.332 32.9226C28.3032 38.6035 23.6068 45.272 20.246 52.9205L21.1616 53.3228ZM35.0178 33.6503L35.704 34.3777C41.6487 28.7696 48.6057 24.4475 56.5853 21.413L56.2299 20.4783L55.8744 19.5436C47.6599 22.6675 40.4755 27.1268 34.3316 32.923L35.0178 33.6503ZM56.2299 20.4783L56.5853 21.413C64.5575 18.3814 73.274 16.8596 82.745 16.8596V15.8596V14.8596C73.0567 14.8596 64.0965 16.417 55.8744 19.5436L56.2299 20.4783ZM82.745 15.8596V16.8596C92.3318 16.8596 101.046 18.3819 108.9 21.4113L109.26 20.4783L109.62 19.5453C101.508 16.4164 92.5455 14.8596 82.745 14.8596V15.8596ZM109.26 20.4783L108.905 21.413C116.883 24.4469 123.78 28.7672 129.608 34.3712L130.301 33.6503L130.994 32.9295C124.962 27.1292 117.832 22.6681 109.615 19.5436L109.26 20.4783ZM130.301 33.6503L129.615 34.3781C135.447 39.8734 139.988 46.3199 143.242 53.7251L144.157 53.3228L145.073 52.9205C141.712 45.272 137.016 38.6035 130.987 32.9226L130.301 33.6503ZM144.157 53.3228L143.247 53.7366C146.604 61.1222 148.289 69.2476 148.289 78.1272H149.289H150.289C150.289 68.988 148.553 60.5771 145.068 52.909L144.157 53.3228ZM149.289 78.1272H148.289C148.289 87.0067 146.604 95.1913 143.245 102.694L144.157 103.103L145.07 103.511C148.553 95.7324 150.289 87.2666 150.289 78.1272H149.289ZM144.157 103.103L143.242 102.7C139.988 110.106 135.447 116.552 129.615 122.047L130.301 122.775L130.987 123.503C137.016 117.822 141.712 111.154 145.073 103.505L144.157 103.103ZM130.301 122.775L129.615 122.047C123.786 127.54 116.887 131.806 108.905 134.841L109.26 135.776L109.615 136.711C117.827 133.588 124.955 129.187 130.987 123.503L130.301 122.775ZM109.26 135.776L108.9 134.843C101.046 137.873 92.3318 139.395 82.745 139.395V140.395V141.395C92.5455 141.395 101.508 139.838 109.62 136.709L109.26 135.776ZM82.745 112.34V113.34C87.4258 113.34 91.776 112.521 95.7845 110.87L95.4038 109.945L95.023 109.021C91.2766 110.563 87.1876 111.34 82.745 111.34V112.34ZM95.4038 109.945L95.7752 110.874C99.8925 109.227 103.435 106.868 106.389 103.796L105.668 103.103L104.947 102.41C102.199 105.268 98.8981 107.471 95.0324 109.017L95.4038 109.945ZM105.668 103.103L106.388 103.796C109.452 100.614 111.804 96.8476 113.446 92.5085L112.51 92.1546L111.575 91.8007C110.024 95.9008 107.813 99.4328 104.947 102.409L105.668 103.103ZM112.51 92.1546L113.437 92.5303C115.202 88.1771 116.076 83.3717 116.076 78.1272H115.076H114.076C114.076 83.1467 113.24 87.6928 111.584 91.7789L112.51 92.1546ZM115.076 78.1272H116.076C116.076 72.7725 115.203 67.9625 113.433 63.7153L112.51 64.0999L111.587 64.4845C113.239 68.4484 114.076 72.99 114.076 78.1272H115.076ZM112.51 64.0999L113.446 63.746C111.803 59.4041 109.448 55.6885 106.375 52.6157L105.668 53.3228L104.961 54.0299C107.818 56.8874 110.025 60.3566 111.575 64.4538L112.51 64.0999ZM105.668 53.3228L106.401 52.6434C103.447 49.4526 99.901 47.031 95.7752 45.3807L95.4038 46.3092L95.0324 47.2376C98.8896 48.7805 102.186 51.0347 104.934 54.0022L105.668 53.3228ZM95.4038 46.3092L95.7845 45.3845C91.776 43.7339 87.4258 42.9142 82.745 42.9142V43.9142V44.9142C87.1876 44.9142 91.2766 45.6912 95.023 47.2338L95.4038 46.3092ZM82.745 43.9142V42.9142C78.0639 42.9142 73.6604 43.734 69.5437 45.3807L69.9151 46.3092L70.2865 47.2376C74.1528 45.6911 78.3026 44.9142 82.745 44.9142V43.9142ZM69.9151 46.3092L69.5343 45.3845C65.5264 47.0348 61.9901 49.4523 58.9309 52.6292L59.6512 53.3228L60.3715 54.0165C63.2426 51.035 66.5488 48.7767 70.2958 47.2338L69.9151 46.3092ZM59.6512 53.3228L58.9304 52.6297C55.9821 55.6959 53.6352 59.3993 51.8818 63.7242L52.8086 64.0999L53.7353 64.4756C55.4033 60.3613 57.6181 56.88 60.372 54.0159L59.6512 53.3228ZM52.8086 64.0999L51.8766 63.7375C50.2274 67.9783 49.4137 72.7804 49.4137 78.1272H50.4137H51.4137C51.4137 72.9821 52.1966 68.4326 53.7406 64.4624L52.8086 64.0999ZM50.4137 78.1272H49.4137C49.4137 83.3636 50.2284 88.1614 51.8733 92.5085L52.8086 92.1546L53.7439 91.8007C52.1955 87.7086 51.4137 83.1547 51.4137 78.1272H50.4137ZM52.8086 92.1546L51.8818 92.5303C53.6341 96.8524 55.9775 100.607 58.9174 103.782L59.6512 103.103L60.3849 102.423C57.6228 99.4402 55.4044 95.896 53.7353 91.7789L52.8086 92.1546ZM59.6512 103.103L58.9441 103.81C62.0026 106.868 65.5348 109.223 69.5343 110.87L69.9151 109.945L70.2958 109.021C66.5404 107.474 63.2301 105.267 60.3583 102.396L59.6512 103.103ZM69.9151 109.945L69.5437 110.874C73.6604 112.521 78.0639 113.34 82.745 113.34V112.34V111.34C78.3026 111.34 74.1528 110.563 70.2865 109.017L69.9151 109.945ZM290.398 18.2545V17.2545H289.398V18.2545H290.398ZM324.269 18.2545H325.269V17.2545H324.269V18.2545ZM324.269 138V139H325.269V138H324.269ZM290.398 138H289.398V139H290.398V138ZM244.21 138V139H245.21V138H244.21ZM210.339 138H209.339V139H210.339V138ZM210.339 18.2545V17.2545H209.339V18.2545H210.339ZM244.21 18.2545H245.21V17.2545H244.21V18.2545ZM292.793 91.2993V92.2993H293.793V91.2993H292.793ZM241.815 91.2993H240.815V92.2993H241.815V91.2993ZM241.815 63.2446V62.2446H240.815V63.2446H241.815ZM292.793 63.2446H293.793V62.2446H292.793V63.2446ZM290.398 18.2545V19.2545H324.269V18.2545V17.2545H290.398V18.2545ZM324.269 18.2545H323.269V138H324.269H325.269V18.2545H324.269ZM324.269 138V137H290.398V138V139H324.269V138ZM290.398 138H291.398V18.2545H290.398H289.398V138H290.398ZM244.21 138V137H210.339V138V139H244.21V138ZM210.339 138H211.339V18.2545H210.339H209.339V138H210.339ZM210.339 18.2545V19.2545H244.21V18.2545V17.2545H210.339V18.2545ZM244.21 18.2545H243.21V138H244.21H245.21V18.2545H244.21ZM292.793 91.2993V90.2993H241.815V91.2993V92.2993H292.793V91.2993ZM241.815 91.2993H242.815V63.2446H241.815H240.815V91.2993H241.815ZM241.815 63.2446V64.2446H292.793V63.2446V62.2446H241.815V63.2446ZM292.793 63.2446H291.793V91.2993H292.793H293.793V63.2446H292.793ZM334.602 138L333.687 137.596L333.068 139H334.602V138ZM387.461 18.2545V17.2545H386.81L386.546 17.8507L387.461 18.2545ZM420.819 18.2545L421.733 17.8496L421.47 17.2545H420.819V18.2545ZM473.849 138V139H475.386L474.763 137.595L473.849 138ZM438.61 138L437.682 138.372L437.933 139H438.61V138ZM397.212 34.8478V33.8478H395.733L396.284 35.2202L397.212 34.8478ZM410.555 34.8478L411.483 35.2202L412.034 33.8478H410.555V34.8478ZM369.157 138V139H369.833L370.085 138.372L369.157 138ZM363.512 114.735L362.568 114.405L362.104 115.735H363.512V114.735ZM372.236 89.7597V88.7597H371.526L371.292 89.4299L372.236 89.7597ZM430.741 89.7597L431.685 89.4299L431.451 88.7597H430.741V89.7597ZM439.465 114.735V115.735H440.874L440.409 114.405L439.465 114.735ZM334.602 138L335.517 138.404L388.376 18.6583L387.461 18.2545L386.546 17.8507L333.687 137.596L334.602 138ZM387.461 18.2545V19.2545H420.819V18.2545V17.2545H387.461V18.2545ZM420.819 18.2545L419.905 18.6594L472.935 138.405L473.849 138L474.763 137.595L421.733 17.8496L420.819 18.2545ZM473.849 138V137H438.61V138V139H473.849V138ZM438.61 138L439.538 137.628L398.14 34.4753L397.212 34.8478L396.284 35.2202L437.682 138.372L438.61 138ZM397.212 34.8478V35.8478H410.555V34.8478V33.8478H397.212V34.8478ZM410.555 34.8478L409.627 34.4753L368.229 137.628L369.157 138L370.085 138.372L411.483 35.2202L410.555 34.8478ZM369.157 138V137H334.602V138V139H369.157V138ZM363.512 114.735L364.456 115.065L373.18 90.0894L372.236 89.7597L371.292 89.4299L362.568 114.405L363.512 114.735ZM372.236 89.7597V90.7597H430.741V89.7597V88.7597H372.236V89.7597ZM430.741 89.7597L429.797 90.0894L438.521 115.065L439.465 114.735L440.409 114.405L431.685 89.4299L430.741 89.7597ZM439.465 114.735V113.735H363.512V114.735V115.735H439.465V114.735ZM514.469 135.947L514.109 136.88L514.117 136.883L514.125 136.886L514.469 135.947ZM493.599 122.946L492.906 123.667L492.913 123.674L493.599 122.946ZM479.914 103.274L478.996 103.671L478.998 103.676L479.914 103.274ZM479.914 53.1518L480.829 53.554L480.832 53.549L479.914 53.1518ZM493.599 33.3082L492.913 32.5804L492.906 32.5871L493.599 33.3082ZM514.469 20.4783L514.817 21.4158L514.824 21.413L514.469 20.4783ZM570.407 21.6758L569.999 22.5886L570.003 22.5906L570.407 21.6758ZM592.304 38.4402L592.974 39.1817L593.671 38.5515L593.086 37.817L592.304 38.4402ZM570.749 57.9416L569.987 58.5892L570.655 59.3751L571.42 58.6831L570.749 57.9416ZM557.919 47.5066L557.455 48.392L557.464 48.3966L557.919 47.5066ZM529.009 46.3092L528.647 45.3772L528.647 45.3772L529.009 46.3092ZM518.403 53.3228L517.683 52.6292L517.683 52.6297L518.403 53.3228ZM511.561 64.0999L510.634 63.7242L510.63 63.7351L510.626 63.746L511.561 64.0999ZM511.561 92.1546L510.626 92.5085L510.63 92.5194L510.634 92.5303L511.561 92.1546ZM518.403 103.103L517.67 103.782L517.683 103.796L517.696 103.81L518.403 103.103ZM529.009 109.945L528.647 110.877L528.647 110.877L529.009 109.945ZM557.919 108.748L557.464 107.858L557.455 107.862L557.919 108.748ZM570.749 98.3129L571.42 97.5714L570.655 96.8794L569.987 97.6653L570.749 98.3129ZM592.304 117.814L593.081 118.444L593.676 117.708L592.974 117.073L592.304 117.814ZM570.407 134.579L570.816 135.492L570.821 135.489L570.407 134.579ZM540.813 140.395V139.395C531.453 139.395 522.789 137.929 514.813 135.008L514.469 135.947L514.125 136.886C522.343 139.895 531.241 141.395 540.813 141.395V140.395ZM514.469 135.947L514.829 135.014C506.961 131.979 500.116 127.713 494.285 122.218L493.599 122.946L492.913 123.674C498.942 129.355 506.011 133.757 514.109 136.88L514.469 135.947ZM493.599 122.946L494.292 122.225C488.572 116.73 484.085 110.281 480.829 102.872L479.914 103.274L478.998 103.676C482.357 111.32 486.994 117.987 492.906 123.667L493.599 122.946ZM479.914 103.274L480.832 102.877C477.584 95.3726 475.953 87.1273 475.953 78.1272H474.953H473.953C473.953 87.3742 475.63 95.8932 478.996 103.671L479.914 103.274ZM474.953 78.1272H475.953C475.953 69.127 477.584 60.9408 480.829 53.554L479.914 53.1518L478.998 52.7495C475.629 60.4164 473.953 68.8806 473.953 78.1272H474.953ZM479.914 53.1518L480.832 53.549C484.088 46.0259 488.574 39.5225 494.292 34.0293L493.599 33.3082L492.906 32.5871C486.991 38.2702 482.354 44.9958 478.996 52.7545L479.914 53.1518ZM493.599 33.3082L494.285 34.036C500.113 28.5438 506.954 24.3364 514.817 21.4158L514.469 20.4783L514.121 19.5409C506.018 22.5505 498.945 26.8964 492.913 32.5804L493.599 33.3082ZM514.469 20.4783L514.824 21.413C522.798 18.3809 531.458 16.8596 540.813 16.8596V15.8596V14.8596C531.237 14.8596 522.334 16.4175 514.113 19.5436L514.469 20.4783ZM540.813 15.8596V16.8596C551.757 16.8596 561.479 18.7773 569.999 22.5886L570.407 21.6758L570.816 20.763C562 16.8193 551.993 14.8596 540.813 14.8596V15.8596ZM570.407 21.6758L570.003 22.5906C578.641 26.4048 585.809 31.8946 591.521 39.0634L592.304 38.4402L593.086 37.817C587.166 30.3882 579.736 24.7018 570.811 20.761L570.407 21.6758ZM592.304 38.4402L591.633 37.6986L570.078 57.2L570.749 57.9416L571.42 58.6831L592.974 39.1817L592.304 38.4402ZM570.749 57.9416L571.511 57.2939C567.56 52.646 563.183 49.0792 558.375 46.6166L557.919 47.5066L557.464 48.3966C562.007 50.7239 566.183 54.1137 569.987 58.5892L570.749 57.9416ZM557.919 47.5066L558.384 46.6212C553.664 44.1433 548.37 42.9142 542.524 42.9142V43.9142V44.9142C548.081 44.9142 553.051 46.0801 557.455 48.392L557.919 47.5066ZM542.524 43.9142V42.9142C537.51 42.9142 532.88 43.7308 528.647 45.3772L529.009 46.3092L529.372 47.2412C533.35 45.6943 537.73 44.9142 542.524 44.9142V43.9142ZM529.009 46.3092L528.647 45.3772C524.411 47.0247 520.752 49.4423 517.683 52.6292L518.403 53.3228L519.124 54.0165C521.985 51.045 525.397 48.7869 529.372 47.2412L529.009 46.3092ZM518.403 53.3228L517.683 52.6297C514.734 55.6959 512.387 59.3993 510.634 63.7242L511.561 64.0999L512.488 64.4756C514.156 60.3613 516.37 56.88 519.124 54.0159L518.403 53.3228ZM511.561 64.0999L510.626 63.746C508.981 68.0931 508.166 72.8908 508.166 78.1272H509.166H510.166C510.166 73.0997 510.948 68.5459 512.496 64.4538L511.561 64.0999ZM509.166 78.1272H508.166C508.166 83.3636 508.981 88.1614 510.626 92.5085L511.561 92.1546L512.496 91.8007C510.948 87.7086 510.166 83.1547 510.166 78.1272H509.166ZM511.561 92.1546L510.634 92.5303C512.386 96.8524 514.73 100.607 517.67 103.782L518.403 103.103L519.137 102.423C516.375 99.4402 514.157 95.896 512.488 91.7789L511.561 92.1546ZM518.403 103.103L517.696 103.81C520.764 106.878 524.419 109.233 528.647 110.877L529.009 109.945L529.372 109.013C525.389 107.464 521.973 105.258 519.111 102.396L518.403 103.103ZM529.009 109.945L528.647 110.877C532.88 112.524 537.51 113.34 542.524 113.34V112.34V111.34C537.73 111.34 533.35 110.56 529.372 109.013L529.009 109.945ZM542.524 112.34V113.34C548.37 113.34 553.664 112.111 558.384 109.633L557.919 108.748L557.455 107.862C553.051 110.174 548.081 111.34 542.524 111.34V112.34ZM557.919 108.748L558.375 109.638C563.183 107.175 567.56 103.609 571.511 98.9606L570.749 98.3129L569.987 97.6653C566.183 102.141 562.007 105.531 557.464 107.858L557.919 108.748ZM570.749 98.3129L570.078 99.0545L591.633 118.556L592.304 117.814L592.974 117.073L571.42 97.5714L570.749 98.3129ZM592.304 117.814L591.526 117.185C585.812 124.244 578.64 129.738 569.993 133.668L570.407 134.579L570.821 135.489C579.737 131.436 587.163 125.754 593.081 118.444L592.304 117.814ZM570.407 134.579L569.999 133.666C561.479 137.477 551.757 139.395 540.813 139.395V140.395V141.395C551.993 141.395 562 139.435 570.816 135.492L570.407 134.579ZM650.544 138H649.544V139H650.544V138ZM650.544 18.2545V17.2545H649.544V18.2545H650.544ZM762.934 18.2545H763.934V17.2545H762.934V18.2545ZM762.934 138V139H763.934V138H762.934ZM729.405 138H728.405V139H729.405V138ZM729.405 37.5848L730.113 36.8777L728.405 35.1706V37.5848H729.405ZM736.932 45.1117V46.1117H739.347L737.639 44.4046L736.932 45.1117ZM676.546 45.1117L675.831 44.4128L674.171 46.1117H676.546V45.1117ZM683.902 37.5848H684.902V35.1308L683.187 36.8859L683.902 37.5848ZM683.902 138V139H684.902V138H683.902ZM650.544 138H651.544V18.2545H650.544H649.544V138H650.544ZM650.544 18.2545V19.2545H762.934V18.2545V17.2545H650.544V18.2545ZM762.934 18.2545H761.934V138H762.934H763.934V18.2545H762.934ZM762.934 138V137H729.405V138V139H762.934V138ZM729.405 138H730.405V37.5848H729.405H728.405V138H729.405ZM729.405 37.5848L728.698 38.2919L736.225 45.8188L736.932 45.1117L737.639 44.4046L730.113 36.8777L729.405 37.5848ZM736.932 45.1117V44.1117H676.546V45.1117V46.1117H736.932V45.1117ZM676.546 45.1117L677.262 45.8106L684.617 38.2838L683.902 37.5848L683.187 36.8859L675.831 44.4128L676.546 45.1117ZM683.902 37.5848H682.902V138H683.902H684.902V37.5848H683.902ZM683.902 138V137H650.544V138V139H683.902V138ZM785.111 138H784.111V139H785.111V138ZM785.111 18.2545V17.2545H784.111V18.2545H785.111ZM818.469 18.2545H819.469V17.2545H818.469V18.2545ZM818.469 88.5622H817.469V91.7229L819.287 89.1374L818.469 88.5622ZM867.907 18.2545V17.2545H867.387L867.089 17.6793L867.907 18.2545ZM899.725 18.2545H900.725V17.2545H899.725V18.2545ZM899.725 138V139H900.725V138H899.725ZM866.367 138H865.367V139H866.367V138ZM866.367 67.8633H867.367V64.7L865.549 67.2885L866.367 67.8633ZM817.1 138V139H817.62L817.919 138.575L817.1 138ZM785.111 138H786.111V18.2545H785.111H784.111V138H785.111ZM785.111 18.2545V19.2545H818.469V18.2545V17.2545H785.111V18.2545ZM818.469 18.2545H817.469V88.5622H818.469H819.469V18.2545H818.469ZM818.469 88.5622L819.287 89.1374L868.725 18.8297L867.907 18.2545L867.089 17.6793L817.651 87.987L818.469 88.5622ZM867.907 18.2545V19.2545H899.725V18.2545V17.2545H867.907V18.2545ZM899.725 18.2545H898.725V138H899.725H900.725V18.2545H899.725ZM899.725 138V137H866.367V138V139H899.725V138ZM866.367 138H867.367V67.8633H866.367H865.367V138H866.367ZM866.367 67.8633L865.549 67.2885L816.282 137.425L817.1 138L817.919 138.575L867.185 68.4381L866.367 67.8633ZM817.1 138V137H785.111V138V139H817.1V138ZM994.035 111.143L994.75 111.842L996.411 110.143H994.035V111.143ZM986.679 118.67H985.679V121.124L987.394 119.369L986.679 118.67ZM986.679 18.2545V17.2545H985.679V18.2545H986.679ZM1020.04 18.2545H1021.04V17.2545H1020.04V18.2545ZM1020.04 118.67L1019.34 119.385L1021.04 121.046V118.67H1020.04ZM1012.34 111.143V110.143H1009.89L1011.64 111.858L1012.34 111.143ZM1058.7 111.143L1059.4 111.858L1061.15 110.143H1058.7V111.143ZM1051 118.67H1050V121.046L1051.7 119.385L1051 118.67ZM1051 18.2545V17.2545H1050V18.2545H1051ZM1084.36 18.2545H1085.36V17.2545H1084.36V18.2545ZM1084.36 138V139H1085.36V138H1084.36ZM922.017 138H921.017V139H922.017V138ZM922.017 18.2545V17.2545H921.017V18.2545H922.017ZM955.374 18.2545H956.374V17.2545H955.374V18.2545ZM955.374 118.67L954.659 119.369L956.374 121.124V118.67H955.374ZM948.019 111.143V110.143H945.643L947.303 111.842L948.019 111.143ZM994.035 111.143L993.32 110.444L985.964 117.971L986.679 118.67L987.394 119.369L994.75 111.842L994.035 111.143ZM986.679 118.67H987.679V18.2545H986.679H985.679V118.67H986.679ZM986.679 18.2545V19.2545H1020.04V18.2545V17.2545H986.679V18.2545ZM1020.04 18.2545H1019.04V118.67H1020.04H1021.04V18.2545H1020.04ZM1020.04 118.67L1020.74 117.955L1013.04 110.428L1012.34 111.143L1011.64 111.858L1019.34 119.385L1020.04 118.67ZM1012.34 111.143V112.143H1058.7V111.143V110.143H1012.34V111.143ZM1058.7 111.143L1058 110.428L1050.3 117.955L1051 118.67L1051.7 119.385L1059.4 111.858L1058.7 111.143ZM1051 118.67H1052V18.2545H1051H1050V118.67H1051ZM1051 18.2545V19.2545H1084.36V18.2545V17.2545H1051V18.2545ZM1084.36 18.2545H1083.36V138H1084.36H1085.36V18.2545H1084.36ZM1084.36 138V137H922.017V138V139H1084.36V138ZM922.017 138H923.017V18.2545H922.017H921.017V138H922.017ZM922.017 18.2545V19.2545H955.374V18.2545V17.2545H922.017V18.2545ZM955.374 18.2545H954.374V118.67H955.374H956.374V18.2545H955.374ZM955.374 118.67L956.09 117.971L948.734 110.444L948.019 111.143L947.303 111.842L954.659 119.369L955.374 118.67ZM948.019 111.143V112.143H994.035V111.143V110.143H948.019V111.143ZM1113.38 111.143L1113.65 110.182L1112.72 109.913L1112.42 110.836L1113.38 111.143ZM1129.8 113.025L1129.96 114.012L1129.97 114.01L1129.98 114.008L1129.8 113.025ZM1141.26 104.471L1140.43 103.909L1140.43 103.912L1141.26 104.471ZM1147.08 95.918L1146.33 95.2512L1146.29 95.3007L1146.25 95.3557L1147.08 95.918ZM1149.98 92.6678L1150.73 93.3346L1150.82 93.2351L1150.88 93.1158L1149.98 92.6678ZM1187.28 18.2545V17.2545H1186.66L1186.38 17.8065L1187.28 18.2545ZM1220.29 18.2545L1221.17 18.7269L1221.96 17.2545H1220.29V18.2545ZM1170.68 110.801L1171.56 111.274L1171.56 111.273L1170.68 110.801ZM1153.06 132.013L1152.47 131.206L1152.46 131.211L1153.06 132.013ZM1130.82 140.566L1130.74 139.57L1130.74 139.57L1130.82 140.566ZM1105.34 136.118L1104.38 135.812L1104.1 136.692L1104.96 137.043L1105.34 136.118ZM1149.47 119.867L1148.59 120.341L1149.32 121.698L1150.26 120.478L1149.47 119.867ZM1094.73 18.2545V17.2545H1093.05L1093.85 18.7288L1094.73 18.2545ZM1130.48 18.2545L1131.38 17.82L1131.11 17.2545H1130.48V18.2545ZM1167.95 95.918L1168.74 96.5288L1169.11 96.0398L1168.85 95.4835L1167.95 95.918ZM1113.38 111.143L1113.1 112.104C1119.89 114.06 1125.53 114.73 1129.96 114.012L1129.8 113.025L1129.64 112.037C1125.63 112.688 1120.32 112.103 1113.65 110.182L1113.38 111.143ZM1129.8 113.025L1129.98 114.008C1134.66 113.146 1138.68 110.078 1142.09 105.03L1141.26 104.471L1140.43 103.912C1137.22 108.672 1133.61 111.306 1129.62 112.041L1129.8 113.025ZM1141.26 104.471L1142.09 105.034L1147.9 96.4803L1147.08 95.918L1146.25 95.3557L1140.43 103.909L1141.26 104.471ZM1147.08 95.918L1147.82 96.5848L1150.73 93.3346L1149.98 92.6678L1149.24 92.001L1146.33 95.2512L1147.08 95.918ZM1149.98 92.6678L1150.88 93.1158L1188.17 18.7025L1187.28 18.2545L1186.38 17.8065L1149.09 92.2197L1149.98 92.6678ZM1187.28 18.2545V19.2545H1220.29V18.2545V17.2545H1187.28V18.2545ZM1220.29 18.2545L1219.41 17.782L1169.8 110.328L1170.68 110.801L1171.56 111.273L1221.17 18.7269L1220.29 18.2545ZM1170.68 110.801L1169.8 110.327C1164.95 119.348 1159.17 126.294 1152.47 131.206L1153.06 132.013L1153.65 132.819C1160.64 127.696 1166.6 120.5 1171.56 111.274L1170.68 110.801ZM1153.06 132.013L1152.46 131.211C1145.88 136.121 1138.64 138.902 1130.74 139.57L1130.82 140.566L1130.91 141.562C1139.2 140.862 1146.79 137.94 1153.66 132.814L1153.06 132.013ZM1130.82 140.566L1130.74 139.57C1122.83 140.238 1114.49 138.793 1105.71 135.193L1105.34 136.118L1104.96 137.043C1113.97 140.742 1122.63 142.262 1130.91 141.562L1130.82 140.566ZM1105.34 136.118L1106.29 136.425L1114.33 111.449L1113.38 111.143L1112.42 110.836L1104.38 135.812L1105.34 136.118ZM1149.47 119.867L1150.35 119.393L1095.61 17.7802L1094.73 18.2545L1093.85 18.7288L1148.59 120.341L1149.47 119.867ZM1094.73 18.2545V19.2545H1130.48V18.2545V17.2545H1094.73V18.2545ZM1130.48 18.2545L1129.58 18.689L1167.04 96.3525L1167.95 95.918L1168.85 95.4835L1131.38 17.82L1130.48 18.2545ZM1167.95 95.918L1167.15 95.3072L1148.68 119.256L1149.47 119.867L1150.26 120.478L1168.74 96.5288L1167.95 95.918ZM1253.92 138H1252.92V139H1253.92V138ZM1253.92 37.5848L1254.62 36.8777L1252.92 35.1706V37.5848H1253.92ZM1261.44 45.1117V46.1117H1263.86L1262.15 44.4046L1261.44 45.1117ZM1217.14 45.1117H1216.14V46.1117H1217.14V45.1117ZM1217.14 18.2545V17.2545H1216.14V18.2545H1217.14ZM1323.88 18.2545H1324.88V17.2545H1323.88V18.2545ZM1323.88 45.1117V46.1117H1324.88V45.1117H1323.88ZM1279.75 45.1117L1279.04 44.4046L1277.33 46.1117H1279.75V45.1117ZM1287.27 37.5848H1288.27V35.1706L1286.57 36.8777L1287.27 37.5848ZM1287.27 138V139H1288.27V138H1287.27ZM1253.92 138H1254.92V37.5848H1253.92H1252.92V138H1253.92ZM1253.92 37.5848L1253.21 38.2919L1260.74 45.8188L1261.44 45.1117L1262.15 44.4046L1254.62 36.8777L1253.92 37.5848ZM1261.44 45.1117V44.1117H1217.14V45.1117V46.1117H1261.44V45.1117ZM1217.14 45.1117H1218.14V18.2545H1217.14H1216.14V45.1117H1217.14ZM1217.14 18.2545V19.2545H1323.88V18.2545V17.2545H1217.14V18.2545ZM1323.88 18.2545H1322.88V45.1117H1323.88H1324.88V18.2545H1323.88ZM1323.88 45.1117V44.1117H1279.75V45.1117V46.1117H1323.88V45.1117ZM1279.75 45.1117L1280.45 45.8188L1287.98 38.2919L1287.27 37.5848L1286.57 36.8777L1279.04 44.4046L1279.75 45.1117ZM1287.27 37.5848H1286.27V138H1287.27H1288.27V37.5848H1287.27ZM1287.27 138V137H1253.92V138V139H1287.27V138ZM1414.42 135.947L1414.06 136.88L1414.07 136.883L1414.08 136.886L1414.42 135.947ZM1393.55 122.946L1392.86 123.667L1392.87 123.674L1393.55 122.946ZM1379.87 103.274L1378.95 103.671L1378.95 103.676L1379.87 103.274ZM1379.87 53.1518L1380.78 53.554L1380.79 53.549L1379.87 53.1518ZM1393.55 33.3082L1392.87 32.5804L1392.86 32.5871L1393.55 33.3082ZM1414.42 20.4783L1414.77 21.4158L1414.78 21.413L1414.42 20.4783ZM1470.36 21.6758L1469.95 22.5886L1469.96 22.5906L1470.36 21.6758ZM1492.26 38.4402L1492.93 39.1817L1493.63 38.5515L1493.04 37.817L1492.26 38.4402ZM1470.7 57.9416L1469.94 58.5892L1470.61 59.3751L1471.38 58.6831L1470.7 57.9416ZM1457.88 47.5066L1457.41 48.392L1457.42 48.3966L1457.88 47.5066ZM1428.97 46.3092L1428.6 45.3772L1428.6 45.3772L1428.97 46.3092ZM1418.36 53.3228L1417.64 52.6292L1417.64 52.6297L1418.36 53.3228ZM1411.52 64.0999L1410.59 63.7242L1410.59 63.7351L1410.58 63.746L1411.52 64.0999ZM1411.52 92.1546L1410.58 92.5085L1410.59 92.5194L1410.59 92.5303L1411.52 92.1546ZM1418.36 103.103L1417.63 103.782L1417.64 103.796L1417.65 103.81L1418.36 103.103ZM1428.97 109.945L1428.6 110.877L1428.6 110.877L1428.97 109.945ZM1457.88 108.748L1457.42 107.858L1457.41 107.862L1457.88 108.748ZM1470.7 98.3129L1471.38 97.5714L1470.61 96.8794L1469.94 97.6653L1470.7 98.3129ZM1492.26 117.814L1493.04 118.444L1493.63 117.708L1492.93 117.073L1492.26 117.814ZM1470.36 134.579L1470.77 135.492L1470.78 135.489L1470.36 134.579ZM1440.77 140.395V139.395C1431.41 139.395 1422.75 137.929 1414.77 135.008L1414.42 135.947L1414.08 136.886C1422.3 139.895 1431.2 141.395 1440.77 141.395V140.395ZM1414.42 135.947L1414.78 135.014C1406.92 131.979 1400.07 127.713 1394.24 122.218L1393.55 122.946L1392.87 123.674C1398.9 129.355 1405.97 133.757 1414.06 136.88L1414.42 135.947ZM1393.55 122.946L1394.25 122.225C1388.53 116.73 1384.04 110.281 1380.78 102.872L1379.87 103.274L1378.95 103.676C1382.31 111.32 1386.95 117.987 1392.86 123.667L1393.55 122.946ZM1379.87 103.274L1380.79 102.877C1377.54 95.3726 1375.91 87.1273 1375.91 78.1272H1374.91H1373.91C1373.91 87.3742 1375.59 95.8932 1378.95 103.671L1379.87 103.274ZM1374.91 78.1272H1375.91C1375.91 69.127 1377.54 60.9408 1380.78 53.554L1379.87 53.1518L1378.95 52.7495C1375.59 60.4164 1373.91 68.8806 1373.91 78.1272H1374.91ZM1379.87 53.1518L1380.79 53.549C1384.04 46.0259 1388.53 39.5225 1394.25 34.0293L1393.55 33.3082L1392.86 32.5871C1386.95 38.2702 1382.31 44.9958 1378.95 52.7545L1379.87 53.1518ZM1393.55 33.3082L1394.24 34.036C1400.07 28.5438 1406.91 24.3364 1414.77 21.4158L1414.42 20.4783L1414.08 19.5409C1405.97 22.5505 1398.9 26.8964 1392.87 32.5804L1393.55 33.3082ZM1414.42 20.4783L1414.78 21.413C1422.75 18.3809 1431.41 16.8596 1440.77 16.8596V15.8596V14.8596C1431.19 14.8596 1422.29 16.4175 1414.07 19.5436L1414.42 20.4783ZM1440.77 15.8596V16.8596C1451.71 16.8596 1461.44 18.7773 1469.95 22.5886L1470.36 21.6758L1470.77 20.763C1461.96 16.8193 1451.95 14.8596 1440.77 14.8596V15.8596ZM1470.36 21.6758L1469.96 22.5906C1478.6 26.4048 1485.76 31.8946 1491.48 39.0634L1492.26 38.4402L1493.04 37.817C1487.12 30.3882 1479.69 24.7018 1470.77 20.761L1470.36 21.6758ZM1492.26 38.4402L1491.59 37.6986L1470.03 57.2L1470.7 57.9416L1471.38 58.6831L1492.93 39.1817L1492.26 38.4402ZM1470.7 57.9416L1471.47 57.2939C1467.52 52.646 1463.14 49.0792 1458.33 46.6166L1457.88 47.5066L1457.42 48.3966C1461.96 50.7239 1466.14 54.1137 1469.94 58.5892L1470.7 57.9416ZM1457.88 47.5066L1458.34 46.6212C1453.62 44.1433 1448.33 42.9142 1442.48 42.9142V43.9142V44.9142C1448.04 44.9142 1453.01 46.0801 1457.41 48.392L1457.88 47.5066ZM1442.48 43.9142V42.9142C1437.47 42.9142 1432.84 43.7308 1428.6 45.3772L1428.97 46.3092L1429.33 47.2412C1433.31 45.6943 1437.69 44.9142 1442.48 44.9142V43.9142ZM1428.97 46.3092L1428.6 45.3772C1424.37 47.0247 1420.71 49.4423 1417.64 52.6292L1418.36 53.3228L1419.08 54.0165C1421.94 51.045 1425.35 48.7869 1429.33 47.2412L1428.97 46.3092ZM1418.36 53.3228L1417.64 52.6297C1414.69 55.6959 1412.34 59.3993 1410.59 63.7242L1411.52 64.0999L1412.44 64.4756C1414.11 60.3613 1416.33 56.88 1419.08 54.0159L1418.36 53.3228ZM1411.52 64.0999L1410.58 63.746C1408.94 68.0931 1408.12 72.8908 1408.12 78.1272H1409.12H1410.12C1410.12 73.0997 1410.9 68.5459 1412.45 64.4538L1411.52 64.0999ZM1409.12 78.1272H1408.12C1408.12 83.3636 1408.94 88.1614 1410.58 92.5085L1411.52 92.1546L1412.45 91.8007C1410.9 87.7086 1410.12 83.1547 1410.12 78.1272H1409.12ZM1411.52 92.1546L1410.59 92.5303C1412.34 96.8524 1414.69 100.607 1417.63 103.782L1418.36 103.103L1419.09 102.423C1416.33 99.4402 1414.11 95.896 1412.44 91.7789L1411.52 92.1546ZM1418.36 103.103L1417.65 103.81C1420.72 106.878 1424.37 109.233 1428.6 110.877L1428.97 109.945L1429.33 109.013C1425.34 107.464 1421.93 105.258 1419.07 102.396L1418.36 103.103ZM1428.97 109.945L1428.6 110.877C1432.84 112.524 1437.47 113.34 1442.48 113.34V112.34V111.34C1437.69 111.34 1433.31 110.56 1429.33 109.013L1428.97 109.945ZM1442.48 112.34V113.34C1448.33 113.34 1453.62 112.111 1458.34 109.633L1457.88 108.748L1457.41 107.862C1453.01 110.174 1448.04 111.34 1442.48 111.34V112.34ZM1457.88 108.748L1458.33 109.638C1463.14 107.175 1467.52 103.609 1471.47 98.9606L1470.7 98.3129L1469.94 97.6653C1466.14 102.141 1461.96 105.531 1457.42 107.858L1457.88 108.748ZM1470.7 98.3129L1470.03 99.0545L1491.59 118.556L1492.26 117.814L1492.93 117.073L1471.38 97.5714L1470.7 98.3129ZM1492.26 117.814L1491.48 117.185C1485.77 124.244 1478.6 129.738 1469.95 133.668L1470.36 134.579L1470.78 135.489C1479.69 131.436 1487.12 125.754 1493.04 118.444L1492.26 117.814ZM1470.36 134.579L1469.95 133.666C1461.44 137.477 1451.71 139.395 1440.77 139.395V140.395V141.395C1451.95 141.395 1461.96 139.435 1470.77 135.492L1470.36 134.579ZM1504.14 138H1503.14V139H1504.14V138ZM1504.14 18.2545V17.2545H1503.14V18.2545H1504.14ZM1532.02 18.2545L1532.88 17.7355L1532.59 17.2545H1532.02V18.2545ZM1581.46 99.6814V100.681H1583.24L1582.32 99.1625L1581.46 99.6814ZM1566.75 99.6814L1565.89 99.1704L1564.99 100.681H1566.75V99.6814ZM1615.16 18.2545V17.2545H1614.59L1614.3 17.7435L1615.16 18.2545ZM1643.04 18.2545L1644.04 18.2516L1644.04 17.2545H1643.04V18.2545ZM1643.39 138V139H1644.39L1644.39 137.997L1643.39 138ZM1612.08 138L1611.08 138.002L1611.08 139H1612.08V138ZM1611.91 65.6395V64.6395H1610.91L1610.91 65.6419L1611.91 65.6395ZM1617.21 65.6395L1618.07 66.1515L1618.97 64.6395H1617.21V65.6395ZM1581.12 126.197V127.197H1581.69L1581.98 126.709L1581.12 126.197ZM1566.06 126.197L1565.21 126.719L1565.5 127.197H1566.06V126.197ZM1528.94 65.6395V64.6395H1527.16L1528.09 66.1621L1528.94 65.6395ZM1535.27 65.6395H1536.27V64.6395H1535.27V65.6395ZM1535.27 138V139H1536.27V138H1535.27ZM1504.14 138H1505.14V18.2545H1504.14H1503.14V138H1504.14ZM1504.14 18.2545V19.2545H1532.02V18.2545V17.2545H1504.14V18.2545ZM1532.02 18.2545L1531.17 18.7735L1580.61 100.2L1581.46 99.6814L1582.32 99.1625L1532.88 17.7355L1532.02 18.2545ZM1581.46 99.6814V98.6814H1566.75V99.6814V100.681H1581.46V99.6814ZM1566.75 99.6814L1567.61 100.192L1616.02 18.7655L1615.16 18.2545L1614.3 17.7435L1565.89 99.1704L1566.75 99.6814ZM1615.16 18.2545V19.2545H1643.04V18.2545V17.2545H1615.16V18.2545ZM1643.04 18.2545L1642.04 18.2573L1642.39 138.003L1643.39 138L1644.39 137.997L1644.04 18.2516L1643.04 18.2545ZM1643.39 138V137H1612.08V138V139H1643.39V138ZM1612.08 138L1613.08 137.998L1612.91 65.6371L1611.91 65.6395L1610.91 65.6419L1611.08 138.002L1612.08 138ZM1611.91 65.6395V66.6395H1617.21V65.6395V64.6395H1611.91V65.6395ZM1617.21 65.6395L1616.35 65.1275L1580.26 125.685L1581.12 126.197L1581.98 126.709L1618.07 66.1515L1617.21 65.6395ZM1581.12 126.197V125.197H1566.06V126.197V127.197H1581.12V126.197ZM1566.06 126.197L1566.92 125.674L1529.8 65.1169L1528.94 65.6395L1528.09 66.1621L1565.21 126.719L1566.06 126.197ZM1528.94 65.6395V66.6395H1535.27V65.6395V64.6395H1528.94V65.6395ZM1535.27 65.6395H1534.27V138H1535.27H1536.27V65.6395H1535.27ZM1535.27 138V137H1504.14V138V139H1535.27V138ZM1665.43 138H1664.43V139H1665.43V138ZM1665.43 18.2545V17.2545H1664.43V18.2545H1665.43ZM1698.79 18.2545H1699.79V17.2545H1698.79V18.2545ZM1698.79 88.5622H1697.79V91.7229L1699.61 89.1374L1698.79 88.5622ZM1748.23 18.2545V17.2545H1747.71L1747.41 17.6793L1748.23 18.2545ZM1780.05 18.2545H1781.05V17.2545H1780.05V18.2545ZM1780.05 138V139H1781.05V138H1780.05ZM1746.69 138H1745.69V139H1746.69V138ZM1746.69 67.8633H1747.69V64.7L1745.87 67.2885L1746.69 67.8633ZM1697.42 138V139H1697.94L1698.24 138.575L1697.42 138ZM1665.43 138H1666.43V18.2545H1665.43H1664.43V138H1665.43ZM1665.43 18.2545V19.2545H1698.79V18.2545V17.2545H1665.43V18.2545ZM1698.79 18.2545H1697.79V88.5622H1698.79H1699.79V18.2545H1698.79ZM1698.79 88.5622L1699.61 89.1374L1749.05 18.8297L1748.23 18.2545L1747.41 17.6793L1697.97 87.987L1698.79 88.5622ZM1748.23 18.2545V19.2545H1780.05V18.2545V17.2545H1748.23V18.2545ZM1780.05 18.2545H1779.05V138H1780.05H1781.05V18.2545H1780.05ZM1780.05 138V137H1746.69V138V139H1780.05V138ZM1746.69 138H1747.69V67.8633H1746.69H1745.69V138H1746.69ZM1746.69 67.8633L1745.87 67.2885L1696.61 137.425L1697.42 138L1698.24 138.575L1747.51 68.4381L1746.69 67.8633ZM1697.42 138V137H1665.43V138V139H1697.42V138Z" fill="#0BCACA" mask="url(#path-1-outside-1_1_7816)"/>
</g>
<defs>
<filter id="filter0_g_1_7816" x="0.400195" y="0.0593748" width="1795.45" height="156.469" filterUnits="userSpaceOnUse" color-interpolation-filters="sRGB">
<feFlood flood-opacity="0" result="BackgroundImageFix"/>
<feBlend mode="normal" in="SourceGraphic" in2="BackgroundImageFix" result="shape"/>
<feTurbulence type="fractalNoise" baseFrequency="0.25 0.25" numOctaves="3" seed="7939" />
<feDisplacementMap in="shape" scale="29.600000381469727" xChannelSelector="R" yChannelSelector="G" result="displacedImage" width="100%" height="100%" />
<feMerge result="effect1_texture_1_7816">
<feMergeNode in="displacedImage"/>
</feMerge>
</filter>
</defs>
</svg>
