<svg width="43" height="43" viewBox="0 0 43 43" fill="none" xmlns="http://www.w3.org/2000/svg">
<path d="M9.87402 28.3476C18.5846 32.7029 23.811 32.7029 32.5216 28.3476" stroke="#13C8CB" stroke-width="2.61318" stroke-linecap="round" stroke-linejoin="round"/>
<path d="M27.2957 30.9607L29.0378 34.445C29.0378 34.445 36.3042 32.1314 38.6194 28.3476C38.6194 26.6054 39.5428 14.1545 33.3931 10.0553C30.7799 8.3132 26.4246 7.44214 26.4246 7.44214L24.6825 10.9264H21.1982" stroke="#13C8CB" stroke-width="2.61318" stroke-linecap="round" stroke-linejoin="round"/>
<path d="M15.1494 30.9607L13.4073 34.445C13.4073 34.445 6.14089 32.1314 3.82561 28.3476C3.82561 26.6054 2.90229 14.1545 9.05197 10.0553C11.6651 8.3132 16.0204 7.44214 16.0204 7.44214L17.7626 10.9264H21.2468" stroke="#13C8CB" stroke-width="2.61318" stroke-linecap="round" stroke-linejoin="round"/>
<path d="M15.1005 24.8634C13.658 24.8634 12.4873 23.3042 12.4873 21.3791C12.4873 19.4541 13.658 17.8949 15.1005 17.8949C16.543 17.8949 17.7137 19.4541 17.7137 21.3791C17.7137 23.3042 16.543 24.8634 15.1005 24.8634ZM27.2953 24.8634C25.8528 24.8634 24.6821 23.3042 24.6821 21.3791C24.6821 19.4541 25.8528 17.8949 27.2953 17.8949C28.7378 17.8949 29.9085 19.4541 29.9085 21.3791C29.9085 23.3042 28.7378 24.8634 27.2953 24.8634Z" stroke="#13C8CB" stroke-width="2.61318" stroke-linecap="round" stroke-linejoin="round"/>
</svg>
