<svg width="32" height="32" viewBox="0 0 32 32" fill="none" xmlns="http://www.w3.org/2000/svg">
<path d="M16.1363 23.5102L8.30016 15.6763L9.86783 14.082L15.0292 19.2434V0.090332H17.2434V19.2434L22.4026 14.0842L23.9724 15.6763L16.1363 23.5102ZM4.21491 31.0895C3.19489 31.0895 2.34389 30.7485 1.66191 30.0665C0.979923 29.3845 0.638195 28.5328 0.636719 27.5113V22.1462H2.85094V27.5113C2.85094 27.8523 2.99266 28.1652 3.27608 28.4501C3.5595 28.735 3.8717 28.8767 4.21269 28.8753H28.0599C28.3994 28.8753 28.7116 28.7336 28.9965 28.4501C29.2814 28.1667 29.4231 27.8538 29.4217 27.5113V22.1462H31.6359V27.5113C31.6359 28.5313 31.2949 29.3823 30.6129 30.0643C29.9309 30.7463 29.0792 31.088 28.0577 31.0895H4.21491Z" fill="white"/>
</svg>
