<svg width="44" height="44" viewBox="0 0 44 44" fill="none" xmlns="http://www.w3.org/2000/svg">
<circle cx="21.5457" cy="21.7" r="21.4842" fill="#0BCACA"/>
<path fill-rule="evenodd" clip-rule="evenodd" d="M30.495 11.6748H13.2817C12.3415 11.6748 11.5195 12.3517 11.5195 13.2812V30.5321C11.5195 31.4669 12.3415 32.2996 13.2817 32.2996H30.4896C31.4352 32.2996 32.1443 31.4615 32.1443 30.5321V13.2812C32.1497 12.3517 31.4352 11.6748 30.495 11.6748ZM17.9127 28.8668H14.9579V19.6799H17.9127V28.8668ZM16.5374 18.2831H16.5159C15.5703 18.2831 14.9579 17.5793 14.9579 16.6983C14.9579 15.8011 15.5865 15.1134 16.5535 15.1134C17.5205 15.1134 18.1115 15.7957 18.133 16.6983C18.133 17.5793 17.5205 18.2831 16.5374 18.2831ZM28.7113 28.8668H25.7565V23.8436C25.7565 22.6402 25.3267 21.8182 24.2576 21.8182C23.441 21.8182 22.9574 22.3716 22.7425 22.9088C22.662 23.1022 22.6405 23.3655 22.6405 23.6341V28.8668H19.6856V19.68H22.6405V20.9586C23.0703 20.3461 23.7418 19.4651 25.3052 19.4651C27.2446 19.4651 28.7113 20.7437 28.7113 23.4998V28.8668Z" fill="white"/>
</svg>
