<svg width="30" height="30" viewBox="0 0 30 30" fill="none" xmlns="http://www.w3.org/2000/svg">
<g clip-path="url(#clip0_109_5678)">
<path d="M14.9062 0.937744C8.8125 0.937744 3.60937 4.87524 1.6875 10.3127H28.2188C26.25 4.87524 21.0469 0.937744 14.9062 0.937744Z" fill="#F2B200"/>
<path d="M14.9062 29.0627C21.0469 29.0627 26.25 25.1721 28.1719 19.6877H1.6875C3.60938 25.1721 8.8125 29.0627 14.9062 29.0627Z" fill="#83BF4F"/>
<path d="M1.6875 10.3127C1.17187 11.7659 0.890625 13.3596 0.890625 15.0002C0.890625 16.6409 1.17187 18.2346 1.6875 19.6877H28.2188C28.7344 18.2346 29.0156 16.6409 29.0156 15.0002C29.0156 13.3596 28.7344 11.7659 28.2188 10.3127H1.6875Z" fill="white"/>
<path d="M14.9062 18.7502C16.9773 18.7502 18.6562 17.0713 18.6562 15.0002C18.6562 12.9292 16.9773 11.2502 14.9062 11.2502C12.8352 11.2502 11.1562 12.9292 11.1562 15.0002C11.1562 17.0713 12.8352 18.7502 14.9062 18.7502Z" fill="#428BC1"/>
<path d="M14.9062 18.2815C16.7184 18.2815 18.1875 16.8124 18.1875 15.0002C18.1875 13.1881 16.7184 11.719 14.9062 11.719C13.0941 11.719 11.625 13.1881 11.625 15.0002C11.625 16.8124 13.0941 18.2815 14.9062 18.2815Z" fill="white"/>
<path d="M13.6875 12.1877C13.8169 12.1877 13.9219 12.0828 13.9219 11.9534C13.9219 11.8239 13.8169 11.719 13.6875 11.719C13.5581 11.719 13.4531 11.8239 13.4531 11.9534C13.4531 12.0828 13.5581 12.1877 13.6875 12.1877Z" fill="#428BC1"/>
<path d="M12.9375 12.6096C13.0669 12.6096 13.1719 12.5047 13.1719 12.3752C13.1719 12.2458 13.0669 12.1409 12.9375 12.1409C12.8081 12.1409 12.7031 12.2458 12.7031 12.3752C12.7031 12.5047 12.8081 12.6096 12.9375 12.6096Z" fill="#428BC1"/>
<path d="M12.3281 13.219C12.4576 13.219 12.5625 13.1141 12.5625 12.9846C12.5625 12.8552 12.4576 12.7502 12.3281 12.7502C12.1987 12.7502 12.0938 12.8552 12.0938 12.9846C12.0938 13.1141 12.1987 13.219 12.3281 13.219Z" fill="#428BC1"/>
<path d="M11.9062 13.969C12.0357 13.969 12.1406 13.8641 12.1406 13.7346C12.1406 13.6052 12.0357 13.5002 11.9062 13.5002C11.7768 13.5002 11.6719 13.6052 11.6719 13.7346C11.6719 13.8641 11.7768 13.969 11.9062 13.969Z" fill="#428BC1"/>
<path d="M11.6719 14.8127C11.8013 14.8127 11.9062 14.7078 11.9062 14.5784C11.9062 14.4489 11.8013 14.344 11.6719 14.344C11.5424 14.344 11.4375 14.4489 11.4375 14.5784C11.4375 14.7078 11.5424 14.8127 11.6719 14.8127Z" fill="#428BC1"/>
<path d="M11.6719 15.6565C11.8013 15.6565 11.9062 15.5516 11.9062 15.4221C11.9062 15.2927 11.8013 15.1877 11.6719 15.1877C11.5424 15.1877 11.4375 15.2927 11.4375 15.4221C11.4375 15.5516 11.5424 15.6565 11.6719 15.6565Z" fill="#428BC1"/>
<path d="M11.9062 16.5002C12.0357 16.5002 12.1406 16.3953 12.1406 16.2659C12.1406 16.1364 12.0357 16.0315 11.9062 16.0315C11.7768 16.0315 11.6719 16.1364 11.6719 16.2659C11.6719 16.3953 11.7768 16.5002 11.9062 16.5002Z" fill="#428BC1"/>
<path d="M12.3281 17.2502C12.4576 17.2502 12.5625 17.1453 12.5625 17.0159C12.5625 16.8864 12.4576 16.7815 12.3281 16.7815C12.1987 16.7815 12.0938 16.8864 12.0938 17.0159C12.0938 17.1453 12.1987 17.2502 12.3281 17.2502Z" fill="#428BC1"/>
<path d="M12.9375 17.8596C13.0669 17.8596 13.1719 17.7547 13.1719 17.6252C13.1719 17.4958 13.0669 17.3909 12.9375 17.3909C12.8081 17.3909 12.7031 17.4958 12.7031 17.6252C12.7031 17.7547 12.8081 17.8596 12.9375 17.8596Z" fill="#428BC1"/>
<path d="M13.6875 18.2815C13.8169 18.2815 13.9219 18.1766 13.9219 18.0471C13.9219 17.9177 13.8169 17.8127 13.6875 17.8127C13.5581 17.8127 13.4531 17.9177 13.4531 18.0471C13.4531 18.1766 13.5581 18.2815 13.6875 18.2815Z" fill="#428BC1"/>
<path d="M14.4844 18.469C14.6138 18.469 14.7188 18.3641 14.7188 18.2346C14.7188 18.1052 14.6138 18.0002 14.4844 18.0002C14.3549 18.0002 14.25 18.1052 14.25 18.2346C14.25 18.3641 14.3549 18.469 14.4844 18.469Z" fill="#428BC1"/>
<path d="M15.1406 18.2815C15.1406 18.1409 15.2344 18.0471 15.3281 18.0002C15.4688 18.0002 15.5625 18.094 15.6094 18.1877C15.6094 18.3284 15.5156 18.4221 15.4219 18.469C15.2344 18.5159 15.1406 18.4221 15.1406 18.2815Z" fill="#428BC1"/>
<path d="M16.1719 18.2815C16.3013 18.2815 16.4062 18.1766 16.4062 18.0471C16.4062 17.9177 16.3013 17.8127 16.1719 17.8127C16.0424 17.8127 15.9375 17.9177 15.9375 18.0471C15.9375 18.1766 16.0424 18.2815 16.1719 18.2815Z" fill="#428BC1"/>
<path d="M16.9219 17.8596C17.0513 17.8596 17.1562 17.7547 17.1562 17.6252C17.1562 17.4958 17.0513 17.3909 16.9219 17.3909C16.7924 17.3909 16.6875 17.4958 16.6875 17.6252C16.6875 17.7547 16.7924 17.8596 16.9219 17.8596Z" fill="#428BC1"/>
<path d="M17.5312 17.2502C17.6607 17.2502 17.7656 17.1453 17.7656 17.0159C17.7656 16.8864 17.6607 16.7815 17.5312 16.7815C17.4018 16.7815 17.2969 16.8864 17.2969 17.0159C17.2969 17.1453 17.4018 17.2502 17.5312 17.2502Z" fill="#428BC1"/>
<path d="M17.9531 16.5002C18.0826 16.5002 18.1875 16.3953 18.1875 16.2659C18.1875 16.1364 18.0826 16.0315 17.9531 16.0315C17.8237 16.0315 17.7188 16.1364 17.7188 16.2659C17.7188 16.3953 17.8237 16.5002 17.9531 16.5002Z" fill="#428BC1"/>
<path d="M18.1875 15.6565C18.3169 15.6565 18.4219 15.5516 18.4219 15.4221C18.4219 15.2927 18.3169 15.1877 18.1875 15.1877C18.0581 15.1877 17.9531 15.2927 17.9531 15.4221C17.9531 15.5516 18.0581 15.6565 18.1875 15.6565Z" fill="#428BC1"/>
<path d="M18.1875 14.8127C18.0469 14.8127 17.9531 14.719 17.9062 14.6252C17.9062 14.4846 18 14.3909 18.0937 14.344C18.2344 14.344 18.3281 14.4377 18.375 14.5315C18.4219 14.6721 18.3281 14.7659 18.1875 14.8127Z" fill="#428BC1"/>
<path d="M17.9531 13.969C18.0826 13.969 18.1875 13.8641 18.1875 13.7346C18.1875 13.6052 18.0826 13.5002 17.9531 13.5002C17.8237 13.5002 17.7188 13.6052 17.7188 13.7346C17.7188 13.8641 17.8237 13.969 17.9531 13.969Z" fill="#428BC1"/>
<path d="M17.5312 13.219C17.6607 13.219 17.7656 13.1141 17.7656 12.9846C17.7656 12.8552 17.6607 12.7502 17.5312 12.7502C17.4018 12.7502 17.2969 12.8552 17.2969 12.9846C17.2969 13.1141 17.4018 13.219 17.5312 13.219Z" fill="#428BC1"/>
<path d="M16.9219 12.6096C17.0513 12.6096 17.1562 12.5047 17.1562 12.3752C17.1562 12.2458 17.0513 12.1409 16.9219 12.1409C16.7924 12.1409 16.6875 12.2458 16.6875 12.3752C16.6875 12.5047 16.7924 12.6096 16.9219 12.6096Z" fill="#428BC1"/>
<path d="M16.4062 12.0471C16.3594 12.1877 16.2187 12.2346 16.0781 12.1877C15.9375 12.1409 15.8906 12.0002 15.9375 11.8596C15.9844 11.719 16.125 11.6721 16.2656 11.719C16.4063 11.8127 16.4531 11.9534 16.4062 12.0471ZM15.5625 11.7659C15.5625 11.9065 15.4219 12.0002 15.2812 11.9534C15.1406 11.9534 15.0469 11.8127 15.0938 11.6721C15.0938 11.5315 15.2344 11.4377 15.375 11.4846C15.5156 11.5315 15.6094 11.6721 15.5625 11.7659ZM14.7187 11.719C14.7187 11.8596 14.625 11.9534 14.5313 12.0002C14.3906 12.0002 14.2969 11.9065 14.25 11.8127C14.25 11.6721 14.3437 11.5784 14.4375 11.5315C14.5781 11.4846 14.7187 11.5784 14.7187 11.719Z" fill="#428BC1"/>
<path d="M14.9062 15.7034C15.2946 15.7034 15.6094 15.3886 15.6094 15.0002C15.6094 14.6119 15.2946 14.2971 14.9062 14.2971C14.5179 14.2971 14.2031 14.6119 14.2031 15.0002C14.2031 15.3886 14.5179 15.7034 14.9062 15.7034Z" fill="#428BC1"/>
<path d="M14.9062 11.719L14.8125 13.7346L14.9062 15.0002L15.0469 13.7346L14.9062 11.719ZM14.0625 11.8127L14.4844 13.8284L14.9062 15.0002L14.7187 13.7346L14.0625 11.8127Z" fill="#428BC1"/>
<path d="M13.2656 12.1409L14.2031 13.969L14.9062 15.0002L14.3906 13.8284L13.2656 12.1409ZM12.6094 12.6565L13.9687 14.2034L14.9062 15.0002L14.1094 14.0159L12.6094 12.6565Z" fill="#428BC1"/>
<path d="M12.0938 13.3596L13.7813 14.4846L14.9062 15.0002L13.875 14.2502L12.0938 13.3596Z" fill="#428BC1"/>
<path d="M11.7656 14.1565L13.6875 14.7659L14.9062 15.0002L13.7344 14.5784L11.7656 14.1565ZM11.625 15.0002L13.6875 15.094L14.9062 15.0002L13.6875 14.9065L11.625 15.0002Z" fill="#428BC1"/>
<path d="M11.7656 15.844L13.7344 15.4221L14.9062 15.0002L13.6875 15.2346L11.7656 15.844ZM12.0937 16.6409L13.875 15.7502L14.9062 15.0002L13.7812 15.5159L12.0937 16.6409Z" fill="#428BC1"/>
<path d="M12.6094 17.2971L14.1094 15.9846L14.9062 15.0002L13.9687 15.7971L12.6094 17.2971ZM13.2656 17.8596L14.3906 16.1252L14.9062 15.0002L14.2031 16.0315L13.2656 17.8596Z" fill="#428BC1"/>
<path d="M14.0625 18.1877L14.7187 16.2659L14.9062 15.0002L14.4844 16.1721L14.0625 18.1877ZM14.9062 18.2815L15.0469 16.2659L14.9062 15.0002L14.8125 16.2659L14.9062 18.2815ZM15.75 18.1877L15.375 16.1721L14.9062 15.0002L15.1406 16.2659L15.75 18.1877Z" fill="#428BC1"/>
<path d="M16.5469 17.8596L15.6563 16.0315L14.9062 15.0002L15.4688 16.1721L16.5469 17.8596ZM17.25 17.2971L15.8906 15.7971L14.9062 15.0002L15.75 15.9846L17.25 17.2971Z" fill="#428BC1"/>
<path d="M17.7656 16.6409L16.0781 15.5159L14.9062 15.0002L15.9375 15.7502L17.7656 16.6409ZM18.0937 15.844L16.1719 15.2346L14.9062 15.0002L16.125 15.4221L18.0937 15.844ZM18.1875 15.0002L16.1719 14.8596L14.9062 15.0002L16.1719 15.094L18.1875 15.0002ZM18.0937 14.1565L16.125 14.5784L14.9062 15.0002L16.1719 14.7659L18.0937 14.1565Z" fill="#428BC1"/>
<path d="M17.7656 13.3596L15.9375 14.2502L14.9062 15.0002L16.0781 14.4846L17.7656 13.3596ZM17.25 12.7034L15.75 14.0159L14.9062 15.0002L15.8906 14.2034L17.25 12.7034Z" fill="#428BC1"/>
<path d="M16.5469 12.1409L15.4688 13.8752L14.9062 15.0002L15.6563 13.969L16.5469 12.1409Z" fill="#428BC1"/>
<path d="M15.7969 11.8127L15.1406 13.7346L14.9062 15.0002L15.375 13.8284L15.7969 11.8127Z" fill="#428BC1"/>
</g>
<defs>
<clipPath id="clip0_109_5678">
<rect width="30" height="30" fill="white" transform="translate(0 0.000244141)"/>
</clipPath>
</defs>
</svg>
