<svg width="39" height="40" viewBox="0 0 39 40" fill="none" xmlns="http://www.w3.org/2000/svg">
<path d="M5.63086 18.4131C5.63086 12.4289 5.63086 9.43608 7.49068 7.57784C9.35051 5.7196 12.3418 5.71802 18.3259 5.71802H21.4997C27.4838 5.71802 30.4766 5.71802 32.3349 7.57784C34.1931 9.43767 34.1947 12.4289 34.1947 18.4131V21.5868C34.1947 27.5709 34.1947 30.5638 32.3349 32.422C30.4751 34.2803 27.4838 34.2819 21.4997 34.2819H18.3259C12.3418 34.2819 9.34892 34.2819 7.49068 32.422C5.63245 30.5622 5.63086 27.5709 5.63086 21.5868V18.4131Z" stroke="#13C8CB" stroke-width="3.17376"/>
<path d="M27.0541 15.2393C28.3688 15.2393 29.4345 14.1736 29.4345 12.859C29.4345 11.5444 28.3688 10.4787 27.0541 10.4787C25.7395 10.4787 24.6738 11.5444 24.6738 12.859C24.6738 14.1736 25.7395 15.2393 27.0541 15.2393Z" fill="#13C8CB"/>
<path d="M19.913 24.7607C22.5422 24.7607 24.6736 22.6293 24.6736 20C24.6736 17.3708 22.5422 15.2394 19.913 15.2394C17.2838 15.2394 15.1523 17.3708 15.1523 20C15.1523 22.6293 17.2838 24.7607 19.913 24.7607Z" stroke="#13C8CB" stroke-width="3.17376"/>
</svg>
