<svg width="44" height="44" viewBox="0 0 44 44" fill="none" xmlns="http://www.w3.org/2000/svg">
<circle cx="21.7322" cy="21.7" r="21.4842" fill="#0BCACA"/>
<circle cx="21.7321" cy="21.9869" r="4.01038" fill="white"/>
<path fill-rule="evenodd" clip-rule="evenodd" d="M18.1539 17.7914C19.1927 16.7526 20.5738 16.1744 22.0429 16.1744C23.512 16.1744 24.8931 16.7557 25.9319 17.7945C26.591 18.4536 27.0619 19.2456 27.3183 20.1295H31.4468V14.5805C31.4468 13.2787 30.4406 12.2725 29.1388 12.2725H14.9961C13.6943 12.2725 12.5898 13.2787 12.5898 14.5805V20.1295H16.7675C17.0239 19.2456 17.4948 18.4505 18.1539 17.7914ZM29.8754 16.358C29.8754 16.7052 29.5941 16.9866 29.2469 16.9866H27.3612C27.014 16.9866 26.7326 16.7052 26.7326 16.358V14.4723C26.7326 14.1252 27.014 13.8438 27.3612 13.8438H29.2469C29.594 13.8438 29.8754 14.1251 29.8754 14.4723V16.358Z" fill="white"/>
<path fill-rule="evenodd" clip-rule="evenodd" d="M25.9319 25.5688C24.8931 26.6076 23.512 27.1735 22.0429 27.1735C20.5738 27.1735 19.1927 26.6107 18.1539 25.5719C17.117 24.535 16.5452 23.1243 16.543 21.7002H12.5898V28.7225C12.5898 30.0243 13.6943 31.1287 14.9961 31.1287H29.1388C30.4406 31.1287 31.4468 30.0243 31.4468 28.7225V21.7002H27.5427C27.5406 23.1243 26.9688 24.5319 25.9319 25.5688Z" fill="white"/>
</svg>
