<svg width="30" height="30" viewBox="0 0 30 30" fill="none" xmlns="http://www.w3.org/2000/svg">
<g clip-path="url(#clip0_109_5589)">
<path d="M0 0.000244141H30V30.0002H0V0.000244141Z" fill="#00ABC2"/>
<path d="M16.2128 16.6358C18.4429 16.6358 20.2508 14.8279 20.2508 12.5978C20.2508 10.3677 18.4429 8.55981 16.2128 8.55981C13.9827 8.55981 12.1748 10.3677 12.1748 12.5978C12.1748 14.8279 13.9827 16.6358 16.2128 16.6358Z" fill="#FFEC2D"/>
<path d="M16.2118 8.01068C16.4518 8.00768 16.5418 7.85768 16.5418 7.67768C16.5418 7.43768 16.2118 6.29468 16.2118 6.29468C16.2118 6.29468 15.8818 7.43768 15.8818 7.67768C15.8818 7.85768 15.9718 8.01068 16.2118 8.01068Z" fill="#FFEC2D"/>
<path d="M20.7996 12.5976C20.8026 12.8376 20.9526 12.9276 21.1326 12.9276C21.3726 12.9276 22.5156 12.5976 22.5156 12.5976C22.5156 12.5976 21.3726 12.2676 21.1326 12.2676C20.9526 12.2676 20.7996 12.3576 20.7996 12.5976Z" fill="#FFEC2D"/>
<path d="M16.212 17.1846C15.972 17.1876 15.882 17.3376 15.882 17.5176C15.882 17.7576 16.212 18.9006 16.212 18.9006C16.212 18.9006 16.542 17.7576 16.542 17.5176C16.542 17.3376 16.452 17.1846 16.212 17.1846Z" fill="#FFEC2D"/>
<path d="M11.6252 12.5977C11.6222 12.3577 11.4722 12.2677 11.2922 12.2677C11.0522 12.2677 9.90918 12.5977 9.90918 12.5977C9.90918 12.5977 11.0522 12.9277 11.2922 12.9277C11.4722 12.9277 11.6252 12.8377 11.6252 12.5977Z" fill="#FFEC2D"/>
<path d="M17.9675 8.35986C18.1904 8.44893 18.331 8.34479 18.3998 8.17849C18.4917 7.95676 18.6242 6.77448 18.6242 6.77448C18.6242 6.77448 17.8819 7.70419 17.7901 7.92592C17.7212 8.09222 17.7458 8.26801 17.9675 8.35986Z" fill="#FFEC2D"/>
<path d="M20.4495 14.353C20.3604 14.5759 20.4645 14.7165 20.6308 14.7853C20.8526 14.8772 22.0348 15.0097 22.0348 15.0097C22.0348 15.0097 21.1051 14.2674 20.8834 14.1756C20.7171 14.1067 20.5413 14.1313 20.4495 14.353Z" fill="#FFEC2D"/>
<path d="M14.4563 16.8355C14.2334 16.7464 14.0929 16.8505 14.024 17.0168C13.9321 17.2386 13.7996 18.4208 13.7996 18.4208C13.7996 18.4208 14.5419 17.4911 14.6337 17.2694C14.7026 17.1031 14.678 16.9273 14.4563 16.8355Z" fill="#FFEC2D"/>
<path d="M11.9744 10.8423C12.0634 10.6194 11.9593 10.4789 11.793 10.41C11.5713 10.3181 10.389 10.1856 10.389 10.1856C10.389 10.1856 11.3187 10.9279 11.5404 11.0197C11.7067 11.0886 11.8825 11.064 11.9744 10.8423Z" fill="#FFEC2D"/>
<path d="M19.4555 9.35421C19.6273 9.5218 19.797 9.47937 19.9243 9.35209C20.094 9.18238 20.6689 8.14082 20.6689 8.14082C20.6689 8.14082 19.6273 8.71569 19.4576 8.8854C19.3303 9.01268 19.2858 9.18451 19.4555 9.35421Z" fill="#FFEC2D"/>
<path d="M19.4556 15.8412C19.288 16.0131 19.3304 16.1828 19.4577 16.3101C19.6274 16.4798 20.669 17.0546 20.669 17.0546C20.669 17.0546 20.0941 16.0131 19.9244 15.8434C19.7971 15.7161 19.6253 15.6715 19.4556 15.8412Z" fill="#FFEC2D"/>
<path d="M12.9683 15.8411C12.7965 15.6735 12.6268 15.7159 12.4995 15.8432C12.3298 16.0129 11.7549 17.0545 11.7549 17.0545C11.7549 17.0545 12.7965 16.4796 12.9662 16.3099C13.0935 16.1826 13.138 16.0108 12.9683 15.8411Z" fill="#FFEC2D"/>
<path d="M12.9682 9.35407C13.1358 9.18225 13.0934 9.01254 12.9661 8.88526C12.7964 8.71556 11.7548 8.14068 11.7548 8.14068C11.7548 8.14068 12.3297 9.18225 12.4994 9.35195C12.6267 9.47923 12.7985 9.52378 12.9682 9.35407Z" fill="#FFEC2D"/>
<path d="M20.4501 10.8422C20.5447 11.0628 20.7177 11.0885 20.884 11.0196C21.1058 10.9278 22.0355 10.1855 22.0355 10.1855C22.0355 10.1855 20.8532 10.318 20.6315 10.4099C20.4652 10.4787 20.3582 10.6204 20.4501 10.8422Z" fill="#FFEC2D"/>
<path d="M17.9681 16.8353C17.7475 16.93 17.7218 17.103 17.7907 17.2693C17.8825 17.491 18.6248 18.4207 18.6248 18.4207C18.6248 18.4207 18.4923 17.2384 18.4004 17.0167C18.3316 16.8504 18.1899 16.7435 17.9681 16.8353Z" fill="#FFEC2D"/>
<path d="M11.9747 14.3529C11.8801 14.1323 11.7071 14.1066 11.5408 14.1754C11.319 14.2673 10.3893 15.0096 10.3893 15.0096C10.3893 15.0096 11.5716 14.877 11.7934 14.7852C11.9596 14.7163 12.0666 14.5746 11.9747 14.3529Z" fill="#FFEC2D"/>
<path d="M14.4567 8.35973C14.6773 8.26511 14.703 8.09209 14.6341 7.92579C14.5423 7.70406 13.8 6.77435 13.8 6.77435C13.8 6.77435 13.9325 7.95663 14.0244 8.17836C14.0933 8.34466 14.235 8.45157 14.4567 8.35973Z" fill="#FFEC2D"/>
<path d="M17.1114 8.09969C17.3473 8.14378 17.465 8.01432 17.5002 7.83781C17.5473 7.60246 17.4476 6.41696 17.4476 6.41696C17.4476 6.41696 16.9001 7.47314 16.853 7.70849C16.8178 7.885 16.876 8.05267 17.1114 8.09969Z" fill="#FFEC2D"/>
<path d="M20.7106 13.4966C20.6665 13.7326 20.796 13.8502 20.9725 13.8855C21.2078 13.9325 22.3933 13.8329 22.3933 13.8329C22.3933 13.8329 21.3372 13.2853 21.1018 13.2383C20.9253 13.203 20.7576 13.2613 20.7106 13.4966Z" fill="#FFEC2D"/>
<path d="M15.3144 17.0959C15.0785 17.0518 14.9608 17.1812 14.9255 17.3577C14.8785 17.5931 14.9782 18.7786 14.9782 18.7786C14.9782 18.7786 15.5257 17.7224 15.5728 17.4871C15.608 17.3106 15.5497 17.1429 15.3144 17.0959Z" fill="#FFEC2D"/>
<path d="M11.7142 11.6989C11.7583 11.463 11.6288 11.3453 11.4523 11.3101C11.217 11.263 10.0315 11.3627 10.0315 11.3627C10.0315 11.3627 11.0876 11.9102 11.323 11.9573C11.4995 11.9925 11.6672 11.9343 11.7142 11.6989Z" fill="#FFEC2D"/>
<path d="M18.7649 8.78606C18.966 8.91708 19.1243 8.8425 19.2244 8.69292C19.3579 8.49348 19.7195 7.36009 19.7195 7.36009C19.7195 7.36009 18.8095 8.12633 18.676 8.32577C18.5758 8.47534 18.5655 8.65255 18.7649 8.78606Z" fill="#FFEC2D"/>
<path d="M20.0242 15.1495C19.8932 15.3506 19.9678 15.5088 20.1174 15.6089C20.3168 15.7424 21.4502 16.1041 21.4502 16.1041C21.4502 16.1041 20.684 15.194 20.4845 15.0605C20.335 14.9603 20.1578 14.95 20.0242 15.1495Z" fill="#FFEC2D"/>
<path d="M13.6608 16.4095C13.4597 16.2785 13.3015 16.3531 13.2014 16.5026C13.0679 16.7021 12.7062 17.8355 12.7062 17.8355C12.7062 17.8355 13.6163 17.0692 13.7498 16.8698C13.85 16.7202 13.8603 16.543 13.6608 16.4095Z" fill="#FFEC2D"/>
<path d="M12.4015 10.0461C12.5326 9.845 12.458 9.68676 12.3084 9.58663C12.109 9.45312 10.9756 9.0915 10.9756 9.0915C10.9756 9.0915 11.7418 10.0016 11.9412 10.1351C12.0908 10.2352 12.268 10.2455 12.4015 10.0461Z" fill="#FFEC2D"/>
<path d="M20.0289 10.0528C20.1646 10.2508 20.3393 10.2425 20.489 10.1426C20.6887 10.0094 21.4565 9.10072 21.4565 9.10072C21.4565 9.10072 20.3225 9.46036 20.1228 9.59352C19.9731 9.69339 19.8957 9.85316 20.0289 10.0528Z" fill="#FFEC2D"/>
<path d="M18.7577 16.4142C18.5597 16.5498 18.5681 16.7245 18.6679 16.8743C18.8011 17.074 19.7098 17.8418 19.7098 17.8418C19.7098 17.8418 19.3502 16.7078 19.217 16.5081C19.1172 16.3583 18.9574 16.281 18.7577 16.4142Z" fill="#FFEC2D"/>
<path d="M12.3969 15.143C12.2612 14.945 12.0865 14.9533 11.9367 15.0532C11.7371 15.1864 10.9692 16.0951 10.9692 16.0951C10.9692 16.0951 12.1033 15.7354 12.3029 15.6023C12.4527 15.5024 12.53 15.3426 12.3969 15.143Z" fill="#FFEC2D"/>
<path d="M13.6681 8.78164C13.8661 8.64599 13.8577 8.47126 13.7578 8.3215C13.6247 8.12184 12.716 7.35401 12.716 7.35401C12.716 7.35401 13.0756 8.48803 13.2088 8.6877C13.3086 8.83745 13.4684 8.91481 13.6681 8.78164Z" fill="#FFEC2D"/>
<path d="M20.7118 11.7068C20.7614 11.9417 20.926 12.0008 21.1026 11.9659C21.338 11.9192 22.3952 11.3735 22.3952 11.3735C22.3952 11.3735 21.2098 11.2718 20.9744 11.3184C20.7978 11.3534 20.6652 11.4714 20.7118 11.7068Z" fill="#FFEC2D"/>
<path d="M17.1037 17.0976C16.8689 17.1471 16.8097 17.3118 16.8447 17.4883C16.8913 17.7238 17.437 18.7809 17.437 18.7809C17.437 18.7809 17.5387 17.5956 17.4921 17.3601C17.4572 17.1836 17.3392 17.051 17.1037 17.0976Z" fill="#FFEC2D"/>
<path d="M11.713 13.4887C11.6634 13.2539 11.4988 13.1947 11.3222 13.2297C11.0868 13.2763 10.0297 13.822 10.0297 13.822C10.0297 13.822 11.215 13.9237 11.4504 13.8771C11.627 13.8422 11.7596 13.7242 11.713 13.4887Z" fill="#FFEC2D"/>
<path d="M15.3221 8.09823C15.5569 8.04867 15.6161 7.88404 15.5811 7.70747C15.5345 7.47204 14.9888 6.41491 14.9888 6.41491C14.9888 6.41491 14.887 7.60024 14.9337 7.83566C14.9686 8.01224 15.0866 8.14484 15.3221 8.09823Z" fill="#FFEC2D"/>
<path d="M16.073 19.6502C15.968 19.8392 15.905 20.0582 15.773 20.2292C15.365 19.8602 14.777 19.8692 14.261 19.8482C13.835 19.8242 13.373 19.7852 13.043 19.4822C12.698 19.1972 12.413 18.8312 12.029 18.6002C11.6681 18.5227 11.3289 18.3659 11.036 18.1412C10.43 17.6462 10.082 16.9112 9.488 16.4012C9.377 16.2932 9.24201 16.2062 9.11601 16.1132C8.99601 16.1432 9.05 16.4012 8.903 16.2692C8.822 16.2092 8.621 16.2062 8.603 16.2872C8.783 16.5272 8.966 16.7972 8.993 17.1032C8.867 17.1152 8.648 17.0762 8.588 17.1212C8.75272 17.3686 8.95992 17.585 9.20001 17.7602C9.08601 17.7782 8.86101 17.7692 8.81601 17.8142C9.04061 18.0293 9.31792 18.1814 9.62001 18.2552C9.68001 18.3392 9.527 18.5012 9.659 18.5732C9.734 18.6032 9.986 18.6572 9.812 18.7442C9.692 18.8222 9.73701 19.0112 9.89001 19.0052C9.98601 19.0562 10.202 19.0652 10.22 19.1552C10.133 19.2392 9.869 19.3412 10.094 19.4252C10.3061 19.5454 10.5435 19.6143 10.787 19.6262C10.667 19.7282 10.517 19.7852 10.394 19.8812C10.949 20.2082 11.564 20.4212 12.176 20.6312C12.416 20.7092 12.665 20.7842 12.917 20.8322C12.185 20.7902 11.477 20.5742 10.811 20.2772C10.467 20.1252 10.119 19.9832 9.767 19.8512C9.92 19.7702 10.1 19.7492 10.262 19.6802C9.926 19.6142 9.563 19.5902 9.272 19.4102C9.314 19.3262 9.482 19.3232 9.578 19.2812C9.758 19.2392 9.866 19.1912 9.617 19.1732C9.365 19.1042 9.077 19.1342 8.852 18.9842C8.867 18.8942 9.101 18.9242 9.19401 18.8852C9.314 18.8642 9.446 18.8462 9.542 18.7652C9.152 18.6062 8.64201 18.7202 8.33601 18.3752C8.26701 18.2432 8.55501 18.3482 8.63601 18.3272C8.84601 18.3272 9.071 18.3932 9.272 18.3092C8.702 18.0602 8.09301 17.8292 7.66101 17.3672C7.61301 17.2922 7.46901 17.0882 7.58601 17.0642C7.92201 17.1092 8.165 17.4752 8.528 17.4182C8.576 17.3552 8.318 17.2502 8.252 17.1572C7.70918 16.7213 7.23578 16.2054 6.848 15.6272C6.824 15.4262 7.133 15.3962 7.214 15.5492C7.616 15.9392 7.97901 16.3892 8.48001 16.6532C8.66001 16.7402 8.378 16.5512 8.342 16.4822C7.86557 15.9539 7.45368 15.3708 7.11501 14.7452C7.05501 14.6312 6.96201 14.4242 7.13601 14.3642C7.30701 14.2772 7.481 14.3942 7.568 14.5442C7.907 14.9732 8.159 15.4832 8.582 15.8402C8.222 15.1412 7.83501 14.4002 7.82601 13.5962C7.83501 13.4402 7.844 13.2062 8.057 13.2092C8.237 13.1822 8.207 13.4102 8.267 13.5182C8.441 14.1122 8.516 14.7542 8.867 15.2762C8.792 14.8382 8.675 14.3852 8.753 13.9382C8.771 13.7882 8.933 13.7462 9.044 13.8362C9.131 14.0462 9.149 14.3132 9.227 14.5412C9.69456 16.0942 10.679 17.4406 12.017 18.3572C13.1128 19.1065 14.391 19.545 15.716 19.6262C15.836 19.6362 15.955 19.6432 16.073 19.6472M20.165 22.3802C19.949 22.5122 19.781 22.2782 19.601 22.2092C19.469 22.2812 19.457 22.5152 19.337 22.6292C19.193 22.7942 19.013 22.5812 19.028 22.4192C18.854 22.5662 18.767 22.8992 18.488 22.8512C18.353 22.7432 18.254 22.5152 18.152 22.7762C18.071 22.9022 17.852 23.0822 17.735 22.8902C17.699 22.7222 17.615 22.5242 17.525 22.7912C17.459 22.9832 17.255 23.1212 17.063 23.0372C16.955 22.9502 17.147 22.6262 17.012 22.6472C16.808 22.7852 16.688 23.1182 16.403 23.0912C16.292 22.9712 16.472 22.7582 16.349 22.6202C16.208 22.8032 16.049 23.0732 15.8 23.0912C15.68 22.9952 15.806 22.7162 15.728 22.6772C15.476 22.8272 15.206 23.1002 14.888 23.0162C15.011 22.5362 15.533 22.3712 15.968 22.3352C16.721 22.2422 17.513 22.4132 18.239 22.1402C18.356 22.0682 18.638 21.9692 18.539 21.8042C18.449 21.6722 18.77 21.7232 18.8 21.5702C18.782 21.3782 18.95 21.4052 19.112 21.3902C19.844 21.3572 20.567 21.5102 21.296 21.5372C21.35 21.8912 20.957 22.1402 20.636 22.0322C20.486 22.0562 20.261 21.6842 20.306 21.9542C20.276 22.0982 20.294 22.2842 20.165 22.3802ZM13.943 21.6542C14.111 21.8072 14.231 21.6242 14.39 21.5552C14.9092 21.3519 15.3971 21.0762 15.839 20.7362C16.115 20.5082 16.355 20.2112 16.727 20.1362C17.453 19.9172 18.224 19.9442 18.95 19.7402C19.505 18.9842 20.444 18.7112 21.233 18.2762C21.41 18.2222 21.479 18.0752 21.533 17.9162C21.833 17.4392 22.244 17.0192 22.73 16.7312C22.9592 16.5952 23.2297 16.5462 23.492 16.5932C23.4569 16.8996 23.3107 17.1824 23.081 17.3882C23.258 17.3852 23.411 17.2742 23.585 17.2802C23.645 17.5982 23.303 17.7632 23.12 17.9612C23.222 17.9852 23.612 18.0152 23.399 18.1172C23.129 18.3032 22.82 18.4322 22.571 18.6512C22.802 18.6932 22.829 18.7412 22.595 18.8252C22.466 18.9092 22.223 18.9392 22.199 19.1072C22.373 19.2152 22.121 19.3172 22.022 19.3532C21.836 19.3982 21.638 19.4792 21.887 19.6232C21.794 19.7642 21.59 19.7942 21.425 19.7792C21.476 19.9412 21.548 20.1212 21.341 20.1932C20.8764 20.5599 20.3203 20.7923 19.733 20.8652C20.468 20.9192 21.227 20.7842 21.854 20.3852C21.938 20.2862 22.373 20.1782 22.13 20.0972C22.016 20.0492 21.77 19.9952 21.752 19.9082C22.094 19.6982 22.523 19.7732 22.889 19.6502C22.898 19.5302 22.61 19.5632 22.502 19.5362C22.247 19.5152 22.262 19.4492 22.508 19.4252C22.82 19.3412 23.174 19.3262 23.438 19.1252C23.225 19.0232 22.955 19.1102 22.727 19.0292C23.114 18.8612 23.57 18.8432 23.918 18.5882C24.077 18.4112 23.714 18.4682 23.609 18.4712C23.396 18.5102 23.297 18.4052 23.54 18.3182C23.957 18.0092 24.482 17.8112 24.776 17.3672C24.845 17.2682 24.938 16.9682 24.716 17.0732C24.428 17.1722 24.173 17.4962 23.84 17.3972C24.494 16.8902 25.112 16.3172 25.559 15.6182C25.583 15.4142 25.265 15.3932 25.184 15.5522C24.764 15.9542 24.386 16.4312 23.849 16.6862C24.3551 16.18 24.7946 15.6114 25.157 14.9942C25.238 14.8142 25.451 14.5952 25.337 14.3942C25.148 14.2382 24.914 14.3822 24.818 14.5652C24.491 14.9912 24.245 15.4862 23.828 15.8342C24.191 15.1352 24.572 14.3882 24.578 13.5842C24.578 13.4162 24.548 13.1702 24.32 13.2032C24.14 13.2332 24.185 13.5032 24.11 13.6382C23.948 14.1902 23.87 14.7872 23.54 15.2672C23.615 14.8202 23.744 14.3522 23.645 13.9022C23.597 13.6982 23.27 13.7852 23.315 13.9862C22.925 15.9632 21.596 17.6912 19.865 18.6902C19.07 19.1402 18.185 19.4282 17.279 19.5602C17.039 19.6112 16.775 19.5812 16.544 19.6652C15.98 20.0942 15.641 20.8172 14.93 21.0422C14.609 21.2012 14.195 21.2342 13.967 21.5282C13.949 21.5677 13.9408 21.6109 13.943 21.6542ZM15.494 21.3452C15.386 21.3492 15.28 21.3662 15.176 21.3962C15.035 21.4172 14.9 21.4652 14.762 21.4862L14.705 21.4982L14.612 21.5072C14.624 21.5575 14.624 21.6099 14.612 21.6602C14.6023 21.6829 14.588 21.7033 14.57 21.7202C14.552 21.7442 14.53 21.7622 14.504 21.7742C14.4796 21.7862 14.4531 21.7933 14.426 21.7952C14.4 21.7972 14.373 21.7932 14.345 21.7832C14.319 21.7752 14.294 21.7602 14.27 21.7382L14.186 21.7532H14.108L14.024 21.7232L13.946 21.6842C13.844 21.7442 13.73 21.8012 13.667 21.9062C13.6377 21.9542 13.6212 22.009 13.619 22.0652C13.615 22.1372 13.629 22.2072 13.661 22.2752C13.673 22.2932 13.682 22.2062 13.715 22.1942C13.775 22.1462 13.842 22.1132 13.916 22.0952C13.976 22.0652 13.967 22.0952 13.943 22.1432C13.937 22.1702 13.904 22.2632 13.949 22.2152C14.1565 22.1377 14.3756 22.0961 14.597 22.0922C14.915 22.0622 15.233 22.0472 15.551 22.0472L16.451 22.0652C16.595 22.0712 16.739 22.1012 16.88 22.0772C16.913 22.0682 16.967 22.0682 16.988 22.0472C16.922 22.0112 16.847 22.0082 16.778 21.9992H16.205C16.046 21.9842 15.881 21.9812 15.731 21.9212C15.689 21.9062 15.653 21.8672 15.614 21.9092C15.5569 21.9296 15.4974 21.9427 15.437 21.9482C15.331 21.9522 15.229 21.9342 15.131 21.8942C15.203 21.8002 15.28 21.7102 15.362 21.6242L15.176 21.5852L15.494 21.3452Z" fill="#FFEC2D"/>
<path d="M14.3991 21.6992C14.4389 21.6992 14.4711 21.6669 14.4711 21.6272C14.4711 21.5874 14.4389 21.5552 14.3991 21.5552C14.3594 21.5552 14.3271 21.5874 14.3271 21.6272C14.3271 21.6669 14.3594 21.6992 14.3991 21.6992Z" fill="#FFEC2D"/>
<path d="M14.3933 21.6452C14.4098 21.6452 14.4233 21.6318 14.4233 21.6152C14.4233 21.5986 14.4098 21.5852 14.3933 21.5852C14.3767 21.5852 14.3633 21.5986 14.3633 21.6152C14.3633 21.6318 14.3767 21.6452 14.3933 21.6452Z" fill="#FFEC2D" stroke="#FFEC2D" stroke-width="0.0064"/>
<path d="M3.6002 2.19015C3.6002 2.19015 3.3122 1.94415 3.2132 2.06715C3.0572 2.26215 3.6992 3.23715 3.6992 3.57915C3.6992 4.14315 3.3212 4.29615 2.8592 4.37415C2.5472 4.42815 2.0402 4.35315 2.0402 4.35315C2.1362 4.22415 2.1992 4.18515 2.3582 4.17615C2.1782 4.08615 1.9982 3.88215 1.9982 3.56715C1.9982 3.08415 2.1962 2.88315 2.1962 2.33715C2.1962 2.04015 1.9502 1.65015 1.9502 1.65015C2.3882 1.69515 2.6042 2.10015 2.4812 2.42415C2.51496 2.43086 2.54985 2.42918 2.58281 2.41924C2.61577 2.4093 2.64578 2.39141 2.6702 2.36715C2.7002 2.45715 2.6522 2.56215 2.5832 2.65215C2.6372 2.68215 2.6792 2.66415 2.7632 2.64615C2.7572 2.73615 2.7032 2.83815 2.5652 2.93115C2.9612 2.82915 3.2012 3.10215 3.2012 3.39015C3.2012 3.60915 3.0512 3.76515 2.9012 3.76515C2.8532 3.76515 2.7812 3.74415 2.7422 3.71415C2.7122 3.77415 2.7302 3.85515 2.7572 3.91515C2.6492 3.88515 2.5772 3.81915 2.6282 3.68415C2.5442 3.67815 2.4792 3.64815 2.4332 3.59415C2.4792 3.53415 2.5442 3.50415 2.6282 3.50415C2.5682 3.37815 2.6372 3.30915 2.7362 3.25215C2.7362 3.25215 2.6732 3.50415 2.8322 3.50415C2.9042 3.50415 2.9702 3.48315 2.9702 3.37515C2.9702 3.28215 2.8892 3.15315 2.7002 3.16215C2.5112 3.17115 2.3612 3.29115 2.3612 3.59115C2.3612 3.86715 2.5862 4.00515 2.8802 4.01115C3.1442 4.02315 3.3452 3.87915 3.3452 3.60615C3.3452 3.24015 2.8202 2.41215 2.8202 2.08815C2.8202 1.84515 3.0362 1.70715 3.2522 1.70715C3.5282 1.70715 3.7622 1.98315 3.7622 1.98315L3.6002 2.18715V2.19015Z" fill="#FFEC2D"/>
<path d="M3.6598 8.76306C3.6598 9.37206 3.1138 9.68406 2.6848 9.68406C2.1088 9.68406 1.7998 9.33906 1.7998 8.88606C1.7998 8.63106 1.8478 8.46906 1.9648 8.22606L3.2908 5.47506C3.33884 5.35935 3.35938 5.23406 3.3508 5.10906C3.3508 4.86306 3.1108 4.66206 2.8618 4.65906C2.6338 4.65006 2.3818 4.86906 2.3818 5.11806C2.3818 5.42106 2.5408 5.55606 2.7028 5.55606C2.9008 5.55606 2.9788 5.47506 2.9788 5.33406C2.9748 5.24006 2.9368 5.19406 2.8648 5.19606C2.6938 5.19606 2.7448 5.42406 2.7448 5.42406C2.72223 5.41989 2.70085 5.41078 2.68219 5.39739C2.66354 5.38399 2.64807 5.36665 2.6369 5.34659C2.62572 5.32653 2.61911 5.30425 2.61754 5.28134C2.61597 5.25843 2.61947 5.23546 2.6278 5.21406C2.56343 5.20008 2.50544 5.16529 2.4628 5.11506C2.5068 5.06906 2.5618 5.03906 2.6278 5.02506C2.5888 4.89306 2.6428 4.83006 2.7568 4.80006C2.7371 4.84538 2.73186 4.89566 2.7418 4.94406C2.9218 4.89006 3.2008 4.97406 3.2008 5.28606C3.2008 5.59806 2.9848 5.85906 2.5798 5.79606C2.6758 5.84106 2.7238 5.93406 2.7358 6.03906C2.6608 6.00906 2.5798 6.00906 2.5798 6.00906C2.6278 6.09006 2.6938 6.15906 2.6908 6.32706C2.6158 6.29106 2.5438 6.22806 2.4508 6.26706C2.6008 6.56706 2.4148 6.97506 1.9408 7.07106C2.1128 6.86506 2.1988 6.65206 2.1988 6.43206C2.1988 5.72706 2.0038 5.61006 2.0038 5.11806C2.00689 5.00396 2.03706 4.89222 2.09183 4.79207C2.1466 4.69192 2.2244 4.60623 2.3188 4.54206V4.55106C2.26075 4.53914 2.20588 4.51507 2.15779 4.48043C2.10971 4.44578 2.0695 4.40136 2.0398 4.35006C2.374 4.25795 2.72729 4.26107 3.0598 4.35906C3.17103 4.3748 3.2773 4.41532 3.37076 4.47763C3.46423 4.53994 3.5425 4.62245 3.5998 4.71906C3.6597 4.85574 3.69062 5.00334 3.69062 5.15256C3.69062 5.30179 3.6597 5.44939 3.5998 5.58606C3.4108 5.97606 2.5288 7.85406 2.2528 8.44206C2.1928 8.56806 2.1618 8.70206 2.1598 8.84406C2.1598 9.20406 2.4898 9.33006 2.6758 9.33006C2.9008 9.33006 3.1318 9.15906 3.1318 8.94606C3.1318 8.81106 3.0568 8.72706 2.9518 8.72706C2.6968 8.72706 2.7118 8.94306 2.7628 9.08106C2.6038 9.00906 2.5138 8.88306 2.5378 8.75106C2.43936 8.73454 2.35002 8.68349 2.2858 8.60706C2.3458 8.52906 2.4238 8.46906 2.5378 8.46606C2.4868 8.25906 2.6278 8.17206 2.7628 8.12406C2.7208 8.27406 2.6908 8.45106 2.9518 8.45106C3.1408 8.45106 3.2878 8.48106 3.3748 8.60706L3.3958 7.79706C3.4078 7.55406 3.0718 7.55706 2.8558 7.63206C2.9368 7.35306 3.1018 7.20006 3.4858 7.23906C3.42697 7.21644 3.37676 7.17586 3.3423 7.12309C3.30783 7.07032 3.29087 7.00803 3.2938 6.94506C3.2938 6.71706 3.4798 6.46506 3.5998 6.39006L3.6598 8.76006V8.76306Z" fill="#FFEC2D"/>
<path d="M3.6598 10.587C3.6598 9.97803 3.1138 9.66603 2.6848 9.66603C2.1088 9.66603 1.7998 10.011 1.7998 10.464C1.7998 10.719 1.8478 10.881 1.9648 11.124L3.2908 13.875C3.33884 13.9908 3.35938 14.116 3.3508 14.241C3.3508 14.487 3.1108 14.688 2.8618 14.691C2.6338 14.7 2.3818 14.481 2.3818 14.232C2.3818 13.929 2.5408 13.794 2.7028 13.794C2.9008 13.794 2.9788 13.875 2.9788 14.016C2.9748 14.11 2.9368 14.156 2.8648 14.154C2.6938 14.154 2.7448 13.926 2.7448 13.926C2.72223 13.9302 2.70085 13.9393 2.68219 13.9527C2.66354 13.9661 2.64807 13.9834 2.6369 14.0035C2.62572 14.0236 2.61911 14.0458 2.61754 14.0688C2.61597 14.0917 2.61947 14.1146 2.6278 14.136C2.56343 14.15 2.50544 14.1848 2.4628 14.235C2.5068 14.281 2.5618 14.311 2.6278 14.325C2.5888 14.457 2.6428 14.52 2.7568 14.55C2.7371 14.5047 2.73186 14.4544 2.7418 14.406C2.9218 14.46 3.2008 14.376 3.2008 14.064C3.2008 13.752 2.9848 13.491 2.5798 13.554C2.6758 13.509 2.7238 13.416 2.7358 13.311C2.6608 13.341 2.5798 13.341 2.5798 13.341C2.6278 13.26 2.6938 13.191 2.6908 13.023C2.6158 13.059 2.5438 13.122 2.4508 13.083C2.6008 12.783 2.4148 12.375 1.9408 12.279C2.1128 12.485 2.1988 12.698 2.1988 12.918C2.1988 13.623 2.0038 13.74 2.0038 14.232C2.00689 14.3461 2.03706 14.4579 2.09183 14.558C2.1466 14.6582 2.2244 14.7439 2.3188 14.808V14.799C2.26075 14.811 2.20588 14.835 2.15779 14.8697C2.10971 14.9043 2.0695 14.9487 2.0398 15C2.374 15.0921 2.72729 15.089 3.0598 14.991C3.17103 14.9753 3.2773 14.9348 3.37076 14.8725C3.46423 14.8102 3.5425 14.7276 3.5998 14.631C3.6597 14.4944 3.69062 14.3468 3.69062 14.1975C3.69062 14.0483 3.6597 13.9007 3.5998 13.764C3.4108 13.374 2.5288 11.496 2.2528 10.908C2.1928 10.782 2.1618 10.648 2.1598 10.506C2.1598 10.146 2.4898 10.02 2.6758 10.02C2.9008 10.02 3.1318 10.191 3.1318 10.404C3.1318 10.539 3.0568 10.623 2.9518 10.623C2.6968 10.623 2.7118 10.407 2.7628 10.269C2.6038 10.341 2.5138 10.467 2.5378 10.599C2.43936 10.6156 2.35002 10.6666 2.2858 10.743C2.3458 10.821 2.4238 10.881 2.5378 10.884C2.4868 11.091 2.6278 11.178 2.7628 11.226C2.7208 11.076 2.6908 10.899 2.9518 10.899C3.1408 10.899 3.2878 10.869 3.3748 10.743L3.3958 11.553C3.4078 11.796 3.0718 11.793 2.8558 11.718C2.9368 11.997 3.1018 12.15 3.4858 12.111C3.42697 12.1337 3.37676 12.1742 3.3423 12.227C3.30783 12.2798 3.29087 12.3421 3.2938 12.405C3.2938 12.633 3.4798 12.885 3.5998 12.96L3.6598 10.59V10.587Z" fill="#FFEC2D"/>
<path d="M3.59902 2.19015C3.59902 2.19015 3.88702 1.94415 3.98602 2.06715C4.14202 2.26215 3.50002 3.23715 3.50002 3.57915C3.50002 4.14315 3.87802 4.29615 4.34002 4.37415C4.65202 4.42815 5.15902 4.35315 5.15902 4.35315C5.06302 4.22415 5.00002 4.18515 4.84102 4.17615C5.02102 4.08615 5.20102 3.88215 5.20102 3.56715C5.20102 3.08415 5.00302 2.88315 5.00302 2.33715C5.00302 2.04015 5.24902 1.65015 5.24902 1.65015C4.81102 1.69515 4.59502 2.10015 4.71802 2.42415C4.68426 2.43086 4.64937 2.42918 4.61641 2.41924C4.58345 2.4093 4.55344 2.39141 4.52902 2.36715C4.49902 2.45715 4.54702 2.56215 4.61602 2.65215C4.56202 2.68215 4.52002 2.66415 4.43602 2.64615C4.44202 2.73615 4.49602 2.83815 4.63402 2.93115C4.23802 2.82915 3.99802 3.10215 3.99802 3.39015C3.99802 3.60915 4.14802 3.76515 4.29802 3.76515C4.34602 3.76515 4.41802 3.74415 4.45702 3.71415C4.48702 3.77415 4.46902 3.85515 4.44202 3.91515C4.55002 3.88515 4.62202 3.81915 4.57102 3.68415C4.65502 3.67815 4.72002 3.64815 4.76602 3.59415C4.72002 3.53415 4.65502 3.50415 4.57102 3.50415C4.63102 3.37815 4.56202 3.30915 4.46302 3.25215C4.46302 3.25215 4.52602 3.50415 4.36702 3.50415C4.29502 3.50415 4.22902 3.48315 4.22902 3.37515C4.22902 3.28215 4.31002 3.15315 4.49902 3.16215C4.68802 3.17115 4.83802 3.29115 4.83802 3.59115C4.83802 3.86715 4.61302 4.00515 4.31902 4.01115C4.05502 4.02315 3.85402 3.87915 3.85402 3.60615C3.85402 3.24015 4.37902 2.41215 4.37902 2.08815C4.37902 1.84515 4.16302 1.70715 3.94702 1.70715C3.67102 1.70715 3.43702 1.98315 3.43702 1.98315L3.59902 2.18715V2.19015Z" fill="#FFEC2D"/>
<path d="M3.53941 8.76306C3.53941 9.37206 4.08541 9.68406 4.51441 9.68406C5.09041 9.68406 5.39941 9.33906 5.39941 8.88606C5.39941 8.63106 5.35141 8.46906 5.23441 8.22606L3.90841 5.47506C3.86038 5.35935 3.83984 5.23406 3.84841 5.10906C3.84841 4.86306 4.08841 4.66206 4.33741 4.65906C4.56541 4.65006 4.81741 4.86906 4.81741 5.11806C4.81741 5.42106 4.65841 5.55606 4.49641 5.55606C4.29841 5.55606 4.22041 5.47506 4.22041 5.33406C4.22441 5.24006 4.26241 5.19406 4.33441 5.19606C4.50541 5.19606 4.45441 5.42406 4.45441 5.42406C4.47699 5.41989 4.49837 5.41078 4.51703 5.39739C4.53568 5.38399 4.55115 5.36665 4.56232 5.34659C4.5735 5.32653 4.58011 5.30425 4.58168 5.28134C4.58325 5.25843 4.57975 5.23546 4.57141 5.21406C4.63579 5.20008 4.69378 5.16529 4.73641 5.11506C4.69241 5.06906 4.63741 5.03906 4.57141 5.02506C4.61041 4.89306 4.55641 4.83006 4.44241 4.80006C4.46212 4.84538 4.46736 4.89566 4.45741 4.94406C4.27741 4.89006 3.99841 4.97406 3.99841 5.28606C3.99841 5.59806 4.21441 5.85906 4.61941 5.79606C4.52341 5.84106 4.47541 5.93406 4.46341 6.03906C4.53841 6.00906 4.61941 6.00906 4.61941 6.00906C4.57141 6.09006 4.50541 6.15906 4.50841 6.32706C4.58341 6.29106 4.65541 6.22806 4.74841 6.26706C4.59841 6.56706 4.78441 6.97506 5.25841 7.07106C5.08641 6.86506 5.00041 6.65206 5.00041 6.43206C5.00041 5.72706 5.19541 5.61006 5.19541 5.11806C5.19233 5.00396 5.16215 4.89222 5.10738 4.79207C5.05262 4.69192 4.97482 4.60623 4.88041 4.54206V4.55106C4.93847 4.53914 4.99334 4.51507 5.04143 4.48043C5.08951 4.44578 5.12972 4.40136 5.15941 4.35006C4.82522 4.25795 4.47193 4.26107 4.13941 4.35906C4.02819 4.3748 3.92192 4.41532 3.82846 4.47763C3.73499 4.53994 3.65672 4.62245 3.59941 4.71906C3.53952 4.85574 3.50859 5.00334 3.50859 5.15256C3.50859 5.30179 3.53952 5.44939 3.59941 5.58606C3.78841 5.97606 4.67041 7.85406 4.94641 8.44206C5.00641 8.56806 5.03741 8.70206 5.03941 8.84406C5.03941 9.20406 4.70941 9.33006 4.52341 9.33006C4.29841 9.33006 4.06741 9.15906 4.06741 8.94606C4.06741 8.81106 4.14241 8.72706 4.24741 8.72706C4.50241 8.72706 4.48741 8.94306 4.43641 9.08106C4.59541 9.00906 4.68541 8.88306 4.66141 8.75106C4.75986 8.73454 4.8492 8.68349 4.91341 8.60706C4.85341 8.52906 4.77541 8.46906 4.66141 8.46606C4.71241 8.25906 4.57141 8.17206 4.43641 8.12406C4.47841 8.27406 4.50841 8.45106 4.24741 8.45106C4.05841 8.45106 3.91141 8.48106 3.82441 8.60706L3.80341 7.79706C3.79141 7.55406 4.12741 7.55706 4.34341 7.63206C4.26241 7.35306 4.09741 7.20006 3.71341 7.23906C3.77225 7.21644 3.82246 7.17586 3.85692 7.12309C3.89139 7.07032 3.90835 7.00803 3.90541 6.94506C3.90541 6.71706 3.71941 6.46506 3.59941 6.39006L3.53941 8.76006V8.76306Z" fill="#FFEC2D"/>
<path d="M3.53941 10.587C3.53941 9.97803 4.08541 9.66603 4.51441 9.66603C5.09041 9.66603 5.39941 10.011 5.39941 10.464C5.39941 10.719 5.35141 10.881 5.23441 11.124L3.90841 13.875C3.86038 13.9908 3.83984 14.116 3.84841 14.241C3.84841 14.487 4.08841 14.688 4.33741 14.691C4.56541 14.7 4.81741 14.481 4.81741 14.232C4.81741 13.929 4.65841 13.794 4.49641 13.794C4.29841 13.794 4.22041 13.875 4.22041 14.016C4.22441 14.11 4.26241 14.156 4.33441 14.154C4.50541 14.154 4.45441 13.926 4.45441 13.926C4.47699 13.9302 4.49837 13.9393 4.51703 13.9527C4.53568 13.9661 4.55115 13.9834 4.56232 14.0035C4.5735 14.0236 4.58011 14.0458 4.58168 14.0688C4.58325 14.0917 4.57975 14.1146 4.57141 14.136C4.63579 14.15 4.69378 14.1848 4.73641 14.235C4.69241 14.281 4.63741 14.311 4.57141 14.325C4.61041 14.457 4.55641 14.52 4.44241 14.55C4.46212 14.5047 4.46736 14.4544 4.45741 14.406C4.27741 14.46 3.99841 14.376 3.99841 14.064C3.99841 13.752 4.21441 13.491 4.61941 13.554C4.52341 13.509 4.47541 13.416 4.46341 13.311C4.53841 13.341 4.61941 13.341 4.61941 13.341C4.57141 13.26 4.50541 13.191 4.50841 13.023C4.58341 13.059 4.65541 13.122 4.74841 13.083C4.59841 12.783 4.78441 12.375 5.25841 12.279C5.08641 12.485 5.00041 12.698 5.00041 12.918C5.00041 13.623 5.19541 13.74 5.19541 14.232C5.19233 14.3461 5.16215 14.4579 5.10738 14.558C5.05262 14.6582 4.97482 14.7439 4.88041 14.808V14.799C4.93847 14.811 4.99334 14.835 5.04143 14.8697C5.08951 14.9043 5.12972 14.9487 5.15941 15C4.82522 15.0921 4.47193 15.089 4.13941 14.991C4.02819 14.9753 3.92192 14.9348 3.82846 14.8725C3.73499 14.8102 3.65672 14.7276 3.59941 14.631C3.53952 14.4944 3.50859 14.3468 3.50859 14.1975C3.50859 14.0483 3.53952 13.9007 3.59941 13.764C3.78841 13.374 4.67041 11.496 4.94641 10.908C5.00641 10.782 5.03741 10.648 5.03941 10.506C5.03941 10.146 4.70941 10.02 4.52341 10.02C4.29841 10.02 4.06741 10.191 4.06741 10.404C4.06741 10.539 4.14241 10.623 4.24741 10.623C4.50241 10.623 4.48741 10.407 4.43641 10.269C4.59541 10.341 4.68541 10.467 4.66141 10.599C4.75986 10.6156 4.8492 10.6666 4.91341 10.743C4.85341 10.821 4.77541 10.881 4.66141 10.884C4.71241 11.091 4.57141 11.178 4.43641 11.226C4.47841 11.076 4.50841 10.899 4.24741 10.899C4.05841 10.899 3.91141 10.869 3.82441 10.743L3.80341 11.553C3.79141 11.796 4.12741 11.793 4.34341 11.718C4.26241 11.997 4.09741 12.15 3.71341 12.111C3.77225 12.1337 3.82246 12.1742 3.85692 12.227C3.89139 12.2798 3.90835 12.3421 3.90541 12.405C3.90541 12.633 3.71941 12.885 3.59941 12.96L3.53941 10.59V10.587Z" fill="#FFEC2D"/>
<path d="M3.6002 27.8101C3.6002 27.8101 3.3122 28.0561 3.2132 27.9331C3.0572 27.7381 3.6992 26.7631 3.6992 26.4211C3.6992 25.8571 3.3212 25.7041 2.8592 25.6261C2.5472 25.5721 2.0402 25.6471 2.0402 25.6471C2.1362 25.7761 2.1992 25.8151 2.3582 25.8241C2.1782 25.9141 1.9982 26.1181 1.9982 26.4331C1.9982 26.9161 2.1962 27.1171 2.1962 27.6631C2.1962 27.9601 1.9502 28.3501 1.9502 28.3501C2.3882 28.3051 2.6042 27.9001 2.4812 27.5761C2.51496 27.5694 2.54985 27.5711 2.58281 27.581C2.61577 27.5909 2.64578 27.6088 2.6702 27.6331C2.7002 27.5431 2.6522 27.4381 2.5832 27.3481C2.6372 27.3181 2.6792 27.3361 2.7632 27.3541C2.7572 27.2641 2.7032 27.1621 2.5652 27.0691C2.9612 27.1711 3.2012 26.8981 3.2012 26.6101C3.2012 26.3911 3.0512 26.2351 2.9012 26.2351C2.8532 26.2351 2.7812 26.2561 2.7422 26.2861C2.7122 26.2261 2.7302 26.1451 2.7572 26.0851C2.6492 26.1151 2.5772 26.1811 2.6282 26.3161C2.5442 26.3221 2.4792 26.3521 2.4332 26.4061C2.4792 26.4661 2.5442 26.4961 2.6282 26.4961C2.5682 26.6221 2.6372 26.6911 2.7362 26.7481C2.7362 26.7481 2.6732 26.4961 2.8322 26.4961C2.9042 26.4961 2.9702 26.5171 2.9702 26.6251C2.9702 26.7181 2.8892 26.8471 2.7002 26.8381C2.5112 26.8291 2.3612 26.7091 2.3612 26.4091C2.3612 26.1331 2.5862 25.9951 2.8802 25.9891C3.1442 25.9771 3.3452 26.1211 3.3452 26.3941C3.3452 26.7601 2.8202 27.5881 2.8202 27.9121C2.8202 28.1551 3.0362 28.2931 3.2522 28.2931C3.5282 28.2931 3.7622 28.0171 3.7622 28.0171L3.6002 27.8131V27.8101Z" fill="#FFEC2D"/>
<path d="M3.6598 21.2372C3.6598 20.6282 3.1138 20.3162 2.6848 20.3162C2.1088 20.3162 1.7998 20.6612 1.7998 21.1142C1.7998 21.3692 1.8478 21.5312 1.9648 21.7742L3.2908 24.5252C3.33884 24.6409 3.35938 24.7662 3.3508 24.8912C3.3508 25.1372 3.1108 25.3382 2.8618 25.3412C2.6338 25.3502 2.3818 25.1312 2.3818 24.8822C2.3818 24.5792 2.5408 24.4442 2.7028 24.4442C2.9008 24.4442 2.9788 24.5252 2.9788 24.6662C2.9748 24.7602 2.9368 24.8062 2.8648 24.8042C2.6938 24.8042 2.7448 24.5762 2.7448 24.5762C2.72223 24.5804 2.70085 24.5895 2.68219 24.6029C2.66354 24.6162 2.64807 24.6336 2.6369 24.6537C2.62572 24.6737 2.61911 24.696 2.61754 24.7189C2.61597 24.7418 2.61947 24.7648 2.6278 24.7862C2.56343 24.8002 2.50544 24.835 2.4628 24.8852C2.5068 24.9312 2.5618 24.9612 2.6278 24.9752C2.5888 25.1072 2.6428 25.1702 2.7568 25.2002C2.7371 25.1549 2.73186 25.1046 2.7418 25.0562C2.9218 25.1102 3.2008 25.0262 3.2008 24.7142C3.2008 24.4022 2.9848 24.1412 2.5798 24.2042C2.6758 24.1592 2.7238 24.0662 2.7358 23.9612C2.6608 23.9912 2.5798 23.9912 2.5798 23.9912C2.6278 23.9102 2.6938 23.8412 2.6908 23.6732C2.6158 23.7092 2.5438 23.7722 2.4508 23.7332C2.6008 23.4332 2.4148 23.0252 1.9408 22.9292C2.1128 23.1352 2.1988 23.3482 2.1988 23.5682C2.1988 24.2732 2.0038 24.3902 2.0038 24.8822C2.00689 24.9963 2.03706 25.108 2.09183 25.2082C2.1466 25.3083 2.2244 25.394 2.3188 25.4582V25.4492C2.26075 25.4611 2.20588 25.4852 2.15779 25.5198C2.10971 25.5545 2.0695 25.5989 2.0398 25.6502C2.374 25.7423 2.72729 25.7392 3.0598 25.6412C3.17103 25.6254 3.2773 25.5849 3.37076 25.5226C3.46423 25.4603 3.5425 25.3778 3.5998 25.2812C3.6597 25.1445 3.69062 24.9969 3.69062 24.8477C3.69062 24.6985 3.6597 24.5509 3.5998 24.4142C3.4108 24.0242 2.5288 22.1462 2.2528 21.5582C2.1928 21.4322 2.1618 21.2982 2.1598 21.1562C2.1598 20.7962 2.4898 20.6702 2.6758 20.6702C2.9008 20.6702 3.1318 20.8412 3.1318 21.0542C3.1318 21.1892 3.0568 21.2732 2.9518 21.2732C2.6968 21.2732 2.7118 21.0572 2.7628 20.9192C2.6038 20.9912 2.5138 21.1172 2.5378 21.2492C2.43936 21.2657 2.35002 21.3168 2.2858 21.3932C2.3458 21.4712 2.4238 21.5312 2.5378 21.5342C2.4868 21.7412 2.6278 21.8282 2.7628 21.8762C2.7208 21.7262 2.6908 21.5492 2.9518 21.5492C3.1408 21.5492 3.2878 21.5192 3.3748 21.3932L3.3958 22.2032C3.4078 22.4462 3.0718 22.4432 2.8558 22.3682C2.9368 22.6472 3.1018 22.8002 3.4858 22.7612C3.42697 22.7838 3.37676 22.8244 3.3423 22.8772C3.30783 22.9299 3.29087 22.9922 3.2938 23.0552C3.2938 23.2832 3.4798 23.5352 3.5998 23.6102L3.6598 21.2402V21.2372Z" fill="#FFEC2D"/>
<path d="M3.6598 19.4132C3.6598 20.0222 3.1138 20.3342 2.6848 20.3342C2.1088 20.3342 1.7998 19.9892 1.7998 19.5362C1.7998 19.2812 1.8478 19.1192 1.9648 18.8762L3.2908 16.1252C3.33884 16.0095 3.35938 15.8842 3.3508 15.7592C3.3508 15.5132 3.1108 15.3122 2.8618 15.3092C2.6338 15.3002 2.3818 15.5192 2.3818 15.7682C2.3818 16.0712 2.5408 16.2062 2.7028 16.2062C2.9008 16.2062 2.9788 16.1252 2.9788 15.9842C2.9748 15.8902 2.9368 15.8442 2.8648 15.8462C2.6938 15.8462 2.7448 16.0742 2.7448 16.0742C2.72223 16.07 2.70085 16.0609 2.68219 16.0475C2.66354 16.0341 2.64807 16.0168 2.6369 15.9967C2.62572 15.9767 2.61911 15.9544 2.61754 15.9315C2.61597 15.9086 2.61947 15.8856 2.6278 15.8642C2.56343 15.8502 2.50544 15.8154 2.4628 15.7652C2.5068 15.7192 2.5618 15.6892 2.6278 15.6752C2.5888 15.5432 2.6428 15.4802 2.7568 15.4502C2.7371 15.4955 2.73186 15.5458 2.7418 15.5942C2.9218 15.5402 3.2008 15.6242 3.2008 15.9362C3.2008 16.2482 2.9848 16.5092 2.5798 16.4462C2.6758 16.4912 2.7238 16.5842 2.7358 16.6892C2.6608 16.6592 2.5798 16.6592 2.5798 16.6592C2.6278 16.7402 2.6938 16.8092 2.6908 16.9772C2.6158 16.9412 2.5438 16.8782 2.4508 16.9172C2.6008 17.2172 2.4148 17.6252 1.9408 17.7212C2.1128 17.5152 2.1988 17.3022 2.1988 17.0822C2.1988 16.3772 2.0038 16.2602 2.0038 15.7682C2.00689 15.6541 2.03706 15.5424 2.09183 15.4422C2.1466 15.3421 2.2244 15.2564 2.3188 15.1922V15.2012C2.26075 15.1893 2.20588 15.1652 2.15779 15.1306C2.10971 15.0959 2.0695 15.0515 2.0398 15.0002C2.374 14.9081 2.72729 14.9112 3.0598 15.0092C3.17103 15.0249 3.2773 15.0655 3.37076 15.1278C3.46423 15.1901 3.5425 15.2726 3.5998 15.3692C3.6597 15.5059 3.69062 15.6535 3.69062 15.8027C3.69062 15.9519 3.6597 16.0995 3.5998 16.2362C3.4108 16.6262 2.5288 18.5042 2.2528 19.0922C2.1928 19.2182 2.1618 19.3522 2.1598 19.4942C2.1598 19.8542 2.4898 19.9802 2.6758 19.9802C2.9008 19.9802 3.1318 19.8092 3.1318 19.5962C3.1318 19.4612 3.0568 19.3772 2.9518 19.3772C2.6968 19.3772 2.7118 19.5932 2.7628 19.7312C2.6038 19.6592 2.5138 19.5332 2.5378 19.4012C2.43936 19.3847 2.35002 19.3336 2.2858 19.2572C2.3458 19.1792 2.4238 19.1192 2.5378 19.1162C2.4868 18.9092 2.6278 18.8222 2.7628 18.7742C2.7208 18.9242 2.6908 19.1012 2.9518 19.1012C3.1408 19.1012 3.2878 19.1312 3.3748 19.2572L3.3958 18.4472C3.4078 18.2042 3.0718 18.2072 2.8558 18.2822C2.9368 18.0032 3.1018 17.8502 3.4858 17.8892C3.42697 17.8666 3.37676 17.826 3.3423 17.7732C3.30783 17.7205 3.29087 17.6582 3.2938 17.5952C3.2938 17.3672 3.4798 17.1152 3.5998 17.0402L3.6598 19.4102V19.4132Z" fill="#FFEC2D"/>
<path d="M3.59902 27.8101C3.59902 27.8101 3.88702 28.0561 3.98602 27.9331C4.14202 27.7381 3.50002 26.7631 3.50002 26.4211C3.50002 25.8571 3.87802 25.7041 4.34002 25.6261C4.65202 25.5721 5.15902 25.6471 5.15902 25.6471C5.06302 25.7761 5.00002 25.8151 4.84102 25.8241C5.02102 25.9141 5.20102 26.1181 5.20102 26.4331C5.20102 26.9161 5.00302 27.1171 5.00302 27.6631C5.00302 27.9601 5.24902 28.3501 5.24902 28.3501C4.81102 28.3051 4.59502 27.9001 4.71802 27.5761C4.68426 27.5694 4.64937 27.5711 4.61641 27.581C4.58345 27.5909 4.55344 27.6088 4.52902 27.6331C4.49902 27.5431 4.54702 27.4381 4.61602 27.3481C4.56202 27.3181 4.52002 27.3361 4.43602 27.3541C4.44202 27.2641 4.49602 27.1621 4.63402 27.0691C4.23802 27.1711 3.99802 26.8981 3.99802 26.6101C3.99802 26.3911 4.14802 26.2351 4.29802 26.2351C4.34602 26.2351 4.41802 26.2561 4.45702 26.2861C4.48702 26.2261 4.46902 26.1451 4.44202 26.0851C4.55002 26.1151 4.62202 26.1811 4.57102 26.3161C4.65502 26.3221 4.72002 26.3521 4.76602 26.4061C4.72002 26.4661 4.65502 26.4961 4.57102 26.4961C4.63102 26.6221 4.56202 26.6911 4.46302 26.7481C4.46302 26.7481 4.52602 26.4961 4.36702 26.4961C4.29502 26.4961 4.22902 26.5171 4.22902 26.6251C4.22902 26.7181 4.31002 26.8471 4.49902 26.8381C4.68802 26.8291 4.83802 26.7091 4.83802 26.4091C4.83802 26.1331 4.61302 25.9951 4.31902 25.9891C4.05502 25.9771 3.85402 26.1211 3.85402 26.3941C3.85402 26.7601 4.37902 27.5881 4.37902 27.9121C4.37902 28.1551 4.16302 28.2931 3.94702 28.2931C3.67102 28.2931 3.43702 28.0171 3.43702 28.0171L3.59902 27.8131V27.8101Z" fill="#FFEC2D"/>
<path d="M3.53941 21.2372C3.53941 20.6282 4.08541 20.3162 4.51441 20.3162C5.09041 20.3162 5.39941 20.6612 5.39941 21.1142C5.39941 21.3692 5.35141 21.5312 5.23441 21.7742L3.90841 24.5252C3.86038 24.6409 3.83984 24.7662 3.84841 24.8912C3.84841 25.1372 4.08841 25.3382 4.33741 25.3412C4.56541 25.3502 4.81741 25.1312 4.81741 24.8822C4.81741 24.5792 4.65841 24.4442 4.49641 24.4442C4.29841 24.4442 4.22041 24.5252 4.22041 24.6662C4.22441 24.7602 4.26241 24.8062 4.33441 24.8042C4.50541 24.8042 4.45441 24.5762 4.45441 24.5762C4.47699 24.5804 4.49837 24.5895 4.51703 24.6029C4.53568 24.6162 4.55115 24.6336 4.56232 24.6537C4.5735 24.6737 4.58011 24.696 4.58168 24.7189C4.58325 24.7418 4.57975 24.7648 4.57141 24.7862C4.63579 24.8002 4.69378 24.835 4.73641 24.8852C4.69241 24.9312 4.63741 24.9612 4.57141 24.9752C4.61041 25.1072 4.55641 25.1702 4.44241 25.2002C4.46212 25.1549 4.46736 25.1046 4.45741 25.0562C4.27741 25.1102 3.99841 25.0262 3.99841 24.7142C3.99841 24.4022 4.21441 24.1412 4.61941 24.2042C4.52341 24.1592 4.47541 24.0662 4.46341 23.9612C4.53841 23.9912 4.61941 23.9912 4.61941 23.9912C4.57141 23.9102 4.50541 23.8412 4.50841 23.6732C4.58341 23.7092 4.65541 23.7722 4.74841 23.7332C4.59841 23.4332 4.78441 23.0252 5.25841 22.9292C5.08641 23.1352 5.00041 23.3482 5.00041 23.5682C5.00041 24.2732 5.19541 24.3902 5.19541 24.8822C5.19233 24.9963 5.16215 25.108 5.10738 25.2082C5.05262 25.3083 4.97482 25.394 4.88041 25.4582V25.4492C4.93847 25.4611 4.99334 25.4852 5.04143 25.5198C5.08951 25.5545 5.12972 25.5989 5.15941 25.6502C4.82522 25.7423 4.47193 25.7392 4.13941 25.6412C4.02819 25.6254 3.92192 25.5849 3.82846 25.5226C3.73499 25.4603 3.65672 25.3778 3.59941 25.2812C3.53952 25.1445 3.50859 24.9969 3.50859 24.8477C3.50859 24.6985 3.53952 24.5509 3.59941 24.4142C3.78841 24.0242 4.67041 22.1462 4.94641 21.5582C5.00641 21.4322 5.03741 21.2982 5.03941 21.1562C5.03941 20.7962 4.70941 20.6702 4.52341 20.6702C4.29841 20.6702 4.06741 20.8412 4.06741 21.0542C4.06741 21.1892 4.14241 21.2732 4.24741 21.2732C4.50241 21.2732 4.48741 21.0572 4.43641 20.9192C4.59541 20.9912 4.68541 21.1172 4.66141 21.2492C4.75986 21.2657 4.8492 21.3168 4.91341 21.3932C4.85341 21.4712 4.77541 21.5312 4.66141 21.5342C4.71241 21.7412 4.57141 21.8282 4.43641 21.8762C4.47841 21.7262 4.50841 21.5492 4.24741 21.5492C4.05841 21.5492 3.91141 21.5192 3.82441 21.3932L3.80341 22.2032C3.79141 22.4462 4.12741 22.4432 4.34341 22.3682C4.26241 22.6472 4.09741 22.8002 3.71341 22.7612C3.77225 22.7838 3.82246 22.8244 3.85692 22.8772C3.89139 22.9299 3.90835 22.9922 3.90541 23.0552C3.90541 23.2832 3.71941 23.5352 3.59941 23.6102L3.53941 21.2402V21.2372Z" fill="#FFEC2D"/>
<path d="M3.53941 19.4132C3.53941 20.0222 4.08541 20.3342 4.51441 20.3342C5.09041 20.3342 5.39941 19.9892 5.39941 19.5362C5.39941 19.2812 5.35141 19.1192 5.23441 18.8762L3.90841 16.1252C3.86038 16.0095 3.83984 15.8842 3.84841 15.7592C3.84841 15.5132 4.08841 15.3122 4.33741 15.3092C4.56541 15.3002 4.81741 15.5192 4.81741 15.7682C4.81741 16.0712 4.65841 16.2062 4.49641 16.2062C4.29841 16.2062 4.22041 16.1252 4.22041 15.9842C4.22441 15.8902 4.26241 15.8442 4.33441 15.8462C4.50541 15.8462 4.45441 16.0742 4.45441 16.0742C4.47699 16.07 4.49837 16.0609 4.51703 16.0475C4.53568 16.0341 4.55115 16.0168 4.56232 15.9967C4.5735 15.9767 4.58011 15.9544 4.58168 15.9315C4.58325 15.9086 4.57975 15.8856 4.57141 15.8642C4.63579 15.8502 4.69378 15.8154 4.73641 15.7652C4.69241 15.7192 4.63741 15.6892 4.57141 15.6752C4.61041 15.5432 4.55641 15.4802 4.44241 15.4502C4.46212 15.4955 4.46736 15.5458 4.45741 15.5942C4.27741 15.5402 3.99841 15.6242 3.99841 15.9362C3.99841 16.2482 4.21441 16.5092 4.61941 16.4462C4.52341 16.4912 4.47541 16.5842 4.46341 16.6892C4.53841 16.6592 4.61941 16.6592 4.61941 16.6592C4.57141 16.7402 4.50541 16.8092 4.50841 16.9772C4.58341 16.9412 4.65541 16.8782 4.74841 16.9172C4.59841 17.2172 4.78441 17.6252 5.25841 17.7212C5.08641 17.5152 5.00041 17.3022 5.00041 17.0822C5.00041 16.3772 5.19541 16.2602 5.19541 15.7682C5.19233 15.6541 5.16215 15.5424 5.10738 15.4422C5.05262 15.3421 4.97482 15.2564 4.88041 15.1922V15.2012C4.93847 15.1893 4.99334 15.1652 5.04143 15.1306C5.08951 15.0959 5.12972 15.0515 5.15941 15.0002C4.82522 14.9081 4.47193 14.9112 4.13941 15.0092C4.02819 15.0249 3.92192 15.0655 3.82846 15.1278C3.73499 15.1901 3.65672 15.2726 3.59941 15.3692C3.53952 15.5059 3.50859 15.6535 3.50859 15.8027C3.50859 15.9519 3.53952 16.0995 3.59941 16.2362C3.78841 16.6262 4.67041 18.5042 4.94641 19.0922C5.00641 19.2182 5.03741 19.3522 5.03941 19.4942C5.03941 19.8542 4.70941 19.9802 4.52341 19.9802C4.29841 19.9802 4.06741 19.8092 4.06741 19.5962C4.06741 19.4612 4.14241 19.3772 4.24741 19.3772C4.50241 19.3772 4.48741 19.5932 4.43641 19.7312C4.59541 19.6592 4.68541 19.5332 4.66141 19.4012C4.75986 19.3847 4.8492 19.3336 4.91341 19.2572C4.85341 19.1792 4.77541 19.1192 4.66141 19.1162C4.71241 18.9092 4.57141 18.8222 4.43641 18.7742C4.47841 18.9242 4.50841 19.1012 4.24741 19.1012C4.05841 19.1012 3.91141 19.1312 3.82441 19.2572L3.80341 18.4472C3.79141 18.2042 4.12741 18.2072 4.34341 18.2822C4.26241 18.0032 4.09741 17.8502 3.71341 17.8892C3.77225 17.8666 3.82246 17.826 3.85692 17.7732C3.89139 17.7205 3.90835 17.6582 3.90541 17.5952C3.90541 17.3672 3.71941 17.1152 3.59941 17.0402L3.53941 19.4102V19.4132Z" fill="#FFEC2D"/>
</g>
<defs>
<clipPath id="clip0_109_5589">
<rect y="0.000244141" width="30" height="30" rx="15" fill="white"/>
</clipPath>
</defs>
</svg>
