<svg width="98" height="98" viewBox="0 0 98 98" fill="none" xmlns="http://www.w3.org/2000/svg">
<rect width="98" height="98" rx="23.3333" fill="url(#paint0_linear_95_6718)"/>
<path d="M34.608 68.9884C33.9122 68.9884 33.3294 68.7527 32.8595 68.2812C32.3897 67.8097 32.1539 67.2269 32.1523 66.5327C32.1507 65.8386 32.3864 65.2558 32.8595 64.7843C33.3327 64.3128 33.9155 64.077 34.608 64.077H64.0765C64.7723 64.077 65.356 64.3128 65.8275 64.7843C66.299 65.2558 66.5339 65.8386 66.5323 66.5327C66.5306 67.2269 66.2949 67.8105 65.825 68.2837C65.3551 68.7568 64.7723 68.9917 64.0765 68.9884H34.608ZM36.327 60.3935C35.1401 60.3935 34.0866 60.0046 33.1665 59.227C32.2464 58.4494 31.6833 57.4671 31.477 56.2801L29.0213 40.6864C28.9394 40.6864 28.8477 40.697 28.7462 40.7183C28.6447 40.7396 28.5522 40.7494 28.4687 40.7478C27.4455 40.7478 26.5762 40.3901 25.8608 39.6746C25.1453 38.9592 24.7868 38.0891 24.7852 37.0642C24.7835 36.0394 25.1421 35.17 25.8608 34.4562C26.5795 33.7424 27.4488 33.3839 28.4687 33.3806C29.4887 33.3774 30.3588 33.7359 31.0792 34.4562C31.7995 35.1766 32.1572 36.0459 32.1523 37.0642C32.1523 37.3507 32.1212 37.6167 32.059 37.8623C31.9968 38.1079 31.9256 38.333 31.8453 38.5376L39.5194 41.9756L47.1935 31.4775C46.7433 31.15 46.375 30.7203 46.0885 30.1882C45.802 29.6561 45.6587 29.0831 45.6587 28.4692C45.6587 27.446 46.0172 26.5759 46.7343 25.8588C47.4514 25.1417 48.3207 24.784 49.3423 24.7857C50.3638 24.7873 51.234 25.1458 51.9527 25.8613C52.6714 26.5767 53.0291 27.446 53.0258 28.4692C53.0258 29.0831 52.8826 29.6561 52.5961 30.1882C52.3096 30.7203 51.9412 31.15 51.491 31.4775L59.1651 41.9756L66.8392 38.5376C66.7574 38.333 66.6853 38.1079 66.6231 37.8623C66.5609 37.6167 66.5306 37.3507 66.5323 37.0642C66.5323 36.041 66.8908 35.1709 67.6079 34.4538C68.3249 33.7367 69.1942 33.379 70.2158 33.3806C71.2374 33.3823 72.1075 33.7408 72.8262 34.4562C73.5449 35.1717 73.9027 36.041 73.8994 37.0642C73.8961 38.0874 73.5384 38.9576 72.8262 39.6746C72.1141 40.3917 71.2439 40.7494 70.2158 40.7478C70.134 40.7478 70.0423 40.7379 69.9408 40.7183C69.8393 40.6987 69.7468 40.688 69.6633 40.6864L67.2076 56.2801C67.0029 57.4671 66.4406 58.4494 65.5205 59.227C64.6004 60.0046 63.5461 60.3935 62.3575 60.3935H36.327Z" fill="url(#paint1_linear_95_6718)"/>
<defs>
<linearGradient id="paint0_linear_95_6718" x1="-15.5448" y1="-17.6569" x2="49" y2="38.4397" gradientUnits="userSpaceOnUse">
<stop stop-color="white" stop-opacity="0.4"/>
<stop offset="0.0721154" stop-color="white" stop-opacity="0"/>
<stop offset="1" stop-color="white" stop-opacity="0.4"/>
</linearGradient>
<linearGradient id="paint1_linear_95_6718" x1="49.3423" y1="24.7856" x2="49.3423" y2="68.9885" gradientUnits="userSpaceOnUse">
<stop stop-color="#196264"/>
<stop offset="0.711538" stop-color="#196264" stop-opacity="0.7"/>
<stop offset="1" stop-color="#196264"/>
</linearGradient>
</defs>
</svg>
