<svg width="97" height="97" viewBox="0 0 97 97" fill="none" xmlns="http://www.w3.org/2000/svg">
<rect width="97" height="97" rx="23.0952" fill="url(#paint0_linear_95_6683)"/>
<path d="M34.2558 68.2845C33.5671 68.2845 32.9903 68.0511 32.5252 67.5844C32.0601 67.1178 31.8268 66.5409 31.8252 65.8538C31.8235 65.1667 32.0569 64.5899 32.5252 64.1232C32.9935 63.6565 33.5704 63.4232 34.2558 63.4232H63.4237C64.1123 63.4232 64.69 63.6565 65.1567 64.1232C65.6234 64.5899 65.8559 65.1667 65.8543 65.8538C65.8527 66.5409 65.6193 67.1186 65.1543 67.5869C64.6892 68.0552 64.1123 68.2877 63.4237 68.2845H34.2558ZM35.9573 59.7772C34.7825 59.7772 33.7397 59.3923 32.829 58.6226C31.9183 57.8529 31.3609 56.8807 31.1567 55.7058L28.7261 40.2712C28.6451 40.2712 28.5543 40.2817 28.4539 40.3028C28.3534 40.3239 28.2618 40.3336 28.1792 40.332C27.1664 40.332 26.306 39.9779 25.5978 39.2698C24.8897 38.5616 24.5348 37.7004 24.5332 36.686C24.5316 35.6716 24.8865 34.8111 25.5978 34.1046C26.3092 33.3981 27.1697 33.0432 28.1792 33.04C29.1887 33.0368 30.05 33.3916 30.763 34.1046C31.476 34.8176 31.83 35.6781 31.8252 36.686C31.8252 36.9696 31.7944 37.2329 31.7328 37.4759C31.6712 37.719 31.6007 37.9418 31.5213 38.1444L39.1171 41.5473L46.7129 31.1562C46.2673 30.8322 45.9027 30.4068 45.6191 29.8802C45.3355 29.3535 45.1938 28.7864 45.1938 28.1787C45.1938 27.1659 45.5486 26.3047 46.2584 25.5949C46.9681 24.8852 47.8286 24.5311 48.8397 24.5327C49.8509 24.5343 50.7121 24.8892 51.4235 25.5973C52.1349 26.3055 52.489 27.1659 52.4857 28.1787C52.4857 28.7864 52.3439 29.3535 52.0604 29.8802C51.7768 30.4068 51.4122 30.8322 50.9666 31.1562L58.5623 41.5473L66.1581 38.1444C66.0771 37.9418 66.0058 37.719 65.9442 37.4759C65.8827 37.2329 65.8527 36.9696 65.8543 36.686C65.8543 35.6732 66.2092 34.812 66.9189 34.1022C67.6287 33.3924 68.4891 33.0384 69.5003 33.04C70.5114 33.0416 71.3727 33.3965 72.0841 34.1046C72.7954 34.8128 73.1495 35.6732 73.1463 36.686C73.143 37.6988 72.789 38.56 72.0841 39.2698C71.3792 39.9795 70.5179 40.3336 69.5003 40.332C69.4193 40.332 69.3285 40.3222 69.2281 40.3028C69.1276 40.2833 69.036 40.2728 68.9534 40.2712L66.5227 55.7058C66.3202 56.8807 65.7636 57.8529 64.8529 58.6226C63.9422 59.3923 62.8986 59.7772 61.7222 59.7772H35.9573Z" fill="url(#paint1_linear_95_6683)"/>
<defs>
<linearGradient id="paint0_linear_95_6683" x1="14.9231" y1="-1.97024e-06" x2="87.8427" y2="92.2517" gradientUnits="userSpaceOnUse">
<stop stop-color="#F9D867"/>
<stop offset="1" stop-color="#E1A91E"/>
</linearGradient>
<linearGradient id="paint1_linear_95_6683" x1="48.8397" y1="24.5327" x2="48.8397" y2="68.2845" gradientUnits="userSpaceOnUse">
<stop stop-color="#FFF7D0"/>
<stop offset="0.711538" stop-color="#FFDF77"/>
<stop offset="1" stop-color="#FEEDAD"/>
</linearGradient>
</defs>
</svg>
