<svg width="24" height="25" viewBox="0 0 24 25" fill="none" xmlns="http://www.w3.org/2000/svg">
<path d="M6.40341 5.34937C7.89373 3.88886 9.90021 3.0755 11.9868 3.08604C14.0735 3.09658 16.0716 3.93016 17.5471 5.40565C19.0226 6.88114 19.8562 8.87931 19.8667 10.9659C19.8773 13.0526 19.0639 15.0591 17.6034 16.5494L13.4174 20.7354C13.0424 21.1103 12.5337 21.3209 12.0034 21.3209C11.4731 21.3209 10.9645 21.1103 10.5894 20.7354L6.40341 16.5494C4.9183 15.0641 4.08398 13.0497 4.08398 10.9494C4.08398 8.84899 4.9183 6.83463 6.40341 5.34937Z" stroke="white" stroke-width="1.5" stroke-linejoin="round"/>
<path d="M12.0029 13.9493C13.6598 13.9493 15.0029 12.6062 15.0029 10.9493C15.0029 9.29249 13.6598 7.94934 12.0029 7.94934C10.3461 7.94934 9.00293 9.29249 9.00293 10.9493C9.00293 12.6062 10.3461 13.9493 12.0029 13.9493Z" stroke="white" stroke-width="1.5" stroke-linecap="round" stroke-linejoin="round"/>
</svg>
