<svg width="119" height="61" viewBox="0 0 119 61" fill="none" xmlns="http://www.w3.org/2000/svg">
<path d="M38.7613 47.1141L37.8085 33.7502H36.4226L37.2146 29.543H39.5038L40.4566 42.907H41.3227L40.5555 47.1141H38.7613ZM31.8442 47.1141L34.9377 29.543H38.2292L35.1357 47.1141H31.8442ZM40.1596 47.1141L43.2531 29.543H46.5446L43.4511 47.1141H40.1596ZM46.3288 47.1141L49.4223 29.543H52.7138L49.6203 47.1141H46.3288ZM48.222 40.5683L48.7665 37.5366H57.8366L57.3045 40.5683H48.222ZM48.8902 32.5623L49.4223 29.543H61.4746L60.9425 32.5623H48.8902ZM60.1699 47.1141L63.2634 29.543H66.5548L63.4613 47.1141H60.1699ZM60.1699 47.1141L60.7019 44.0949H72.7542L72.2221 47.1141H60.1699ZM80.3093 47.3616C78.2222 47.3616 76.7291 46.8666 75.8299 45.8767C74.939 44.8786 74.6626 43.4102 75.0009 41.4716L77.1044 29.543H80.3959L78.2923 41.4716C78.1356 42.3708 78.2429 43.0554 78.6141 43.5257C78.9935 43.9876 79.6287 44.2186 80.5197 44.2186C81.3446 44.2186 82.0087 43.9876 82.5119 43.5257C83.0233 43.0554 83.3574 42.3708 83.5142 41.4716L85.6178 29.543H88.9093L86.8057 41.4716C86.4675 43.4102 85.7498 44.8786 84.6526 45.8767C83.5554 46.8666 82.1077 47.3616 80.3093 47.3616ZM91.2796 45.8644L88.6192 44.4785L99.9291 30.5082L102.589 32.1787L91.2796 45.8644ZM89.4978 47.1141L88.6192 44.4785L91.0321 44.1072H100.424L99.8919 47.1141H89.4978ZM91.0693 32.5499L91.589 29.543H101.711L102.589 32.1787L100.523 32.5499H91.0693ZM101.013 47.1141L109.167 29.5306H113.238C113.42 30.7021 113.589 31.8735 113.745 33.0449C113.902 34.2163 114.051 35.3877 114.191 36.5591C114.331 37.7305 114.459 38.906 114.574 40.0857C114.69 41.2571 114.797 42.4285 114.896 43.5999C114.995 44.7713 115.086 45.9427 115.168 47.1141H111.827C111.786 46.1985 111.737 45.2828 111.679 44.3671C111.621 43.4432 111.555 42.5234 111.481 41.6077C111.415 40.692 111.341 39.7763 111.258 38.8607C111.184 37.9367 111.106 37.0169 111.023 36.1013C110.941 35.1773 110.854 34.2575 110.763 33.3418H110.367L104.354 47.1141H101.013ZM104.205 43.7855L104.626 40.7663H113.535L113.114 43.7855H104.205Z" fill="white"/>
<path d="M5.71259 53.2381H3.67475V56.342H5.71259C6.21576 56.342 6.63402 56.1942 6.96737 55.8986C7.30701 55.5967 7.47683 55.2225 7.47683 54.7759C7.47683 54.3356 7.30701 53.9708 6.96737 53.6815C6.63402 53.3859 6.21576 53.2381 5.71259 53.2381ZM5.71259 56.9458H3.67475V59.2478H3.06151V52.6437H5.80694C6.46106 52.6437 7.00511 52.8481 7.43909 53.257C7.87308 53.6595 8.09007 54.1658 8.09007 54.7759C8.09007 55.3797 7.8605 55.8923 7.40136 56.3137C6.94221 56.7351 6.37929 56.9458 5.71259 56.9458ZM9.53442 55.6439H13.0063V56.2288H9.53442V58.6535H13.2327V59.2478H8.92118V52.6437H13.2327V53.2381H9.53442V55.6439ZM14.1543 59.2478V52.6437H14.7676V55.6533H15.1072L18.1168 52.6437H18.9565L15.6544 55.9646L18.9565 59.2478H18.1168L15.1072 56.2949H14.7676V59.2478H14.1543ZM19.7644 58.6629C20.2046 58.6629 20.5443 58.5245 20.7833 58.2478C21.0223 57.971 21.1418 57.6188 21.1418 57.1911V52.6437H25.0382V59.2478H24.425V53.2287H21.755V57.3515C21.755 57.8673 21.5789 58.3138 21.2267 58.6912C20.8808 59.0623 20.4279 59.2478 19.8682 59.2478H19.5663V58.6629H19.7644ZM27.1598 56.8043H31.1128V57.3798H27.1598V56.8043ZM26.5749 59.2478H25.8767L28.7542 52.6437H29.5467L32.4242 59.2478H31.7355L29.1599 53.2947L26.5749 59.2478ZM33.2625 59.2478V52.6437H34.0267L36.6589 57.4081L39.2911 52.6437H40.0553V59.2478H39.4515V53.6155L36.9137 58.1817H36.4136L33.8663 53.6155V59.2478H33.2625ZM41.1586 59.2478V52.6437H41.7718V55.6439H45.8758V52.6437H46.489V59.2478H45.8758V56.2288H41.7718V59.2478H41.1586ZM48.014 55.9175C48.014 56.7603 48.2782 57.4521 48.8065 57.9931C49.3348 58.534 49.9827 58.8044 50.75 58.8044C51.5173 58.8044 52.1652 58.534 52.6935 57.9931C53.2218 57.4521 53.486 56.7603 53.486 55.9175C53.486 55.0872 53.2218 54.4048 52.6935 53.8702C52.1652 53.3356 51.5173 53.0683 50.75 53.0683C49.9827 53.0683 49.3348 53.3356 48.8065 53.8702C48.2782 54.4048 48.014 55.0872 48.014 55.9175ZM47.4008 55.9175C47.4008 55.4206 47.4888 54.9552 47.6649 54.5212C47.8411 54.0872 48.0801 53.7224 48.382 53.4268C48.6839 53.1249 49.0392 52.889 49.4481 52.7192C49.8569 52.5431 50.2909 52.455 50.75 52.455C51.2092 52.455 51.6431 52.5431 52.052 52.7192C52.4608 52.889 52.8162 53.1249 53.1181 53.4268C53.42 53.7224 53.659 54.0872 53.8351 54.5212C54.0112 54.9552 54.0992 55.4206 54.0992 55.9175C54.0992 56.4206 54.0112 56.8924 53.8351 57.3326C53.659 57.7666 53.42 58.1377 53.1181 58.4459C52.8162 58.7478 52.4608 58.9868 52.052 59.1629C51.6431 59.3327 51.2092 59.4177 50.75 59.4177C50.2909 59.4177 49.8569 59.3327 49.4481 59.1629C49.0392 58.9868 48.6839 58.7478 48.382 58.4459C48.0801 58.1377 47.8411 57.7666 47.6649 57.3326C47.4888 56.8924 47.4008 56.4206 47.4008 55.9175ZM55.6379 55.6439H59.1097V56.2288H55.6379V58.6535H59.3362V59.2478H55.0246V52.6437H59.3362V53.2381H55.6379V55.6439ZM63.8196 56.8043H67.7726V57.3798H63.8196V56.8043ZM63.2346 59.2478H62.5365L65.414 52.6437H66.2065L69.084 59.2478H68.3953L65.8197 53.2947L63.2346 59.2478ZM69.9318 59.2478V52.6437H74.3376V53.2287H70.545V59.2478H69.9318ZM75.7874 55.6439H79.2593V56.2288H75.7874V58.6535H79.4857V59.2478H75.1741V52.6437H79.4857V53.2381H75.7874V55.6439ZM80.4073 59.2478V52.6437H81.0205V55.6439H85.1245V52.6437H85.7378V59.2478H85.1245V56.2288H81.0205V59.2478H80.4073ZM91.6026 52.6437V53.2381H89.3855V59.2478H88.7723V53.2381H86.5552V52.6437H91.6026ZM92.6948 57.7289C92.3929 57.1943 92.242 56.5968 92.242 55.9363C92.242 55.2759 92.3929 54.6784 92.6948 54.1438C92.9968 53.6092 93.4056 53.1941 93.9213 52.8985C94.4434 52.6028 95.0157 52.455 95.6384 52.455C96.324 52.455 96.9498 52.6374 97.5158 53.0022C98.0819 53.367 98.5096 53.8639 98.7989 54.4929L98.2234 54.7193C97.9907 54.2098 97.6416 53.8073 97.1762 53.5117C96.7108 53.2161 96.195 53.0683 95.629 53.0683C94.8553 53.0683 94.1981 53.3387 93.6572 53.8796C93.1225 54.4205 92.8552 55.1061 92.8552 55.9363C92.8552 56.7666 93.1225 57.4521 93.6572 57.9931C94.1981 58.534 94.8553 58.8044 95.629 58.8044C96.2139 58.8044 96.7391 58.6503 97.2045 58.3421C97.6762 58.0276 98.0285 57.6 98.2612 57.059L98.8461 57.2855C98.5694 57.9396 98.1417 58.4585 97.563 58.8422C96.9844 59.2258 96.3428 59.4177 95.6384 59.4177C95.0157 59.4177 94.4434 59.2698 93.9213 58.9742C93.4056 58.6786 92.9968 58.2635 92.6948 57.7289ZM104.538 52.6437V53.2381H102.321V59.2478H101.708V53.2381H99.4907V52.6437H104.538ZM108.489 53.2381H105.979V55.6439H108.574C108.914 55.6439 109.2 55.5181 109.432 55.2665C109.665 55.0086 109.781 54.691 109.781 54.3136C109.781 54.0054 109.659 53.7507 109.414 53.5494C109.168 53.3419 108.86 53.2381 108.489 53.2381ZM108.574 56.2288H105.979V58.6535H108.583C108.948 58.6535 109.253 58.5465 109.498 58.3327C109.75 58.1188 109.876 57.8547 109.876 57.5402C109.876 57.1628 109.75 56.8515 109.498 56.6062C109.253 56.3546 108.945 56.2288 108.574 56.2288ZM108.678 59.2478H105.366V52.6437H108.583C109.105 52.6437 109.536 52.801 109.876 53.1154C110.222 53.4236 110.395 53.8136 110.395 54.2853C110.395 54.6375 110.31 54.9583 110.14 55.2476C109.97 55.5307 109.737 55.7508 109.442 55.908C109.769 56.0653 110.024 56.2917 110.206 56.5873C110.395 56.8766 110.489 57.2037 110.489 57.5685C110.489 58.0465 110.316 58.4459 109.97 58.7667C109.624 59.0874 109.193 59.2478 108.678 59.2478ZM111.918 55.9175C111.918 56.7603 112.182 57.4521 112.71 57.9931C113.238 58.534 113.886 58.8044 114.654 58.8044C115.421 58.8044 116.069 58.534 116.597 57.9931C117.125 57.4521 117.39 56.7603 117.39 55.9175C117.39 55.0872 117.125 54.4048 116.597 53.8702C116.069 53.3356 115.421 53.0683 114.654 53.0683C113.886 53.0683 113.238 53.3356 112.71 53.8702C112.182 54.4048 111.918 55.0872 111.918 55.9175ZM111.304 55.9175C111.304 55.4206 111.392 54.9552 111.569 54.5212C111.745 54.0872 111.984 53.7224 112.286 53.4268C112.587 53.1249 112.943 52.889 113.352 52.7192C113.76 52.5431 114.194 52.455 114.654 52.455C115.113 52.455 115.547 52.5431 115.956 52.7192C116.364 52.889 116.72 53.1249 117.022 53.4268C117.324 53.7224 117.563 54.0872 117.739 54.5212C117.915 54.9552 118.003 55.4206 118.003 55.9175C118.003 56.4206 117.915 56.8924 117.739 57.3326C117.563 57.7666 117.324 58.1377 117.022 58.4459C116.72 58.7478 116.364 58.9868 115.956 59.1629C115.547 59.3327 115.113 59.4177 114.654 59.4177C114.194 59.4177 113.76 59.3327 113.352 59.1629C112.943 58.9868 112.587 58.7478 112.286 58.4459C111.984 58.1377 111.745 57.7666 111.569 57.3326C111.392 56.8924 111.304 56.4206 111.304 55.9175Z" fill="white"/>
<path d="M40.1289 17.1044C41.4446 14.2536 41.7078 11.6222 38.3746 10.745L32.8924 16.0079L2.63086 48.6817H18.6388L40.1289 17.1044Z" fill="url(#paint0_linear_95_911)"/>
<g filter="url(#filter0_f_95_911)">
<path d="M40.039 17.2273C39.8025 18.1349 37.8941 18.4234 35.7764 17.8717C33.6587 17.32 31.7039 17.0406 31.9403 16.133C32.1768 15.2254 34.5149 14.0333 36.6326 14.585C38.7504 15.1367 40.2754 16.3197 40.039 17.2273Z" fill="black" fill-opacity="0.51"/>
</g>
<path d="M4.60351 24.1215C-3.29082 18.1569 0.729438 11.6953 3.72636 9.21003C1.79679 14.2975 6.86941 15.1308 9.64691 14.9115C14.3833 15.2623 25.6548 12.4262 30.6984 10.9643C32.9644 10.3796 38.0226 9.6486 40.1278 11.4029C42.2329 13.1572 40.7125 16.3734 39.6892 17.7622C39.6892 14.2536 35.4497 15.277 33.3299 16.2272L18.857 22.5865C10.2609 25.9197 5.77297 24.9987 4.60351 24.1215Z" fill="url(#paint1_linear_95_911)"/>
<circle cx="24.2956" cy="5.04364" r="5.0436" fill="url(#paint2_linear_95_911)"/>
<path d="M18.6396 37.498L26.3147 23.2444L35.0862 24.3408L18.6396 37.498Z" fill="url(#paint3_linear_95_911)"/>
<defs>
<filter id="filter0_f_95_911" x="29.0906" y="11.6144" width="13.8032" height="9.36775" filterUnits="userSpaceOnUse" color-interpolation-filters="sRGB">
<feFlood flood-opacity="0" result="BackgroundImageFix"/>
<feBlend mode="normal" in="SourceGraphic" in2="BackgroundImageFix" result="shape"/>
<feGaussianBlur stdDeviation="1.41517" result="effect1_foregroundBlur_95_911"/>
</filter>
<linearGradient id="paint0_linear_95_911" x1="11.6216" y1="48.6817" x2="41.2253" y2="11.6222" gradientUnits="userSpaceOnUse">
<stop stop-color="#B0E87A"/>
<stop offset="0.235577" stop-color="#64C191"/>
<stop offset="0.490385" stop-color="#319DA0"/>
<stop offset="0.697115" stop-color="#248EA0"/>
<stop offset="1" stop-color="#1371A8"/>
</linearGradient>
<linearGradient id="paint1_linear_95_911" x1="41.2259" y1="12.0608" x2="1.09643" y2="13.5958" gradientUnits="userSpaceOnUse">
<stop stop-color="#13C8CB"/>
<stop offset="0.346154" stop-color="#3BADAF"/>
<stop offset="0.663647" stop-color="#2E7476"/>
<stop offset="1" stop-color="#094D4E"/>
</linearGradient>
<linearGradient id="paint2_linear_95_911" x1="19.6703" y1="3.81589e-05" x2="20.9877" y2="10.1106" gradientUnits="userSpaceOnUse">
<stop stop-color="#084345"/>
<stop offset="1" stop-color="#13C8CB" stop-opacity="0.79"/>
</linearGradient>
<linearGradient id="paint3_linear_95_911" x1="18.8589" y1="37.2787" x2="31.5776" y2="23.4636" gradientUnits="userSpaceOnUse">
<stop stop-color="#218AA1"/>
<stop offset="1" stop-color="#2189A1" stop-opacity="0"/>
</linearGradient>
</defs>
</svg>
