<svg width="25" height="25" viewBox="0 0 25 25" fill="none" xmlns="http://www.w3.org/2000/svg">
<path d="M3.09375 7.1123C3.09375 6.58187 3.30446 6.07316 3.67954 5.69809C4.05461 5.32302 4.56332 5.1123 5.09375 5.1123H19.0938C19.6242 5.1123 20.1329 5.32302 20.508 5.69809C20.883 6.07316 21.0938 6.58187 21.0938 7.1123V17.1123C21.0938 17.6427 20.883 18.1514 20.508 18.5265C20.1329 18.9016 19.6242 19.1123 19.0938 19.1123H5.09375C4.56332 19.1123 4.05461 18.9016 3.67954 18.5265C3.30446 18.1514 3.09375 17.6427 3.09375 17.1123V7.1123Z" stroke="white" stroke-width="1.5" stroke-linecap="round" stroke-linejoin="round"/>
<path d="M3.09375 7.1123L12.0938 13.1123L21.0938 7.1123" stroke="white" stroke-width="1.5" stroke-linecap="round" stroke-linejoin="round"/>
</svg>
