<svg width="152" height="23" viewBox="0 0 152 23" fill="none" xmlns="http://www.w3.org/2000/svg">
<path d="M35.9173 15.8408C35.7635 16.6933 35.3222 17.4674 34.6669 18.034C34.0116 18.6005 33.1818 18.9253 32.316 18.9542C31.9363 18.9659 31.5589 18.8892 31.2138 18.7302C30.8687 18.5712 30.5653 18.3342 30.3274 18.0379C30.0896 17.7416 29.9237 17.3941 29.8431 17.0228C29.7624 16.6515 29.7691 16.2665 29.8626 15.8982C30.0103 15.048 30.446 14.2746 31.0965 13.7077C31.747 13.1407 32.5728 12.8149 33.4351 12.7848C33.82 12.759 34.2055 12.8259 34.5591 12.98C34.9128 13.134 35.2243 13.3707 35.4675 13.6701C35.7107 13.9696 35.8784 14.323 35.9567 14.7007C36.035 15.0784 36.0215 15.4694 35.9173 15.8408ZM37.0651 9.81486L36.8068 11.0774C36.4911 10.5009 36.0083 10.0333 35.4219 9.73626C34.8355 9.43921 34.1729 9.32656 33.5212 9.41313C31.7513 9.48419 30.0607 10.1663 28.7371 11.3435C27.4135 12.5206 26.5386 14.12 26.2614 15.8695C25.6301 19.3273 27.2944 22.3546 31.1252 22.3546C31.8573 22.3817 32.5859 22.2406 33.255 21.9422C33.9241 21.6437 34.5158 21.1958 34.9847 20.6329L34.7551 21.9242H38.3276L40.5802 9.85791H37.0651V9.81486ZM42.6606 9.82921H46.0322L45.8027 11.0918C46.1697 10.539 46.6759 10.0927 47.2704 9.79801C47.8649 9.50329 48.5266 9.37053 49.1887 9.41313L48.5287 13.0431C46.8357 13.0431 45.6592 13.4161 45.2718 15.2669L44.0379 21.8955H40.408L42.6606 9.82921Z" fill="#363333"/>
<path d="M51.6134 5.09473L48.5 21.8956H52.1299L53.206 16.0706H53.2634L55.5877 21.8956H59.6767L56.5203 15.1236L62.044 9.8294H57.7828L53.6077 14.2054H53.5503L55.2433 5.09473H51.6134Z" fill="#363333"/>
<path d="M64.1826 14.5208C64.4435 13.9044 64.8812 13.3792 65.4404 13.0115C65.9997 12.6438 66.6554 12.45 67.3247 12.4548C67.6171 12.4205 67.9135 12.4482 68.1945 12.5362C68.4755 12.6242 68.7348 12.7704 68.9555 12.9654C69.1762 13.1603 69.3533 13.3996 69.4752 13.6676C69.5972 13.9356 69.6613 14.2263 69.6633 14.5208H64.1826ZM67.8412 9.41309C66.0425 9.50921 64.327 10.2017 62.9656 11.3812C61.6042 12.5608 60.6744 14.1601 60.3231 15.9268C60.1345 16.7032 60.1281 17.5127 60.3044 18.292C60.4806 19.0713 60.8348 19.7992 61.3391 20.4189C61.8435 21.0385 62.4843 21.5331 63.2116 21.8639C63.9388 22.1947 64.7327 22.3528 65.5312 22.3258C66.8205 22.3161 68.08 21.9377 69.1612 21.2354C70.4031 20.4649 71.4414 19.4069 72.1885 18.1507H68.5012C68.2047 18.5047 67.8335 18.7886 67.4143 18.9821C66.995 19.1755 66.5382 19.2738 66.0764 19.2698C65.7628 19.3063 65.4451 19.2733 65.1456 19.1733C64.8462 19.0732 64.5724 18.9085 64.3438 18.6908C64.1151 18.4731 63.9371 18.2077 63.8225 17.9135C63.7079 17.6194 63.6594 17.3036 63.6804 16.9886H72.7337C72.8556 16.6838 72.9422 16.3661 72.9919 16.0416C73.6806 12.2826 71.5285 9.41309 67.8412 9.41309Z" fill="#363333"/>
<path d="M21.4552 5.09473L15.085 14.6645H15.0276V5.09473H11.9428L0.651367 21.8956H5.02735L11.3689 12.3259H11.4263V21.8956H14.5397L20.8813 12.3259H20.9387V21.8956H24.5686V5.09473H21.4552ZM82.1595 9.8294H79.8783L80.5382 6.25687H77.3674L77.1092 7.69162C77.0338 8.31793 76.724 8.89246 76.2423 9.2997C75.7605 9.70694 75.1424 9.9167 74.5123 9.88679L73.9671 12.5554H75.7605L74.0245 21.8956H77.6257L79.3617 12.5554H81.6717L82.1595 9.8294Z" fill="#363333"/>
<path d="M141.443 5.10845H145.045L143.954 11.0914C144.327 10.5274 144.845 10.0741 145.453 9.77877C146.062 9.48346 146.738 9.35703 147.412 9.4127C147.992 9.3811 148.57 9.48677 149.101 9.72112C149.632 9.95548 150.101 10.3119 150.468 10.7614C151.243 11.9379 151.157 13.0139 150.755 15.166L149.521 21.9094H145.92L147.125 15.3382C147.24 14.7643 147.584 12.7987 145.69 12.7987C145.053 12.8042 144.441 13.0492 143.976 13.4851C143.51 13.921 143.226 14.5159 143.179 15.1517L141.931 21.895H138.387L141.443 5.10845ZM126.264 9.82877H124.04L124.657 6.25625H121.486L121.17 7.63361C121.095 8.25991 120.785 8.83444 120.303 9.24168C119.822 9.64892 119.204 9.85868 118.573 9.82877L118.086 12.5548H119.865L118.143 21.895H121.744L123.466 12.5548H125.776L126.264 9.82877ZM108.889 18.9538C109.767 18.9412 110.614 18.6237 111.284 18.0558C111.954 17.4879 112.406 16.7047 112.562 15.8404C112.666 15.469 112.68 15.078 112.601 14.7003C112.523 14.3225 112.355 13.9691 112.112 13.6697C111.869 13.3703 111.557 13.1336 111.204 12.9795C110.85 12.8255 110.465 12.7585 110.08 12.7844C109.217 12.8144 108.392 13.1403 107.741 13.7072C107.091 14.2741 106.655 15.0476 106.507 15.8978C106.414 16.2661 106.407 16.651 106.488 17.0223C106.568 17.3936 106.734 17.7411 106.972 18.0374C107.21 18.3337 107.513 18.5707 107.858 18.7298C108.204 18.8888 108.581 18.9655 108.961 18.9538M115.044 21.8233H111.4L111.629 20.532C111.162 21.1159 110.564 21.5823 109.884 21.8937C109.204 22.2051 108.46 22.353 107.712 22.3254C103.882 22.3254 102.203 19.2981 102.849 15.8404C103.131 14.0984 104.007 12.5075 105.327 11.3364C106.647 10.1652 108.331 9.48575 110.094 9.4127C110.74 9.3408 111.392 9.46359 111.967 9.76527C112.542 10.067 113.014 10.5338 113.322 11.1057L113.581 9.84312H117.153L115.044 21.8233ZM108.114 0.804199L101.084 5.10845H103.078L96.7079 14.6639V5.10845H93.5371L87.1668 14.6639V5.10845H83.4795V21.895H86.6216L92.9919 12.2822V21.895H96.1053L107.425 5.10845H109.205L108.114 0.804199ZM138.043 17.3182C137.438 18.7593 136.433 19.9968 135.146 20.8843C133.859 21.7717 132.345 22.2718 130.783 22.3254C129.965 22.3708 129.148 22.2219 128.398 21.8908C127.648 21.5598 126.987 21.0561 126.47 20.4208C125.952 19.7855 125.592 19.0367 125.419 18.2357C125.246 17.4346 125.265 16.604 125.475 15.8117C125.832 14.0397 126.78 12.4415 128.164 11.2789C129.548 10.1164 131.286 9.45836 133.093 9.4127C133.789 9.36766 134.486 9.46547 135.143 9.7001C135.799 9.93474 136.4 10.3012 136.91 10.777C137.419 11.2528 137.826 11.8278 138.104 12.4667C138.383 13.1055 138.528 13.7947 138.531 14.4917H134.872C134.768 13.9711 134.474 13.5079 134.047 13.1923C133.62 12.8767 133.091 12.7313 132.562 12.7844C131.719 12.7978 130.909 13.1138 130.28 13.6748C129.65 14.2358 129.243 15.0044 129.133 15.8404C129.012 16.1997 128.98 16.5832 129.04 16.9577C129.1 17.3322 129.25 17.6865 129.477 17.9901C129.704 18.2937 130.002 18.5375 130.345 18.7003C130.687 18.8632 131.064 18.9404 131.443 18.9251C132.018 18.9178 132.581 18.767 133.082 18.4863C133.583 18.2057 134.006 17.8041 134.313 17.3182H138H138.043Z" fill="#4DB84D"/>
</svg>
