<svg width="122" height="26" viewBox="0 0 122 26" fill="none" xmlns="http://www.w3.org/2000/svg">
<path d="M61.1078 24.8438H63.2901V0.84617H61.1078V24.8438ZM91.1706 0.84617H98.1372V2.84609H95.7676V24.8434H93.5746V2.84609H91.1711L91.1706 0.84617ZM59.1124 0.84617V24.8438H56.8262L53.5566 10.2674V24.8438H51.4124V0.84617H53.385L56.9677 16.7393V0.84617H59.1124ZM11.6421 0.84617V24.8438H9.49842V4.273L6.85068 24.8438H5.06313L2.46019 4.273V24.8438H0.300781V0.84617H3.95296L6.04427 15.3124L8.0173 0.84617H11.6421ZM38.2311 24.8496C39.9895 22.4654 40.9358 19.5795 40.9308 16.617C40.9308 8.94708 34.7124 2.72871 27.0425 2.72871C19.3712 2.72871 13.1524 8.94708 13.1524 16.617C13.1474 19.5794 14.093 22.4652 15.8503 24.8501H18.7391C16.6424 22.7355 15.3463 19.831 15.3463 16.617C15.3463 10.1589 20.5826 4.92216 27.0425 4.92216C33.501 4.92216 38.7378 10.1589 38.7378 16.617C38.7378 19.8265 37.4448 22.7355 35.3517 24.8501H38.2306M103.143 17.2684L101.69 4.03869L100.353 17.2684H103.143ZM106.039 24.8438H103.905L103.342 19.4377H100.148L99.6263 24.8438H97.4508L99.9095 0.84617H103.238L106.039 24.8438ZM79.9596 21.7933C79.9596 22.8762 79.3248 23.4272 78.5959 23.4272C77.8679 23.4272 77.2326 22.8762 77.2326 21.7933V3.66908C77.2326 2.58848 77.8679 2.03608 78.5959 2.03608C79.3248 2.03608 79.9596 2.58848 79.9596 3.66908L79.9551 4.53553V9.05998H82.1504V5.57133L82.145 4.5642C82.1298 1.57329 80.9605 0.148619 78.5197 0.148619C76.3464 0.148619 74.9311 1.68977 74.9311 4.05616L74.9334 4.93695V19.9592L74.9316 20.9304C74.9316 24.0038 76.1269 25.5046 78.573 25.5046C81.0133 25.5046 82.1504 24.0311 82.1504 20.8668V12.1365H78.1192V14.2376H79.9551V20.9976L79.9596 21.7933ZM88.9588 21.2176V14.9786L83.9554 11.2427V4.2712C83.9554 1.53118 85.1901 0.128906 87.6058 0.128906C90.0555 0.128906 91.1711 1.52042 91.1876 4.60004L91.1926 5.55699V9.09269H88.9588V4.34961L88.9516 3.66953C88.9516 2.58893 88.3226 2.03653 87.6031 2.03653C86.8818 2.03653 86.2524 2.58893 86.2524 3.66953V10.2024L91.1926 13.9321V21.1477C91.1926 23.9702 89.9377 25.4795 87.5906 25.4795C85.2139 25.4795 83.9765 24.0544 83.9617 21.3041L83.9554 20.3543V15.6583H86.2524V21.7929C86.2524 22.8757 86.8814 23.4268 87.6036 23.4268C88.3226 23.4268 88.9521 22.8757 88.9521 21.7929L88.9588 21.2176ZM44.5798 2.73543V12.2377H45.35C46.763 12.2377 47.4278 11.5894 47.4278 10.2118V5.32134C47.4278 3.35144 46.9722 2.73543 45.5139 2.73543H44.5798ZM50.085 24.8438H47.8987C47.5985 24.0352 47.4673 23.2776 47.4538 22.2624L47.4359 21.0339L47.4278 20.413V15.7277C47.4278 14.7443 46.8297 14.2972 46.1389 14.2972H44.5798V24.8434H42.437V0.846618H45.2321C48.3718 0.846618 49.5805 1.99442 49.5805 5.06553V9.57071C49.5805 11.5894 49.2423 12.4371 47.663 13.0195L47.7298 13.0419C49.2208 13.4774 49.5554 14.0436 49.572 15.9356L49.5805 16.807V21.1885C49.5805 22.7843 49.7001 23.6494 50.085 24.8443M108.752 2.73543V12.2377H109.522C110.937 12.2377 111.601 11.5894 111.601 10.2118V5.32134C111.601 3.35144 111.145 2.73543 109.685 2.73543H108.752ZM114.257 24.8438H112.07C111.77 24.0352 111.639 23.2776 111.625 22.2624L111.607 21.0339L111.601 20.413V15.7277C111.601 14.7443 111.001 14.2972 110.309 14.2972H108.752V24.8434H106.609V0.846618H109.404C112.545 0.846618 113.752 1.99442 113.752 5.06553V9.57071C113.752 11.5894 113.415 12.4371 111.836 13.0195L111.901 13.0419C113.391 13.4774 113.728 14.0436 113.744 15.9356L113.752 16.807V21.1885C113.752 22.7843 113.873 23.6494 114.257 24.8443M72.9523 0.84617V24.8438H70.6652L67.3983 10.2674V24.8438H65.2537V0.84617H67.2272L70.8072 16.7393V0.84617H72.9523ZM116.142 3.2708C116.142 2.62801 116.398 2.01155 116.852 1.55677C117.306 1.102 117.922 0.846105 118.565 0.845274C119.208 0.845749 119.825 1.10141 120.279 1.55611C120.734 2.01081 120.989 2.62737 120.99 3.27035C120.989 3.91345 120.734 4.53017 120.279 4.98504C119.825 5.4399 119.208 5.69573 118.565 5.69632C117.922 5.69537 117.306 5.43938 116.852 4.98453C116.398 4.52969 116.142 3.91318 116.142 3.27035V3.2708ZM115.863 3.2708C115.864 3.98726 116.149 4.67419 116.655 5.18089C117.162 5.6876 117.849 5.97269 118.565 5.97364C119.282 5.97269 119.969 5.68759 120.476 5.18085C120.983 4.6741 121.268 3.98706 121.269 3.27035C121.268 2.55368 120.983 1.86669 120.476 1.36001C119.969 0.853338 119.282 0.568337 118.565 0.567508C117.849 0.568338 117.162 0.853396 116.655 1.36012C116.149 1.86685 115.864 2.55385 115.863 3.27035" fill="#EA293C"/>
<path d="M117.975 3.18145H118.772C119.102 3.18145 119.334 3.07572 119.334 2.72045C119.334 2.36786 119.102 2.25989 118.772 2.25989H117.975V3.18145ZM117.622 1.95166H118.827C119.247 1.95166 119.686 2.11294 119.686 2.72045C119.686 3.06138 119.531 3.39022 119.068 3.46593L119.802 4.61956H119.376L118.656 3.48789H117.975V4.61956H117.621V1.95166" fill="#EA293C"/>
</svg>
