<svg width="24" height="25" viewBox="0 0 24 25" fill="none" xmlns="http://www.w3.org/2000/svg">
<path fill-rule="evenodd" clip-rule="evenodd" d="M5.73303 2.25912C6.95003 1.04912 8.95403 1.26412 9.97303 2.62612L11.235 4.31012C12.065 5.41812 11.991 6.96612 11.006 7.94512L10.768 8.18312C10.741 8.28303 10.7383 8.38793 10.76 8.48912C10.823 8.89712 11.164 9.76112 12.592 11.1811C14.02 12.6011 14.89 12.9411 15.304 13.0051C15.4083 13.0261 15.5161 13.023 15.619 12.9961L16.027 12.5901C16.903 11.7201 18.247 11.5571 19.331 12.1461L21.241 13.1861C22.878 14.0741 23.291 16.2981 21.951 17.6311L20.53 19.0431C20.082 19.4881 19.48 19.8591 18.746 19.9281C16.936 20.0971 12.719 19.8811 8.28603 15.4741C4.14903 11.3601 3.35503 7.77212 3.25403 6.00412C3.20403 5.11012 3.62603 4.35412 4.16403 3.82012L5.73303 2.25912ZM8.77303 3.52512C8.26603 2.84812 7.32203 2.79412 6.79003 3.32312L5.22003 4.88312C4.89003 5.21112 4.73203 5.57312 4.75203 5.91912C4.83203 7.32412 5.47203 10.5611 9.34403 14.4111C13.406 18.4491 17.157 18.5701 18.607 18.4341C18.903 18.4071 19.197 18.2531 19.472 17.9801L20.892 16.5671C21.47 15.9931 21.343 14.9471 20.525 14.5031L18.615 13.4641C18.087 13.1781 17.469 13.2721 17.085 13.6541L16.63 14.1071L16.1 13.5751C16.63 14.1071 16.629 14.1081 16.628 14.1081L16.627 14.1101L16.624 14.1131L16.617 14.1191L16.602 14.1331C16.5598 14.1723 16.5143 14.2078 16.466 14.2391C16.386 14.2921 16.28 14.3511 16.147 14.4001C15.877 14.5011 15.519 14.5551 15.077 14.4871C14.21 14.3541 13.061 13.7631 11.534 12.2451C10.008 10.7271 9.41203 9.58512 9.27803 8.71912C9.20903 8.27712 9.26403 7.91912 9.36603 7.64912C9.42216 7.49719 9.50254 7.35535 9.60403 7.22912L9.63603 7.19412L9.65003 7.17912L9.65603 7.17312L9.65903 7.17012L9.66103 7.16812L9.94903 6.88212C10.377 6.45512 10.437 5.74812 10.034 5.20912L8.77303 3.52512Z" fill="white"/>
</svg>
