<svg width="124" height="150" viewBox="0 0 124 150" fill="none" xmlns="http://www.w3.org/2000/svg">
<rect width="124" height="150" rx="10" fill="#196264"/>
<path d="M30.064 36.096C29.424 36.096 28.832 35.992 28.288 35.784C27.752 35.568 27.284 35.268 26.884 34.884C26.492 34.492 26.184 34.036 25.96 33.516C25.736 32.996 25.624 32.424 25.624 31.8C25.624 31.176 25.736 30.604 25.96 30.084C26.184 29.564 26.496 29.112 26.896 28.728C27.296 28.336 27.764 28.036 28.3 27.828C28.844 27.612 29.436 27.504 30.076 27.504C30.724 27.504 31.32 27.616 31.864 27.84C32.416 28.056 32.884 28.38 33.268 28.812L32.488 29.568C32.168 29.232 31.808 28.984 31.408 28.824C31.008 28.656 30.58 28.572 30.124 28.572C29.652 28.572 29.212 28.652 28.804 28.812C28.404 28.972 28.056 29.196 27.76 29.484C27.464 29.772 27.232 30.116 27.064 30.516C26.904 30.908 26.824 31.336 26.824 31.8C26.824 32.264 26.904 32.696 27.064 33.096C27.232 33.488 27.464 33.828 27.76 34.116C28.056 34.404 28.404 34.628 28.804 34.788C29.212 34.948 29.652 35.028 30.124 35.028C30.58 35.028 31.008 34.948 31.408 34.788C31.808 34.62 32.168 34.364 32.488 34.02L33.268 34.776C32.884 35.208 32.416 35.536 31.864 35.76C31.32 35.984 30.72 36.096 30.064 36.096ZM36.5335 36V30.348L36.8215 30.648H34.2055V29.64L40.0135 29.64V30.648L37.4095 30.648L37.6855 30.348V36H36.5335ZM45.8115 36V34.656L45.7515 34.404V32.112C45.7515 31.624 45.6075 31.248 45.3195 30.984C45.0395 30.712 44.6155 30.576 44.0475 30.576C43.6715 30.576 43.3035 30.64 42.9435 30.768C42.5835 30.888 42.2795 31.052 42.0315 31.26L41.5515 30.396C41.8795 30.132 42.2715 29.932 42.7275 29.796C43.1915 29.652 43.6755 29.58 44.1795 29.58C45.0515 29.58 45.7235 29.792 46.1955 30.216C46.6675 30.64 46.9035 31.288 46.9035 32.16V36H45.8115ZM43.7235 36.072C43.2515 36.072 42.8355 35.992 42.4755 35.832C42.1235 35.672 41.8515 35.452 41.6595 35.172C41.4675 34.884 41.3715 34.56 41.3715 34.2C41.3715 33.856 41.4515 33.544 41.6115 33.264C41.7795 32.984 42.0475 32.76 42.4155 32.592C42.7915 32.424 43.2955 32.34 43.9275 32.34H45.9435V33.168H43.9755C43.3995 33.168 43.0115 33.264 42.8115 33.456C42.6115 33.648 42.5115 33.88 42.5115 34.152C42.5115 34.464 42.6355 34.716 42.8835 34.908C43.1315 35.092 43.4755 35.184 43.9155 35.184C44.3475 35.184 44.7235 35.088 45.0435 34.896C45.3715 34.704 45.6075 34.424 45.7515 34.056L45.9795 34.848C45.8275 35.224 45.5595 35.524 45.1755 35.748C44.7915 35.964 44.3075 36.072 43.7235 36.072ZM50.9579 36V30.348L51.2459 30.648H48.6299V29.64L54.4379 29.64V30.648L51.8339 30.648L52.1099 30.348V36L50.9579 36ZM56.3358 36V29.64H57.4878V34.272L61.3878 29.64H62.4318V36H61.2798V31.368L57.3918 36H56.3358ZM68.1599 36.072C67.5119 36.072 66.9319 35.932 66.4199 35.652C65.9159 35.372 65.5199 34.988 65.2319 34.5C64.9439 34.012 64.7999 33.452 64.7999 32.82C64.7999 32.188 64.9439 31.628 65.2319 31.14C65.5199 30.652 65.9159 30.272 66.4199 30C66.9319 29.72 67.5119 29.58 68.1599 29.58C68.7359 29.58 69.2479 29.696 69.6959 29.928C70.1519 30.152 70.5039 30.488 70.7519 30.936L69.8759 31.5C69.6679 31.188 69.4119 30.96 69.1079 30.816C68.8119 30.664 68.4919 30.588 68.1479 30.588C67.7319 30.588 67.3599 30.68 67.0319 30.864C66.7039 31.048 66.4439 31.308 66.2519 31.644C66.0599 31.972 65.9639 32.364 65.9639 32.82C65.9639 33.276 66.0599 33.672 66.2519 34.008C66.4439 34.344 66.7039 34.604 67.0319 34.788C67.3599 34.972 67.7319 35.064 68.1479 35.064C68.4919 35.064 68.8119 34.992 69.1079 34.848C69.4119 34.696 69.6679 34.464 69.8759 34.152L70.7519 34.704C70.5039 35.144 70.1519 35.484 69.6959 35.724C69.2479 35.956 68.7359 36.072 68.1599 36.072ZM74.1413 36V30.348L74.4293 30.648H71.8133V29.64H77.6213V30.648H75.0173L75.2933 30.348V36H74.1413ZM79.5193 36V29.64H80.6713V34.272L84.5713 29.64H85.6153V36H84.4633V31.368L80.5753 36H79.5193ZM93.1793 36L90.7193 32.904L91.6673 32.328L94.5353 36H93.1793ZM88.5713 36V29.64H89.7233V36H88.5713ZM89.3753 33.312V32.328H91.4753V33.312H89.3753ZM91.7633 32.952L90.6953 32.808L93.1313 29.64H94.3673L91.7633 32.952ZM100.246 36V34.656L100.186 34.404V32.112C100.186 31.624 100.042 31.248 99.754 30.984C99.474 30.712 99.05 30.576 98.482 30.576C98.106 30.576 97.738 30.64 97.378 30.768C97.018 30.888 96.714 31.052 96.466 31.26L95.986 30.396C96.314 30.132 96.706 29.932 97.162 29.796C97.626 29.652 98.11 29.58 98.614 29.58C99.486 29.58 100.158 29.792 100.63 30.216C101.102 30.64 101.338 31.288 101.338 32.16V36H100.246ZM98.158 36.072C97.686 36.072 97.27 35.992 96.91 35.832C96.558 35.672 96.286 35.452 96.094 35.172C95.902 34.884 95.806 34.56 95.806 34.2C95.806 33.856 95.886 33.544 96.046 33.264C96.214 32.984 96.482 32.76 96.85 32.592C97.226 32.424 97.73 32.34 98.362 32.34H100.378V33.168H98.41C97.834 33.168 97.446 33.264 97.246 33.456C97.046 33.648 96.946 33.88 96.946 34.152C96.946 34.464 97.07 34.716 97.318 34.908C97.566 35.092 97.91 35.184 98.35 35.184C98.782 35.184 99.158 35.088 99.478 34.896C99.806 34.704 100.042 34.424 100.186 34.056L100.414 34.848C100.262 35.224 99.994 35.524 99.61 35.748C99.226 35.964 98.742 36.072 98.158 36.072Z" fill="white"/>
<rect x="86.4443" y="61" width="13.1836" height="64.2871" rx="6.5918" fill="url(#paint0_linear_1_8092)"/>
<rect x="65.6299" y="105.26" width="13.1836" height="20.1672" rx="6.59181" fill="white"/>
<rect x="44.8145" y="98.3926" width="13.1836" height="26.636" rx="6.5918" fill="url(#paint1_linear_1_8092)"/>
<rect x="24" y="61.7632" width="13.1836" height="63.4135" rx="6.59181" fill="white"/>
<defs>
<linearGradient id="paint0_linear_1_8092" x1="86.4443" y1="61" x2="103.406" y2="62.0127" gradientUnits="userSpaceOnUse">
<stop stop-color="#196264"/>
<stop offset="0.471154" stop-color="#73BFBF"/>
<stop offset="1" stop-color="#0BCACA"/>
</linearGradient>
<linearGradient id="paint1_linear_1_8092" x1="44.8145" y1="98.3926" x2="61.4902" y2="100.796" gradientUnits="userSpaceOnUse">
<stop stop-color="#196264"/>
<stop offset="0.471154" stop-color="#73BFBF"/>
<stop offset="1" stop-color="#0BCACA"/>
</linearGradient>
</defs>
</svg>
