<svg width="381" height="77" viewBox="0 0 381 77" fill="none" xmlns="http://www.w3.org/2000/svg">
<rect width="381" height="77" rx="9.55789" fill="white"/>
<path d="M264.615 29.7365C264.898 29.0803 265.828 29.0803 266.111 29.7365L267.704 33.4347C267.821 33.7084 268.079 33.8958 268.376 33.9234L272.386 34.2952C273.097 34.3612 273.385 35.2461 272.848 35.7176L269.823 38.3751C269.599 38.5718 269.5 38.8751 269.566 39.1658L270.451 43.0938C270.608 43.7908 269.855 44.3377 269.241 43.9729L265.779 41.9171C265.523 41.7649 265.204 41.7649 264.948 41.9171L261.485 43.9729C260.871 44.3377 260.118 43.7908 260.275 43.0938L261.161 39.1658C261.226 38.8751 261.128 38.5718 260.904 38.3751L257.879 35.7176C257.342 35.2461 257.629 34.3612 258.341 34.2952L262.35 33.9234C262.647 33.8958 262.905 33.7084 263.023 33.4347L264.615 29.7365Z" fill="#FAD24D"/>
<path d="M284.97 29.7365C285.252 29.0803 286.183 29.0803 286.465 29.7365L288.058 33.4347C288.176 33.7084 288.434 33.8958 288.731 33.9234L292.74 34.2952C293.451 34.3612 293.739 35.2461 293.202 35.7176L290.177 38.3751C289.953 38.5718 289.855 38.8751 289.92 39.1658L290.806 43.0938C290.963 43.7908 290.21 44.3377 289.596 43.9729L286.133 41.9171C285.877 41.7649 285.558 41.7649 285.302 41.9171L281.84 43.9729C281.225 44.3377 280.473 43.7908 280.63 43.0938L281.515 39.1658C281.581 38.8751 281.482 38.5718 281.258 38.3751L278.233 35.7176C277.696 35.2461 277.984 34.3612 278.695 34.2952L282.705 33.9234C283.001 33.8958 283.259 33.7084 283.377 33.4347L284.97 29.7365Z" fill="#FAD24D"/>
<path d="M305.324 29.7365C305.607 29.0803 306.537 29.0803 306.82 29.7365L308.413 33.4347C308.53 33.7084 308.788 33.8958 309.085 33.9234L313.095 34.2952C313.806 34.3612 314.093 35.2461 313.557 35.7176L310.532 38.3751C310.308 38.5718 310.209 38.8751 310.275 39.1658L311.16 43.0938C311.317 43.7908 310.564 44.3377 309.95 43.9729L306.488 41.9171C306.232 41.7649 305.913 41.7649 305.656 41.9171L302.194 43.9729C301.58 44.3377 300.827 43.7908 300.984 43.0938L301.87 39.1658C301.935 38.8751 301.837 38.5718 301.613 38.3751L298.588 35.7176C298.051 35.2461 298.338 34.3612 299.05 34.2952L303.059 33.9234C303.356 33.8958 303.614 33.7084 303.732 33.4347L305.324 29.7365Z" fill="#FAD24D"/>
<path d="M325.68 29.7365C325.962 29.0803 326.893 29.0803 327.175 29.7365L328.768 33.4347C328.886 33.7084 329.144 33.8958 329.441 33.9234L333.45 34.2952C334.161 34.3612 334.449 35.2461 333.912 35.7176L330.887 38.3751C330.663 38.5718 330.565 38.8751 330.63 39.1658L331.516 43.0938C331.673 43.7908 330.92 44.3377 330.306 43.9729L326.843 41.9171C326.587 41.7649 326.268 41.7649 326.012 41.9171L322.55 43.9729C321.935 44.3377 321.183 43.7908 321.34 43.0938L322.225 39.1658C322.291 38.8751 322.192 38.5718 321.968 38.3751L318.943 35.7176C318.406 35.2461 318.694 34.3612 319.405 34.2952L323.415 33.9234C323.711 33.8958 323.969 33.7084 324.087 33.4347L325.68 29.7365Z" fill="#FAD24D"/>
<path d="M346.034 29.7365C346.317 29.0803 347.247 29.0803 347.53 29.7365L349.123 33.4347C349.24 33.7084 349.498 33.8958 349.795 33.9234L353.805 34.2952C354.516 34.3612 354.803 35.2461 354.267 35.7176L351.242 38.3751C351.018 38.5718 350.919 38.8751 350.985 39.1658L351.87 43.0938C352.027 43.7908 351.274 44.3377 350.66 43.9729L347.198 41.9171C346.942 41.7649 346.623 41.7649 346.366 41.9171L342.904 43.9729C342.29 44.3377 341.537 43.7908 341.694 43.0938L342.58 39.1658C342.645 38.8751 342.547 38.5718 342.323 38.3751L339.298 35.7176C338.761 35.2461 339.048 34.3612 339.76 34.2952L343.769 33.9234C344.066 33.8958 344.324 33.7084 344.442 33.4347L346.034 29.7365Z" fill="url(#paint0_linear_1_8159)"/>
<g filter="url(#filter0_i_1_8159)">
<rect x="81" y="33" width="109" height="8" rx="4" fill="#196264"/>
</g>
<rect x="16.2969" y="15.4775" width="44.9221" height="44.9221" rx="9.55789" fill="#196264"/>
<defs>
<filter id="filter0_i_1_8159" x="81" y="33" width="109" height="8" filterUnits="userSpaceOnUse" color-interpolation-filters="sRGB">
<feFlood flood-opacity="0" result="BackgroundImageFix"/>
<feBlend mode="normal" in="SourceGraphic" in2="BackgroundImageFix" result="shape"/>
<feColorMatrix in="SourceAlpha" type="matrix" values="0 0 0 0 0 0 0 0 0 0 0 0 0 0 0 0 0 0 127 0" result="hardAlpha"/>
<feOffset dy="0.955789"/>
<feComposite in2="hardAlpha" operator="arithmetic" k2="-1" k3="1"/>
<feColorMatrix type="matrix" values="0 0 0 0 0 0 0 0 0 0 0 0 0 0 0 0 0 0 0.25 0"/>
<feBlend mode="normal" in2="shape" result="effect1_innerShadow_1_8159"/>
</filter>
<linearGradient id="paint0_linear_1_8159" x1="346.255" y1="37.2727" x2="347.491" y2="37.2727" gradientUnits="userSpaceOnUse">
<stop stop-color="#FAD24D"/>
<stop offset="1" stop-color="#D7D7D7"/>
</linearGradient>
</defs>
</svg>
