<svg width="101" height="100" viewBox="0 0 101 100" fill="none" xmlns="http://www.w3.org/2000/svg">
<rect x="0.851562" width="100" height="100" rx="20" fill="url(#paint0_linear_2064_8317)"/>
<path d="M38.3604 55.268C38.3604 56.4013 38.0771 57.4667 37.5104 58.464C36.9664 59.4613 36.1504 60.3 35.0624 60.98C33.9971 61.66 32.7277 62.068 31.2544 62.204V64.958H29.0444V62.204C26.9137 62 25.1911 61.3313 23.8764 60.198C22.5617 59.0647 21.9044 57.5687 21.9044 55.71H26.0524C26.1204 56.594 26.4037 57.3307 26.9024 57.92C27.4011 58.4867 28.1151 58.8493 29.0444 59.008V51.528C27.5257 51.1427 26.2904 50.7573 25.3384 50.372C24.3864 49.964 23.5704 49.3293 22.8904 48.468C22.2331 47.6067 21.9044 46.428 21.9044 44.932C21.9044 43.0507 22.5617 41.498 23.8764 40.274C25.1911 39.0273 26.9137 38.302 29.0444 38.098V35.344H31.2544V38.098C33.2491 38.2793 34.8471 38.914 36.0484 40.002C37.2724 41.0673 37.9637 42.5407 38.1224 44.422H33.9744C33.9064 43.7193 33.6344 43.096 33.1584 42.552C32.6824 41.9853 32.0477 41.6 31.2544 41.396V48.74C32.7731 49.1027 34.0084 49.488 34.9604 49.896C35.9124 50.2813 36.7171 50.9047 37.3744 51.766C38.0317 52.6047 38.3604 53.772 38.3604 55.268ZM25.8484 44.728C25.8484 45.6573 26.1204 46.3827 26.6644 46.904C27.2311 47.4253 28.0244 47.8447 29.0444 48.162V41.294C28.0697 41.4073 27.2877 41.7587 26.6984 42.348C26.1317 42.9373 25.8484 43.7307 25.8484 44.728ZM31.2544 59.008C32.2517 58.8493 33.0337 58.4527 33.6004 57.818C34.1671 57.1607 34.4504 56.3787 34.4504 55.472C34.4504 54.5653 34.1671 53.8627 33.6004 53.364C33.0564 52.8427 32.2744 52.4233 31.2544 52.106V59.008ZM59.6577 40.546H48.2677V47.312C48.7437 46.6773 49.4464 46.1447 50.3757 45.714C51.3277 45.2833 52.3364 45.068 53.4017 45.068C55.3057 45.068 56.847 45.476 58.0257 46.292C59.227 47.108 60.077 48.1393 60.5757 49.386C61.097 50.6327 61.3577 51.9473 61.3577 53.33C61.3577 55.0073 61.029 56.5033 60.3717 57.818C59.737 59.11 58.7737 60.13 57.4817 60.878C56.2124 61.626 54.6484 62 52.7897 62C50.319 62 48.3357 61.388 46.8397 60.164C45.3437 58.94 44.4484 57.3193 44.1537 55.302H47.9277C48.177 56.3673 48.7324 57.2173 49.5937 57.852C50.455 58.464 51.5317 58.77 52.8237 58.77C54.433 58.77 55.6344 58.2827 56.4277 57.308C57.2437 56.3333 57.6517 55.0413 57.6517 53.432C57.6517 51.8 57.2437 50.5533 56.4277 49.692C55.6117 48.808 54.4104 48.366 52.8237 48.366C51.713 48.366 50.7724 48.6493 50.0017 49.216C49.2537 49.76 48.7097 50.508 48.3697 51.46H44.6977V37.146H59.6577V40.546ZM72.9745 52.65L81.6105 62H76.3745L69.4385 53.942V62H65.5625V36.84H69.4385V51.46L76.2385 43.266H81.6105L72.9745 52.65Z" fill="white"/>
<defs>
<linearGradient id="paint0_linear_2064_8317" x1="0.851562" y1="0" x2="119.877" y2="34.6543" gradientUnits="userSpaceOnUse">
<stop stop-color="#196264"/>
<stop offset="0.471154" stop-color="#73BFBF"/>
<stop offset="1" stop-color="#0BCACA"/>
</linearGradient>
</defs>
</svg>
