<svg width="327" height="356" viewBox="0 0 327 356" fill="none" xmlns="http://www.w3.org/2000/svg">
<rect width="327" height="356" rx="10" fill="#196264"/>
<path d="M133.304 318.092C132.778 318.092 132.261 318.026 131.753 317.895C131.254 317.755 130.807 317.558 130.413 317.304L130.794 316.344C131.127 316.555 131.508 316.721 131.937 316.844C132.366 316.958 132.8 317.014 133.238 317.014C133.641 317.014 133.987 316.966 134.276 316.87C134.574 316.774 134.802 316.642 134.959 316.476C135.117 316.301 135.196 316.099 135.196 315.871C135.196 315.547 135.051 315.298 134.762 315.122C134.473 314.947 134.07 314.86 133.553 314.86H132.292V313.953H133.475C133.781 313.953 134.048 313.918 134.276 313.848C134.504 313.778 134.679 313.673 134.802 313.532C134.933 313.383 134.999 313.213 134.999 313.02C134.999 312.81 134.924 312.63 134.775 312.481C134.627 312.332 134.416 312.218 134.145 312.14C133.882 312.061 133.571 312.021 133.212 312.021C132.861 312.03 132.502 312.078 132.134 312.166C131.775 312.253 131.407 312.389 131.031 312.573L130.689 311.588C131.109 311.386 131.521 311.233 131.924 311.128C132.336 311.014 132.743 310.953 133.146 310.944C133.751 310.926 134.289 310.996 134.762 311.154C135.235 311.303 135.608 311.522 135.879 311.811C136.16 312.1 136.3 312.442 136.3 312.836C136.3 313.169 136.195 313.467 135.984 313.729C135.774 313.984 135.494 314.185 135.143 314.334C134.793 314.483 134.39 314.557 133.935 314.557L133.987 314.255C134.767 314.255 135.38 314.408 135.827 314.715C136.273 315.022 136.497 315.438 136.497 315.963C136.497 316.384 136.357 316.756 136.076 317.08C135.796 317.396 135.415 317.645 134.933 317.829C134.46 318.004 133.917 318.092 133.304 318.092ZM142.685 318V316.528L142.619 316.252V313.743C142.619 313.208 142.462 312.797 142.146 312.507C141.84 312.21 141.375 312.061 140.753 312.061C140.342 312.061 139.939 312.131 139.545 312.271C139.15 312.402 138.818 312.582 138.546 312.81L138.02 311.864C138.38 311.575 138.809 311.356 139.308 311.207C139.816 311.049 140.346 310.97 140.898 310.97C141.853 310.97 142.589 311.202 143.106 311.667C143.622 312.131 143.881 312.84 143.881 313.795V318H142.685ZM140.399 318.079C139.882 318.079 139.426 317.991 139.032 317.816C138.647 317.641 138.349 317.4 138.139 317.093C137.928 316.778 137.823 316.423 137.823 316.029C137.823 315.652 137.911 315.311 138.086 315.004C138.27 314.697 138.563 314.452 138.966 314.268C139.378 314.084 139.93 313.992 140.622 313.992H142.83V314.899H140.675C140.044 314.899 139.619 315.004 139.4 315.214C139.181 315.425 139.072 315.679 139.072 315.976C139.072 316.318 139.207 316.594 139.479 316.804C139.75 317.006 140.127 317.106 140.609 317.106C141.082 317.106 141.494 317.001 141.844 316.791C142.203 316.581 142.462 316.274 142.619 315.871L142.869 316.739C142.703 317.15 142.409 317.479 141.989 317.724C141.568 317.961 141.038 318.079 140.399 318.079ZM149.845 318.079C149.266 318.079 148.736 317.947 148.255 317.685C147.782 317.413 147.401 317.014 147.111 316.489C146.831 315.963 146.691 315.306 146.691 314.518C146.691 313.729 146.827 313.072 147.098 312.547C147.379 312.021 147.755 311.627 148.228 311.364C148.71 311.101 149.249 310.97 149.845 310.97C150.528 310.97 151.132 311.119 151.658 311.417C152.184 311.715 152.6 312.131 152.906 312.665C153.213 313.191 153.366 313.808 153.366 314.518C153.366 315.227 153.213 315.849 152.906 316.384C152.6 316.918 152.184 317.334 151.658 317.632C151.132 317.93 150.528 318.079 149.845 318.079ZM146.152 320.549V311.036H147.361V312.915L147.282 314.531L147.414 316.147V320.549H146.152ZM149.739 316.975C150.186 316.975 150.585 316.874 150.935 316.673C151.294 316.471 151.575 316.187 151.776 315.819C151.986 315.442 152.092 315.008 152.092 314.518C152.092 314.019 151.986 313.589 151.776 313.23C151.575 312.862 151.294 312.578 150.935 312.376C150.585 312.175 150.186 312.074 149.739 312.074C149.301 312.074 148.903 312.175 148.544 312.376C148.193 312.578 147.913 312.862 147.703 313.23C147.501 313.589 147.401 314.019 147.401 314.518C147.401 315.008 147.501 315.442 147.703 315.819C147.913 316.187 148.193 316.471 148.544 316.673C148.903 316.874 149.301 316.975 149.739 316.975ZM159.405 318V316.528L159.339 316.252V313.743C159.339 313.208 159.182 312.797 158.866 312.507C158.56 312.21 158.096 312.061 157.474 312.061C157.062 312.061 156.659 312.131 156.265 312.271C155.871 312.402 155.538 312.582 155.266 312.81L154.74 311.864C155.1 311.575 155.529 311.356 156.028 311.207C156.536 311.049 157.066 310.97 157.618 310.97C158.573 310.97 159.309 311.202 159.826 311.667C160.343 312.131 160.601 312.84 160.601 313.795L160.601 318H159.405ZM157.119 318.079C156.602 318.079 156.146 317.991 155.752 317.816C155.367 317.641 155.069 317.4 154.859 317.093C154.649 316.778 154.543 316.423 154.543 316.029C154.543 315.652 154.631 315.311 154.806 315.004C154.99 314.697 155.284 314.452 155.687 314.268C156.098 314.084 156.65 313.992 157.342 313.992H159.55V314.899H157.395C156.764 314.899 156.339 315.004 156.12 315.214C155.901 315.425 155.792 315.679 155.792 315.976C155.792 316.318 155.927 316.594 156.199 316.804C156.471 317.006 156.847 317.106 157.329 317.106C157.802 317.106 158.214 317.001 158.564 316.791C158.923 316.581 159.182 316.274 159.339 315.871L159.589 316.739C159.423 317.15 159.129 317.479 158.709 317.724C158.288 317.961 157.758 318.079 157.119 318.079ZM166.092 318.105C165.514 318.105 165.001 318.013 164.554 317.829C164.116 317.645 163.74 317.374 163.424 317.014C163.109 316.647 162.868 316.187 162.702 315.635C162.544 315.074 162.465 314.417 162.465 313.664C162.465 313.068 162.518 312.534 162.623 312.061C162.728 311.588 162.877 311.167 163.07 310.799C163.271 310.431 163.516 310.112 163.805 309.84C164.103 309.568 164.436 309.345 164.804 309.17C165.181 308.986 165.592 308.846 166.039 308.749L169.219 308.04L169.403 309.209L166.473 309.84C166.298 309.875 166.087 309.928 165.842 309.998C165.597 310.068 165.347 310.177 165.093 310.326C164.839 310.466 164.603 310.663 164.384 310.918C164.165 311.172 163.989 311.504 163.858 311.916C163.727 312.319 163.661 312.818 163.661 313.414C163.661 313.581 163.665 313.708 163.674 313.795C163.683 313.883 163.691 313.97 163.7 314.058C163.718 314.146 163.731 314.277 163.74 314.452L163.214 313.913C163.354 313.432 163.578 313.011 163.884 312.652C164.191 312.293 164.559 312.017 164.988 311.824C165.426 311.623 165.903 311.522 166.42 311.522C167.068 311.522 167.642 311.662 168.142 311.942C168.65 312.223 169.048 312.608 169.337 313.099C169.626 313.589 169.771 314.15 169.771 314.781C169.771 315.42 169.618 315.994 169.311 316.502C169.013 317.001 168.588 317.396 168.036 317.685C167.485 317.965 166.836 318.105 166.092 318.105ZM166.21 317.054C166.657 317.054 167.051 316.958 167.393 316.765C167.734 316.563 168.001 316.296 168.194 315.963C168.387 315.622 168.483 315.241 168.483 314.82C168.483 314.4 168.387 314.027 168.194 313.703C168.001 313.379 167.734 313.125 167.393 312.941C167.051 312.748 166.648 312.652 166.184 312.652C165.746 312.652 165.351 312.744 165.001 312.928C164.651 313.103 164.379 313.353 164.186 313.677C163.994 313.992 163.897 314.36 163.897 314.781C163.897 315.201 163.994 315.587 164.186 315.937C164.388 316.279 164.659 316.55 165.001 316.752C165.351 316.953 165.754 317.054 166.21 317.054ZM174.555 318.079C173.855 318.079 173.233 317.926 172.689 317.619C172.146 317.312 171.717 316.892 171.402 316.357C171.086 315.814 170.929 315.201 170.929 314.518C170.929 313.826 171.086 313.213 171.402 312.678C171.717 312.144 172.146 311.728 172.689 311.43C173.233 311.123 173.855 310.97 174.555 310.97C175.247 310.97 175.865 311.123 176.408 311.43C176.96 311.728 177.389 312.144 177.696 312.678C178.011 313.204 178.169 313.817 178.169 314.518C178.169 315.21 178.011 315.823 177.696 316.357C177.389 316.892 176.96 317.312 176.408 317.619C175.865 317.926 175.247 318.079 174.555 318.079ZM174.555 316.975C175.002 316.975 175.401 316.874 175.751 316.673C176.11 316.471 176.391 316.187 176.592 315.819C176.793 315.442 176.894 315.008 176.894 314.518C176.894 314.019 176.793 313.589 176.592 313.23C176.391 312.862 176.11 312.578 175.751 312.376C175.401 312.175 175.002 312.074 174.555 312.074C174.109 312.074 173.71 312.175 173.36 312.376C173.009 312.578 172.729 312.862 172.519 313.23C172.308 313.589 172.203 314.019 172.203 314.518C172.203 315.008 172.308 315.442 172.519 315.819C172.729 316.187 173.009 316.471 173.36 316.673C173.71 316.874 174.109 316.975 174.555 316.975ZM181.113 318V311.811L181.429 312.14H178.564V311.036H184.924V312.14H182.073L182.375 311.811V318H181.113ZM188.889 318.079C188.188 318.079 187.566 317.926 187.023 317.619C186.48 317.312 186.05 316.892 185.735 316.357C185.42 315.814 185.262 315.201 185.262 314.518C185.262 313.826 185.42 313.213 185.735 312.678C186.05 312.144 186.48 311.728 187.023 311.43C187.566 311.123 188.188 310.97 188.889 310.97C189.581 310.97 190.198 311.123 190.741 311.43C191.293 311.728 191.723 312.144 192.029 312.678C192.344 313.204 192.502 313.817 192.502 314.518C192.502 315.21 192.344 315.823 192.029 316.357C191.723 316.892 191.293 317.312 190.741 317.619C190.198 317.926 189.581 318.079 188.889 318.079ZM188.889 316.975C189.335 316.975 189.734 316.874 190.084 316.673C190.444 316.471 190.724 316.187 190.925 315.819C191.127 315.442 191.228 315.008 191.228 314.518C191.228 314.019 191.127 313.589 190.925 313.23C190.724 312.862 190.444 312.578 190.084 312.376C189.734 312.175 189.335 312.074 188.889 312.074C188.442 312.074 188.043 312.175 187.693 312.376C187.343 312.578 187.062 312.862 186.852 313.23C186.642 313.589 186.537 314.019 186.537 314.518C186.537 315.008 186.642 315.442 186.852 315.819C187.062 316.187 187.343 316.471 187.693 316.673C188.043 316.874 188.442 316.975 188.889 316.975ZM199.369 318L196.676 314.61L197.714 313.979L200.854 318H199.369ZM194.324 318V311.036H195.585V318H194.324ZM195.204 315.057V313.979H197.504V315.057H195.204ZM197.819 314.662L196.649 314.505L199.317 311.036H200.67L197.819 314.662Z" fill="white"/>
<path d="M108.52 294.6V266.4H110.44V294.6H108.52ZM109.27 291.24C107.67 291.24 106.14 291 104.68 290.52C103.22 290.02 102.07 289.38 101.23 288.6L102.34 286.26C103.14 286.96 104.16 287.54 105.4 288C106.64 288.46 107.93 288.69 109.27 288.69C110.49 288.69 111.48 288.55 112.24 288.27C113 287.99 113.56 287.61 113.92 287.13C114.28 286.63 114.46 286.07 114.46 285.45C114.46 284.73 114.22 284.15 113.74 283.71C113.28 283.27 112.67 282.92 111.91 282.66C111.17 282.38 110.35 282.14 109.45 281.94C108.55 281.74 107.64 281.51 106.72 281.25C105.82 280.97 104.99 280.62 104.23 280.2C103.49 279.78 102.89 279.22 102.43 278.52C101.97 277.8 101.74 276.88 101.74 275.76C101.74 274.68 102.02 273.69 102.58 272.79C103.16 271.87 104.04 271.14 105.22 270.6C106.42 270.04 107.94 269.76 109.78 269.76C111 269.76 112.21 269.92 113.41 270.24C114.61 270.56 115.65 271.02 116.53 271.62L115.54 274.02C114.64 273.42 113.69 272.99 112.69 272.73C111.69 272.45 110.72 272.31 109.78 272.31C108.6 272.31 107.63 272.46 106.87 272.76C106.11 273.06 105.55 273.46 105.19 273.96C104.85 274.46 104.68 275.02 104.68 275.64C104.68 276.38 104.91 276.97 105.37 277.41C105.85 277.85 106.46 278.2 107.2 278.46C107.96 278.72 108.79 278.96 109.69 279.18C110.59 279.38 111.49 279.61 112.39 279.87C113.31 280.13 114.14 280.47 114.88 280.89C115.64 281.31 116.25 281.87 116.71 282.57C117.17 283.27 117.4 284.17 117.4 285.27C117.4 286.33 117.11 287.32 116.53 288.24C115.95 289.14 115.05 289.87 113.83 290.43C112.63 290.97 111.11 291.24 109.27 291.24ZM123.02 291V271.2L124.31 272.61H118.28V270H125.99V291H123.02ZM137.063 291.24C135.583 291.24 134.143 291.01 132.743 290.55C131.363 290.09 130.233 289.47 129.353 288.69L130.733 286.32C131.433 286.98 132.343 287.52 133.463 287.94C134.583 288.36 135.773 288.57 137.033 288.57C138.633 288.57 139.863 288.23 140.723 287.55C141.583 286.87 142.013 285.96 142.013 284.82C142.013 284.04 141.823 283.36 141.443 282.78C141.063 282.2 140.403 281.76 139.463 281.46C138.543 281.14 137.273 280.98 135.653 280.98H130.883L131.993 270H143.843V272.61H133.103L134.663 271.14L133.793 279.81L132.233 278.37H136.283C138.383 278.37 140.073 278.64 141.353 279.18C142.633 279.72 143.563 280.47 144.143 281.43C144.723 282.37 145.013 283.46 145.013 284.7C145.013 285.9 144.723 287 144.143 288C143.563 288.98 142.683 289.77 141.503 290.37C140.343 290.95 138.863 291.24 137.063 291.24ZM147.36 295.44L148.86 289.38L149.25 291.12C148.67 291.12 148.18 290.94 147.78 290.58C147.4 290.22 147.21 289.73 147.21 289.11C147.21 288.51 147.4 288.02 147.78 287.64C148.18 287.26 148.66 287.07 149.22 287.07C149.8 287.07 150.27 287.27 150.63 287.67C150.99 288.05 151.17 288.53 151.17 289.11C151.17 289.31 151.15 289.51 151.11 289.71C151.09 289.89 151.04 290.11 150.96 290.37C150.9 290.61 150.8 290.91 150.66 291.27L149.25 295.44H147.36ZM161.935 291.24C160.295 291.24 158.825 290.82 157.525 289.98C156.245 289.14 155.225 287.92 154.465 286.32C153.725 284.72 153.355 282.78 153.355 280.5C153.355 278.22 153.725 276.28 154.465 274.68C155.225 273.08 156.245 271.86 157.525 271.02C158.825 270.18 160.295 269.76 161.935 269.76C163.555 269.76 165.015 270.18 166.315 271.02C167.615 271.86 168.635 273.08 169.375 274.68C170.115 276.28 170.485 278.22 170.485 280.5C170.485 282.78 170.115 284.72 169.375 286.32C168.635 287.92 167.615 289.14 166.315 289.98C165.015 290.82 163.555 291.24 161.935 291.24ZM161.935 288.57C163.035 288.57 163.995 288.27 164.815 287.67C165.655 287.07 166.305 286.17 166.765 284.97C167.245 283.77 167.485 282.28 167.485 280.5C167.485 278.72 167.245 277.23 166.765 276.03C166.305 274.83 165.655 273.93 164.815 273.33C163.995 272.73 163.035 272.43 161.935 272.43C160.835 272.43 159.865 272.73 159.025 273.33C158.185 273.93 157.525 274.83 157.045 276.03C156.585 277.23 156.355 278.72 156.355 280.5C156.355 282.28 156.585 283.77 157.045 284.97C157.525 286.17 158.185 287.07 159.025 287.67C159.865 288.27 160.835 288.57 161.935 288.57ZM181.645 291.24C180.005 291.24 178.535 290.82 177.235 289.98C175.955 289.14 174.935 287.92 174.175 286.32C173.435 284.72 173.065 282.78 173.065 280.5C173.065 278.22 173.435 276.28 174.175 274.68C174.935 273.08 175.955 271.86 177.235 271.02C178.535 270.18 180.005 269.76 181.645 269.76C183.265 269.76 184.725 270.18 186.025 271.02C187.325 271.86 188.345 273.08 189.085 274.68C189.825 276.28 190.195 278.22 190.195 280.5C190.195 282.78 189.825 284.72 189.085 286.32C188.345 287.92 187.325 289.14 186.025 289.98C184.725 290.82 183.265 291.24 181.645 291.24ZM181.645 288.57C182.745 288.57 183.705 288.27 184.525 287.67C185.365 287.07 186.015 286.17 186.475 284.97C186.955 283.77 187.195 282.28 187.195 280.5C187.195 278.72 186.955 277.23 186.475 276.03C186.015 274.83 185.365 273.93 184.525 273.33C183.705 272.73 182.745 272.43 181.645 272.43C180.545 272.43 179.575 272.73 178.735 273.33C177.895 273.93 177.235 274.83 176.755 276.03C176.295 277.23 176.065 278.72 176.065 280.5C176.065 282.28 176.295 283.77 176.755 284.97C177.235 286.17 177.895 287.07 178.735 287.67C179.575 288.27 180.545 288.57 181.645 288.57ZM201.355 291.24C199.715 291.24 198.245 290.82 196.945 289.98C195.665 289.14 194.645 287.92 193.885 286.32C193.145 284.72 192.775 282.78 192.775 280.5C192.775 278.22 193.145 276.28 193.885 274.68C194.645 273.08 195.665 271.86 196.945 271.02C198.245 270.18 199.715 269.76 201.355 269.76C202.975 269.76 204.435 270.18 205.735 271.02C207.035 271.86 208.055 273.08 208.795 274.68C209.535 276.28 209.905 278.22 209.905 280.5C209.905 282.78 209.535 284.72 208.795 286.32C208.055 287.92 207.035 289.14 205.735 289.98C204.435 290.82 202.975 291.24 201.355 291.24ZM201.355 288.57C202.455 288.57 203.415 288.27 204.235 287.67C205.075 287.07 205.725 286.17 206.185 284.97C206.665 283.77 206.905 282.28 206.905 280.5C206.905 278.72 206.665 277.23 206.185 276.03C205.725 274.83 205.075 273.93 204.235 273.33C203.415 272.73 202.455 272.43 201.355 272.43C200.255 272.43 199.285 272.73 198.445 273.33C197.605 273.93 196.945 274.83 196.465 276.03C196.005 277.23 195.775 278.72 195.775 280.5C195.775 282.28 196.005 283.77 196.465 284.97C196.945 286.17 197.605 287.07 198.445 287.67C199.285 288.27 200.255 288.57 201.355 288.57ZM218.72 287.07V273.93H221.24V287.07H218.72ZM213.26 281.7V279.33H226.7V281.7H213.26Z" fill="white"/>
<path d="M199.75 146.571L188.235 174.367C187.454 176.252 185.366 177.235 183.39 176.728C134.932 164.305 100.85 191.438 92.4333 237.284C92.0766 239.227 90.4034 240.679 88.428 240.679H59.9466C57.9067 240.679 56.1812 239.157 56.0794 237.119C53.6107 187.697 108.855 112.725 197.325 141.311C199.505 142.015 200.627 144.455 199.75 146.571Z" fill="url(#paint0_linear_1_8077)"/>
<path d="M205.03 149.582L193.694 174.279C192.915 175.975 193.417 177.988 194.902 179.119C214.384 193.969 227.773 203.592 234.262 237.531C234.628 239.447 236.289 240.858 238.239 240.858H266.362C268.571 240.858 270.371 239.063 270.282 236.856C268.481 191.756 236.567 155.296 209.457 147.453C207.662 146.934 205.809 147.884 205.03 149.582Z" fill="#D0B4A8" fill-opacity="0.14"/>
<path d="M70.384 90.088L70.804 89.2C71.172 89.488 71.576 89.704 72.016 89.848C72.464 89.992 72.908 90.068 73.348 90.076C73.788 90.076 74.192 90.016 74.56 89.896C74.936 89.776 75.236 89.596 75.46 89.356C75.684 89.116 75.796 88.82 75.796 88.468C75.796 88.036 75.62 87.708 75.268 87.484C74.924 87.26 74.444 87.148 73.828 87.148H71.956V86.176H73.744C74.28 86.176 74.696 86.068 74.992 85.852C75.296 85.628 75.448 85.32 75.448 84.928C75.448 84.632 75.356 84.384 75.172 84.184C74.996 83.976 74.752 83.82 74.44 83.716C74.136 83.612 73.788 83.56 73.396 83.56C73.012 83.552 72.616 83.604 72.208 83.716C71.8 83.82 71.408 83.988 71.032 84.22L70.648 83.236C71.16 82.948 71.692 82.748 72.244 82.636C72.804 82.516 73.344 82.48 73.864 82.528C74.384 82.568 74.852 82.688 75.268 82.888C75.692 83.08 76.028 83.336 76.276 83.656C76.532 83.968 76.66 84.344 76.66 84.784C76.66 85.184 76.556 85.54 76.348 85.852C76.14 86.156 75.852 86.392 75.484 86.56C75.116 86.72 74.688 86.8 74.2 86.8L74.248 86.476C74.808 86.476 75.292 86.568 75.7 86.752C76.116 86.928 76.436 87.18 76.66 87.508C76.892 87.836 77.008 88.216 77.008 88.648C77.008 89.056 76.904 89.42 76.696 89.74C76.488 90.052 76.204 90.316 75.844 90.532C75.492 90.74 75.088 90.892 74.632 90.988C74.184 91.084 73.712 91.116 73.216 91.084C72.72 91.052 72.228 90.956 71.74 90.796C71.26 90.636 70.808 90.4 70.384 90.088ZM82.5952 91V89.656L82.5352 89.404V87.112C82.5352 86.624 82.3912 86.248 82.1032 85.984C81.8232 85.712 81.3992 85.576 80.8312 85.576C80.4552 85.576 80.0872 85.64 79.7272 85.768C79.3672 85.888 79.0632 86.052 78.8152 86.26L78.3352 85.396C78.6632 85.132 79.0552 84.932 79.5112 84.796C79.9752 84.652 80.4592 84.58 80.9632 84.58C81.8352 84.58 82.5072 84.792 82.9792 85.216C83.4512 85.64 83.6872 86.288 83.6872 87.16V91H82.5952ZM80.5072 91.072C80.0352 91.072 79.6192 90.992 79.2592 90.832C78.9072 90.672 78.6352 90.452 78.4432 90.172C78.2512 89.884 78.1552 89.56 78.1552 89.2C78.1552 88.856 78.2352 88.544 78.3952 88.264C78.5632 87.984 78.8312 87.76 79.1992 87.592C79.5752 87.424 80.0792 87.34 80.7112 87.34H82.7272V88.168H80.7592C80.1832 88.168 79.7952 88.264 79.5952 88.456C79.3952 88.648 79.2952 88.88 79.2952 89.152C79.2952 89.464 79.4192 89.716 79.6672 89.908C79.9152 90.092 80.2592 90.184 80.6992 90.184C81.1312 90.184 81.5072 90.088 81.8272 89.896C82.1552 89.704 82.3912 89.424 82.5352 89.056L82.7632 89.848C82.6112 90.224 82.3432 90.524 81.9592 90.748C81.5752 90.964 81.0912 91.072 80.5072 91.072ZM89.0136 91.072C88.4856 91.072 88.0016 90.952 87.5616 90.712C87.1296 90.464 86.7816 90.1 86.5176 89.62C86.2616 89.14 86.1336 88.54 86.1336 87.82C86.1336 87.1 86.2576 86.5 86.5056 86.02C86.7616 85.54 87.1056 85.18 87.5376 84.94C87.9776 84.7 88.4696 84.58 89.0136 84.58C89.6376 84.58 90.1896 84.716 90.6696 84.988C91.1496 85.26 91.5296 85.64 91.8096 86.128C92.0896 86.608 92.2296 87.172 92.2296 87.82C92.2296 88.468 92.0896 89.036 91.8096 89.524C91.5296 90.012 91.1496 90.392 90.6696 90.664C90.1896 90.936 89.6376 91.072 89.0136 91.072ZM85.6416 93.328V84.64H86.7456V86.356L86.6736 87.832L86.7936 89.308V93.328H85.6416ZM88.9176 90.064C89.3256 90.064 89.6896 89.972 90.0096 89.788C90.3376 89.604 90.5936 89.344 90.7776 89.008C90.9696 88.664 91.0656 88.268 91.0656 87.82C91.0656 87.364 90.9696 86.972 90.7776 86.644C90.5936 86.308 90.3376 86.048 90.0096 85.864C89.6896 85.68 89.3256 85.588 88.9176 85.588C88.5176 85.588 88.1536 85.68 87.8256 85.864C87.5056 86.048 87.2496 86.308 87.0576 86.644C86.8736 86.972 86.7816 87.364 86.7816 87.82C86.7816 88.268 86.8736 88.664 87.0576 89.008C87.2496 89.344 87.5056 89.604 87.8256 89.788C88.1536 89.972 88.5176 90.064 88.9176 90.064ZM97.6247 91V89.656L97.5647 89.404V87.112C97.5647 86.624 97.4207 86.248 97.1327 85.984C96.8527 85.712 96.4287 85.576 95.8607 85.576C95.4847 85.576 95.1167 85.64 94.7567 85.768C94.3967 85.888 94.0927 86.052 93.8447 86.26L93.3647 85.396C93.6927 85.132 94.0847 84.932 94.5407 84.796C95.0047 84.652 95.4887 84.58 95.9927 84.58C96.8647 84.58 97.5367 84.792 98.0087 85.216C98.4807 85.64 98.7167 86.288 98.7167 87.16V91H97.6247ZM95.5367 91.072C95.0647 91.072 94.6487 90.992 94.2887 90.832C93.9367 90.672 93.6647 90.452 93.4727 90.172C93.2807 89.884 93.1847 89.56 93.1847 89.2C93.1847 88.856 93.2647 88.544 93.4247 88.264C93.5927 87.984 93.8607 87.76 94.2287 87.592C94.6047 87.424 95.1087 87.34 95.7407 87.34H97.7567V88.168H95.7887C95.2127 88.168 94.8247 88.264 94.6247 88.456C94.4247 88.648 94.3247 88.88 94.3247 89.152C94.3247 89.464 94.4487 89.716 94.6967 89.908C94.9447 90.092 95.2887 90.184 95.7287 90.184C96.1607 90.184 96.5367 90.088 96.8567 89.896C97.1847 89.704 97.4207 89.424 97.5647 89.056L97.7927 89.848C97.6407 90.224 97.3727 90.524 96.9887 90.748C96.6047 90.964 96.1207 91.072 95.5367 91.072ZM103.611 91.096C103.083 91.096 102.615 91.012 102.207 90.844C101.807 90.676 101.463 90.428 101.175 90.1C100.887 89.764 100.667 89.344 100.515 88.84C100.371 88.328 100.299 87.728 100.299 87.04C100.299 86.496 100.347 86.008 100.443 85.576C100.539 85.144 100.675 84.76 100.851 84.424C101.035 84.088 101.259 83.796 101.523 83.548C101.795 83.3 102.099 83.096 102.435 82.936C102.779 82.768 103.155 82.64 103.563 82.552L106.467 81.904L106.635 82.972L103.959 83.548C103.799 83.58 103.607 83.628 103.383 83.692C103.159 83.756 102.931 83.856 102.699 83.992C102.467 84.12 102.251 84.3 102.051 84.532C101.851 84.764 101.691 85.068 101.571 85.444C101.451 85.812 101.391 86.268 101.391 86.812C101.391 86.964 101.395 87.08 101.403 87.16C101.411 87.24 101.419 87.32 101.427 87.4C101.443 87.48 101.455 87.6 101.463 87.76L100.983 87.268C101.111 86.828 101.315 86.444 101.595 86.116C101.875 85.788 102.211 85.536 102.603 85.36C103.003 85.176 103.439 85.084 103.911 85.084C104.503 85.084 105.027 85.212 105.483 85.468C105.947 85.724 106.311 86.076 106.575 86.524C106.839 86.972 106.971 87.484 106.971 88.06C106.971 88.644 106.831 89.168 106.551 89.632C106.279 90.088 105.891 90.448 105.387 90.712C104.883 90.968 104.291 91.096 103.611 91.096ZM103.719 90.136C104.127 90.136 104.487 90.048 104.799 89.872C105.111 89.688 105.355 89.444 105.531 89.14C105.707 88.828 105.795 88.48 105.795 88.096C105.795 87.712 105.707 87.372 105.531 87.076C105.355 86.78 105.111 86.548 104.799 86.38C104.487 86.204 104.119 86.116 103.695 86.116C103.295 86.116 102.935 86.2 102.615 86.368C102.295 86.528 102.047 86.756 101.871 87.052C101.695 87.34 101.607 87.676 101.607 88.06C101.607 88.444 101.695 88.796 101.871 89.116C102.055 89.428 102.303 89.676 102.615 89.86C102.935 90.044 103.303 90.136 103.719 90.136ZM111.22 91.072C110.58 91.072 110.012 90.932 109.516 90.652C109.02 90.372 108.628 89.988 108.34 89.5C108.052 89.004 107.908 88.444 107.908 87.82C107.908 87.188 108.052 86.628 108.34 86.14C108.628 85.652 109.02 85.272 109.516 85C110.012 84.72 110.58 84.58 111.22 84.58C111.852 84.58 112.416 84.72 112.912 85C113.416 85.272 113.808 85.652 114.088 86.14C114.376 86.62 114.52 87.18 114.52 87.82C114.52 88.452 114.376 89.012 114.088 89.5C113.808 89.988 113.416 90.372 112.912 90.652C112.416 90.932 111.852 91.072 111.22 91.072ZM111.22 90.064C111.628 90.064 111.992 89.972 112.312 89.788C112.64 89.604 112.896 89.344 113.08 89.008C113.264 88.664 113.356 88.268 113.356 87.82C113.356 87.364 113.264 86.972 113.08 86.644C112.896 86.308 112.64 86.048 112.312 85.864C111.992 85.68 111.628 85.588 111.22 85.588C110.812 85.588 110.448 85.68 110.128 85.864C109.808 86.048 109.552 86.308 109.36 86.644C109.168 86.972 109.072 87.364 109.072 87.82C109.072 88.268 109.168 88.664 109.36 89.008C109.552 89.344 109.808 89.604 110.128 89.788C110.448 89.972 110.812 90.064 111.22 90.064ZM117.09 91V85.348L117.378 85.648H114.762V84.64L120.57 84.64V85.648H117.966L118.242 85.348V91L117.09 91ZM125.528 91V89.656L125.468 89.404V87.112C125.468 86.624 125.324 86.248 125.036 85.984C124.756 85.712 124.332 85.576 123.764 85.576C123.388 85.576 123.02 85.64 122.66 85.768C122.3 85.888 121.996 86.052 121.748 86.26L121.268 85.396C121.596 85.132 121.988 84.932 122.444 84.796C122.908 84.652 123.392 84.58 123.896 84.58C124.768 84.58 125.44 84.792 125.912 85.216C126.384 85.64 126.62 86.288 126.62 87.16V91H125.528ZM123.44 91.072C122.968 91.072 122.552 90.992 122.192 90.832C121.84 90.672 121.568 90.452 121.376 90.172C121.184 89.884 121.088 89.56 121.088 89.2C121.088 88.856 121.168 88.544 121.328 88.264C121.496 87.984 121.764 87.76 122.132 87.592C122.508 87.424 123.012 87.34 123.644 87.34H125.66V88.168H123.692C123.116 88.168 122.728 88.264 122.528 88.456C122.328 88.648 122.228 88.88 122.228 89.152C122.228 89.464 122.352 89.716 122.6 89.908C122.848 90.092 123.192 90.184 123.632 90.184C124.064 90.184 124.44 90.088 124.76 89.896C125.088 89.704 125.324 89.424 125.468 89.056L125.696 89.848C125.544 90.224 125.276 90.524 124.892 90.748C124.508 90.964 124.024 91.072 123.44 91.072ZM128.574 91V84.64H129.726V87.34H133.35V84.64H134.502V91H133.35V88.336H129.726V91H128.574ZM139.346 91.072C138.706 91.072 138.138 90.932 137.642 90.652C137.146 90.372 136.754 89.988 136.466 89.5C136.178 89.004 136.034 88.444 136.034 87.82C136.034 87.188 136.178 86.628 136.466 86.14C136.754 85.652 137.146 85.272 137.642 85C138.138 84.72 138.706 84.58 139.346 84.58C139.978 84.58 140.542 84.72 141.038 85C141.542 85.272 141.934 85.652 142.214 86.14C142.502 86.62 142.646 87.18 142.646 87.82C142.646 88.452 142.502 89.012 142.214 89.5C141.934 89.988 141.542 90.372 141.038 90.652C140.542 90.932 139.978 91.072 139.346 91.072ZM139.346 90.064C139.754 90.064 140.118 89.972 140.438 89.788C140.766 89.604 141.022 89.344 141.206 89.008C141.39 88.664 141.482 88.268 141.482 87.82C141.482 87.364 141.39 86.972 141.206 86.644C141.022 86.308 140.766 86.048 140.438 85.864C140.118 85.68 139.754 85.588 139.346 85.588C138.938 85.588 138.574 85.68 138.254 85.864C137.934 86.048 137.678 86.308 137.486 86.644C137.294 86.972 137.198 87.364 137.198 87.82C137.198 88.268 137.294 88.664 137.486 89.008C137.678 89.344 137.934 89.604 138.254 89.788C138.574 89.972 138.938 90.064 139.346 90.064ZM149.152 91.084C148.672 91.084 148.2 91.024 147.736 90.904C147.28 90.776 146.872 90.596 146.512 90.364L146.86 89.488C147.164 89.68 147.512 89.832 147.904 89.944C148.296 90.048 148.692 90.1 149.092 90.1C149.46 90.1 149.776 90.056 150.04 89.968C150.312 89.88 150.52 89.76 150.664 89.608C150.808 89.448 150.88 89.264 150.88 89.056C150.88 88.76 150.748 88.532 150.484 88.372C150.22 88.212 149.852 88.132 149.38 88.132H148.228V87.304H149.308C149.588 87.304 149.832 87.272 150.04 87.208C150.248 87.144 150.408 87.048 150.52 86.92C150.64 86.784 150.7 86.628 150.7 86.452C150.7 86.26 150.632 86.096 150.496 85.96C150.36 85.824 150.168 85.72 149.92 85.648C149.68 85.576 149.396 85.54 149.068 85.54C148.748 85.548 148.42 85.592 148.084 85.672C147.756 85.752 147.42 85.876 147.076 86.044L146.764 85.144C147.148 84.96 147.524 84.82 147.892 84.724C148.268 84.62 148.64 84.564 149.008 84.556C149.56 84.54 150.052 84.604 150.484 84.748C150.916 84.884 151.256 85.084 151.504 85.348C151.76 85.612 151.888 85.924 151.888 86.284C151.888 86.588 151.792 86.86 151.6 87.1C151.408 87.332 151.152 87.516 150.832 87.652C150.512 87.788 150.144 87.856 149.728 87.856L149.776 87.58C150.488 87.58 151.048 87.72 151.456 88C151.864 88.28 152.068 88.66 152.068 89.14C152.068 89.524 151.94 89.864 151.684 90.16C151.428 90.448 151.08 90.676 150.64 90.844C150.208 91.004 149.712 91.084 149.152 91.084ZM157.599 91V89.656L157.539 89.404V87.112C157.539 86.624 157.395 86.248 157.107 85.984C156.827 85.712 156.403 85.576 155.835 85.576C155.459 85.576 155.091 85.64 154.731 85.768C154.371 85.888 154.067 86.052 153.819 86.26L153.339 85.396C153.667 85.132 154.059 84.932 154.515 84.796C154.979 84.652 155.463 84.58 155.967 84.58C156.839 84.58 157.511 84.792 157.983 85.216C158.455 85.64 158.691 86.288 158.691 87.16V91H157.599ZM155.511 91.072C155.039 91.072 154.623 90.992 154.263 90.832C153.911 90.672 153.639 90.452 153.447 90.172C153.255 89.884 153.159 89.56 153.159 89.2C153.159 88.856 153.239 88.544 153.399 88.264C153.567 87.984 153.835 87.76 154.203 87.592C154.579 87.424 155.083 87.34 155.715 87.34H157.731V88.168H155.763C155.187 88.168 154.799 88.264 154.599 88.456C154.399 88.648 154.299 88.88 154.299 89.152C154.299 89.464 154.423 89.716 154.671 89.908C154.919 90.092 155.263 90.184 155.703 90.184C156.135 90.184 156.511 90.088 156.831 89.896C157.159 89.704 157.395 89.424 157.539 89.056L157.767 89.848C157.615 90.224 157.347 90.524 156.963 90.748C156.579 90.964 156.095 91.072 155.511 91.072ZM168.092 90.46V85.648H165.332L165.272 86.872C165.256 87.272 165.228 87.66 165.188 88.036C165.156 88.404 165.1 88.744 165.02 89.056C164.948 89.368 164.84 89.624 164.696 89.824C164.552 90.024 164.36 90.148 164.12 90.196L162.98 89.992C163.228 90 163.428 89.92 163.58 89.752C163.732 89.576 163.848 89.336 163.928 89.032C164.016 88.728 164.08 88.384 164.12 88C164.16 87.608 164.192 87.204 164.216 86.788L164.312 84.64H169.244V90.46H168.092ZM162.728 92.476V89.992H170.216V92.476H169.136V91H163.82V92.476H162.728ZM174.429 91.072C173.749 91.072 173.149 90.932 172.629 90.652C172.117 90.372 171.717 89.988 171.429 89.5C171.149 89.012 171.009 88.452 171.009 87.82C171.009 87.188 171.145 86.628 171.417 86.14C171.697 85.652 172.077 85.272 172.557 85C173.045 84.72 173.593 84.58 174.201 84.58C174.817 84.58 175.361 84.716 175.833 84.988C176.305 85.26 176.673 85.644 176.937 86.14C177.209 86.628 177.345 87.2 177.345 87.856C177.345 87.904 177.341 87.96 177.333 88.024C177.333 88.088 177.329 88.148 177.321 88.204H171.909V87.376H176.721L176.253 87.664C176.261 87.256 176.177 86.892 176.001 86.572C175.825 86.252 175.581 86.004 175.269 85.828C174.965 85.644 174.609 85.552 174.201 85.552C173.801 85.552 173.445 85.644 173.133 85.828C172.821 86.004 172.577 86.256 172.401 86.584C172.225 86.904 172.137 87.272 172.137 87.688V87.88C172.137 88.304 172.233 88.684 172.425 89.02C172.625 89.348 172.901 89.604 173.253 89.788C173.605 89.972 174.009 90.064 174.465 90.064C174.841 90.064 175.181 90 175.485 89.872C175.797 89.744 176.069 89.552 176.301 89.296L176.937 90.04C176.649 90.376 176.289 90.632 175.857 90.808C175.433 90.984 174.957 91.072 174.429 91.072ZM179.012 91V84.64H180.164V87.34H183.788V84.64H184.94V91H183.788V88.336H180.164V91H179.012ZM190 86.8C190.808 86.808 191.424 86.992 191.848 87.352C192.272 87.712 192.484 88.22 192.484 88.876C192.484 89.564 192.252 90.096 191.788 90.472C191.324 90.84 190.668 91.02 189.82 91.012L187.06 91V84.64H188.212V86.788L190 86.8ZM189.724 90.136C190.244 90.144 190.636 90.04 190.9 89.824C191.172 89.608 191.308 89.288 191.308 88.864C191.308 88.448 191.176 88.144 190.912 87.952C190.648 87.76 190.252 87.66 189.724 87.652L188.212 87.628V90.124L189.724 90.136Z" fill="#CACACA"/>
<path d="M75.54 69.4V50.6H77.54V69.4H75.54ZM76.26 67.24C75.14 67.24 74.0667 67.0933 73.04 66.8C72.0133 66.4933 71.1867 66.1 70.56 65.62L71.66 63.18C72.26 63.6067 72.9667 63.96 73.78 64.24C74.6067 64.5067 75.44 64.64 76.28 64.64C76.92 64.64 77.4333 64.58 77.82 64.46C78.22 64.3267 78.5133 64.1467 78.7 63.92C78.8867 63.6933 78.98 63.4333 78.98 63.14C78.98 62.7667 78.8333 62.4733 78.54 62.26C78.2467 62.0333 77.86 61.8533 77.38 61.72C76.9 61.5733 76.3667 61.44 75.78 61.32C75.2067 61.1867 74.6267 61.0267 74.04 60.84C73.4667 60.6533 72.94 60.4133 72.46 60.12C71.98 59.8267 71.5867 59.44 71.28 58.96C70.9867 58.48 70.84 57.8667 70.84 57.12C70.84 56.32 71.0533 55.5933 71.48 54.94C71.92 54.2733 72.5733 53.7467 73.44 53.36C74.32 52.96 75.42 52.76 76.74 52.76C77.62 52.76 78.4867 52.8667 79.34 53.08C80.1933 53.28 80.9467 53.5867 81.6 54L80.6 56.46C79.9467 56.0867 79.2933 55.8133 78.64 55.64C77.9867 55.4533 77.3467 55.36 76.72 55.36C76.0933 55.36 75.58 55.4333 75.18 55.58C74.78 55.7267 74.4933 55.92 74.32 56.16C74.1467 56.3867 74.06 56.6533 74.06 56.96C74.06 57.32 74.2067 57.6133 74.5 57.84C74.7933 58.0533 75.18 58.2267 75.66 58.36C76.14 58.4933 76.6667 58.6267 77.24 58.76C77.8267 58.8933 78.4067 59.0467 78.98 59.22C79.5667 59.3933 80.1 59.6267 80.58 59.92C81.06 60.2133 81.4467 60.6 81.74 61.08C82.0467 61.56 82.2 62.1667 82.2 62.9C82.2 63.6867 81.98 64.4067 81.54 65.06C81.1 65.7133 80.44 66.24 79.56 66.64C78.6933 67.04 77.5933 67.24 76.26 67.24ZM88.2939 67.24C87.3206 67.24 86.3539 67.1133 85.3939 66.86C84.4472 66.5933 83.6339 66.22 82.9539 65.74L84.2339 63.26C84.7672 63.6467 85.3806 63.9533 86.0739 64.18C86.7806 64.4067 87.4939 64.52 88.2139 64.52C89.0272 64.52 89.6672 64.36 90.1339 64.04C90.6006 63.72 90.8339 63.2733 90.8339 62.7C90.8339 62.34 90.7406 62.02 90.5539 61.74C90.3672 61.46 90.0339 61.2467 89.5539 61.1C89.0872 60.9533 88.4272 60.88 87.5739 60.88H83.9939L84.7139 53H93.2539V55.6H85.8739L87.5539 54.12L87.0539 59.74L85.3739 58.26H88.3339C89.7206 58.26 90.8339 58.4533 91.6739 58.84C92.5272 59.2133 93.1472 59.7267 93.5339 60.38C93.9206 61.0333 94.1139 61.7733 94.1139 62.6C94.1139 63.4267 93.9072 64.1933 93.4939 64.9C93.0806 65.5933 92.4406 66.16 91.5739 66.6C90.7206 67.0267 89.6272 67.24 88.2939 67.24ZM101.428 67.24C100.282 67.24 99.2551 66.96 98.3484 66.4C97.4418 65.8267 96.7284 65 96.2084 63.92C95.6884 62.84 95.4284 61.5333 95.4284 60C95.4284 58.4667 95.6884 57.16 96.2084 56.08C96.7284 55 97.4418 54.18 98.3484 53.62C99.2551 53.0467 100.282 52.76 101.428 52.76C102.588 52.76 103.615 53.0467 104.508 53.62C105.415 54.18 106.128 55 106.648 56.08C107.168 57.16 107.428 58.4667 107.428 60C107.428 61.5333 107.168 62.84 106.648 63.92C106.128 65 105.415 65.8267 104.508 66.4C103.615 66.96 102.588 67.24 101.428 67.24ZM101.428 64.5C101.975 64.5 102.448 64.3467 102.848 64.04C103.262 63.7333 103.582 63.2467 103.808 62.58C104.048 61.9133 104.168 61.0533 104.168 60C104.168 58.9467 104.048 58.0867 103.808 57.42C103.582 56.7533 103.262 56.2667 102.848 55.96C102.448 55.6533 101.975 55.5 101.428 55.5C100.895 55.5 100.422 55.6533 100.008 55.96C99.6084 56.2667 99.2884 56.7533 99.0484 57.42C98.8218 58.0867 98.7084 58.9467 98.7084 60C98.7084 61.0533 98.8218 61.9133 99.0484 62.58C99.2884 63.2467 99.6084 63.7333 100.008 64.04C100.422 64.3467 100.895 64.5 101.428 64.5ZM115.003 67.24C113.856 67.24 112.829 66.96 111.923 66.4C111.016 65.8267 110.303 65 109.783 63.92C109.263 62.84 109.003 61.5333 109.003 60C109.003 58.4667 109.263 57.16 109.783 56.08C110.303 55 111.016 54.18 111.923 53.62C112.829 53.0467 113.856 52.76 115.003 52.76C116.163 52.76 117.189 53.0467 118.083 53.62C118.989 54.18 119.703 55 120.223 56.08C120.743 57.16 121.003 58.4667 121.003 60C121.003 61.5333 120.743 62.84 120.223 63.92C119.703 65 118.989 65.8267 118.083 66.4C117.189 66.96 116.163 67.24 115.003 67.24ZM115.003 64.5C115.549 64.5 116.023 64.3467 116.423 64.04C116.836 63.7333 117.156 63.2467 117.383 62.58C117.623 61.9133 117.743 61.0533 117.743 60C117.743 58.9467 117.623 58.0867 117.383 57.42C117.156 56.7533 116.836 56.2667 116.423 55.96C116.023 55.6533 115.549 55.5 115.003 55.5C114.469 55.5 113.996 55.6533 113.583 55.96C113.183 56.2667 112.863 56.7533 112.623 57.42C112.396 58.0867 112.283 58.9467 112.283 60C112.283 61.0533 112.396 61.9133 112.623 62.58C112.863 63.2467 113.183 63.7333 113.583 64.04C113.996 64.3467 114.469 64.5 115.003 64.5ZM126.555 64.62V55.38H129.135V64.62H126.555ZM123.095 61.22V58.78H132.615V61.22H123.095Z" fill="white"/>
<circle cx="58" cy="62" r="4" fill="#FF7138"/>
<path d="M227.308 91V82.6H230.92C231.832 82.6 232.548 82.784 233.068 83.152C233.588 83.52 233.848 84.056 233.848 84.76C233.848 85.448 233.6 85.976 233.104 86.344C232.608 86.704 231.956 86.884 231.148 86.884L231.364 86.524C232.3 86.524 233.016 86.712 233.512 87.088C234.016 87.456 234.268 87.996 234.268 88.708C234.268 89.428 234.004 89.992 233.476 90.4C232.956 90.8 232.18 91 231.148 91H227.308ZM228.496 90.052H231.124C231.764 90.052 232.244 89.936 232.564 89.704C232.892 89.464 233.056 89.1 233.056 88.612C233.056 88.124 232.892 87.768 232.564 87.544C232.244 87.32 231.764 87.208 231.124 87.208H228.496V90.052ZM228.496 86.296H230.836C231.42 86.296 231.864 86.18 232.168 85.948C232.48 85.716 232.636 85.376 232.636 84.928C232.636 84.472 232.48 84.128 232.168 83.896C231.864 83.664 231.42 83.548 230.836 83.548H228.496V86.296ZM242.249 91V84.64H243.401V91H242.249ZM238.829 86.8C239.637 86.808 240.249 86.992 240.665 87.352C241.089 87.712 241.301 88.22 241.301 88.876C241.301 89.564 241.069 90.096 240.605 90.472C240.149 90.84 239.493 91.02 238.637 91.012L235.961 91V84.64H237.113V86.788L238.829 86.8ZM238.553 90.136C239.065 90.144 239.457 90.04 239.729 89.824C240.001 89.608 240.137 89.288 240.137 88.864C240.137 88.448 240.001 88.144 239.729 87.952C239.465 87.76 239.073 87.66 238.553 87.652L237.113 87.628V90.124L238.553 90.136ZM245.521 91L245.521 84.64H251.413V91H250.261V85.36L250.537 85.648H246.397L246.673 85.36V91H245.521ZM252.466 90.988L252.538 90.016C252.594 90.024 252.646 90.032 252.694 90.04C252.742 90.048 252.786 90.052 252.826 90.052C253.082 90.052 253.282 89.964 253.426 89.788C253.578 89.612 253.69 89.38 253.762 89.092C253.834 88.796 253.886 88.464 253.918 88.096C253.95 87.728 253.974 87.36 253.99 86.992L254.098 84.64H258.982V91H257.83V85.312L258.106 85.648H254.842L255.106 85.3L255.022 87.064C254.998 87.624 254.954 88.148 254.89 88.636C254.826 89.124 254.726 89.552 254.59 89.92C254.462 90.288 254.282 90.576 254.05 90.784C253.826 90.992 253.534 91.096 253.174 91.096C253.07 91.096 252.958 91.084 252.838 91.06C252.726 91.044 252.602 91.02 252.466 90.988ZM264.989 91V89.656L264.929 89.404V87.112C264.929 86.624 264.785 86.248 264.497 85.984C264.217 85.712 263.793 85.576 263.225 85.576C262.849 85.576 262.481 85.64 262.121 85.768C261.761 85.888 261.457 86.052 261.209 86.26L260.729 85.396C261.057 85.132 261.449 84.932 261.905 84.796C262.369 84.652 262.853 84.58 263.357 84.58C264.229 84.58 264.901 84.792 265.373 85.216C265.845 85.64 266.081 86.288 266.081 87.16V91H264.989ZM262.901 91.072C262.429 91.072 262.013 90.992 261.653 90.832C261.301 90.672 261.029 90.452 260.837 90.172C260.645 89.884 260.549 89.56 260.549 89.2C260.549 88.856 260.629 88.544 260.789 88.264C260.957 87.984 261.225 87.76 261.593 87.592C261.969 87.424 262.473 87.34 263.105 87.34H265.121V88.168H263.153C262.577 88.168 262.189 88.264 261.989 88.456C261.789 88.648 261.689 88.88 261.689 89.152C261.689 89.464 261.813 89.716 262.061 89.908C262.309 90.092 262.653 90.184 263.093 90.184C263.525 90.184 263.901 90.088 264.221 89.896C264.549 89.704 264.785 89.424 264.929 89.056L265.157 89.848C265.005 90.224 264.737 90.524 264.353 90.748C263.969 90.964 263.485 91.072 262.901 91.072ZM272.044 88.396C271.708 88.556 271.36 88.684 271 88.78C270.648 88.868 270.284 88.912 269.908 88.912C269.14 88.912 268.532 88.732 268.084 88.372C267.644 88.012 267.424 87.456 267.424 86.704V84.64H268.576V86.632C268.576 87.088 268.716 87.424 268.996 87.64C269.284 87.856 269.668 87.964 270.148 87.964C270.452 87.964 270.764 87.924 271.084 87.844C271.412 87.764 271.732 87.652 272.044 87.508V88.396ZM271.96 91V84.64H273.112V91H271.96ZM278.06 91.072C277.38 91.072 276.78 90.932 276.26 90.652C275.748 90.372 275.348 89.988 275.06 89.5C274.78 89.012 274.64 88.452 274.64 87.82C274.64 87.188 274.776 86.628 275.048 86.14C275.328 85.652 275.708 85.272 276.188 85C276.676 84.72 277.224 84.58 277.832 84.58C278.448 84.58 278.992 84.716 279.464 84.988C279.936 85.26 280.304 85.644 280.568 86.14C280.84 86.628 280.976 87.2 280.976 87.856C280.976 87.904 280.972 87.96 280.964 88.024C280.964 88.088 280.96 88.148 280.952 88.204H275.54V87.376H280.352L279.884 87.664C279.892 87.256 279.808 86.892 279.632 86.572C279.456 86.252 279.212 86.004 278.9 85.828C278.596 85.644 278.24 85.552 277.832 85.552C277.432 85.552 277.076 85.644 276.764 85.828C276.452 86.004 276.208 86.256 276.032 86.584C275.856 86.904 275.768 87.272 275.768 87.688V87.88C275.768 88.304 275.864 88.684 276.056 89.02C276.256 89.348 276.532 89.604 276.884 89.788C277.236 89.972 277.64 90.064 278.096 90.064C278.472 90.064 278.812 90 279.116 89.872C279.428 89.744 279.7 89.552 279.932 89.296L280.568 90.04C280.28 90.376 279.92 90.632 279.488 90.808C279.064 90.984 278.588 91.072 278.06 91.072ZM282.643 91V84.64H283.795V87.34H287.419V84.64H288.571V91H287.419V88.336H283.795V91H282.643ZM293.415 91.072C292.775 91.072 292.207 90.932 291.711 90.652C291.215 90.372 290.823 89.988 290.535 89.5C290.247 89.004 290.103 88.444 290.103 87.82C290.103 87.188 290.247 86.628 290.535 86.14C290.823 85.652 291.215 85.272 291.711 85C292.207 84.72 292.775 84.58 293.415 84.58C294.047 84.58 294.611 84.72 295.107 85C295.611 85.272 296.003 85.652 296.283 86.14C296.571 86.62 296.715 87.18 296.715 87.82C296.715 88.452 296.571 89.012 296.283 89.5C296.003 89.988 295.611 90.372 295.107 90.652C294.611 90.932 294.047 91.072 293.415 91.072ZM293.415 90.064C293.823 90.064 294.187 89.972 294.507 89.788C294.835 89.604 295.091 89.344 295.275 89.008C295.459 88.664 295.551 88.268 295.551 87.82C295.551 87.364 295.459 86.972 295.275 86.644C295.091 86.308 294.835 86.048 294.507 85.864C294.187 85.68 293.823 85.588 293.415 85.588C293.007 85.588 292.643 85.68 292.323 85.864C292.003 86.048 291.747 86.308 291.555 86.644C291.363 86.972 291.267 87.364 291.267 87.82C291.267 88.268 291.363 88.664 291.555 89.008C291.747 89.344 292.003 89.604 292.323 89.788C292.643 89.972 293.007 90.064 293.415 90.064Z" fill="#CACACA"/>
<path d="M231.54 69.4V50.6H233.54V69.4H231.54ZM232.26 67.24C231.14 67.24 230.067 67.0933 229.04 66.8C228.013 66.4933 227.187 66.1 226.56 65.62L227.66 63.18C228.26 63.6067 228.967 63.96 229.78 64.24C230.607 64.5067 231.44 64.64 232.28 64.64C232.92 64.64 233.433 64.58 233.82 64.46C234.22 64.3267 234.513 64.1467 234.7 63.92C234.887 63.6933 234.98 63.4333 234.98 63.14C234.98 62.7667 234.833 62.4733 234.54 62.26C234.247 62.0333 233.86 61.8533 233.38 61.72C232.9 61.5733 232.367 61.44 231.78 61.32C231.207 61.1867 230.627 61.0267 230.04 60.84C229.467 60.6533 228.94 60.4133 228.46 60.12C227.98 59.8267 227.587 59.44 227.28 58.96C226.987 58.48 226.84 57.8667 226.84 57.12C226.84 56.32 227.053 55.5933 227.48 54.94C227.92 54.2733 228.573 53.7467 229.44 53.36C230.32 52.96 231.42 52.76 232.74 52.76C233.62 52.76 234.487 52.8667 235.34 53.08C236.193 53.28 236.947 53.5867 237.6 54L236.6 56.46C235.947 56.0867 235.293 55.8133 234.64 55.64C233.987 55.4533 233.347 55.36 232.72 55.36C232.093 55.36 231.58 55.4333 231.18 55.58C230.78 55.7267 230.493 55.92 230.32 56.16C230.147 56.3867 230.06 56.6533 230.06 56.96C230.06 57.32 230.207 57.6133 230.5 57.84C230.793 58.0533 231.18 58.2267 231.66 58.36C232.14 58.4933 232.667 58.6267 233.24 58.76C233.827 58.8933 234.407 59.0467 234.98 59.22C235.567 59.3933 236.1 59.6267 236.58 59.92C237.06 60.2133 237.447 60.6 237.74 61.08C238.047 61.56 238.2 62.1667 238.2 62.9C238.2 63.6867 237.98 64.4067 237.54 65.06C237.1 65.7133 236.44 66.24 235.56 66.64C234.693 67.04 233.593 67.24 232.26 67.24ZM244.294 67.24C243.321 67.24 242.354 67.1133 241.394 66.86C240.447 66.5933 239.634 66.22 238.954 65.74L240.234 63.26C240.767 63.6467 241.381 63.9533 242.074 64.18C242.781 64.4067 243.494 64.52 244.214 64.52C245.027 64.52 245.667 64.36 246.134 64.04C246.601 63.72 246.834 63.2733 246.834 62.7C246.834 62.34 246.741 62.02 246.554 61.74C246.367 61.46 246.034 61.2467 245.554 61.1C245.087 60.9533 244.427 60.88 243.574 60.88H239.994L240.714 53H249.254V55.6H241.874L243.554 54.12L243.054 59.74L241.374 58.26H244.334C245.721 58.26 246.834 58.4533 247.674 58.84C248.527 59.2133 249.147 59.7267 249.534 60.38C249.921 61.0333 250.114 61.7733 250.114 62.6C250.114 63.4267 249.907 64.1933 249.494 64.9C249.081 65.5933 248.441 66.16 247.574 66.6C246.721 67.0267 245.627 67.24 244.294 67.24ZM257.428 67.24C256.282 67.24 255.255 66.96 254.348 66.4C253.442 65.8267 252.728 65 252.208 63.92C251.688 62.84 251.428 61.5333 251.428 60C251.428 58.4667 251.688 57.16 252.208 56.08C252.728 55 253.442 54.18 254.348 53.62C255.255 53.0467 256.282 52.76 257.428 52.76C258.588 52.76 259.615 53.0467 260.508 53.62C261.415 54.18 262.128 55 262.648 56.08C263.168 57.16 263.428 58.4667 263.428 60C263.428 61.5333 263.168 62.84 262.648 63.92C262.128 65 261.415 65.8267 260.508 66.4C259.615 66.96 258.588 67.24 257.428 67.24ZM257.428 64.5C257.975 64.5 258.448 64.3467 258.848 64.04C259.262 63.7333 259.582 63.2467 259.808 62.58C260.048 61.9133 260.168 61.0533 260.168 60C260.168 58.9467 260.048 58.0867 259.808 57.42C259.582 56.7533 259.262 56.2667 258.848 55.96C258.448 55.6533 257.975 55.5 257.428 55.5C256.895 55.5 256.422 55.6533 256.008 55.96C255.608 56.2667 255.288 56.7533 255.048 57.42C254.822 58.0867 254.708 58.9467 254.708 60C254.708 61.0533 254.822 61.9133 255.048 62.58C255.288 63.2467 255.608 63.7333 256.008 64.04C256.422 64.3467 256.895 64.5 257.428 64.5Z" fill="white"/>
<circle cx="214" cy="62" r="4" fill="url(#paint1_linear_1_8077)"/>
<defs>
<linearGradient id="paint0_linear_1_8077" x1="56" y1="135" x2="217.744" y2="199.775" gradientUnits="userSpaceOnUse">
<stop stop-color="#196264"/>
<stop offset="0.471154" stop-color="#73BFBF"/>
<stop offset="1" stop-color="#0BCACA"/>
</linearGradient>
<linearGradient id="paint1_linear_1_8077" x1="210" y1="58" x2="219.522" y2="60.7723" gradientUnits="userSpaceOnUse">
<stop stop-color="#AE68FA"/>
<stop offset="1" stop-color="#F1966E"/>
</linearGradient>
</defs>
</svg>
