<svg width="719" height="680" viewBox="0 0 719 680" fill="none" xmlns="http://www.w3.org/2000/svg">
<path d="M248.775 601.332C243.652 601.332 238.76 600.3 235.109 598.192L56.246 494.925C52.6595 492.854 50.6836 489.973 50.6836 486.81C50.6836 483.016 53.5221 479.2 58.4725 476.342L399.601 279.391C408.875 274.036 422.968 273.457 431.017 278.104L609.883 381.371C613.469 383.442 615.445 386.324 615.445 389.487C615.445 393.281 612.606 397.097 607.654 399.955L266.525 596.906C261.458 599.832 254.948 601.332 248.775 601.332ZM235.494 597.524C243.33 602.045 257.075 601.472 266.139 596.238L607.267 399.286C611.973 396.57 614.672 392.999 614.674 389.487C614.674 386.611 612.836 383.967 609.496 382.04L430.631 278.773C422.797 274.252 409.049 274.827 399.986 280.059L58.8591 477.01C54.1535 479.725 51.4549 483.297 51.4549 486.81C51.4549 489.684 53.2928 492.33 56.6326 494.257L235.494 597.524Z" fill="#42E8E0"/>
<path d="M615.057 341.788L589.365 346.211L430.824 254.678C422.87 250.085 408.979 250.662 399.795 255.964L96.4894 431.077L51.0713 438.897L51.0674 455L51.0888 454.996C51.0674 457.932 52.8121 460.739 56.4374 462.831L235.303 566.098C243.257 570.691 257.148 570.114 266.332 564.812L607.461 367.861C612.405 365.007 614.953 361.366 615.032 357.894L615.057 357.89V341.788Z" fill="url(#paint0_linear_95_11333)"/>
<path d="M235.301 549.887L56.4358 446.62C48.4817 442.027 49.4804 434.007 58.6643 428.705L399.793 231.754C408.977 226.452 422.87 225.875 430.822 230.468L609.686 333.734C617.64 338.327 616.641 346.347 607.457 351.649L266.332 548.601C257.148 553.905 243.255 554.48 235.301 549.887Z" fill="#24126A"/>
<path d="M607.461 351.651L266.332 548.601C257.148 553.903 243.255 554.48 235.303 549.887L56.4374 446.62C53.2472 444.778 51.5219 442.383 51.1625 439.836C50.669 443.142 52.3865 446.371 56.4374 448.711L235.303 551.977C243.257 556.57 257.148 555.993 266.332 550.691L607.461 353.74C612.961 350.563 615.5 346.415 614.964 342.609C614.488 345.794 611.966 349.05 607.461 351.651Z" fill="white"/>
<path opacity="0.51" d="M235.654 545.886L63.1655 446.272C55.4698 441.829 56.4335 434.067 65.3221 428.936L400.123 235.69C409.01 230.559 422.452 230.001 430.15 234.444L602.639 334.059C610.334 338.502 609.369 346.264 600.482 351.395L265.681 544.641C256.795 549.772 243.35 550.33 235.654 545.886Z" fill="#453C9E"/>
<path opacity="0.8" d="M248.694 544.981C243.703 544.981 238.935 543.975 235.38 541.923L62.889 442.309C59.3589 440.271 57.416 437.425 57.416 434.297C57.416 430.559 60.1962 426.809 65.0456 424.009L399.847 230.763C408.871 225.55 422.592 224.995 430.429 229.518L602.918 329.134C606.448 331.172 608.391 334.018 608.391 337.144C608.391 340.882 605.611 344.632 600.761 347.431L265.96 540.678C261.031 543.524 254.701 544.981 248.694 544.981ZM235.934 540.957C243.464 545.306 256.685 544.746 265.405 539.712L600.206 346.464C604.701 343.87 607.28 340.47 607.28 337.14C607.28 334.428 605.533 331.924 602.362 330.093L429.873 230.479C422.341 226.129 409.12 226.689 400.404 231.725L65.5993 424.971C61.1036 427.565 58.5254 430.965 58.5254 434.295C58.5254 437.009 60.272 439.513 63.4428 441.343L235.934 540.957Z" fill="url(#paint1_linear_95_11333)"/>
<path opacity="0.5" d="M235.655 541.439L63.1665 441.825C55.4708 437.382 56.4345 429.62 65.323 424.489L400.124 231.243C409.011 226.112 422.453 225.554 430.151 229.997L602.64 329.612C610.335 334.055 609.37 341.817 600.483 346.948L265.682 540.194C256.795 545.325 243.351 545.883 235.655 541.439Z" fill="url(#paint2_radial_95_11333)"/>
<path opacity="0.4" d="M565.799 346.147C563.166 347.667 558.898 347.667 556.265 346.147C553.633 344.628 553.633 342.162 556.265 340.643C558.898 339.124 563.166 339.124 565.799 340.643C568.432 342.162 568.432 344.628 565.799 346.147Z" fill="#24126A"/>
<path opacity="0.4" d="M529.406 319.631L548.069 330.406C550.35 331.723 550.063 334.022 547.43 335.543C544.797 337.062 540.815 337.227 538.534 335.912L519.869 325.137C517.59 323.82 517.875 321.521 520.508 320.002C523.144 318.479 527.127 318.314 529.406 319.631Z" fill="#24126A"/>
<path d="M565.799 339.456C563.166 340.975 558.898 340.975 556.265 339.456C553.633 337.937 553.633 335.471 556.265 333.952C558.898 332.433 563.166 332.433 565.799 333.952C568.432 335.471 568.432 337.937 565.799 339.456Z" fill="#42E8E0"/>
<path d="M529.406 312.94L548.069 323.715C550.35 325.032 550.063 327.331 547.43 328.852C544.797 330.371 540.815 330.536 538.534 329.221L519.869 318.446C517.59 317.129 517.875 314.83 520.508 313.311C523.144 311.79 527.127 311.625 529.406 312.94Z" fill="#42E8E0"/>
<path opacity="0.4" d="M420.596 253.294L439.259 264.069C441.54 265.387 441.252 267.685 438.619 269.204C435.987 270.724 432.004 270.889 429.723 269.573L411.058 258.798C408.779 257.481 409.065 255.183 411.697 253.661C414.332 252.142 418.315 251.977 420.596 253.294Z" fill="#24126A"/>
<path d="M420.596 246.603L439.259 257.378C441.54 258.695 441.252 260.994 438.619 262.513C435.987 264.032 432.004 264.197 429.723 262.882L411.058 252.107C408.779 250.792 409.065 248.491 411.697 246.972C414.332 245.451 418.315 245.286 420.596 246.603Z" fill="#42E8E0"/>
<g opacity="0.3">
<mask id="mask0_95_11333" style="mask-type:luminance" maskUnits="userSpaceOnUse" x="57" y="226" width="551" height="319">
<path d="M235.655 541.439L63.1665 441.825C55.4708 437.382 56.4345 429.62 65.323 424.489L400.124 231.243C409.011 226.112 422.453 225.554 430.151 229.997L602.64 329.612C610.335 334.055 609.37 341.817 600.483 346.948L265.682 540.194C256.795 545.325 243.351 545.883 235.655 541.439Z" fill="white"/>
</mask>
<g mask="url(#mask0_95_11333)">
<path d="M355.415 478.685C375.215 490.295 391.14 518.313 390.985 541.266C390.903 553.52 386.252 561.847 378.924 565.187L378.926 565.189L315.495 601.238L264.324 513.246L329.633 476.21C329.874 476.064 330.121 475.926 330.368 475.792L330.665 475.623L330.671 475.635C337.146 472.336 345.854 473.08 355.415 478.685Z" fill="url(#paint3_radial_95_11333)"/>
<path opacity="0.3" d="M355.415 478.685C367.154 485.569 377.529 498.218 384 512.16C374.408 517.394 354.972 527.973 318.149 547.923C308.907 552.929 300.535 557.812 292.964 562.496L264.324 513.248L329.633 476.212C329.874 476.066 330.121 475.928 330.368 475.794L330.665 475.625L330.673 475.637C337.146 472.336 345.854 473.08 355.415 478.685Z" fill="#0F054C"/>
<path d="M289.28 514.457C309.851 526.518 326.396 555.628 326.235 579.475C326.161 590.312 322.643 598.182 316.903 602.43L316.913 602.447L316.787 602.531C316.734 602.564 316.684 602.6 316.631 602.634C316.373 602.816 316.109 602.989 315.843 603.158C279.536 627.133 262.321 658.256 241.785 696.625L235.966 707.495L138.431 534.027L150.235 534.653C193.289 536.93 223.666 530.056 262.68 511.772C269.488 507.795 278.903 508.372 289.28 514.457Z" fill="url(#paint4_linear_95_11333)"/>
<path opacity="0.3" d="M150.235 534.653C193.289 536.93 223.666 530.054 262.68 511.772C269.488 507.795 278.903 508.374 289.28 514.459C301.081 521.379 311.549 533.911 318.306 547.839C318.252 547.868 318.203 547.895 318.149 547.925C257.609 580.722 233.889 608.324 233.889 608.324L180.167 594.396L162.967 577.67L138.431 534.031L150.235 534.653Z" fill="#0F054C"/>
<path d="M177.853 543.584C217.314 566.724 249.053 622.565 248.744 668.31C248.591 691.123 240.495 707.115 227.522 714.546H227.524L227.454 714.585C227.421 714.604 227.39 714.622 227.357 714.639L215.455 721.303L218.276 718.191C206.524 720.998 192.184 718.296 176.736 709.238C137.275 686.099 105.538 630.257 105.845 584.513C105.965 566.561 111.007 552.834 119.47 544.177L116.16 544.398L127.104 538.255C127.16 538.222 127.218 538.191 127.275 538.158L127.667 537.936L127.659 537.948C140.649 530.849 158.37 532.158 177.853 543.584Z" fill="url(#paint5_linear_95_11333)"/>
<path d="M169.382 548.348C208.842 571.488 240.582 627.329 240.273 673.074C240.122 695.58 232.238 711.441 219.57 719.001L217.75 720.021C217.103 720.355 216.442 720.664 215.772 720.955L218.276 718.193C206.524 721 192.184 718.298 176.736 709.24C137.275 686.101 105.538 630.259 105.845 584.514C105.965 566.562 111.007 552.836 119.47 544.179L116.453 544.379C129.629 535.473 148.493 536.098 169.382 548.348Z" fill="white"/>
<path d="M166.973 549.693C127.512 526.553 95.274 544.878 94.9651 590.623C94.6562 636.367 126.395 692.209 165.856 715.348C205.317 738.488 237.555 720.163 237.864 674.418C238.171 628.674 206.433 572.832 166.973 549.693Z" fill="url(#paint6_linear_95_11333)"/>
<path d="M166.903 559.852C132.282 539.551 103.998 555.628 103.726 595.762C103.454 635.895 131.301 684.888 165.92 705.189C200.542 725.49 228.826 709.413 229.098 669.277C229.37 629.144 201.525 580.153 166.903 559.852Z" fill="url(#paint7_radial_95_11333)"/>
<path d="M321.621 407.058L308.966 399.515C308.921 399.492 308.872 399.473 308.828 399.451L308.381 399.241L308.383 399.265C306.213 398.375 303.537 398.637 300.631 400.314L298.684 401.439C291.476 405.6 285.632 416.766 285.632 426.377V510.388L298.185 517.69L300.434 500.052L312.282 493.214V409.389C312.282 409.181 312.264 408.991 312.259 408.789L321.621 407.058Z" fill="url(#paint8_linear_95_11333)"/>
<path d="M326.236 501.494L298.185 517.69V433.865C298.185 424.254 304.029 413.088 311.237 408.927L313.183 407.802C320.391 403.64 326.236 408.058 326.236 417.669V501.494Z" fill="url(#paint9_linear_95_11333)"/>
<path opacity="0.3" d="M292.405 450.531L291.912 450.249C291.041 449.75 290.253 449.75 289.664 450.144L289.666 450.137L286.489 451.978L288.632 452.386C288.624 452.507 288.619 452.629 288.619 452.757L288.689 470.373C288.698 472.79 290.171 475.586 291.984 476.647L291.343 479.048L294.525 477.193L294.519 477.191C295.302 476.837 295.807 475.866 295.801 474.444L295.729 456.828C295.722 454.395 294.232 451.576 292.405 450.531Z" fill="#0F054C"/>
<path d="M289.172 478.889L288.678 478.607C286.85 477.562 285.36 474.743 285.35 472.312L285.278 454.696C285.269 452.266 286.743 451.141 288.57 452.186L289.063 452.468C290.891 453.513 292.38 456.332 292.391 458.763L292.461 476.379C292.473 478.811 290.998 479.934 289.172 478.889Z" fill="white"/>
<path opacity="0.4" d="M208.911 711.015C233.951 697.462 235.219 651.317 211.744 607.948C188.27 564.579 148.941 540.409 123.902 553.962C98.862 567.515 97.5935 613.66 121.068 657.029C144.543 700.398 183.871 724.569 208.911 711.015Z" fill="#42E8E0"/>
</g>
</g>
<path opacity="0.4" d="M428.705 218.648C446.216 208.538 446.215 175.753 428.703 145.423C411.191 115.092 382.799 98.6997 365.288 108.81C347.777 118.921 347.777 151.705 365.289 182.036C382.802 212.367 411.194 228.758 428.705 218.648Z" fill="#42E8E0"/>
<path d="M417.035 222.189C410.797 222.189 403.886 220.104 396.734 215.974C371.856 201.61 351.615 166.555 351.615 137.83C351.615 123.795 356.377 113.317 365.023 108.324C373.669 103.335 385.124 104.448 397.28 111.466C422.158 125.829 442.397 160.884 442.397 189.609C442.397 203.645 437.635 214.122 428.99 219.115C425.43 221.169 421.397 222.189 417.035 222.189ZM376.979 106.346C372.806 106.346 368.957 107.318 365.569 109.274C357.275 114.061 352.709 124.205 352.709 137.83C352.709 166.206 372.703 200.837 397.278 215.024C409.081 221.839 420.146 222.955 428.44 218.165C436.734 213.378 441.301 203.235 441.301 189.609C441.301 161.234 421.307 126.602 396.732 112.416C389.752 108.384 383.025 106.346 376.979 106.346Z" fill="#42E8E0"/>
<path d="M392.028 236.267C385.79 236.267 378.879 234.182 371.725 230.052C346.847 215.688 326.608 180.633 326.608 151.908C326.608 137.873 331.37 127.395 340.016 122.402C348.664 117.413 360.119 118.526 372.271 125.544C397.15 139.907 417.39 174.962 417.39 203.687C417.39 217.722 412.628 228.2 403.983 233.193C400.423 235.247 396.39 236.267 392.028 236.267ZM351.972 120.424C347.799 120.424 343.95 121.396 340.564 123.352C332.27 128.139 327.702 138.281 327.702 151.908C327.702 180.284 347.696 214.915 372.271 229.102C384.076 235.917 395.141 237.032 403.435 232.243C411.729 227.456 416.297 217.312 416.297 203.687C416.297 175.312 396.303 140.68 371.727 126.494C364.745 122.462 358.019 120.424 351.972 120.424Z" fill="#42E8E0"/>
<path d="M317.08 346.82L317.094 333.814L332.388 256.288L317.183 246.92L286.762 263.759L286.659 363.658C286.651 370.381 289.177 374.923 293.047 376.4V376.405L306.591 384.898L308.283 378.461L310.595 366.74C314.51 360.962 317.073 353.579 317.08 346.82Z" fill="url(#paint10_linear_95_11333)"/>
<path d="M317.053 384.589C308.652 389.238 301.852 384.062 301.863 373.027L301.966 273.127L332.388 256.288L332.285 356.188C332.273 367.223 325.453 379.939 317.053 384.589Z" fill="url(#paint11_linear_95_11333)"/>
<path d="M295.426 316.618L294.886 316.309C293.934 315.763 293.071 315.763 292.428 316.194L292.43 316.186L288.956 318.201L291.299 318.648C291.291 318.78 291.284 318.914 291.286 319.054L291.363 338.32C291.373 340.962 292.986 344.02 294.967 345.18L294.266 347.805L297.747 345.774L297.74 345.77C298.597 345.382 299.148 344.321 299.142 342.767L299.065 323.501C299.053 320.844 297.425 317.76 295.426 316.618Z" fill="url(#paint12_linear_95_11333)"/>
<path opacity="0.3" d="M295.426 316.618L294.886 316.309C293.934 315.763 293.071 315.763 292.428 316.194L292.43 316.186L288.956 318.201L291.299 318.648C291.291 318.78 291.284 318.914 291.286 319.054L291.363 338.32C291.373 340.962 292.986 344.02 294.967 345.18L294.266 347.805L297.747 345.774L297.74 345.77C298.597 345.382 299.148 344.321 299.142 342.767L299.065 323.501C299.053 320.844 297.425 317.76 295.426 316.618Z" fill="#0F054C"/>
<path d="M291.89 347.632L291.35 347.323C289.35 346.178 287.722 343.097 287.711 340.437L287.633 321.172C287.623 318.512 289.234 317.284 291.233 318.427L291.773 318.735C293.772 319.88 295.4 322.961 295.412 325.621L295.49 344.886C295.499 347.546 293.889 348.774 291.89 347.632Z" fill="white"/>
<path opacity="0.3" d="M317.054 384.589C325.454 379.939 332.274 367.223 332.284 356.19L332.369 272.661V261.139L317.833 264.345L303.726 272.154L300.726 268.464L287.711 273.319L286.535 299.738L286.543 300.358C286.638 308.374 292.471 315.166 300.382 316.472L301.921 316.727L301.862 373.031C301.853 384.062 308.655 389.238 317.054 384.589Z" fill="#0F054C"/>
<path d="M385.64 215.162C386.332 190.07 369.555 159.073 348.17 145.928C336.754 138.91 326.334 138.403 318.994 143.27L318.992 143.268L248.822 181.247L300.836 279.667L373.01 240.516C373.284 240.376 373.556 240.229 373.822 240.075L374.15 239.896L374.142 239.883C380.956 235.785 385.308 227.275 385.64 215.162Z" fill="url(#paint13_radial_95_11333)"/>
<path opacity="0.3" d="M385.64 215.162C386.05 200.285 380.321 183.336 371.131 169.26C360.721 175.129 339.655 187.037 299.828 209.652C289.832 215.327 280.456 220.27 271.725 224.583L300.836 279.667L373.01 240.516C373.284 240.376 373.556 240.228 373.822 240.075L374.15 239.896L374.142 239.883C380.956 235.785 385.308 227.275 385.64 215.162Z" fill="#0F054C"/>
<path d="M313.52 254.271C312.828 279.363 294.932 289.049 273.547 275.903C252.162 262.758 235.386 231.762 236.077 206.67C236.769 181.578 254.665 171.892 276.05 185.038C297.435 198.183 314.209 229.179 313.52 254.271Z" fill="url(#paint14_radial_95_11333)"/>
<path d="M314.163 255.81C314.88 229.741 297.45 197.538 275.234 183.882C265.137 177.676 255.795 176.382 248.535 179.25L248.525 179.233L248.376 179.302C248.314 179.332 248.251 179.359 248.189 179.386C247.869 179.52 247.556 179.664 247.245 179.813C203.981 199.617 165.14 197.571 117.651 194.41L104.196 193.514L208.672 384.437L214.927 373.122C237.741 331.858 261.706 307.655 301.256 282.043C308.886 278.031 313.801 268.961 314.163 255.81Z" fill="url(#paint15_linear_95_11333)"/>
<path opacity="0.3" d="M214.927 373.124C237.74 331.861 261.705 307.657 301.255 282.045C308.885 278.031 313.801 268.961 314.162 255.81C314.574 240.856 309.006 223.887 299.997 209.555C299.938 209.588 299.886 209.619 299.827 209.652C234.349 246.832 195.006 252.861 195.006 252.861L176.827 310.768L182.388 336.41L208.671 384.439L214.927 373.124Z" fill="#0F054C"/>
<path d="M222.629 342.33C224.006 292.322 190.572 230.545 147.951 204.348C126.696 191.284 107.172 189.537 92.7662 197.268V197.264L92.6885 197.307C92.6516 197.326 92.6166 197.346 92.5816 197.365L79.5081 204.55L84.0292 203.736C74.6199 213.013 68.8244 227.884 68.2862 247.46C66.9087 297.467 100.343 359.244 142.966 385.442C159.692 395.723 175.345 398.993 188.279 396.153L186.157 399.096L198.193 392.498C198.258 392.463 198.32 392.43 198.382 392.395L198.815 392.158H198.8C212.907 384.22 221.949 367.021 222.629 342.33Z" fill="url(#paint16_linear_95_11333)"/>
<path d="M213.305 347.43C214.682 297.422 181.248 235.645 138.627 209.448C117.658 196.559 98.3772 194.69 84.0292 202.067L82.028 203.167C81.3441 203.573 80.6758 204.008 80.0152 204.461L84.0292 203.738C74.6199 213.015 68.8244 227.886 68.2862 247.462C66.9087 297.469 100.343 359.246 142.966 385.444C159.692 395.725 175.345 398.995 188.279 396.155L186.346 398.838C202.236 391.768 212.576 373.903 213.305 347.43Z" fill="white"/>
<path d="M210.662 348.889C209.284 398.896 173.617 418.198 130.997 392.003C88.3766 365.805 54.9419 304.03 56.3194 254.021C57.6969 204.014 93.3639 184.711 135.984 210.907C178.603 237.104 212.039 298.879 210.662 348.889Z" fill="url(#paint17_linear_95_11333)"/>
<path d="M201.197 343.07C199.989 386.945 168.697 403.879 131.303 380.895C93.9089 357.911 64.5756 303.711 65.7841 259.838C66.9925 215.964 98.2842 199.028 135.678 222.012C173.073 244.996 202.406 299.196 201.197 343.07Z" fill="url(#paint18_radial_95_11333)"/>
<path opacity="0.6" d="M143.246 375.21C137.627 371.756 132.193 367.596 127.015 362.871C116.215 353.013 115.442 336.25 125.253 325.407C136.879 312.561 155.544 295.295 184.069 276.919C172.154 254.106 154.996 233.889 135.674 222.012C119.197 211.884 103.907 209.512 91.8514 213.774C91.8203 213.786 91.7911 213.798 91.76 213.808C91.3074 213.969 90.8566 214.142 90.4137 214.322C90.3379 214.353 90.2621 214.385 90.1883 214.418C89.7803 214.587 89.3742 214.765 88.974 214.95C88.9002 214.985 88.8244 215.018 88.7486 215.055C88.3154 215.259 87.8879 215.473 87.4663 215.696C87.4372 215.712 87.408 215.725 87.3808 215.739C86.4483 216.234 85.539 216.776 84.655 217.361C84.6278 217.378 84.6026 217.396 84.5773 217.415C84.181 217.68 83.7905 217.954 83.4038 218.235C83.3281 218.292 83.2523 218.348 83.1765 218.404C82.8365 218.659 82.5004 218.919 82.1662 219.187C82.0846 219.253 82.003 219.319 81.9214 219.385C81.5795 219.667 81.2395 219.957 80.9072 220.252C80.8509 220.302 80.7946 220.349 80.7402 220.4C79.9494 221.113 79.1839 221.866 78.4476 222.663C78.4184 222.694 78.3893 222.727 78.3602 222.76C78.0357 223.114 77.7171 223.475 77.4043 223.844C77.3246 223.938 77.2469 224.033 77.1692 224.128C76.905 224.447 76.6427 224.771 76.3862 225.101C76.3007 225.212 76.2133 225.323 76.1298 225.436C75.8752 225.772 75.6246 226.114 75.3779 226.461C75.306 226.562 75.2322 226.661 75.1622 226.764C74.863 227.194 74.5716 227.631 74.2841 228.076C74.2724 228.095 74.2588 228.115 74.2452 228.132C73.9363 228.618 73.6351 229.111 73.3398 229.617C73.3068 229.673 73.2757 229.731 73.2446 229.788C72.9979 230.215 72.757 230.65 72.5219 231.093C72.4481 231.233 72.3762 231.375 72.3023 231.515C72.11 231.886 71.9215 232.261 71.737 232.64C71.6573 232.803 71.5796 232.966 71.5019 233.131C71.3251 233.508 71.1502 233.891 70.9812 234.277C70.9112 234.439 70.8394 234.598 70.7694 234.759C70.579 235.202 70.3964 235.653 70.2157 236.11C70.1749 236.214 70.1302 236.317 70.0894 236.424C69.8679 236.997 69.6542 237.578 69.4483 238.169C69.4211 238.247 69.3958 238.326 69.3706 238.404C69.1977 238.907 69.0325 239.414 68.8712 239.931C68.813 240.118 68.7586 240.306 68.7022 240.495C68.5779 240.912 68.4555 241.33 68.337 241.756C68.2767 241.971 68.2184 242.191 68.1602 242.41C68.0514 242.824 67.9445 243.242 67.8415 243.663C67.7891 243.883 67.7347 244.102 67.6822 244.324C67.5754 244.786 67.4724 245.257 67.3753 245.729C67.3383 245.909 67.2975 246.086 67.2606 246.267C67.1285 246.924 67.0042 247.588 66.8895 248.26C66.8759 248.338 66.8643 248.42 66.8526 248.497C66.7535 249.092 66.6603 249.692 66.5728 250.298C66.5398 250.524 66.5126 250.751 66.4815 250.976C66.4194 251.446 66.3591 251.917 66.3047 252.393C66.2756 252.655 66.2464 252.921 66.2192 253.185C66.1726 253.642 66.1279 254.102 66.0871 254.565C66.0638 254.833 66.0405 255.101 66.0191 255.371C65.9803 255.868 65.9472 256.37 65.9162 256.875C65.9026 257.112 65.8851 257.347 65.8734 257.584C65.8346 258.326 65.8035 259.076 65.7821 259.834C65.7491 261.071 65.7452 262.321 65.7607 263.574C65.7666 264.023 65.7802 264.473 65.7899 264.924C65.8074 265.758 65.8423 266.591 65.8812 267.425C65.9026 267.858 65.9239 268.289 65.9492 268.724C66.0094 269.7 66.0852 270.679 66.1707 271.662C66.1979 271.971 66.2173 272.28 66.2484 272.589C66.3669 273.813 66.5087 275.041 66.6681 276.272C66.7322 276.776 66.8099 277.281 66.8818 277.784C66.9906 278.553 67.1052 279.323 67.2295 280.094C67.3247 280.685 67.4238 281.275 67.5287 281.866C67.6511 282.561 67.7832 283.259 67.9192 283.956C68.0378 284.57 68.1504 285.182 68.2787 285.796C68.4827 286.777 68.7042 287.76 68.9315 288.744C69.1413 289.649 69.3647 290.552 69.594 291.458C69.7203 291.955 69.8446 292.452 69.9767 292.952C70.1866 293.748 70.4061 294.545 70.6315 295.341C70.75 295.763 70.8743 296.185 70.9967 296.606C71.8632 299.573 72.8308 302.534 73.8916 305.483C73.944 305.631 73.9946 305.777 74.049 305.924C74.3967 306.878 74.7562 307.83 75.1214 308.782C75.2166 309.027 75.3118 309.272 75.407 309.517C86.8602 338.823 107.431 366.219 131.301 380.891C152.132 393.695 171.067 394.107 183.966 384.377C172.439 387.258 158.342 384.488 143.246 375.21Z" fill="#0F054C"/>
<mask id="mask1_95_11333" style="mask-type:luminance" maskUnits="userSpaceOnUse" x="65" y="211" width="137" height="181">
<path d="M179.814 387.036C207.106 372.263 208.488 321.964 182.9 274.691C157.312 227.417 114.443 201.07 87.1505 215.843C59.8576 230.616 58.4758 280.915 84.064 328.188C109.652 375.462 152.521 401.809 179.814 387.036Z" fill="white"/>
</mask>
<g mask="url(#mask1_95_11333)">
<path d="M123.646 284.724L225.597 210.285L251.441 284.947L141.623 319.025L123.646 284.724Z" fill="url(#paint19_linear_95_11333)"/>
<path d="M147.011 309.766C146.77 318.528 140.52 321.908 133.053 317.319C125.587 312.73 119.727 301.907 119.97 293.144C120.211 284.382 126.461 281.002 133.928 285.591C141.394 290.18 147.254 301.003 147.011 309.766Z" fill="url(#paint20_radial_95_11333)"/>
<g opacity="0.3">
<path d="M156.894 268.861C166.647 274.856 174.298 288.992 173.983 300.436C173.867 304.687 172.664 307.966 170.702 310.105L253.74 286.428L226.988 209.143L148.851 266.195C151.289 266.24 154.021 267.095 156.894 268.861Z" fill="#0F054C"/>
</g>
</g>
<path opacity="0.4" d="M179.814 387.036C207.106 372.263 208.488 321.964 182.9 274.69C157.312 227.417 114.443 201.07 87.1505 215.843C59.8576 230.616 58.4758 280.914 84.064 328.188C109.652 375.462 152.521 401.809 179.814 387.036Z" fill="#42E8E0"/>
<path d="M219.982 622.962L219.584 622.229C228.978 617.114 237.32 605.684 240.347 593.791L278.969 442.049C283.708 423.432 298.474 410.617 309.292 410.327C314.765 410.193 318.872 413.335 320.706 419.212L331.399 453.447C332.551 457.131 334.751 459.713 337.762 460.908C341.454 462.373 346.188 461.667 351.09 458.914L358.821 454.572C367.575 449.653 375.638 438.856 378.883 427.708C384.049 409.968 398.061 398.198 408.082 397.466C413.234 397.095 417.291 399.547 419.504 404.388L431.379 430.335C432.725 433.277 434.893 435.307 437.648 436.202C441.235 437.376 445.76 436.587 450.38 433.992L459.23 429.02C468.581 423.766 477.055 411.864 479.841 400.077L518.578 236.123C522.92 217.74 537.929 204.287 548.683 203.712C554.196 203.417 558.304 206.359 560.291 211.999L618.146 376.038C619.364 379.492 621.557 381.902 624.491 383.005C628.159 384.385 632.832 383.652 637.65 380.944L668.085 363.847L668.493 364.571L638.058 381.668C633.02 384.499 628.097 385.251 624.198 383.784C621.029 382.591 618.662 380.009 617.361 376.314L559.506 212.275C557.626 206.941 553.936 204.268 548.727 204.544C538.269 205.105 523.649 218.29 519.388 236.314L480.65 400.269C477.77 412.457 469.325 424.304 459.636 429.746L450.786 434.718C445.96 437.43 441.2 438.233 437.39 436.997C434.408 436.026 432.067 433.842 430.621 430.683L418.746 404.736C416.658 400.17 412.986 397.959 408.142 398.299C398.399 399.01 384.748 410.547 379.683 427.943C376.38 439.29 368.16 450.284 359.229 455.301L351.498 459.643C346.371 462.524 341.382 463.249 337.453 461.687C334.201 460.395 331.833 457.634 330.605 453.7L319.911 419.465C318.211 414.025 314.675 411.163 309.67 411.163C309.554 411.163 309.433 411.165 309.313 411.167C299.016 411.445 284.353 424.281 279.776 442.26L241.154 594.003C238.074 606.103 229.566 617.741 219.982 622.962Z" fill="#42E8E0"/>
<path d="M252.038 641.889L251.64 641.156C261.031 636.043 269.376 624.615 272.405 612.721L311.027 460.976C315.766 442.361 330.531 429.546 341.349 429.257C346.89 429.068 350.929 432.264 352.763 438.142L363.457 472.375C364.609 476.058 366.808 478.64 369.82 479.837C373.511 481.304 378.244 480.595 383.148 477.842L390.878 473.5C399.631 468.582 407.694 457.788 410.94 446.638C416.104 428.897 430.116 417.128 440.138 416.395C445.294 416.016 449.345 418.476 451.56 423.319L463.434 449.264C464.781 452.206 466.949 454.236 469.704 455.134C473.292 456.301 477.815 455.518 482.437 452.923L491.287 447.949C500.638 442.696 509.113 430.794 511.899 419.004L550.636 255.052C554.978 236.671 569.987 223.219 580.74 222.642C586.27 222.362 590.361 225.29 592.349 230.928L650.203 394.969C651.421 398.424 653.615 400.833 656.549 401.936C660.215 403.316 664.889 402.583 669.708 399.875L700.14 382.776L700.548 383.501L670.114 400.6C665.076 403.432 660.155 404.18 656.253 402.715C653.083 401.523 650.718 398.94 649.416 395.245L591.562 231.204C589.681 225.873 585.992 223.188 580.785 223.473C570.327 224.033 555.705 237.217 551.446 255.241L512.709 419.197C509.83 431.384 501.384 443.232 491.695 448.674L482.845 453.647C478.021 456.358 473.259 457.168 469.448 455.924C466.465 454.953 464.126 452.769 462.681 449.61L450.806 423.663C448.715 419.096 445.047 416.883 440.202 417.227C430.458 417.938 416.808 429.476 411.743 446.871C408.438 458.217 400.218 469.212 391.288 474.226L383.558 478.568C378.432 481.45 373.445 482.176 369.513 480.614C366.26 479.322 363.89 476.56 362.662 472.625L351.969 438.392C350.23 432.826 346.54 429.915 341.37 430.094C331.073 430.37 316.411 443.207 311.835 461.186L273.213 612.931C270.13 625.033 261.62 636.672 252.038 641.889Z" fill="#42E8E0"/>
<path d="M415.03 399.072L414.605 399.79L447.304 419.157L447.729 418.439L415.03 399.072Z" fill="#42E8E0"/>
<path d="M314.226 411.247L313.803 411.965L347.885 432.061L348.308 431.343L314.226 411.247Z" fill="#42E8E0"/>
<path d="M219.982 622.962L219.584 622.229C228.978 617.114 237.32 605.684 240.347 593.791L278.969 442.049C283.708 423.432 298.474 410.617 309.292 410.327C314.765 410.193 318.872 413.335 320.706 419.212L331.399 453.447C332.551 457.131 334.751 459.713 337.762 460.908C341.454 462.373 346.188 461.667 351.09 458.914L358.821 454.572C367.575 449.653 375.638 438.856 378.883 427.708C384.049 409.968 398.061 398.198 408.082 397.466C413.234 397.095 417.291 399.547 419.504 404.388L431.379 430.335C432.725 433.277 434.893 435.307 437.648 436.202C441.235 437.376 445.76 436.587 450.38 433.992L459.23 429.02C468.581 423.766 477.055 411.864 479.841 400.077L518.578 236.123C522.92 217.74 537.929 204.287 548.683 203.712C554.196 203.417 558.304 206.359 560.291 211.999L618.146 376.038C619.364 379.492 621.557 381.902 624.491 383.005C628.159 384.385 632.832 383.652 637.65 380.944L668.085 363.847L668.493 364.571L638.058 381.668C633.02 384.499 628.097 385.251 624.198 383.784C621.029 382.591 618.662 380.009 617.361 376.314L559.506 212.275C557.626 206.941 553.936 204.268 548.727 204.544C538.269 205.105 523.649 218.29 519.388 236.314L480.65 400.269C477.77 412.457 469.325 424.304 459.636 429.746L450.786 434.718C445.96 437.43 441.2 438.233 437.39 436.997C434.408 436.026 432.067 433.842 430.621 430.683L418.746 404.736C416.658 400.17 412.986 397.959 408.142 398.299C398.399 399.01 384.748 410.547 379.683 427.943C376.38 439.29 368.16 450.284 359.229 455.301L351.498 459.643C346.371 462.524 341.382 463.249 337.453 461.687C334.201 460.395 331.833 457.634 330.605 453.7L319.911 419.465C318.211 414.025 314.675 411.163 309.67 411.163C309.554 411.163 309.433 411.165 309.313 411.167C299.016 411.445 284.353 424.281 279.776 442.26L241.154 594.003C238.074 606.103 229.566 617.741 219.982 622.962Z" fill="#42E8E0"/>
<path d="M252.038 641.889L251.64 641.156C261.031 636.043 269.376 624.615 272.405 612.721L311.027 460.976C315.766 442.361 330.531 429.546 341.349 429.257C346.89 429.068 350.929 432.264 352.763 438.142L363.457 472.375C364.609 476.058 366.808 478.64 369.82 479.837C373.511 481.304 378.244 480.595 383.148 477.842L390.878 473.5C399.631 468.582 407.694 457.788 410.94 446.638C416.104 428.897 430.116 417.128 440.138 416.395C445.294 416.016 449.345 418.476 451.56 423.319L463.434 449.264C464.781 452.206 466.949 454.236 469.704 455.134C473.292 456.301 477.815 455.518 482.437 452.923L491.287 447.949C500.638 442.696 509.113 430.794 511.899 419.004L550.636 255.052C554.978 236.671 569.987 223.219 580.74 222.642C586.27 222.362 590.361 225.29 592.349 230.928L650.203 394.969C651.421 398.424 653.615 400.833 656.549 401.936C660.215 403.316 664.889 402.583 669.708 399.875L700.14 382.776L700.548 383.501L670.114 400.6C665.076 403.432 660.155 404.18 656.253 402.715C653.083 401.523 650.718 398.94 649.416 395.245L591.562 231.204C589.681 225.873 585.992 223.188 580.785 223.473C570.327 224.033 555.705 237.217 551.446 255.241L512.709 419.197C509.83 431.384 501.384 443.232 491.695 448.674L482.845 453.647C478.021 456.358 473.259 457.168 469.448 455.924C466.465 454.953 464.126 452.769 462.681 449.61L450.806 423.663C448.715 419.096 445.047 416.883 440.202 417.227C430.458 417.938 416.808 429.476 411.743 446.871C408.438 458.217 400.218 469.212 391.288 474.226L383.558 478.568C378.432 481.45 373.445 482.176 369.513 480.614C366.26 479.322 363.89 476.56 362.662 472.625L351.969 438.392C350.23 432.826 346.54 429.915 341.37 430.094C331.073 430.37 316.411 443.207 311.835 461.186L273.213 612.931C270.13 625.033 261.62 636.672 252.038 641.889Z" fill="#42E8E0"/>
<path opacity="0.5" d="M668.289 364.212L637.854 381.309C628.713 386.444 620.648 384.387 617.753 376.178L559.899 212.139C553.291 193.404 525.194 209.941 518.984 236.22L480.246 400.174C477.415 412.156 468.948 424.04 459.432 429.385L450.582 434.357C441.981 439.189 434.278 437.675 430.998 430.51L419.123 404.563C411.764 388.48 386.431 403.271 379.281 427.827C375.984 439.154 367.927 449.935 359.023 454.938L351.292 459.28C341.918 464.547 333.706 462.237 331.001 453.574L320.308 419.341C314.271 400.017 286.102 415.717 279.372 442.154L240.75 593.897C237.715 605.822 229.211 617.461 219.78 622.596L668.289 364.212Z" fill="url(#paint21_linear_95_11333)"/>
<path opacity="0.5" d="M700.35 382.671L669.915 399.768C660.772 404.903 652.71 402.846 649.815 394.637L591.96 230.598C585.353 211.863 557.255 228.4 551.046 254.679L512.307 418.633C509.476 430.615 501.009 442.499 491.493 447.844L482.644 452.816C474.042 457.648 466.339 456.134 463.059 448.969L451.185 423.022C443.823 406.939 418.492 421.73 411.343 446.286C408.046 457.613 399.989 468.394 391.084 473.397L383.354 477.739C373.979 483.006 365.767 480.696 363.061 472.033L352.367 437.8C346.331 418.476 318.161 434.176 311.431 460.613L272.809 612.356C269.774 624.281 261.27 635.92 251.84 641.055L700.35 382.671Z" fill="url(#paint22_linear_95_11333)"/>
<path opacity="0.4" d="M350.44 394.95C350.386 399.675 354.17 403.551 358.895 403.607C363.62 403.664 367.496 399.877 367.553 395.152C367.609 390.427 363.822 386.551 359.097 386.495C354.37 386.438 350.496 390.225 350.44 394.95Z" fill="#42E8E0"/>
<path d="M358.997 398.764C361.047 398.764 362.71 397.101 362.71 395.051C362.71 393 361.047 391.338 358.997 391.338C356.946 391.338 355.284 393 355.284 395.051C355.284 397.101 356.946 398.764 358.997 398.764Z" fill="#42E8E0"/>
<path opacity="0.4" d="M481.98 247.007C481.924 251.732 485.71 255.608 490.435 255.664C495.16 255.721 499.036 251.934 499.093 247.209C499.149 242.484 495.363 238.608 490.637 238.552C485.911 238.495 482.036 242.282 481.98 247.007Z" fill="#42E8E0"/>
<path d="M486.823 247.063C486.8 249.113 488.442 250.796 490.493 250.821C492.545 250.844 494.226 249.203 494.251 247.151C494.276 245.101 492.633 243.419 490.583 243.395C488.529 243.37 486.847 245.014 486.823 247.063Z" fill="#42E8E0"/>
<path opacity="0.4" d="M236.872 423.523C236.815 428.248 240.602 432.124 245.327 432.181C250.052 432.237 253.928 428.451 253.984 423.725C254.041 419 250.254 415.124 245.529 415.068C240.804 415.012 236.926 418.798 236.872 423.523Z" fill="#42E8E0"/>
<path d="M241.715 423.58C241.69 425.629 243.334 427.312 245.383 427.337C247.435 427.36 249.115 425.719 249.141 423.667C249.164 421.617 247.522 419.935 245.471 419.91C243.421 419.886 241.738 421.53 241.715 423.58Z" fill="#42E8E0"/>
<defs>
<linearGradient id="paint0_linear_95_11333" x1="51.068" y1="410.389" x2="615.058" y2="410.389" gradientUnits="userSpaceOnUse">
<stop stop-color="#BCBEFF"/>
<stop offset="0.151" stop-color="#A3A7F5"/>
<stop offset="0.3866" stop-color="#8289E8"/>
<stop offset="0.6124" stop-color="#6A73DF"/>
<stop offset="0.8221" stop-color="#5C66D9"/>
<stop offset="1" stop-color="#5761D7"/>
</linearGradient>
<linearGradient id="paint1_linear_95_11333" x1="411.619" y1="490.179" x2="254.186" y2="281.259" gradientUnits="userSpaceOnUse">
<stop stop-color="#42E8E0"/>
<stop offset="0.1055" stop-color="#37B6BF"/>
<stop offset="0.2197" stop-color="#2C87A1"/>
<stop offset="0.338" stop-color="#235F87"/>
<stop offset="0.4587" stop-color="#1C3F72"/>
<stop offset="0.5824" stop-color="#162561"/>
<stop offset="0.7105" stop-color="#121355"/>
<stop offset="0.8458" stop-color="#10084E"/>
<stop offset="1" stop-color="#0F054C"/>
</linearGradient>
<radialGradient id="paint2_radial_95_11333" cx="0" cy="0" r="1" gradientUnits="userSpaceOnUse" gradientTransform="translate(317.448 392.024) scale(441.436 441.436)">
<stop stop-color="#42E8E0"/>
<stop offset="0.1055" stop-color="#37B6BF"/>
<stop offset="0.2197" stop-color="#2C87A1"/>
<stop offset="0.338" stop-color="#235F87"/>
<stop offset="0.4587" stop-color="#1C3F72"/>
<stop offset="0.5824" stop-color="#162561"/>
<stop offset="0.7105" stop-color="#121355"/>
<stop offset="0.8458" stop-color="#10084E"/>
<stop offset="1" stop-color="#0F054C"/>
</radialGradient>
<radialGradient id="paint3_radial_95_11333" cx="0" cy="0" r="1" gradientUnits="userSpaceOnUse" gradientTransform="translate(350.346 617.623) rotate(-59.6141) scale(145.107 145.107)">
<stop stop-color="#E9E9FD"/>
<stop offset="0.3601" stop-color="#D3D2F9"/>
<stop offset="0.7062" stop-color="#C5C4F7"/>
<stop offset="1" stop-color="#C0BFF6"/>
</radialGradient>
<linearGradient id="paint4_linear_95_11333" x1="295.014" y1="654.459" x2="208.101" y2="520.971" gradientUnits="userSpaceOnUse">
<stop stop-color="#BCBEFF"/>
<stop offset="0.1237" stop-color="#B4B6FC"/>
<stop offset="0.3207" stop-color="#9CA1F2"/>
<stop offset="0.5651" stop-color="#777EE4"/>
<stop offset="0.744" stop-color="#5761D7"/>
</linearGradient>
<linearGradient id="paint5_linear_95_11333" x1="208.619" y1="703.973" x2="141.099" y2="536.793" gradientUnits="userSpaceOnUse">
<stop stop-color="#BCBEFF"/>
<stop offset="0.2271" stop-color="#AAADF8"/>
<stop offset="0.6802" stop-color="#7C83E5"/>
<stop offset="1" stop-color="#5761D7"/>
</linearGradient>
<linearGradient id="paint6_linear_95_11333" x1="130.129" y1="694.401" x2="202.698" y2="570.64" gradientUnits="userSpaceOnUse">
<stop stop-color="#E9E9FD"/>
<stop offset="0.3601" stop-color="#D3D2F9"/>
<stop offset="0.7062" stop-color="#C5C4F7"/>
<stop offset="1" stop-color="#C0BFF6"/>
</linearGradient>
<radialGradient id="paint7_radial_95_11333" cx="0" cy="0" r="1" gradientUnits="userSpaceOnUse" gradientTransform="translate(201.605 683.986) scale(163.726 163.726)">
<stop stop-color="#BCBEFF"/>
<stop offset="0.2271" stop-color="#AAADF8"/>
<stop offset="0.6802" stop-color="#7C83E5"/>
<stop offset="1" stop-color="#5761D7"/>
</radialGradient>
<linearGradient id="paint8_linear_95_11333" x1="285.631" y1="458.227" x2="321.621" y2="458.227" gradientUnits="userSpaceOnUse">
<stop stop-color="#BCBEFF"/>
<stop offset="0.2271" stop-color="#AAADF8"/>
<stop offset="0.6802" stop-color="#7C83E5"/>
<stop offset="1" stop-color="#5761D7"/>
</linearGradient>
<linearGradient id="paint9_linear_95_11333" x1="298.183" y1="461.964" x2="326.235" y2="461.964" gradientUnits="userSpaceOnUse">
<stop stop-color="#BCBEFF"/>
<stop offset="0.2271" stop-color="#AAADF8"/>
<stop offset="0.6802" stop-color="#7C83E5"/>
<stop offset="1" stop-color="#5761D7"/>
</linearGradient>
<linearGradient id="paint10_linear_95_11333" x1="285.347" y1="315.18" x2="330.733" y2="316.428" gradientUnits="userSpaceOnUse">
<stop stop-color="#BCBEFF"/>
<stop offset="0.2271" stop-color="#AAADF8"/>
<stop offset="0.6802" stop-color="#7C83E5"/>
<stop offset="1" stop-color="#5761D7"/>
</linearGradient>
<linearGradient id="paint11_linear_95_11333" x1="204.506" y1="318.068" x2="348.612" y2="322.033" gradientUnits="userSpaceOnUse">
<stop stop-color="#BCBEFF"/>
<stop offset="0.2271" stop-color="#AAADF8"/>
<stop offset="0.6802" stop-color="#7C83E5"/>
<stop offset="1" stop-color="#5761D7"/>
</linearGradient>
<linearGradient id="paint12_linear_95_11333" x1="288.956" y1="331.844" x2="299.142" y2="331.844" gradientUnits="userSpaceOnUse">
<stop stop-color="#BCBEFF"/>
<stop offset="0.2271" stop-color="#AAADF8"/>
<stop offset="0.6802" stop-color="#7C83E5"/>
<stop offset="1" stop-color="#5761D7"/>
</linearGradient>
<radialGradient id="paint13_radial_95_11333" cx="0" cy="0" r="1" gradientUnits="userSpaceOnUse" gradientTransform="translate(253.798 139.429) rotate(1.57587) scale(158.69 158.69)">
<stop stop-color="#E9E9FD"/>
<stop offset="0.3601" stop-color="#D3D2F9"/>
<stop offset="0.7062" stop-color="#C5C4F7"/>
<stop offset="1" stop-color="#C0BFF6"/>
</radialGradient>
<radialGradient id="paint14_radial_95_11333" cx="0" cy="0" r="1" gradientUnits="userSpaceOnUse" gradientTransform="translate(274.798 230.471) rotate(31.576) scale(45.4499 39.362)">
<stop stop-color="#F9636B"/>
<stop offset="1" stop-color="#B6246E"/>
</radialGradient>
<linearGradient id="paint15_linear_95_11333" x1="187.587" y1="169.434" x2="261.125" y2="327.352" gradientUnits="userSpaceOnUse">
<stop stop-color="#BCBEFF"/>
<stop offset="0.1237" stop-color="#B4B6FC"/>
<stop offset="0.3207" stop-color="#9CA1F2"/>
<stop offset="0.5651" stop-color="#777EE4"/>
<stop offset="0.744" stop-color="#5761D7"/>
</linearGradient>
<linearGradient id="paint16_linear_95_11333" x1="91.6325" y1="220.928" x2="207.651" y2="380.362" gradientUnits="userSpaceOnUse">
<stop stop-color="#BCBEFF"/>
<stop offset="0.2271" stop-color="#AAADF8"/>
<stop offset="0.6802" stop-color="#7C83E5"/>
<stop offset="1" stop-color="#5761D7"/>
</linearGradient>
<linearGradient id="paint17_linear_95_11333" x1="55.0726" y1="299.297" x2="211.907" y2="303.611" gradientUnits="userSpaceOnUse">
<stop stop-color="#E9E9FD"/>
<stop offset="0.3601" stop-color="#D3D2F9"/>
<stop offset="0.7062" stop-color="#C5C4F7"/>
<stop offset="1" stop-color="#C0BFF6"/>
</linearGradient>
<radialGradient id="paint18_radial_95_11333" cx="0" cy="0" r="1" gradientUnits="userSpaceOnUse" gradientTransform="translate(170.569 358.648) rotate(1.57587) scale(179.148 179.148)">
<stop stop-color="#BCBEFF"/>
<stop offset="0.2271" stop-color="#AAADF8"/>
<stop offset="0.6802" stop-color="#7C83E5"/>
<stop offset="1" stop-color="#5761D7"/>
</radialGradient>
<linearGradient id="paint19_linear_95_11333" x1="123.645" y1="264.656" x2="251.44" y2="264.656" gradientUnits="userSpaceOnUse">
<stop stop-color="#E9E9FD"/>
<stop offset="0.3601" stop-color="#D3D2F9"/>
<stop offset="0.7062" stop-color="#C5C4F7"/>
<stop offset="1" stop-color="#C0BFF6"/>
</linearGradient>
<radialGradient id="paint20_radial_95_11333" cx="0" cy="0" r="1" gradientUnits="userSpaceOnUse" gradientTransform="translate(96.808 275.027) scale(102.231 102.231)">
<stop stop-color="#BCBEFF"/>
<stop offset="0.2271" stop-color="#AAADF8"/>
<stop offset="0.6802" stop-color="#7C83E5"/>
<stop offset="1" stop-color="#5761D7"/>
</radialGradient>
<linearGradient id="paint21_linear_95_11333" x1="333.286" y1="297.688" x2="552.684" y2="685.403" gradientUnits="userSpaceOnUse">
<stop stop-color="#42E8E0"/>
<stop offset="0.1055" stop-color="#37B6BF"/>
<stop offset="0.2197" stop-color="#2C87A1"/>
<stop offset="0.338" stop-color="#235F87"/>
<stop offset="0.4587" stop-color="#1C3F72"/>
<stop offset="0.5824" stop-color="#162561"/>
<stop offset="0.7105" stop-color="#121355"/>
<stop offset="0.8458" stop-color="#10084E"/>
<stop offset="1" stop-color="#0F054C"/>
</linearGradient>
<linearGradient id="paint22_linear_95_11333" x1="376.908" y1="362.378" x2="534.438" y2="599.786" gradientUnits="userSpaceOnUse">
<stop stop-color="#42E8E0"/>
<stop offset="0.1055" stop-color="#37B6BF"/>
<stop offset="0.2197" stop-color="#2C87A1"/>
<stop offset="0.338" stop-color="#235F87"/>
<stop offset="0.4587" stop-color="#1C3F72"/>
<stop offset="0.5824" stop-color="#162561"/>
<stop offset="0.7105" stop-color="#121355"/>
<stop offset="0.8458" stop-color="#10084E"/>
<stop offset="1" stop-color="#0F054C"/>
</linearGradient>
</defs>
</svg>
