<svg width="28" height="28" viewBox="0 0 28 28" fill="none" xmlns="http://www.w3.org/2000/svg">
<path d="M5.25301 24.9585V19.2885M5.25301 7.94828V2.2782M2.41797 5.11324H8.08805M2.41797 22.1235H8.08805M14.8922 3.41222L12.9256 8.52534C12.6058 9.35684 12.4459 9.77259 12.1972 10.1223C11.9768 10.4322 11.706 10.703 11.3961 10.9234C11.0464 11.1721 10.6306 11.332 9.79913 11.6518L4.686 13.6184L9.79913 15.585C10.6306 15.9048 11.0464 16.0647 11.3961 16.3133C11.706 16.5337 11.9768 16.8045 12.1972 17.1144C12.4459 17.4642 12.6058 17.8799 12.9256 18.7114L14.8922 23.8245L16.8587 18.7114C17.1786 17.8799 17.3385 17.4642 17.5871 17.1144C17.8075 16.8045 18.0783 16.5337 18.3882 16.3133C18.7379 16.0647 19.1537 15.9048 19.9852 15.585L25.0983 13.6184L19.9852 11.6518C19.1537 11.332 18.7379 11.1721 18.3882 10.9234C18.0783 10.703 17.8075 10.4322 17.5871 10.1223C17.3385 9.77259 17.1786 9.35684 16.8587 8.52534L14.8922 3.41222Z" stroke="white" stroke-width="1.70103" stroke-linecap="round" stroke-linejoin="round"/>
</svg>
