<svg width="38" height="38" viewBox="0 0 38 38" fill="none" xmlns="http://www.w3.org/2000/svg">
<path d="M26.998 15.119L28.0195 14.6082C31.0405 13.0978 32.5525 12.3417 33.6547 13.0248C34.76 13.7078 34.76 15.3968 34.76 18.7733V19.2266C34.76 22.6045 34.76 24.292 33.6562 24.975C32.5509 25.6581 31.0405 24.9021 28.0211 23.3916L26.998 22.8809V15.119Z" stroke="#13C8CB" stroke-width="2.32857"/>
<path d="M15.3546 24.4333V13.5666M15.3546 13.5666L19.2355 18.2237M15.3546 13.5666L11.4736 18.2237" stroke="#13C8CB" stroke-width="2.32857" stroke-linecap="round" stroke-linejoin="round"/>
<path d="M3.71191 18.2239V19.7762C3.71191 24.8789 3.71191 27.4311 5.12148 29.1495C5.37932 29.4637 5.66737 29.7517 5.9815 30.0096C7.70154 31.4191 10.2506 31.4191 15.3548 31.4191C20.4575 31.4191 23.0096 31.4191 24.7281 30.0096C25.0427 29.7508 25.3294 29.4642 25.5881 29.1495C26.9977 27.4295 26.9977 24.8805 26.9977 19.7762V18.2239C26.9977 13.1212 26.9977 10.5691 25.5881 8.85058C25.3303 8.53645 25.0422 8.2484 24.7281 7.99056C23.008 6.58099 20.459 6.58099 15.3548 6.58099C10.2521 6.58099 7.69999 6.58099 5.9815 7.99056C5.66737 8.2484 5.37932 8.53645 5.12148 8.85058C4.45706 9.66092 4.10622 10.6544 3.91993 12.0143" stroke="#13C8CB" stroke-width="2.32857" stroke-linecap="round"/>
</svg>
