<svg width="44" height="44" viewBox="0 0 44 44" fill="none" xmlns="http://www.w3.org/2000/svg">
<path d="M36.395 21.9999C36.395 25.806 34.8831 29.4562 32.1918 32.1476C29.5004 34.8389 25.8502 36.3508 22.0441 36.3508C18.238 36.3508 14.5878 34.8389 11.8965 32.1476C9.20517 29.4562 7.6932 25.806 7.6932 21.9999C7.6932 18.1938 9.20517 14.5436 11.8965 11.8523C14.5878 9.16098 18.238 7.64901 22.0441 7.64901C25.8502 7.64901 29.5004 9.16098 32.1918 11.8523C34.8831 14.5436 36.395 18.1938 36.395 21.9999ZM22.0441 39.9386C31.9516 39.9386 39.9828 31.9074 39.9828 21.9999C39.9828 12.0924 31.9516 4.06128 22.0441 4.06128C12.1366 4.06128 4.10547 12.0924 4.10547 21.9999C4.10547 31.9074 12.1366 39.9386 22.0441 39.9386ZM22.6863 17.3036C20.9427 18.0295 17.456 19.5322 12.2263 21.8116C11.376 22.1488 10.9311 22.4789 10.8917 22.8018C10.8235 23.3471 11.507 23.5624 12.438 23.8548L12.829 23.9804C13.7439 24.2781 14.9781 24.6261 15.6185 24.6405C16.1997 24.6525 16.8479 24.4133 17.563 23.923C22.4495 20.6222 24.9717 18.9545 25.1296 18.9199C25.2426 18.8947 25.3969 18.8625 25.5009 18.9557C25.6067 19.049 25.596 19.2248 25.5852 19.2733C25.517 19.5621 22.8334 22.0573 21.445 23.3471C21.0336 23.7346 20.6252 24.1251 20.2198 24.5185C19.3695 25.3383 18.7308 25.9536 20.2556 26.9582C21.8002 27.9771 23.359 28.9924 24.8659 30.0669C25.6085 30.5979 26.2758 31.0715 27.101 30.998C27.58 30.9531 28.0751 30.5028 28.3262 29.1574C28.9218 25.9823 30.0896 19.0975 30.3587 16.2596C30.3743 16.0242 30.3641 15.7877 30.3282 15.5546C30.307 15.3669 30.2161 15.194 30.0735 15.0702C29.8582 14.8944 29.5263 14.8586 29.3792 14.8603C28.7047 14.8729 27.6697 15.2317 22.6881 17.3036" fill="#13C8CB"/>
</svg>
