<svg width="44" height="44" viewBox="0 0 44 44" fill="none" xmlns="http://www.w3.org/2000/svg">
<circle cx="22.326" cy="21.7" r="21.4842" fill="#0BCACA"/>
<path fill-rule="evenodd" clip-rule="evenodd" d="M30.1028 14.1302C30.3499 14.0262 30.6204 13.9903 30.8861 14.0263C31.1518 14.0623 31.403 14.1688 31.6135 14.3348C31.824 14.5009 31.9862 14.7203 32.0832 14.9702C32.1802 15.2202 32.2083 15.4916 32.1648 15.7562L29.8968 29.5132C29.6768 30.8402 28.2208 31.6012 27.0038 30.9402C25.9858 30.3872 24.4738 29.5352 23.1138 28.6462C22.4338 28.2012 20.3508 26.7762 20.6068 25.7622C20.8268 24.8952 24.3268 21.6372 26.3268 19.7002C27.1118 18.9392 26.7538 18.5002 25.8268 19.2002C23.5248 20.9382 19.8288 23.5812 18.6068 24.3252C17.5288 24.9812 16.9668 25.0932 16.2948 24.9812C15.0688 24.7772 13.9318 24.4612 13.0038 24.0762C11.7498 23.5562 11.8108 21.8322 13.0028 21.3302L30.1028 14.1302Z" fill="white"/>
</svg>
