<svg width="37" height="37" viewBox="0 0 37 37" fill="none" xmlns="http://www.w3.org/2000/svg">
<path d="M32.1368 10.5913C30.367 10.5894 28.6701 9.88554 27.4187 8.63409C26.1672 7.38263 25.4634 5.68583 25.4615 3.91601C25.4615 3.62094 25.3443 3.33796 25.1357 3.12932C24.927 2.92068 24.644 2.80347 24.349 2.80347H18.7863C18.4912 2.80347 18.2082 2.92068 17.9996 3.12932C17.791 3.33796 17.6737 3.62094 17.6737 3.91601V22.2729C17.6735 22.7706 17.5397 23.2592 17.2864 23.6875C17.033 24.1159 16.6693 24.4685 16.2333 24.7084C15.7973 24.9484 15.3048 25.0669 14.8074 25.0517C14.3099 25.0365 13.8256 24.8881 13.4051 24.6219C12.9845 24.3558 12.6431 23.9817 12.4163 23.5386C12.1896 23.0955 12.086 22.5998 12.1162 22.103C12.1463 21.6062 12.3093 21.1266 12.588 20.7142C12.8666 20.3019 13.2509 19.9719 13.7006 19.7586C13.8908 19.6683 14.0515 19.5259 14.164 19.3479C14.2765 19.1699 14.3362 18.9637 14.3361 18.7531V12.8163C14.3362 12.6537 14.3006 12.493 14.2319 12.3457C14.1631 12.1983 14.0629 12.0677 13.9383 11.9633C13.8137 11.8588 13.6677 11.7829 13.5105 11.741C13.3534 11.699 13.189 11.692 13.0289 11.7205C8.06555 12.605 4.32324 17.1413 4.32324 22.2729C4.32324 25.076 5.43677 27.7644 7.41887 29.7464C9.40097 31.7285 12.0893 32.8421 14.8924 32.8421C17.6955 32.8421 20.3838 31.7285 22.3659 29.7464C24.348 27.7644 25.4615 25.076 25.4615 22.2729V16.7506C27.522 17.8256 29.8127 18.3844 32.1368 18.379C32.4318 18.379 32.7148 18.2618 32.9235 18.0532C33.1321 17.8445 33.2493 17.5616 33.2493 17.2665V11.7038C33.2493 11.4087 33.1321 11.1258 32.9235 10.9171C32.7148 10.7085 32.4318 10.5913 32.1368 10.5913ZM31.0242 16.1039C28.8501 15.9112 26.7683 15.1352 24.9984 13.858C24.8321 13.7384 24.6359 13.667 24.4316 13.6518C24.2273 13.6366 24.0228 13.6781 23.8405 13.7717C23.6583 13.8653 23.5055 14.0075 23.3989 14.1824C23.2923 14.3574 23.2361 14.5584 23.2364 14.7633V22.2729C23.2364 24.4859 22.3573 26.6083 20.7925 28.1731C19.2277 29.7379 17.1054 30.617 14.8924 30.617C12.6794 30.617 10.5571 29.7379 8.99224 28.1731C7.42743 26.6083 6.54832 24.4859 6.54832 22.2729C6.54832 18.6711 8.86241 15.4405 12.111 14.2626V18.1106C11.3918 18.5912 10.8094 19.2498 10.4205 20.0224C10.0316 20.795 9.84953 21.6552 9.89198 22.5191C9.93443 23.383 10.2 24.2212 10.6627 24.9519C11.1255 25.6827 11.7697 26.2811 12.5325 26.6888C13.2954 27.0965 14.1508 27.2996 15.0155 27.2783C15.8802 27.257 16.7246 27.0121 17.4665 26.5674C18.2083 26.1227 18.8223 25.4933 19.2486 24.7407C19.6749 23.9881 19.8989 23.1379 19.8988 22.2729V5.02855H23.306C23.5562 6.98813 24.4498 8.80921 25.8467 10.2061C27.2436 11.603 29.0647 12.4966 31.0242 12.7468V16.1039Z" fill="#13C8CB"/>
</svg>
