<svg width="30" height="30" viewBox="0 0 30 30" fill="none" xmlns="http://www.w3.org/2000/svg">
<g clip-path="url(#clip0_109_5563)">
<path d="M15 29.0627C22.7665 29.0627 29.0625 22.7667 29.0625 15.0002C29.0625 7.23374 22.7665 0.937744 15 0.937744C7.2335 0.937744 0.9375 7.23374 0.9375 15.0002C0.9375 22.7667 7.2335 29.0627 15 29.0627Z" fill="#ED4C5C"/>
<path d="M19.3594 18.2815L19.4063 15.7502L16.875 15.0002L19.4063 14.2502L19.3594 11.719L20.9062 13.7346L23.4375 12.9846L21.8906 15.0002L23.4375 17.0159L20.9062 16.2659L19.3594 18.2815Z" fill="white"/>
<path d="M15.5625 20.6252C12.4688 20.6252 9.98437 18.094 9.98437 15.0002C9.98437 11.9065 12.4688 9.37524 15.5625 9.37524C16.7344 9.37524 17.8125 9.75024 18.75 10.3596C17.4844 8.90649 15.6094 7.96899 13.5 7.96899C9.65625 7.96899 6.5625 11.1096 6.5625 15.0002C6.5625 18.8909 9.65625 22.0315 13.5 22.0315C15.6094 22.0315 17.4844 21.094 18.75 19.6409C17.8594 20.2502 16.7812 20.6252 15.5625 20.6252Z" fill="white"/>
</g>
<defs>
<clipPath id="clip0_109_5563">
<rect width="30" height="30" fill="white" transform="translate(0 0.000244141)"/>
</clipPath>
</defs>
</svg>
