<svg width="44" height="44" viewBox="0 0 44 44" fill="none" xmlns="http://www.w3.org/2000/svg">
<circle cx="22.1395" cy="21.7" r="21.4842" fill="#0BCACA"/>
<path fill-rule="evenodd" clip-rule="evenodd" d="M33.8842 14.9916C33.0393 15.3592 32.136 15.6075 31.1842 15.7221C32.1554 15.1492 32.9033 14.2421 33.2529 13.1631C32.3448 13.693 31.3396 14.0797 30.2664 14.285C29.4068 13.3827 28.1831 12.8193 26.833 12.8193C24.235 12.8193 22.1322 14.8914 22.1322 17.4456C22.1322 17.8084 22.1711 18.1617 22.2536 18.5007C18.3444 18.3097 14.877 16.4669 12.5606 13.6644C12.1575 14.3471 11.9244 15.1444 11.9244 15.9894C11.9244 17.5936 12.7597 19.0116 14.0223 19.8423C13.2453 19.8232 12.5169 19.6131 11.8856 19.2646C11.8856 19.2837 11.8856 19.3028 11.8856 19.3219C11.8856 21.5658 13.5076 23.4325 15.6589 23.8574C15.2655 23.9625 14.8479 24.0198 14.4205 24.0198C14.1195 24.0198 13.8232 23.9911 13.5367 23.9338C14.134 25.7719 15.8726 27.1087 17.9316 27.1469C16.3242 28.3882 14.2943 29.1282 12.0896 29.1282C11.7108 29.1282 11.3368 29.1044 10.9678 29.0614C13.0414 30.3886 15.5132 31.1525 18.1647 31.1525C26.8233 31.1525 31.5533 24.1009 31.5533 17.9851C31.5533 17.7846 31.5484 17.5841 31.5387 17.3883C32.4565 16.7342 33.2529 15.9226 33.8842 14.9916Z" fill="white"/>
</svg>
