<svg width="44" height="43" viewBox="0 0 44 43" fill="none" xmlns="http://www.w3.org/2000/svg">
<path fill-rule="evenodd" clip-rule="evenodd" d="M5.75195 6.45546C5.75195 5.33826 6.65803 4.43219 7.77523 4.43219H36.277C37.3942 4.43219 38.3003 5.33826 38.3003 6.45546V26.6389C38.3003 27.1755 38.0874 27.6893 37.7073 28.0693L32.9183 32.8583C32.539 33.2378 32.0245 33.451 31.488 33.4512H23.5005L17.4306 39.5228C16.375 40.5766 14.5769 39.8307 14.5769 38.3405V33.4494H7.77523C7.23862 33.4494 6.72399 33.2363 6.34456 32.8568C5.96512 32.4774 5.75195 31.9628 5.75195 31.4262V6.45546ZM8.391 7.07124V30.8121H15.1927C16.3099 30.8121 17.216 31.7182 17.216 32.8354V36.0058L21.815 31.4051C22.003 31.2169 22.2263 31.0678 22.472 30.966C22.7178 30.8643 22.9811 30.812 23.2471 30.8121H31.2329L35.6612 26.3838V7.07124H8.391ZM19.3325 12.7012C19.6825 12.7012 20.0181 12.8402 20.2656 13.0877C20.513 13.3352 20.652 13.6708 20.652 14.0207V21.5368C20.652 21.8867 20.513 22.2223 20.2656 22.4698C20.0181 22.7173 19.6825 22.8563 19.3325 22.8563C18.9826 22.8563 18.6469 22.7173 18.3995 22.4698C18.152 22.2223 18.013 21.8867 18.013 21.5368V14.0207C18.013 13.6708 18.152 13.3352 18.3995 13.0877C18.6469 12.8402 18.9826 12.7012 19.3325 12.7012ZM28.1575 12.7012C28.5075 12.7012 28.8431 12.8402 29.0905 13.0877C29.338 13.3352 29.477 13.6708 29.477 14.0207V21.5368C29.477 21.8867 29.338 22.2223 29.0905 22.4698C28.8431 22.7173 28.5075 22.8563 28.1575 22.8563C27.8075 22.8563 27.4719 22.7173 27.2245 22.4698C26.977 22.2223 26.838 21.8867 26.838 21.5368V14.0207C26.838 13.6708 26.977 13.3352 27.2245 13.0877C27.4719 12.8402 27.8075 12.7012 28.1575 12.7012Z" fill="#13C8CB"/>
</svg>
