<svg width="30" height="30" viewBox="0 0 30 30" fill="none" xmlns="http://www.w3.org/2000/svg">
<g clip-path="url(#clip0_109_5579)">
<mask id="mask0_109_5579" style="mask-type:luminance" maskUnits="userSpaceOnUse" x="0" y="0" width="30" height="31">
<path d="M15 30.0002C23.2843 30.0002 30 23.2845 30 15.0002C30 6.71597 23.2843 0.000244141 15 0.000244141C6.71573 0.000244141 0 6.71597 0 15.0002C0 23.2845 6.71573 30.0002 15 30.0002Z" fill="white"/>
</mask>
<g mask="url(#mask0_109_5579)">
<path d="M0 10.4299L14.8945 9.14087L30 10.4299V11.7366L27.6445 14.9065L30 18.2639V19.5706L15.1172 20.9416L0 19.5706V18.2639L2.15039 14.7834L0 11.7366V10.4299Z" fill="#D80027"/>
<path d="M0 0.000244141H30V10.4299H0V0.000244141Z" fill="#338AF3"/>
<path d="M0 11.7366H30V18.2639H0V11.7366Z" fill="#EEEEEE"/>
<path d="M0 19.5706H30V30.0002H0V19.5706Z" fill="#6DA544"/>
<path d="M6.86737 6.19364C6.86659 5.52497 7.09458 4.87615 7.51346 4.35494C7.93235 3.83373 8.51693 3.4715 9.17011 3.3284C8.96404 3.28453 8.75385 3.26292 8.54316 3.26395C8.13577 3.27031 7.73418 3.36157 7.36406 3.53191C6.99394 3.70224 6.66341 3.94791 6.3936 4.25321C6.12379 4.55851 5.92063 4.91674 5.79709 5.305C5.67355 5.69325 5.63236 6.10301 5.67614 6.50809C5.71992 6.91317 5.84772 7.30466 6.05136 7.65756C6.255 8.01046 6.53001 8.317 6.85882 8.5576C7.18763 8.7982 7.56302 8.96758 7.96099 9.0549C8.35896 9.14222 8.77077 9.14557 9.17011 9.06473C7.85175 8.77176 6.86737 7.59989 6.86737 6.19364ZM10.9103 7.52958L11.1037 8.13895H11.7482L11.2209 8.51981L11.426 9.12919L10.8986 8.75419L10.3889 9.12919L10.5881 8.51981L10.0607 8.13895H10.7053L10.9103 7.52958ZM12.9611 7.52958L13.1603 8.13895H13.8049L13.2775 8.51981L13.4767 9.12919L12.9611 8.75419L12.4338 9.12919L12.6389 8.51981L12.1115 8.13895H12.756L12.9611 7.52958ZM15.0119 7.52958L15.2111 8.13895H15.8557L15.3283 8.51981L15.5334 9.12919L15.006 8.75419L14.4904 9.12919L14.6896 8.51981L14.1623 8.13895H14.8068L15.0119 7.52958ZM17.0627 7.52958L17.2619 8.13895H17.9064L17.3791 8.51981L17.5842 9.12919L17.0568 8.75419L16.5412 9.12919L16.7404 8.51981L16.2131 8.13895H16.8576L17.0627 7.52958ZM19.1135 7.52958L19.3127 8.13895H19.9572L19.4299 8.51981L19.635 9.12919L19.1076 8.75419L18.592 9.12919L18.7912 8.51981L18.2756 8.13895H18.9201L19.1135 7.52958ZM12.9611 5.39676L13.1603 6.00614H13.8049L13.2775 6.387L13.4767 6.99637L12.9611 6.61551L12.4338 6.99637L12.6389 6.387L12.1115 6.00614H12.756L12.9611 5.39676ZM15.0119 5.39676L15.2111 6.00614H15.8557L15.3283 6.387L15.5334 6.99637L15.006 6.61551L14.4904 6.99637L14.6896 6.387L14.1623 6.00614H14.8068L15.0119 5.39676ZM17.0627 5.39676L17.2619 6.00614H17.9064L17.3791 6.387L17.5842 6.99637L17.0568 6.61551L16.5412 6.99637L16.7404 6.387L16.2131 6.00614H16.8576L17.0627 5.39676ZM19.1135 5.39676L19.3127 6.00614H19.9572L19.4299 6.387L19.635 6.99637L19.1076 6.61551L18.592 6.99637L18.7912 6.387L18.2756 6.00614H18.9201L19.1135 5.39676ZM15.0119 3.26395L15.2111 3.87333H15.8557L15.3283 4.24833L15.5392 4.86356L15.0119 4.4827L14.4963 4.86356L14.6955 4.24833L14.1682 3.87333H14.8127L15.0119 3.26395ZM17.0627 3.26395L17.2619 3.87333H17.9064L17.3791 4.24833L17.59 4.86356L17.0627 4.4827L16.5471 4.86356L16.7463 4.24833L16.2189 3.87333H16.8635L17.0627 3.26395ZM19.1135 3.26395L19.3127 3.87333H19.9572L19.4299 4.24833L19.6408 4.86356L19.1135 4.4827L18.5978 4.86356L18.7971 4.24833L18.2814 3.87333H18.926L19.1135 3.26395Z" fill="#EEEEEE"/>
</g>
</g>
<defs>
<clipPath id="clip0_109_5579">
<rect width="30" height="30" fill="white" transform="translate(0 0.000244141)"/>
</clipPath>
</defs>
</svg>
