<svg width="208" height="22" viewBox="0 0 208 22" fill="none" xmlns="http://www.w3.org/2000/svg">
<path fill-rule="evenodd" clip-rule="evenodd" d="M34.6443 0.224087C34.8626 0.297244 35.0089 0.370404 34.9358 0.661852C34.8626 1.17159 34.0614 0.953294 33.6249 1.09843C32.5322 1.46303 32.8968 2.9191 32.7505 3.93857V18.3587C32.7505 18.9416 32.6774 19.5965 33.1151 19.8148C33.4066 20.2526 34.2797 19.9599 34.8626 20.0343C35.737 19.8891 36.1004 18.9416 36.6833 18.5039C36.9016 17.7039 37.2662 17.0478 37.4113 16.2478C37.8479 14.7918 37.6296 12.8968 38.1394 11.4407C38.4308 11.3687 38.504 11.5858 38.5759 11.8053V19.8903C38.7222 20.1074 38.5028 20.4709 38.5028 20.6903L37.8467 20.8355H29.7641C29.4726 20.7635 29.036 20.8355 28.8897 20.5452C28.9629 19.7428 30.2738 20.1074 30.2738 19.1623V8.89318C30.2006 7.58226 30.2738 5.90791 30.2738 4.66896C30.2738 3.43001 30.6384 1.75566 29.7641 1.10079C29.3995 0.736181 28.2348 1.31908 28.38 0.517896C28.4531 0.372762 28.5263 0.299603 28.7446 0.226446H34.6443V0.224087ZM63.9189 1.31555C64.2104 1.53384 64.5738 1.31554 64.7189 1.24238C65.0104 0.952116 64.7189 0.222904 65.3018 0.296061L65.6664 0.369223V8.0153C65.5201 8.08845 65.6664 8.52503 65.4481 8.52503H65.0104C64.8652 5.75805 64.6458 2.91791 62.608 1.60699C62.2352 1.37744 61.8079 1.25157 61.3702 1.24238C60.4959 1.31554 59.9873 1.9716 59.6227 2.62647C59.113 3.42766 59.2593 4.95687 59.6959 5.6849C60.7885 7.21411 62.536 8.08845 63.8469 9.32622C65.1579 10.7091 66.6871 12.1664 66.7602 14.4956C66.9785 17.0443 66.1042 19.1576 64.4298 20.5405C63.4823 21.1954 62.0263 21.2685 60.9336 20.8307L59.4044 19.8124C59.0398 19.6673 58.9678 20.0319 58.8215 20.177C58.8215 20.6148 58.7484 20.9051 58.4569 21.0502L57.9472 20.9051L57.874 16.6809V11.9469C58.0203 11.8749 58.3838 11.8749 58.5301 11.9469C58.6752 14.9333 58.7484 18.0661 60.9325 19.593C61.5885 20.0307 62.3885 20.3953 63.336 20.1027C64.7189 19.5222 65.2287 17.9918 65.2287 16.3163C65.0823 14.8602 64.5006 13.7676 63.4811 12.9676C62.0982 11.292 60.0593 10.4189 58.7484 8.59702C58.3838 8.16044 58.3838 7.57754 58.0923 7.0678C57.3643 4.66424 58.3106 2.26186 59.6947 0.804619C60.3496 0.368037 61.369 0.0765906 62.2434 0.294881C62.8724 0.502895 63.4455 0.852021 63.9189 1.31555ZM6.31727 0.29724C6.46359 0.370397 6.68188 0.370404 6.75385 0.661852C6.53556 1.17159 5.87951 1.17158 5.66122 1.60817C5.44293 2.04593 5.44293 2.84594 5.58806 3.35568L6.46241 8.52622C6.82701 10.2006 7.19043 11.9481 7.62702 13.6236H7.84531C8.4282 11.1481 8.86478 8.67135 9.30137 6.19581C8.86478 4.30317 9.22821 1.7533 7.4807 0.88014C7.33439 0.515535 7.55386 0.29724 7.91728 0.29724C8.93676 0.370397 12.2135 0.297245 13.0147 0.370402C13.0877 0.55783 13.0877 0.765864 13.0147 0.953292C12.433 1.17158 11.7769 1.09843 11.4135 1.60817C10.6123 2.91909 11.7049 4.30317 11.6329 5.83239L12.5061 10.42C12.7256 11.4383 12.7256 12.6761 13.3073 13.4785H13.3805L14.4731 8.74451C15.056 6.77753 15.3462 4.6666 15.784 2.62765C15.9291 1.97278 15.7109 1.53501 15.2743 1.24356C14.9828 0.953295 14.4731 1.02527 14.0365 0.953292C13.9634 0.765864 13.9634 0.55783 14.0365 0.370402C15.1291 0.370402 18.479 0.297245 18.9156 0.370402C19.1351 0.443559 19.0619 0.806978 18.9888 0.953292C18.3339 1.09843 17.6778 1.24357 17.3144 1.68133C16.8778 2.84594 16.6584 4.08489 16.3681 5.2495L15.1303 10.9298C14.4023 14.0614 13.6011 17.2649 12.8731 20.4685C12.7279 20.688 12.3633 20.688 12.217 20.5417C11.7804 19.9588 11.7804 19.0113 11.5622 18.2113L10.4695 11.9469L9.88662 9.32622H9.74031L8.86714 13.6224C8.42231 15.7573 7.98533 17.8938 7.55622 20.0319C7.48306 20.4673 7.19161 20.7599 6.60872 20.6148C6.09898 20.4673 6.31727 19.8125 6.17214 19.3747L5.80753 17.0443L4.7149 11.292L3.98687 7.14096C3.76858 5.46661 3.33082 3.79226 2.96739 2.18989C2.89424 1.75212 2.45765 1.46186 2.16621 1.17041C1.65647 1.02528 1.21989 1.24356 0.710148 0.952113C0.565014 0.805799 0.491856 0.369218 0.783304 0.296061L6.31727 0.29724ZM22.9204 0.805798C23.2118 2.77278 23.7935 4.51911 24.085 6.55925L25.6142 14.0602C25.9788 15.7334 26.1239 17.4089 26.5617 18.9393C26.78 19.5942 27.2166 20.0319 27.9446 20.1027C27.9446 20.3222 28.1629 20.4673 28.0177 20.6148L27.7983 20.8319H23.5021C23.3558 20.6148 22.6277 20.8319 22.3375 20.6148C22.1192 19.5222 23.7204 20.3953 23.8667 19.5942C24.2313 19.2296 24.085 18.5015 24.013 18.0661C23.6484 17.3381 23.9398 16.098 23.2118 15.5882H20.2985L20.0071 15.7334C19.9339 17.0443 18.9876 18.5015 19.7888 19.8124C20.0802 20.0319 20.6631 19.9576 20.8814 20.177L20.8082 20.6148L16.6572 20.6868C16.2206 20.8319 16.2938 20.1771 16.4389 20.0319C17.3132 20.1039 17.823 19.6673 18.2596 19.2296C18.7693 18.0661 18.7693 16.6089 19.1339 15.298L19.9351 10.2006L20.6631 5.97635C21.0277 4.22884 21.246 2.40817 21.6094 0.587511C21.6826 0.224086 23.0667 0.00579208 22.9204 0.805798ZM45.9317 0.29724C46.0049 0.442374 46.15 0.733826 46.0049 0.88014C45.3489 1.17159 44.2574 0.88014 44.1123 1.68133C43.966 3.93857 43.9659 5.6141 43.9659 7.87135L43.8928 16.7564H43.8196C44.2562 17.849 43.2367 20.0331 44.8391 20.1051C45.2037 20.1782 45.9317 20.1782 46.2952 19.9599C47.7512 18.7965 48.1878 16.8283 48.4804 14.8626C48.6987 13.8443 48.5536 12.6065 48.8439 11.5858C49.0315 11.5139 49.2391 11.5139 49.4268 11.5858V20.4697L49.3536 20.8343C48.189 20.8343 46.9512 20.8343 46.0769 20.9074L41.9258 20.8343H39.6686C39.304 20.8343 39.4503 20.3245 39.5234 20.1063C40.2515 20.0343 41.1246 20.1063 41.4892 19.5257C41.7807 18.4331 41.5624 16.977 41.7075 15.8112C41.5612 14.7929 41.7807 13.7003 41.6344 12.5345L41.7075 11.587V2.26658C41.6344 1.90198 41.4161 1.46539 41.1978 1.2471C40.7612 0.737362 39.0137 1.46658 39.6686 0.300787H45.9317V0.29724ZM76.7344 0.369223L76.8795 0.733825V9.10793C76.8063 9.32622 76.6612 9.39938 76.5149 9.47254L76.1503 9.32622C76.2234 6.70437 75.8588 4.37515 75.1308 2.26304C74.9845 1.82646 74.6211 1.46185 74.1845 1.24356C73.8199 1.24356 73.4564 1.24356 73.3101 1.53501V17.0455H73.2393C73.3125 18.1381 73.0942 19.5234 73.8954 20.0319C74.4051 20.3965 75.2795 19.8124 75.3514 20.6148C75.3514 21.1953 74.5503 20.7599 74.1868 20.9771H72.5856V20.9051C72.0747 21.1246 71.5662 20.7599 71.1284 20.9771C70.6918 20.9051 69.7455 20.9051 69.0895 20.9051C68.8712 20.8319 68.9443 20.3953 69.0163 20.2502C69.8175 20.1027 70.6906 20.0307 70.9821 19.1576V1.68015C70.837 1.31554 70.6175 1.24239 70.3272 1.17041C69.2346 1.46186 68.9443 2.62646 68.6529 3.7191C68.2883 5.32147 67.998 6.92267 68.1431 8.88965C67.998 9.10794 68.1431 9.47254 67.7785 9.47254L67.3419 9.32622V0.514358C68.2871 0.22409 74.4771 0.297246 76.7344 0.369223ZM85.3999 0.369223C86.6377 0.733827 87.6572 1.53384 88.24 2.62647C88.7498 4.22884 89.0412 6.85069 88.0206 8.23359C87.5108 8.96162 86.9279 9.61767 86.1279 10.1274C85.9816 10.6383 86.4925 10.6383 86.7828 11.0737C87.8023 11.8018 87.9486 13.4773 87.9486 14.7882C87.9486 14.6407 87.8023 14.4956 87.7303 14.6407C87.6572 14.8602 87.8035 15.0077 88.0218 15.0077C88.0949 16.2455 87.8766 17.6284 88.1681 18.7198C88.1994 18.823 88.2555 18.9169 88.3317 18.9932C88.4078 19.0696 88.5015 19.126 88.6046 19.1576C88.9693 19.0844 89.0424 18.7198 89.1875 18.5003C89.1144 17.8455 89.2607 17.1174 89.3339 16.4602C89.5522 16.6077 89.7716 16.1699 89.9167 16.4602C90.0631 18.1357 89.9899 19.8844 88.8973 20.6844C88.4595 20.9747 88.0229 21.1222 87.3681 21.049C86.6972 20.8533 86.1252 20.4112 85.7669 19.8113L85.5486 18.4284V13.1858C85.3303 12.1652 85.1108 11.0725 84.0925 10.7823C83.6548 10.6371 82.9267 10.4897 82.5633 10.7823L82.417 11.0726V19.1576C82.5633 19.593 82.7084 19.9576 83.073 20.1027C83.4365 20.1759 83.9462 20.1027 83.8742 20.6856L83.7279 20.9051L79.9415 20.9771C79.7951 20.9771 79.5769 20.8319 79.5037 20.9771C79.1391 20.6868 77.9025 21.344 78.1939 20.4673C78.1939 19.9576 78.8488 20.3222 79.1403 20.1027C79.5049 20.0307 79.7232 19.6673 79.9415 19.4478C79.9415 19.0832 80.1597 18.6455 80.0146 18.282L80.0878 14.0602C80.0878 12.3115 80.0146 10.6383 80.0878 9.10793C80.0878 8.0153 80.0878 6.48608 80.0146 5.32147C80.0878 4.59226 80.0146 3.50081 80.0878 2.77278C79.9426 2.1179 79.7963 1.46185 79.2146 1.24356C78.85 1.09843 78.1951 1.31672 78.0488 0.953292C77.9757 0.661845 78.0488 0.442379 78.3403 0.370402L85.3999 0.369223ZM100.765 0.369223C101.275 0.587513 100.984 1.60698 101.057 2.11672C101.276 3.28133 100.912 4.59227 101.13 5.61174C100.912 6.04951 101.203 6.33977 101.13 6.77635C100.985 7.28609 101.13 8.01412 100.985 8.4507C99.9652 8.52386 100.475 7.21293 100.329 6.55806C100.11 4.30081 99.3092 2.26068 97.4165 1.31436C96.7605 1.09607 95.669 1.09607 95.2313 1.60581C94.7935 2.91673 95.013 5.10082 95.013 6.33977C94.8666 6.77635 95.0861 6.92267 95.013 7.43241V9.47136C95.0861 9.68965 94.9398 10.2725 95.4495 10.1994C97.1971 9.3982 97.4165 7.35925 97.4165 5.32029C97.4165 5.02885 97.5628 4.88253 97.9994 4.95569L98.0726 5.39227C97.9274 6.33859 98.2189 7.50438 97.9994 8.52386C97.9994 9.54333 97.9994 10.9274 98.0726 12.0189C97.9994 13.28 97.9994 14.5442 98.0726 15.8053C98.0726 16.0956 97.9274 16.2431 97.636 16.2431C97.1263 15.8053 97.4897 14.5676 97.2714 13.9127C96.9799 12.6726 96.6885 11.2165 95.3056 10.9262L95.0861 11.0714C94.9398 12.6726 95.013 13.8395 95.013 15.2956C95.013 16.6065 95.0861 18.2797 95.013 19.5918C95.4495 20.465 96.5422 20.1015 97.5617 20.1015C99.3811 19.3015 100.037 17.1174 100.402 15.0773L101.276 15.2968V20.6844L101.057 20.9039L92.6094 20.9759C92.0265 20.8307 91.007 21.049 90.4241 20.8307C90.2058 19.6673 91.5887 20.4661 92.0265 20.0307C92.318 19.8856 92.4631 19.593 92.6094 19.3027V2.11791C92.4631 1.75331 92.2448 1.38988 91.9534 1.24356C91.4436 1.02527 90.351 1.46303 90.4241 0.58869L90.5704 0.370402L100.765 0.369223ZM111.325 0.369223C111.689 0.587513 112.707 0.222911 112.926 0.660672C112.926 3.3545 112.998 5.6849 112.926 8.30675C112.853 8.52504 112.488 8.52504 112.343 8.37991C112.053 5.53977 112.123 2.18989 109.504 1.17041C108.921 0.952119 108.264 1.24356 107.683 1.24356C107.319 1.60817 107.026 1.89962 107.026 2.48251V9.5457C107.099 9.76399 107.174 9.9103 107.391 9.9103C109.356 9.40056 109.211 6.997 109.504 5.0312C109.576 4.88489 109.939 4.88489 110.084 5.0312V8.01648C110.232 8.16279 110.084 8.16279 110.084 8.45306C110.232 9.10911 110.084 9.61885 110.158 10.42V12.3858C109.938 13.4785 110.231 14.8614 109.938 15.882C109.793 16.0272 109.503 15.954 109.428 15.7345C109.283 14.0614 109.283 11.8761 107.972 10.8554C107.827 10.7103 107.389 10.7103 107.172 10.8554L107.025 11.3675V16.0991H107.098C107.171 17.2649 106.66 19.1599 107.536 19.888C108.116 20.1782 108.919 20.2526 109.647 20.1051C111.248 19.5953 111.687 17.9198 112.267 16.4637C112.122 15.8832 112.487 15.3003 112.487 14.6431L112.632 12.3127C112.779 12.1675 112.925 12.0956 113.144 12.2407L113.289 12.3858C113.07 13.4785 113.725 15.2248 112.706 15.6626C112.633 15.9528 112.269 15.9528 112.269 16.3174C112.561 16.0272 112.926 15.7345 113.216 15.2991H113.361L113.289 19.5234C113.144 20.0331 113.509 20.8319 112.925 20.9771C111.687 21.1245 110.521 21.0502 109.283 21.0502C106.953 20.9051 104.768 20.9771 102.51 20.9771C102.292 20.9051 102.292 20.4673 102.437 20.3222C103.093 20.1027 103.966 20.2502 104.403 19.5942C105.058 19.0844 104.694 17.6284 104.768 16.6809C104.841 15.0797 104.622 12.9687 104.768 11.5115L104.694 7.36042V2.18989C104.475 1.60699 104.038 1.09725 103.31 1.09725C102.874 1.09725 102.364 1.17041 102.509 0.587511C102.586 0.297243 110.159 0.369223 111.325 0.369223ZM148.39 2.48133C149.338 3.79226 149.628 5.6849 150.066 7.50556C150.576 11.292 150.211 15.6626 148.755 18.4295C148.216 19.4504 147.411 20.306 146.425 20.9051C145.551 21.1246 144.239 21.1953 143.656 20.6148C140.888 18.0661 140.235 14.0602 140.308 9.39938C140.453 6.2678 141.4 3.28252 143.221 1.17041C143.949 0.369224 145.332 0.150933 146.495 0.514358C147.223 1.02528 147.951 1.68015 148.39 2.48133ZM124.067 0.587511L124.212 0.805798L124.285 6.41293C124.066 7.36043 124.285 8.52504 124.14 9.47136C123.921 9.68965 123.702 9.47136 123.557 9.3982L123.338 5.83003C123.047 4.1545 122.757 2.62528 121.81 1.46067C121.59 1.2412 121.082 1.2412 120.936 1.46067L120.644 1.75212V19.4478C120.789 20.4661 122.245 19.8856 122.829 20.321C122.902 20.6856 122.757 20.9039 122.465 20.9759C120.572 21.1953 118.678 20.8307 116.784 20.9759C116.349 21.049 116.349 20.5405 116.494 20.321C117.151 20.1759 117.95 20.249 118.169 19.593L118.241 11.4372V1.82528C118.096 1.60581 117.951 1.3887 117.661 1.31555C116.35 1.46186 116.276 2.7716 115.912 3.7191L115.332 7.65187C115.184 8.30793 115.477 9.18109 115.112 9.54452L114.674 9.47136L114.603 5.39345C114.603 3.93739 114.529 2.11673 114.674 0.660672C115.183 0.297248 122.829 0.514354 124.067 0.587511ZM139.796 0.514358C140.16 0.441201 140.233 0.805804 140.088 1.02527C139.36 1.17041 138.632 1.17041 138.194 1.68015C137.685 2.84476 138.268 4.37515 138.049 5.61292C138.122 5.83239 137.976 6.26897 138.049 6.6324C138.122 7.57872 138.049 8.67136 138.049 9.54452V17.7015C137.614 19.1576 136.957 20.6148 135.501 20.9759C134.045 21.3428 133.097 20.6856 132.442 19.9576C131.64 18.7941 130.767 17.2638 131.424 15.5162C131.714 14.859 132.224 14.4956 132.952 14.4236C133.316 14.5687 133.754 14.7139 133.899 15.0785C133.826 15.7334 134.264 16.4614 133.826 16.8991C133.754 17.482 132.953 17.482 132.953 18.1369C133.026 19.0101 133.391 19.7381 134.119 20.0307C134.774 20.1759 135.137 19.8856 135.502 19.521C136.012 18.0649 135.721 15.7322 135.721 14.131L135.794 9.90794V2.40699C135.647 1.97041 135.502 1.60581 135.137 1.2412C134.702 0.877779 133.681 1.38751 133.462 0.804619L133.681 0.368043C135.938 0.369223 137.54 0.587515 139.796 0.514358ZM155.744 0.587511C156.036 0.441197 156.619 0.36922 156.836 0.733825C156.91 1.17041 156.619 1.24357 156.327 1.31672C155.891 1.31672 155.599 1.53501 155.308 1.7533C155.016 2.26304 155.016 2.99107 155.016 3.72028V12.0224L154.944 12.0956C155.089 14.2808 154.944 15.7345 155.089 17.993C155.308 18.8661 155.817 19.6685 156.619 20.1039C157.274 20.2514 158.147 20.177 158.585 19.6685C159.313 19.1587 159.458 18.3576 159.603 17.5552V10.2737L159.53 9.83715L159.603 3.42884C159.677 2.77396 159.53 2.04593 159.168 1.53619C158.801 1.24474 158.147 1.24475 157.71 1.17159L157.783 0.661852L161.642 0.58869C161.862 0.58869 162.007 0.806978 162.007 0.953292C162.007 1.31672 161.424 1.09843 161.279 1.24356C160.914 1.31672 160.551 1.60817 160.551 1.97278L160.331 3.13739V17.7027C160.186 18.9405 159.458 19.9588 158.585 20.6868C158.002 21.1965 156.836 20.9771 156.182 21.1245C154.726 20.8319 153.488 19.8136 153.05 18.4307C152.177 16.6101 152.76 13.6236 152.54 11.6578V2.26422C152.395 1.82764 152.176 1.53619 151.812 1.3179C151.448 1.17159 150.794 1.3179 150.794 0.881319C150.721 0.443557 151.229 0.66303 151.449 0.516716L155.744 0.587511ZM167.469 0.660672C169.654 0.369225 171.838 0.805802 172.712 2.55331C173.44 3.71792 173.875 5.53858 173.366 7.14096C172.712 8.30675 172.203 9.76281 170.891 10.3445C170.891 11.0006 171.619 11.1469 171.909 11.6554C172.202 12.2383 172.492 12.7481 172.492 13.5481L172.637 17.2626C172.637 17.9174 172.564 19.0089 173.22 19.3027C174.093 19.0101 173.875 17.7015 174.022 16.754C174.094 16.6809 174.385 16.6809 174.458 16.754C174.677 18.3552 174.313 19.8856 173.365 20.8307C172.855 21.0502 172.202 21.3428 171.619 21.1234C170.962 21.1234 170.962 20.3953 170.526 20.0307L170.307 17.9174V13.6956C170.234 12.7481 170.162 11.6554 169.434 11.1469C168.924 10.7091 167.978 10.564 167.248 10.8543L167.103 11.0737C166.811 13.9151 167.175 16.2455 167.103 19.2296C167.175 19.6673 167.248 20.1771 167.758 20.3953C168.196 20.4673 168.413 20.3953 168.924 20.5405C168.996 20.6856 168.924 20.9051 168.996 21.1234L165.136 21.1954L163.025 21.0502C162.88 20.9051 162.88 20.5405 163.025 20.4673C163.683 20.4673 164.191 20.2502 164.556 19.8868L164.775 19.1588V2.40817C164.628 1.97159 164.556 1.53384 164.118 1.31555C163.753 1.16923 163.1 1.3887 163.1 0.87896C163.319 0.369222 163.755 0.805801 164.263 0.587511C165.356 0.660667 166.23 0.660672 167.469 0.660672ZM178.172 0.587511C178.32 0.733824 178.61 0.805804 178.684 1.02527C180.14 5.10318 181.233 9.32622 182.906 13.259C183.344 13.187 182.761 12.7493 183.054 12.531C182.981 11.0018 183.126 9.5457 182.981 7.94332C183.126 7.07016 182.981 6.41411 183.054 5.46779C182.834 5.32147 183.199 5.10318 182.981 5.03002C183.126 4.15568 182.907 2.91791 182.907 1.89844C182.543 1.3887 181.889 1.24238 181.161 1.24238C181.161 1.16923 181.016 0.732649 181.306 0.660672H185.53C185.821 0.733829 185.676 1.02527 185.676 1.24238C185.24 1.46185 184.583 1.3887 184.293 1.82528L184 2.55331L183.928 6.48608V18.9393C183.855 19.5222 184 20.4673 183.855 21.0502C183.71 21.1953 183.345 21.2697 183.2 21.1234C182.69 20.4661 182.762 19.3747 182.253 18.7198C181.453 16.754 181.015 14.4956 180.212 12.6029L178.756 8.4507C178.539 7.72267 178.173 7.13978 177.956 6.4849L177.811 6.55806C177.592 7.43122 177.592 8.15926 177.738 9.0336L177.665 12.9664V19.4467C177.812 19.8113 177.958 20.1747 178.322 20.3942C178.687 20.6136 179.56 20.1747 179.56 20.8296L179.487 21.1222L175.41 21.1942C175.117 21.1222 174.753 21.1222 174.753 20.7588C175.045 20.1759 176.283 20.7588 176.573 20.0307C176.866 19.4478 176.866 18.6455 176.866 17.8455L176.793 9.47018V2.48016C176.648 1.46068 175.63 1.38752 174.827 1.16923C174.608 1.0241 174.827 0.804627 174.827 0.659493C175.916 0.514359 177.008 0.587511 178.172 0.587511ZM192.373 4.302C192.666 6.34095 193.321 8.16161 193.539 10.2725L194.847 16.3163C195.285 17.7723 195.212 19.6673 196.596 20.3953C196.961 20.4673 197.396 20.4673 197.179 21.0502L197.106 21.1954C195.43 21.2685 193.174 21.3428 191.426 21.1234C191.061 20.1027 192.301 20.5405 192.736 20.2502C193.101 19.9576 193.174 19.3747 193.101 18.7198C192.882 17.7015 192.736 16.6089 192.301 15.8065C191.135 15.7334 189.752 15.7334 188.732 15.8797C188.441 16.2443 188.367 16.8248 188.296 17.4077C188.149 18.2809 187.568 19.593 188.441 20.321C188.806 20.6856 190.262 20.0307 189.752 21.1234C188.587 21.3428 187.204 21.2685 186.038 21.2685C185.673 21.1234 184.874 21.4136 185.09 20.6856C185.09 20.2502 185.818 20.5405 186.038 20.3953C186.693 20.0307 186.985 19.3747 187.131 18.7198L188.004 13.7676L189.096 7.50556L189.754 3.86541C189.971 2.77278 190.118 1.53501 190.627 0.661852L191.574 0.735004L192.373 4.302ZM203.442 0.660672C203.732 0.733829 204.025 0.805805 204.025 1.17041C203.88 1.68015 202.932 1.38988 202.569 1.68015C202.059 1.89844 202.059 2.55449 201.914 2.99107V19.2296C201.695 19.7393 202.059 20.1027 202.35 20.3953C202.932 20.7599 204.243 20.6856 204.973 20.4673C206.136 19.7393 206.355 18.282 206.865 16.9735L207.375 13.187C207.448 13.0395 207.74 13.0395 207.958 13.187V19.9576H207.885C207.885 20.3222 207.958 20.9051 207.813 21.2685C207.448 21.4136 206.865 21.2685 206.575 21.3417L206.355 21.2685L202.424 21.3417C200.893 21.2685 199.218 21.4868 197.98 21.1222C197.835 21.049 197.835 20.7576 197.908 20.6125C198.344 20.3198 199.291 20.6844 199.509 20.0296L199.581 19.3015V2.11791C199.217 1.38988 198.418 1.31672 197.689 1.31672C197.689 1.02528 197.544 0.733829 197.834 0.661852L203.442 0.660672Z" fill="white"/>
<path fill-rule="evenodd" clip-rule="evenodd" d="M147.079 2.55516L147.224 3.93806V8.5257L147.297 8.59886L147.224 18.0668C147.079 18.7948 146.714 19.3046 146.351 19.8874C145.841 20.3228 144.968 20.252 144.458 19.9594C143.365 19.2314 143.147 17.8485 143.22 16.6107C143.147 15.5901 143.51 14.7169 143.22 13.7694C143.292 12.6768 143.22 11.439 143.365 10.2744C143.22 10.2012 143.365 9.76466 143.22 9.6915C143.51 9.3269 143.147 9.1086 143.22 8.74518C143.292 6.92451 143.22 5.54162 143.22 3.42951C143.51 2.48319 143.948 1.39055 144.966 1.17226C146.06 1.09792 146.643 1.75397 147.079 2.55516ZM84.8185 1.31621C86.8575 2.55398 86.0563 5.68556 85.9831 8.01596C85.8368 8.67084 85.4734 9.18058 84.9637 9.61834C84.3808 9.98294 83.143 9.90979 82.5601 9.6915L82.4869 2.26371C82.5601 1.75397 82.7784 1.24423 83.4333 1.24423C83.871 1.09792 84.3076 1.31621 84.8185 1.31621ZM170.673 2.482C170.892 2.99174 170.892 3.71977 170.963 4.2295L170.891 8.08913C170.672 8.81715 170.453 9.47203 169.799 9.76347C169.216 9.98294 167.905 9.98294 167.176 9.76347C167.104 6.99649 167.104 4.88438 167.104 2.11858C167.176 1.75398 167.468 1.39055 167.904 1.24423C169.29 0.952784 170.019 1.68082 170.673 2.482ZM190.553 6.7782C190.99 9.54518 191.864 12.0219 192.228 14.8609L192.083 15.0084L189.17 15.0803L188.805 14.8609C188.877 14.0609 189.025 13.1877 189.241 12.3122L189.824 8.45255C189.969 7.86965 190.043 7.21478 190.261 6.70504L190.553 6.7782ZM22.4841 10.639L23.2121 14.5706C22.7024 15.1535 21.6829 14.5706 20.8817 14.7901L20.2988 14.7169L20.372 13.7694L21.028 9.61952L21.5378 6.92452L21.6841 6.99767L22.4841 10.639Z" fill="#1A1F2A"/>
</svg>
