<svg width="34" height="31" viewBox="0 0 34 31" fill="none" xmlns="http://www.w3.org/2000/svg">
<path d="M9.1909 31.0001C5.50191 31.0001 2.47949 28.3186 2.47949 25.0171V21.8551C2.47949 21.2196 3.00649 20.6926 3.64199 20.6926C4.27748 20.6926 4.80448 21.2196 4.80448 21.8551C4.80448 23.7926 6.67991 25.2496 9.1909 25.2496C11.7019 25.2496 13.5774 23.7926 13.5774 21.8551C13.5774 21.2196 14.1044 20.6926 14.7399 20.6926C15.3754 20.6926 15.9024 21.2196 15.9024 21.8551V25.0171C15.9024 28.3186 12.8954 31.0001 9.1909 31.0001ZM5.2074 26.5361C5.8894 27.8071 7.42391 28.6751 9.1909 28.6751C10.9579 28.6751 12.4924 27.7916 13.1744 26.5361C12.0739 27.2026 10.7099 27.5901 9.1909 27.5901C7.6719 27.5901 6.3079 27.2026 5.2074 26.5361Z" fill="#35CDD2"/>
<path d="M9.1909 23.3273C6.64891 23.3273 4.37047 22.1648 3.23897 20.3203C2.74298 19.5143 2.47949 18.5688 2.47949 17.6078C2.47949 15.9803 3.19247 14.4614 4.49447 13.3299C7.00545 11.1289 11.3299 11.129 13.8564 13.3145C15.1584 14.4615 15.8869 15.9803 15.8869 17.6078C15.8869 18.5688 15.6234 19.5143 15.1274 20.3203C14.0114 22.1648 11.7329 23.3273 9.1909 23.3273ZM9.1909 13.9499C7.9819 13.9499 6.86594 14.3529 6.02894 15.0814C5.23845 15.7633 4.80448 16.6623 4.80448 17.6078C4.80448 18.1503 4.94392 18.6465 5.22292 19.1115C5.93591 20.2895 7.45491 21.0178 9.1909 21.0178C10.9269 21.0178 12.4459 20.2895 13.1434 19.127C13.4224 18.6775 13.5619 18.1658 13.5619 17.6233C13.5619 16.6778 13.1279 15.7788 12.3374 15.0814C11.5159 14.3529 10.3999 13.9499 9.1909 13.9499Z" fill="#35CDD2"/>
<path d="M9.1909 27.5898C5.36242 27.5898 2.47949 25.1253 2.47949 21.8703V17.6078C2.47949 14.3064 5.48641 11.6249 9.1909 11.6249C10.9424 11.6249 12.6164 12.2294 13.8719 13.3144C15.1739 14.4614 15.9024 15.9804 15.9024 17.6078V21.8703C15.9024 25.1253 13.0194 27.5898 9.1909 27.5898ZM9.1909 13.9499C6.77291 13.9499 4.80448 15.5929 4.80448 17.6078V21.8703C4.80448 23.8078 6.67991 25.2648 9.1909 25.2648C11.7019 25.2648 13.5774 23.8078 13.5774 21.8703V17.6078C13.5774 16.6624 13.1434 15.7634 12.3529 15.0659C11.5159 14.3529 10.3999 13.9499 9.1909 13.9499Z" fill="#35CDD2"/>
<path d="M27.5893 18.6778C25.2488 18.6778 23.2648 16.9418 23.0788 14.7098C22.9548 13.4233 23.4198 12.1678 24.3498 11.2533C25.1248 10.4473 26.2253 9.9978 27.3878 9.9978H30.6273C32.1618 10.0443 33.3398 11.2533 33.3398 12.7413V15.9343C33.3398 17.4223 32.1618 18.6313 30.6738 18.6778H27.5893ZM30.5808 12.3228H27.4033C26.8608 12.3228 26.3648 12.5243 26.0083 12.8963C25.5588 13.3303 25.3418 13.9193 25.4038 14.5083C25.4813 15.5313 26.4733 16.3528 27.5893 16.3528H30.6273C30.8288 16.3528 31.0148 16.1668 31.0148 15.9343V12.7413C31.0148 12.5088 30.8288 12.3383 30.5808 12.3228Z" fill="#35CDD2"/>
<path d="M22.8778 28.6749H19.0029C18.3674 28.6749 17.8404 28.1479 17.8404 27.5124C17.8404 26.8769 18.3674 26.3499 19.0029 26.3499H22.8778C26.8768 26.3499 29.4653 23.7614 29.4653 19.7624V18.6774H27.5898C25.2493 18.6774 23.2653 16.9414 23.0793 14.7094C22.9553 13.4229 23.4205 12.1674 24.3505 11.2529C25.1255 10.447 26.2258 9.99747 27.3883 9.99747H29.4498V8.91246C29.4498 5.28547 27.3265 2.78996 23.8855 2.38696C23.5135 2.32496 23.1878 2.32499 22.8623 2.32499H8.91246C8.54046 2.32499 8.18394 2.35597 7.82745 2.40247C4.41746 2.83647 2.32499 5.31647 2.32499 8.91246V12.0124C2.32499 12.6479 1.79799 13.1749 1.16249 13.1749C0.526997 13.1749 0 12.6479 0 12.0124V8.91246C0 4.13848 2.94505 0.682012 7.51752 0.108515C7.93602 0.0465152 8.41646 0 8.91246 0H22.8623C23.2343 0 23.7148 0.0154998 24.2108 0.0929995C28.7833 0.619997 31.7748 4.09198 31.7748 8.91246V11.16C31.7748 11.7954 31.2478 12.3224 30.6123 12.3224H27.3883C26.8458 12.3224 26.35 12.5239 25.9935 12.8959C25.544 13.3299 25.3268 13.9189 25.3888 14.5079C25.4663 15.5309 26.4585 16.3524 27.5745 16.3524H30.6278C31.2633 16.3524 31.7903 16.8794 31.7903 17.5149V19.7624C31.7903 25.0944 28.2098 28.6749 22.8778 28.6749Z" fill="#35CDD2"/>
</svg>
