<svg width="150" height="22" viewBox="0 0 150 22" fill="none" xmlns="http://www.w3.org/2000/svg">
<path d="M21.3457 6.04806V7.10392C20.7391 6.3184 19.6161 5.77773 18.3154 5.77773C15.2412 5.77773 12.9534 8.49709 12.9534 11.6901C12.9534 14.9731 15.2181 17.6023 18.3154 17.6023C19.6161 17.6023 20.7391 17.0849 21.3457 16.2531V17.3112H25.174V6.04806H21.3457ZM26.5069 1.05762V17.3135H30.4782V11.3065C30.4782 10.1375 31.0386 9.43973 31.9357 9.43973C32.8328 9.43973 33.3056 10.0474 33.3056 11.1702V17.3135H37.2584V10.2322C37.2584 7.48975 35.7778 5.78004 33.3978 5.78004C32.8313 5.7594 32.2679 5.87292 31.7534 6.11137C31.2389 6.34983 30.7878 6.70652 30.4367 7.15243V1.05993L26.5069 1.05762ZM62.8364 11.6854C62.8364 15.0586 60.2558 17.5977 56.8219 17.5977C53.3879 17.5977 50.8073 15.0563 50.8073 11.6854C50.8073 8.31456 53.3879 5.77314 56.8219 5.77314C60.2558 5.77314 62.8364 8.31456 62.8364 11.6854ZM50.1339 11.6854C50.1339 15.0586 47.5532 17.5977 44.1216 17.5977C40.6901 17.5977 38.1071 15.0563 38.1071 11.6854C38.1071 8.31456 40.6878 5.77314 44.1216 5.77314C47.5555 5.77314 50.1339 8.31456 50.1339 11.6854ZM0.117188 6.04344L4.91868 17.3967L3.19134 21.4884H7.40936L13.8045 6.04344H9.60025L6.99656 12.6534L4.41593 6.04344H0.117188ZM19.1225 14.0004C18.8165 14.0072 18.5122 13.9524 18.2278 13.839C17.9433 13.7257 17.6847 13.5562 17.4669 13.3407C17.2492 13.1251 17.0769 12.8679 16.9604 12.5844C16.8439 12.3008 16.7855 11.9967 16.7886 11.6901C16.7858 11.3835 16.8444 11.0795 16.961 10.7961C17.0777 10.5126 17.2499 10.2556 17.4676 10.0401C17.6853 9.82464 17.9439 9.65517 18.2282 9.54171C18.5124 9.42826 18.8165 9.37314 19.1225 9.37965C19.4263 9.37625 19.7277 9.43369 20.0091 9.54859C20.2904 9.6635 20.546 9.83355 20.7608 10.0488C20.9756 10.264 21.1454 10.52 21.2601 10.8019C21.3748 11.0838 21.4321 11.3857 21.4287 11.6901C21.4324 11.9945 21.3754 12.2966 21.2608 12.5786C21.1462 12.8606 20.9764 13.1167 20.7615 13.3321C20.5467 13.5473 20.2909 13.7174 20.0095 13.8322C19.7279 13.9469 19.4264 14.0042 19.1225 14.0004ZM46.3655 11.6901C46.3727 11.3918 46.3198 11.0951 46.2098 10.8179C46.0998 10.5406 45.9352 10.2884 45.7257 10.0764C45.5163 9.86435 45.2662 9.69684 44.9905 9.58387C44.715 9.47091 44.4195 9.41478 44.1216 9.41892C43.8238 9.41478 43.5283 9.47091 43.2527 9.58387C42.9771 9.69684 42.727 9.86435 42.5176 10.0764C42.308 10.2884 42.1434 10.5406 42.0335 10.8179C41.9235 11.0951 41.8705 11.3918 41.8778 11.6901C41.8705 11.9883 41.9235 12.2849 42.0335 12.5622C42.1434 12.8395 42.308 13.0916 42.5176 13.3037C42.727 13.5157 42.9771 13.6833 43.2527 13.7962C43.5283 13.9092 43.8238 13.9653 44.1216 13.9612C44.4195 13.9653 44.715 13.9092 44.9905 13.7962C45.2662 13.6833 45.5163 13.5157 45.7257 13.3037C45.9352 13.0916 46.0998 12.8395 46.2098 12.5622C46.3198 12.2849 46.3727 11.9883 46.3655 11.6901ZM59.0658 11.6901C59.0729 11.3918 59.0199 11.0951 58.9101 10.8179C58.8001 10.5406 58.6354 10.2884 58.426 10.0764C58.2164 9.86435 57.9664 9.69684 57.6908 9.58387C57.4151 9.47091 57.1196 9.41478 56.8219 9.41892C56.5241 9.41478 56.2286 9.47091 55.9529 9.58387C55.6772 9.69684 55.4273 9.86435 55.2177 10.0764C55.0082 10.2884 54.8436 10.5406 54.7336 10.8179C54.6238 11.0951 54.5708 11.3918 54.5779 11.6901C54.5708 11.9883 54.6238 12.2849 54.7336 12.5622C54.8436 12.8395 55.0082 13.0916 55.2177 13.3037C55.4273 13.5157 55.6772 13.6833 55.9529 13.7962C56.2286 13.9092 56.5241 13.9653 56.8219 13.9612C57.1196 13.9653 57.4151 13.9092 57.6908 13.7962C57.9664 13.6833 58.2164 13.5157 58.426 13.3037C58.6354 13.0916 58.8001 12.8395 58.9101 12.5622C59.0199 12.2849 59.0729 11.9883 59.0658 11.6901ZM63.3299 14.9246C63.3262 15.2651 63.3904 15.603 63.5188 15.9184C63.6472 16.2337 63.8371 16.5202 64.0775 16.7609C64.3178 17.0017 64.6038 17.1921 64.9186 17.3207C65.2334 17.4493 65.5706 17.5136 65.9106 17.51C66.262 17.5127 66.6105 17.4453 66.9358 17.3119C67.261 17.1785 67.5565 16.9815 67.805 16.7325C68.0536 16.4835 68.2502 16.1874 68.3835 15.8616C68.5167 15.5358 68.5839 15.1866 68.5812 14.8345C68.587 14.4933 68.5244 14.1545 68.3968 13.8382C68.2692 13.5218 68.0793 13.2344 67.8385 12.9931C67.5977 12.7519 67.3108 12.5617 66.995 12.4339C66.6793 12.306 66.341 12.2432 66.0005 12.2491C65.6483 12.2467 65.2992 12.3143 64.9734 12.4479C64.6474 12.5814 64.3512 12.7784 64.1018 13.0274C63.8523 13.2764 63.6547 13.5726 63.5202 13.8986C63.3858 14.2246 63.3171 14.5741 63.3184 14.9269L63.3299 14.9246ZM68.9848 1.06224L64.7667 11.2672H69.4783L73.6963 1.05762L68.9848 1.06224Z" fill="#5A00C7"/>
<path d="M79.0458 5.81804C79.0458 4.62357 79.7884 4.10372 80.7339 4.10372C81.162 4.10021 81.5852 4.19341 81.9723 4.37636V0.970841C81.3476 0.700481 80.6716 0.569602 79.9913 0.587308C76.8157 0.587308 74.9476 2.54883 74.9476 5.72793V6.09068H73.4395V9.40608H74.9476V17.3677H79.0458V9.40608H81.8132V6.09068H79.0458V5.81804ZM87.3481 17.37V6.09297H83.2339V17.37H87.3481ZM87.5949 2.77755C87.5864 2.17042 87.3397 1.59105 86.9081 1.16474C86.4764 0.738425 85.8948 0.499452 85.2886 0.499512C84.6825 0.499452 84.1007 0.738425 83.6692 1.16474C83.2376 1.59105 82.9909 2.17042 82.9824 2.77755C82.9909 3.38469 83.2376 3.96407 83.6692 4.39038C84.1007 4.81669 84.6825 5.05566 85.2886 5.0556C85.8948 5.05566 86.4764 4.81669 86.9081 4.39038C87.3397 3.96407 87.5864 3.38469 87.5949 2.77755ZM109.838 6.09297V7.28745C109.147 6.31708 107.926 5.77644 106.575 5.77644C103.512 5.77644 101.284 8.41491 101.284 11.7303C101.284 15.0457 103.489 17.6842 106.575 17.6842C107.926 17.6842 109.112 17.1435 109.838 16.1732V17.37H113.892V6.09297H109.838ZM109.952 11.7303C109.95 12.0332 109.891 12.3329 109.773 12.612C109.656 12.8911 109.485 13.1441 109.269 13.3562C109.053 13.5682 108.797 13.7352 108.517 13.8471C108.236 13.9591 107.936 14.0139 107.633 14.0084C107.331 14.0142 107.03 13.9596 106.749 13.8477C106.469 13.736 106.213 13.5691 105.996 13.3571C105.78 13.145 105.608 12.8919 105.492 12.6125C105.374 12.3333 105.313 12.0334 105.313 11.7303C105.313 11.4274 105.374 11.1274 105.492 10.8481C105.608 10.5688 105.78 10.3158 105.996 10.1037C106.213 9.89157 106.469 9.72474 106.749 9.6129C107.03 9.50106 107.331 9.44645 107.633 9.45229C107.936 9.44676 108.236 9.5016 108.517 9.61358C108.797 9.72556 109.053 9.89245 109.269 10.1045C109.485 10.3166 109.656 10.5695 109.773 10.8487C109.891 11.1279 109.95 11.4276 109.952 11.7303ZM122.587 17.3677H126.706V10.2055C126.706 7.45379 125.197 5.76259 122.785 5.76259C121.457 5.76259 120.375 6.32633 119.722 7.37987V6.07218H115.606V17.3492H119.727V11.3422C119.727 10.187 120.29 9.49389 121.189 9.49389C122.089 9.49389 122.587 10.1269 122.587 11.2081V17.3677ZM96.0424 17.3677H100.164V10.2055C100.164 7.45379 98.6554 5.76259 96.243 5.76259C94.9147 5.76259 93.8353 6.32633 93.1804 7.37987V6.07218H89.0639V17.3492H93.1827V11.3422C93.1827 10.187 93.7454 9.49389 94.6471 9.49389C95.5489 9.49389 96.0309 10.1269 96.0309 11.2081L96.0424 17.3677ZM127.831 11.728C127.831 15.3831 130.444 17.6819 133.843 17.6819C134.78 17.686 135.705 17.4699 136.544 17.0512V13.3061C135.95 13.7437 135.233 13.9807 134.496 13.983C133.055 13.983 131.996 13.0819 131.996 11.728C131.996 10.3741 133.078 9.47307 134.496 9.47307C135.226 9.47382 135.939 9.69351 136.544 10.1038V6.36098C135.719 5.97546 134.82 5.77518 133.91 5.77415C130.354 5.77415 127.831 8.27629 127.831 11.728ZM145.211 13.5555C145.004 13.8571 144.724 14.1004 144.397 14.2623C144.07 14.4241 143.707 14.499 143.343 14.4797C142.263 14.4797 141.385 13.7866 141.318 12.7654H149.085C149.114 12.4806 149.129 12.1946 149.129 11.9083C149.129 8.2116 146.742 5.77415 143.276 5.77415C142.488 5.75845 141.705 5.90228 140.974 6.19709C140.243 6.4919 139.579 6.9316 139.021 7.48978C138.464 8.04795 138.026 8.71311 137.732 9.44537C137.437 10.1776 137.294 10.9619 137.309 11.7512C137.309 15.3368 139.65 17.6819 143.32 17.6819C145.796 17.6819 147.643 16.7346 148.723 14.9094L145.211 13.5555ZM141.339 10.4204C141.429 9.49619 142.217 8.88625 143.253 8.88625C144.288 8.88625 145.053 9.49619 145.144 10.4204H141.339Z" fill="white"/>
</svg>
